%TF.GenerationSoftware,KiCad,Pcbnew,8.0.6*%
%TF.CreationDate,2025-06-01T11:12:23+01:00*%
%TF.ProjectId,Leo_Cansat,4c656f5f-4361-46e7-9361-742e6b696361,rev?*%
%TF.SameCoordinates,Original*%
%TF.FileFunction,Soldermask,Bot*%
%TF.FilePolarity,Negative*%
%FSLAX46Y46*%
G04 Gerber Fmt 4.6, Leading zero omitted, Abs format (unit mm)*
G04 Created by KiCad (PCBNEW 8.0.6) date 2025-06-01 11:12:23*
%MOMM*%
%LPD*%
G01*
G04 APERTURE LIST*
G04 Aperture macros list*
%AMRoundRect*
0 Rectangle with rounded corners*
0 $1 Rounding radius*
0 $2 $3 $4 $5 $6 $7 $8 $9 X,Y pos of 4 corners*
0 Add a 4 corners polygon primitive as box body*
4,1,4,$2,$3,$4,$5,$6,$7,$8,$9,$2,$3,0*
0 Add four circle primitives for the rounded corners*
1,1,$1+$1,$2,$3*
1,1,$1+$1,$4,$5*
1,1,$1+$1,$6,$7*
1,1,$1+$1,$8,$9*
0 Add four rect primitives between the rounded corners*
20,1,$1+$1,$2,$3,$4,$5,0*
20,1,$1+$1,$4,$5,$6,$7,0*
20,1,$1+$1,$6,$7,$8,$9,0*
20,1,$1+$1,$8,$9,$2,$3,0*%
G04 Aperture macros list end*
%ADD10C,2.000000*%
%ADD11R,1.524000X1.524000*%
%ADD12C,1.524000*%
%ADD13C,4.400000*%
%ADD14O,3.048800X1.626400*%
%ADD15C,2.200000*%
%ADD16C,1.500000*%
%ADD17C,3.500000*%
%ADD18C,1.778000*%
%ADD19O,1.800000X1.800000*%
%ADD20O,1.500000X1.500000*%
%ADD21O,1.700000X1.700000*%
%ADD22R,1.700000X1.700000*%
%ADD23R,2.000000X1.500000*%
%ADD24RoundRect,0.250000X0.350000X0.625000X-0.350000X0.625000X-0.350000X-0.625000X0.350000X-0.625000X0*%
%ADD25O,1.200000X1.750000*%
G04 APERTURE END LIST*
D10*
%TO.C,U7*%
X129042500Y-168082500D03*
X129042500Y-165542500D03*
X129042500Y-163002500D03*
X129042500Y-160462500D03*
X129042500Y-157922500D03*
X129042500Y-155382500D03*
X129042500Y-152842500D03*
X113802500Y-168082500D03*
X113802500Y-165542500D03*
X113802500Y-163002500D03*
X113802500Y-160462500D03*
X113802500Y-157922500D03*
X113802500Y-155382500D03*
X113802500Y-152842500D03*
%TD*%
D11*
%TO.C,U5*%
X126080000Y-146810000D03*
D12*
X126080000Y-144270000D03*
X126080000Y-141730000D03*
X126080000Y-139190000D03*
%TD*%
D13*
%TO.C,H4*%
X132000000Y-172000000D03*
%TD*%
D14*
%TO.C,U2*%
X86570000Y-81770000D03*
X86570000Y-84310000D03*
X86570000Y-86850000D03*
X86570000Y-89390000D03*
X86570000Y-91930000D03*
X86570000Y-94470000D03*
X86570000Y-97010000D03*
X86570000Y-99550000D03*
X109430000Y-99550000D03*
X109430000Y-97010000D03*
X109430000Y-94470000D03*
X109430000Y-91930000D03*
X109430000Y-89390000D03*
X109430000Y-86850000D03*
X109430000Y-84310000D03*
X109430000Y-81770000D03*
%TD*%
D15*
%TO.C,SW1*%
X130800000Y-106000000D03*
X122200000Y-106000000D03*
D16*
X128500000Y-106000000D03*
X126500000Y-106000000D03*
X124500000Y-106000000D03*
%TD*%
D13*
%TO.C,H1*%
X78500000Y-78000000D03*
%TD*%
D17*
%TO.C,U6*%
X116305000Y-113210000D03*
X116305000Y-133530000D03*
X129005000Y-113210000D03*
X129005000Y-133530000D03*
D18*
X129005000Y-129720000D03*
X129005000Y-127180000D03*
X129005000Y-124640000D03*
X129005000Y-122100000D03*
X129005000Y-119560000D03*
X129005000Y-117020000D03*
X116305000Y-117020000D03*
X116305000Y-119560000D03*
X116305000Y-122100000D03*
X116305000Y-124640000D03*
X116305000Y-127180000D03*
X116305000Y-129720000D03*
%TD*%
D13*
%TO.C,H3*%
X78500000Y-172000000D03*
%TD*%
D19*
%TO.C,U1*%
X100335000Y-171850000D03*
D20*
X100035000Y-168820000D03*
X95185000Y-168820000D03*
D19*
X94885000Y-171850000D03*
D21*
X106500000Y-171980000D03*
X106500000Y-169440000D03*
D22*
X106500000Y-166900000D03*
D21*
X106500000Y-164360000D03*
X106500000Y-161820000D03*
X106500000Y-159280000D03*
X106500000Y-156740000D03*
D22*
X106500000Y-154200000D03*
D21*
X106500000Y-151660000D03*
X106500000Y-149120000D03*
X106500000Y-146580000D03*
X106500000Y-144040000D03*
D22*
X106500000Y-141500000D03*
D21*
X106500000Y-138960000D03*
X106500000Y-136420000D03*
X106500000Y-133880000D03*
X106500000Y-131340000D03*
D22*
X106500000Y-128800000D03*
D21*
X106500000Y-126260000D03*
X106500000Y-123720000D03*
X88720000Y-123720000D03*
X88720000Y-126260000D03*
D22*
X88720000Y-128800000D03*
D21*
X88720000Y-131340000D03*
X88720000Y-133880000D03*
X88720000Y-136420000D03*
X88720000Y-138960000D03*
D22*
X88720000Y-141500000D03*
D21*
X88720000Y-144040000D03*
X88720000Y-146580000D03*
X88720000Y-149120000D03*
X88720000Y-151660000D03*
D22*
X88720000Y-154200000D03*
D21*
X88720000Y-156740000D03*
X88720000Y-159280000D03*
X88720000Y-161820000D03*
X88720000Y-164360000D03*
D22*
X88720000Y-166900000D03*
D21*
X88720000Y-169440000D03*
X88720000Y-171980000D03*
X100150000Y-123950000D03*
D22*
X97610000Y-123950000D03*
D21*
X95070000Y-123950000D03*
%TD*%
D13*
%TO.C,H2*%
X132000000Y-78000000D03*
%TD*%
D23*
%TO.C,U3*%
X105500000Y-102500000D03*
X105500000Y-104500000D03*
X105500000Y-106500000D03*
X105500000Y-108500000D03*
X105500000Y-110500000D03*
X105500000Y-112500000D03*
X105500000Y-114500000D03*
X105500000Y-116500000D03*
X89500000Y-116500000D03*
X89500000Y-114500000D03*
X89500000Y-112500000D03*
X89500000Y-110500000D03*
X89500000Y-108500000D03*
X89500000Y-106500000D03*
X89500000Y-104500000D03*
X89500000Y-102500000D03*
%TD*%
D22*
%TO.C,U4*%
X80000000Y-145200000D03*
D21*
X80000000Y-142660000D03*
X80000000Y-140120000D03*
X80000000Y-137580000D03*
X80000000Y-135040000D03*
X80000000Y-132500000D03*
X80000000Y-129960000D03*
X80000000Y-127420000D03*
%TD*%
D24*
%TO.C,BT1*%
X117000000Y-106000000D03*
D25*
X115000000Y-106000000D03*
%TD*%
M02*
