%TF.GenerationSoftware,KiCad,Pcbnew,8.0.6*%
%TF.CreationDate,2025-06-01T11:12:23+01:00*%
%TF.ProjectId,Leo_Cansat,4c656f5f-4361-46e7-9361-742e6b696361,rev?*%
%TF.SameCoordinates,Original*%
%TF.FileFunction,Copper,L2,Inr*%
%TF.FilePolarity,Positive*%
%FSLAX46Y46*%
G04 Gerber Fmt 4.6, Leading zero omitted, Abs format (unit mm)*
G04 Created by KiCad (PCBNEW 8.0.6) date 2025-06-01 11:12:23*
%MOMM*%
%LPD*%
G01*
G04 APERTURE LIST*
G04 Aperture macros list*
%AMRoundRect*
0 Rectangle with rounded corners*
0 $1 Rounding radius*
0 $2 $3 $4 $5 $6 $7 $8 $9 X,Y pos of 4 corners*
0 Add a 4 corners polygon primitive as box body*
4,1,4,$2,$3,$4,$5,$6,$7,$8,$9,$2,$3,0*
0 Add four circle primitives for the rounded corners*
1,1,$1+$1,$2,$3*
1,1,$1+$1,$4,$5*
1,1,$1+$1,$6,$7*
1,1,$1+$1,$8,$9*
0 Add four rect primitives between the rounded corners*
20,1,$1+$1,$2,$3,$4,$5,0*
20,1,$1+$1,$4,$5,$6,$7,0*
20,1,$1+$1,$6,$7,$8,$9,0*
20,1,$1+$1,$8,$9,$2,$3,0*%
G04 Aperture macros list end*
%TA.AperFunction,ComponentPad*%
%ADD10C,2.000000*%
%TD*%
%TA.AperFunction,ComponentPad*%
%ADD11R,1.524000X1.524000*%
%TD*%
%TA.AperFunction,ComponentPad*%
%ADD12C,1.524000*%
%TD*%
%TA.AperFunction,ComponentPad*%
%ADD13C,4.400000*%
%TD*%
%TA.AperFunction,ComponentPad*%
%ADD14O,2.844800X1.422400*%
%TD*%
%TA.AperFunction,ComponentPad*%
%ADD15C,2.200000*%
%TD*%
%TA.AperFunction,ComponentPad*%
%ADD16C,1.500000*%
%TD*%
%TA.AperFunction,ComponentPad*%
%ADD17C,3.500000*%
%TD*%
%TA.AperFunction,ComponentPad*%
%ADD18C,1.778000*%
%TD*%
%TA.AperFunction,ComponentPad*%
%ADD19O,1.700000X1.700000*%
%TD*%
%TA.AperFunction,ComponentPad*%
%ADD20R,1.700000X1.700000*%
%TD*%
%TA.AperFunction,ComponentPad*%
%ADD21RoundRect,0.250000X0.350000X0.625000X-0.350000X0.625000X-0.350000X-0.625000X0.350000X-0.625000X0*%
%TD*%
%TA.AperFunction,ComponentPad*%
%ADD22O,1.200000X1.750000*%
%TD*%
%TA.AperFunction,ViaPad*%
%ADD23C,0.600000*%
%TD*%
G04 APERTURE END LIST*
D10*
%TO.N,N/C*%
%TO.C,U7*%
X129042500Y-168082500D03*
%TO.N,GND*%
X129042500Y-165542500D03*
%TO.N,+3V3*%
X129042500Y-163002500D03*
%TO.N,/MOSI*%
X129042500Y-160462500D03*
%TO.N,/MISO*%
X129042500Y-157922500D03*
%TO.N,/SCK*%
X129042500Y-155382500D03*
%TO.N,N/C*%
X129042500Y-152842500D03*
X113802500Y-168082500D03*
X113802500Y-165542500D03*
X113802500Y-163002500D03*
X113802500Y-160462500D03*
X113802500Y-157922500D03*
X113802500Y-155382500D03*
%TO.N,/SDCS*%
X113802500Y-152842500D03*
%TD*%
D11*
%TO.N,+3V3*%
%TO.C,U5*%
X126080000Y-146810000D03*
D12*
%TO.N,/SDA*%
X126080000Y-144270000D03*
%TO.N,GND*%
X126080000Y-141730000D03*
%TO.N,/SCL*%
X126080000Y-139190000D03*
%TD*%
D13*
%TO.N,GND*%
%TO.C,H4*%
X132000000Y-172000000D03*
%TD*%
D14*
%TO.N,unconnected-(U2-5V-PadP$1)*%
%TO.C,U2*%
X86570000Y-81770000D03*
%TO.N,GND*%
X86570000Y-84310000D03*
%TO.N,unconnected-(U2-IO12-PadP$3)*%
X86570000Y-86850000D03*
%TO.N,unconnected-(U2-IO13-PadP$4)*%
X86570000Y-89390000D03*
%TO.N,unconnected-(U2-IO15-PadP$5)*%
X86570000Y-91930000D03*
%TO.N,unconnected-(U2-IO14-PadP$6)*%
X86570000Y-94470000D03*
%TO.N,unconnected-(U2-IO2-PadP$7)*%
X86570000Y-97010000D03*
%TO.N,unconnected-(U2-IO4-PadP$8)*%
X86570000Y-99550000D03*
%TO.N,unconnected-(U2-.GND-PadP$9)*%
X109430000Y-99550000D03*
%TO.N,unconnected-(U2-IO1{slash}U0T-PadP$10)*%
X109430000Y-97010000D03*
%TO.N,unconnected-(U2-IO3{slash}U0R-PadP$11)*%
X109430000Y-94470000D03*
%TO.N,unconnected-(U2-3V3.-PadP$12)*%
X109430000Y-91930000D03*
%TO.N,unconnected-(U2-GND.-PadP$13)*%
X109430000Y-89390000D03*
%TO.N,unconnected-(U2-IO0-PadP$14)*%
X109430000Y-86850000D03*
%TO.N,unconnected-(U2-IO16-PadP$15)*%
X109430000Y-84310000D03*
%TO.N,+3V3*%
X109430000Y-81770000D03*
%TD*%
D15*
%TO.N,*%
%TO.C,SW1*%
X130800000Y-106000000D03*
X122200000Y-106000000D03*
D16*
%TO.N,Net-(SW1-A)*%
X128500000Y-106000000D03*
%TO.N,Net-(BT1-+)*%
X126500000Y-106000000D03*
%TO.N,unconnected-(SW1-C-Pad3)*%
X124500000Y-106000000D03*
%TD*%
D13*
%TO.N,GND*%
%TO.C,H1*%
X78500000Y-78000000D03*
%TD*%
D17*
%TO.N,*%
%TO.C,U6*%
X116305000Y-113210000D03*
X116305000Y-133530000D03*
X129005000Y-113210000D03*
X129005000Y-133530000D03*
D18*
%TO.N,/IMUCS*%
X129005000Y-129720000D03*
%TO.N,/MISO*%
X129005000Y-127180000D03*
%TO.N,GND*%
X129005000Y-124640000D03*
%TO.N,unconnected-(U6-AC-Pad4)*%
X129005000Y-122100000D03*
%TO.N,unconnected-(U6-AD-Pad5)*%
X129005000Y-119560000D03*
%TO.N,unconnected-(U6-FS-Pad6)*%
X129005000Y-117020000D03*
%TO.N,+3V3*%
X116305000Y-117020000D03*
%TO.N,unconnected-(U6-1V8-Pad8)*%
X116305000Y-119560000D03*
%TO.N,unconnected-(U6-GND-Pad9)*%
X116305000Y-122100000D03*
%TO.N,/SCK*%
X116305000Y-124640000D03*
%TO.N,/MOSI*%
X116305000Y-127180000D03*
%TO.N,unconnected-(U6-INT-Pad12)*%
X116305000Y-129720000D03*
%TD*%
D13*
%TO.N,GND*%
%TO.C,H3*%
X78500000Y-172000000D03*
%TD*%
D19*
%TO.N,unconnected-(U1-GPIO0-Pad1)*%
%TO.C,U1*%
X106500000Y-171980000D03*
%TO.N,unconnected-(U1-GPIO1-Pad2)*%
X106500000Y-169440000D03*
D20*
%TO.N,GND*%
X106500000Y-166900000D03*
D19*
%TO.N,unconnected-(U1-GPIO2-Pad4)*%
X106500000Y-164360000D03*
%TO.N,unconnected-(U1-GPIO3-Pad5)*%
X106500000Y-161820000D03*
%TO.N,/SDA*%
X106500000Y-159280000D03*
%TO.N,/SCL*%
X106500000Y-156740000D03*
D20*
%TO.N,GND*%
X106500000Y-154200000D03*
D19*
%TO.N,/SDCS*%
X106500000Y-151660000D03*
%TO.N,unconnected-(U1-GPIO7-Pad10)*%
X106500000Y-149120000D03*
%TO.N,unconnected-(U1-GPIO8-Pad11)*%
X106500000Y-146580000D03*
%TO.N,unconnected-(U1-GPIO9-Pad12)*%
X106500000Y-144040000D03*
D20*
%TO.N,GND*%
X106500000Y-141500000D03*
D19*
%TO.N,unconnected-(U1-GPIO10-Pad14)*%
X106500000Y-138960000D03*
%TO.N,/IMUCS*%
X106500000Y-136420000D03*
%TO.N,unconnected-(U1-GPIO12-Pad16)*%
X106500000Y-133880000D03*
%TO.N,unconnected-(U1-GPIO13-Pad17)*%
X106500000Y-131340000D03*
D20*
%TO.N,GND*%
X106500000Y-128800000D03*
D19*
%TO.N,unconnected-(U1-GPIO14-Pad19)*%
X106500000Y-126260000D03*
%TO.N,/LORACS*%
X106500000Y-123720000D03*
%TO.N,/MISO*%
X88720000Y-123720000D03*
%TO.N,unconnected-(U1-GPIO17-Pad22)*%
X88720000Y-126260000D03*
D20*
%TO.N,GND*%
X88720000Y-128800000D03*
D19*
%TO.N,/SCK*%
X88720000Y-131340000D03*
%TO.N,/MOSI*%
X88720000Y-133880000D03*
%TO.N,unconnected-(U1-GPIO20-Pad26)*%
X88720000Y-136420000D03*
%TO.N,unconnected-(U1-GPIO21-Pad27)*%
X88720000Y-138960000D03*
D20*
%TO.N,GND*%
X88720000Y-141500000D03*
D19*
%TO.N,unconnected-(U1-GPIO22-Pad29)*%
X88720000Y-144040000D03*
%TO.N,unconnected-(U1-RUN-Pad30)*%
X88720000Y-146580000D03*
%TO.N,unconnected-(U1-GPIO26_ADC0-Pad31)*%
X88720000Y-149120000D03*
%TO.N,unconnected-(U1-GPIO27_ADC1-Pad32)*%
X88720000Y-151660000D03*
D20*
%TO.N,unconnected-(U1-AGND-Pad33)*%
X88720000Y-154200000D03*
D19*
%TO.N,unconnected-(U1-GPIO28_ADC2-Pad34)*%
X88720000Y-156740000D03*
%TO.N,unconnected-(U1-ADC_VREF-Pad35)*%
X88720000Y-159280000D03*
%TO.N,+3V3*%
X88720000Y-161820000D03*
%TO.N,unconnected-(U1-3V3_EN-Pad37)*%
X88720000Y-164360000D03*
D20*
%TO.N,GND*%
X88720000Y-166900000D03*
D19*
%TO.N,Net-(SW1-A)*%
X88720000Y-169440000D03*
%TO.N,unconnected-(U1-VBUS-Pad40)*%
X88720000Y-171980000D03*
%TO.N,unconnected-(U1-SWCLK-Pad41)*%
X100150000Y-123950000D03*
D20*
%TO.N,GND*%
X97610000Y-123950000D03*
D19*
%TO.N,unconnected-(U1-SWDIO-Pad43)*%
X95070000Y-123950000D03*
%TD*%
D13*
%TO.N,GND*%
%TO.C,H2*%
X132000000Y-78000000D03*
%TD*%
D20*
%TO.N,/SDA*%
%TO.C,U4*%
X80000000Y-145200000D03*
D19*
%TO.N,/SCL*%
X80000000Y-142660000D03*
%TO.N,unconnected-(U4-TXD-Pad3)*%
X80000000Y-140120000D03*
%TO.N,unconnected-(U4-RXD-Pad4)*%
X80000000Y-137580000D03*
%TO.N,unconnected-(U4-TIMEPULSE-Pad5)*%
X80000000Y-135040000D03*
%TO.N,unconnected-(U4-NC-Pad6)*%
X80000000Y-132500000D03*
%TO.N,GND*%
X80000000Y-129960000D03*
%TO.N,+3V3*%
X80000000Y-127420000D03*
%TD*%
D21*
%TO.N,Net-(BT1-+)*%
%TO.C,BT1*%
X117000000Y-106000000D03*
D22*
%TO.N,GND*%
X115000000Y-106000000D03*
%TD*%
D23*
%TO.N,GND*%
X105500000Y-104500000D03*
X89500000Y-102500000D03*
X89500000Y-116500000D03*
%TO.N,+3V3*%
X105500000Y-106500000D03*
%TD*%
%TA.AperFunction,Conductor*%
%TO.N,GND*%
G36*
X129264916Y-77519685D02*
G01*
X129310671Y-77572489D01*
X129320615Y-77641647D01*
X129319846Y-77646351D01*
X129314786Y-77673960D01*
X129295065Y-78000000D01*
X129314786Y-78326038D01*
X129373667Y-78647341D01*
X129470835Y-78959164D01*
X129470839Y-78959175D01*
X129604897Y-79257041D01*
X129604898Y-79257043D01*
X129773881Y-79536576D01*
X129921476Y-79724968D01*
X131063708Y-78582736D01*
X131160967Y-78716602D01*
X131283398Y-78839033D01*
X131417262Y-78936290D01*
X130275030Y-80078522D01*
X130275030Y-80078523D01*
X130463423Y-80226118D01*
X130742956Y-80395101D01*
X130742958Y-80395102D01*
X131040824Y-80529160D01*
X131040835Y-80529164D01*
X131352658Y-80626332D01*
X131673961Y-80685213D01*
X132000000Y-80704934D01*
X132326041Y-80685213D01*
X132353645Y-80680154D01*
X132423135Y-80687430D01*
X132477660Y-80731120D01*
X132499908Y-80797352D01*
X132500000Y-80802122D01*
X132500000Y-105298462D01*
X132480315Y-105365501D01*
X132427511Y-105411256D01*
X132358353Y-105421200D01*
X132294797Y-105392175D01*
X132261439Y-105345915D01*
X132230466Y-105271140D01*
X132098839Y-105056346D01*
X132098838Y-105056343D01*
X132045220Y-104993565D01*
X131935224Y-104864776D01*
X131794660Y-104744723D01*
X131743656Y-104701161D01*
X131743653Y-104701160D01*
X131528859Y-104569533D01*
X131296110Y-104473126D01*
X131051151Y-104414317D01*
X130800000Y-104394551D01*
X130548848Y-104414317D01*
X130303889Y-104473126D01*
X130071140Y-104569533D01*
X129856346Y-104701160D01*
X129856343Y-104701161D01*
X129664776Y-104864776D01*
X129507047Y-105049452D01*
X129448540Y-105087645D01*
X129378672Y-105088143D01*
X129325076Y-105056601D01*
X129306881Y-105038406D01*
X129306877Y-105038402D01*
X129127639Y-104912898D01*
X129127640Y-104912898D01*
X129127638Y-104912897D01*
X129024441Y-104864776D01*
X128929330Y-104820425D01*
X128929326Y-104820424D01*
X128929322Y-104820422D01*
X128717977Y-104763793D01*
X128500002Y-104744723D01*
X128499998Y-104744723D01*
X128354682Y-104757436D01*
X128282023Y-104763793D01*
X128282020Y-104763793D01*
X128070677Y-104820422D01*
X128070668Y-104820426D01*
X127872361Y-104912898D01*
X127872357Y-104912900D01*
X127693124Y-105038400D01*
X127587680Y-105143844D01*
X127526357Y-105177328D01*
X127456665Y-105172344D01*
X127412318Y-105143843D01*
X127306881Y-105038406D01*
X127306877Y-105038402D01*
X127127639Y-104912898D01*
X127127640Y-104912898D01*
X127127638Y-104912897D01*
X127024441Y-104864776D01*
X126929330Y-104820425D01*
X126929326Y-104820424D01*
X126929322Y-104820422D01*
X126717977Y-104763793D01*
X126500002Y-104744723D01*
X126499998Y-104744723D01*
X126354682Y-104757436D01*
X126282023Y-104763793D01*
X126282020Y-104763793D01*
X126070677Y-104820422D01*
X126070668Y-104820426D01*
X125872361Y-104912898D01*
X125872357Y-104912900D01*
X125693124Y-105038400D01*
X125587680Y-105143844D01*
X125526357Y-105177328D01*
X125456665Y-105172344D01*
X125412318Y-105143843D01*
X125306881Y-105038406D01*
X125306877Y-105038402D01*
X125127639Y-104912898D01*
X125127640Y-104912898D01*
X125127638Y-104912897D01*
X125024441Y-104864776D01*
X124929330Y-104820425D01*
X124929326Y-104820424D01*
X124929322Y-104820422D01*
X124717977Y-104763793D01*
X124500002Y-104744723D01*
X124499998Y-104744723D01*
X124354682Y-104757436D01*
X124282023Y-104763793D01*
X124282020Y-104763793D01*
X124070677Y-104820422D01*
X124070668Y-104820426D01*
X123872361Y-104912898D01*
X123872357Y-104912900D01*
X123693119Y-105038403D01*
X123674918Y-105056604D01*
X123613594Y-105090086D01*
X123543902Y-105085099D01*
X123492951Y-105049451D01*
X123483515Y-105038403D01*
X123335224Y-104864776D01*
X123194660Y-104744723D01*
X123143656Y-104701161D01*
X123143653Y-104701160D01*
X122928859Y-104569533D01*
X122696110Y-104473126D01*
X122451151Y-104414317D01*
X122200000Y-104394551D01*
X121948848Y-104414317D01*
X121703889Y-104473126D01*
X121471140Y-104569533D01*
X121256346Y-104701160D01*
X121256343Y-104701161D01*
X121064776Y-104864776D01*
X120901161Y-105056343D01*
X120901160Y-105056346D01*
X120769533Y-105271140D01*
X120673126Y-105503889D01*
X120614317Y-105748848D01*
X120594551Y-106000000D01*
X120614317Y-106251151D01*
X120673126Y-106496110D01*
X120769533Y-106728859D01*
X120901160Y-106943653D01*
X120901161Y-106943656D01*
X120916481Y-106961593D01*
X121064776Y-107135224D01*
X121116707Y-107179577D01*
X121256343Y-107298838D01*
X121256346Y-107298839D01*
X121471140Y-107430466D01*
X121703889Y-107526873D01*
X121948852Y-107585683D01*
X122200000Y-107605449D01*
X122451148Y-107585683D01*
X122696111Y-107526873D01*
X122928859Y-107430466D01*
X123143659Y-107298836D01*
X123335224Y-107135224D01*
X123492952Y-106950547D01*
X123551458Y-106912354D01*
X123621326Y-106911855D01*
X123674923Y-106943398D01*
X123693123Y-106961598D01*
X123872361Y-107087102D01*
X124070670Y-107179575D01*
X124282023Y-107236207D01*
X124464926Y-107252208D01*
X124499998Y-107255277D01*
X124500000Y-107255277D01*
X124500002Y-107255277D01*
X124528254Y-107252805D01*
X124717977Y-107236207D01*
X124929330Y-107179575D01*
X125127639Y-107087102D01*
X125306877Y-106961598D01*
X125412319Y-106856156D01*
X125473642Y-106822671D01*
X125543334Y-106827655D01*
X125587681Y-106856156D01*
X125693123Y-106961598D01*
X125872361Y-107087102D01*
X126070670Y-107179575D01*
X126282023Y-107236207D01*
X126464926Y-107252208D01*
X126499998Y-107255277D01*
X126500000Y-107255277D01*
X126500002Y-107255277D01*
X126528254Y-107252805D01*
X126717977Y-107236207D01*
X126929330Y-107179575D01*
X127127639Y-107087102D01*
X127306877Y-106961598D01*
X127412319Y-106856156D01*
X127473642Y-106822671D01*
X127543334Y-106827655D01*
X127587681Y-106856156D01*
X127693123Y-106961598D01*
X127872361Y-107087102D01*
X128070670Y-107179575D01*
X128282023Y-107236207D01*
X128464926Y-107252208D01*
X128499998Y-107255277D01*
X128500000Y-107255277D01*
X128500002Y-107255277D01*
X128528254Y-107252805D01*
X128717977Y-107236207D01*
X128929330Y-107179575D01*
X129127639Y-107087102D01*
X129306877Y-106961598D01*
X129325075Y-106943398D01*
X129386396Y-106909913D01*
X129456088Y-106914896D01*
X129507046Y-106950546D01*
X129664776Y-107135224D01*
X129716707Y-107179577D01*
X129856343Y-107298838D01*
X129856346Y-107298839D01*
X130071140Y-107430466D01*
X130303889Y-107526873D01*
X130548852Y-107585683D01*
X130800000Y-107605449D01*
X131051148Y-107585683D01*
X131296111Y-107526873D01*
X131528859Y-107430466D01*
X131743659Y-107298836D01*
X131935224Y-107135224D01*
X132098836Y-106943659D01*
X132230466Y-106728859D01*
X132251015Y-106679249D01*
X132261439Y-106654084D01*
X132305280Y-106599681D01*
X132371574Y-106577616D01*
X132439273Y-106594895D01*
X132486884Y-106646032D01*
X132500000Y-106701537D01*
X132500000Y-169197876D01*
X132480315Y-169264915D01*
X132427511Y-169310670D01*
X132358353Y-169320614D01*
X132353653Y-169319846D01*
X132326038Y-169314786D01*
X132000000Y-169295065D01*
X131673961Y-169314786D01*
X131352658Y-169373667D01*
X131040835Y-169470835D01*
X131040824Y-169470839D01*
X130742958Y-169604897D01*
X130742956Y-169604898D01*
X130463422Y-169773881D01*
X130463416Y-169773886D01*
X130275030Y-169921474D01*
X130275029Y-169921476D01*
X131417262Y-171063709D01*
X131283398Y-171160967D01*
X131160967Y-171283398D01*
X131063709Y-171417262D01*
X129921476Y-170275029D01*
X129921474Y-170275030D01*
X129773886Y-170463416D01*
X129773881Y-170463422D01*
X129604898Y-170742956D01*
X129604897Y-170742958D01*
X129470839Y-171040824D01*
X129470835Y-171040835D01*
X129373667Y-171352658D01*
X129314786Y-171673961D01*
X129295065Y-172000000D01*
X129314786Y-172326039D01*
X129319846Y-172353649D01*
X129312568Y-172423138D01*
X129268876Y-172477662D01*
X129202643Y-172499908D01*
X129197877Y-172500000D01*
X107920407Y-172500000D01*
X107853368Y-172480315D01*
X107807613Y-172427511D01*
X107797669Y-172358353D01*
X107800632Y-172343907D01*
X107810709Y-172306300D01*
X107835063Y-172215408D01*
X107855659Y-171980000D01*
X107835063Y-171744592D01*
X107773903Y-171516337D01*
X107674035Y-171302171D01*
X107589297Y-171181151D01*
X107538494Y-171108597D01*
X107371402Y-170941506D01*
X107371396Y-170941501D01*
X107185842Y-170811575D01*
X107142217Y-170756998D01*
X107135023Y-170687500D01*
X107166546Y-170625145D01*
X107185842Y-170608425D01*
X107250628Y-170563061D01*
X107371401Y-170478495D01*
X107538495Y-170311401D01*
X107674035Y-170117830D01*
X107773903Y-169903663D01*
X107835063Y-169675408D01*
X107855659Y-169440000D01*
X107835063Y-169204592D01*
X107773903Y-168976337D01*
X107674035Y-168762171D01*
X107561899Y-168602024D01*
X107538496Y-168568600D01*
X107538495Y-168568599D01*
X107416179Y-168446283D01*
X107382696Y-168384963D01*
X107387680Y-168315271D01*
X107429551Y-168259337D01*
X107460529Y-168242422D01*
X107592086Y-168193354D01*
X107592093Y-168193350D01*
X107707187Y-168107190D01*
X107707190Y-168107187D01*
X107793350Y-167992093D01*
X107793354Y-167992086D01*
X107843596Y-167857379D01*
X107843598Y-167857372D01*
X107849999Y-167797844D01*
X107850000Y-167797827D01*
X107850000Y-167150000D01*
X106944560Y-167150000D01*
X106975245Y-167096853D01*
X107010000Y-166967143D01*
X107010000Y-166832857D01*
X106975245Y-166703147D01*
X106944560Y-166650000D01*
X107850000Y-166650000D01*
X107850000Y-166002172D01*
X107849999Y-166002155D01*
X107843598Y-165942627D01*
X107843596Y-165942620D01*
X107793354Y-165807913D01*
X107793350Y-165807906D01*
X107707190Y-165692812D01*
X107707187Y-165692809D01*
X107592093Y-165606649D01*
X107592088Y-165606646D01*
X107460528Y-165557577D01*
X107404595Y-165515705D01*
X107380178Y-165450241D01*
X107395030Y-165381968D01*
X107416175Y-165353720D01*
X107538495Y-165231401D01*
X107674035Y-165037830D01*
X107773903Y-164823663D01*
X107835063Y-164595408D01*
X107855659Y-164360000D01*
X107835063Y-164124592D01*
X107773903Y-163896337D01*
X107674035Y-163682171D01*
X107538495Y-163488599D01*
X107538494Y-163488597D01*
X107371402Y-163321506D01*
X107371396Y-163321501D01*
X107185842Y-163191575D01*
X107142217Y-163136998D01*
X107135023Y-163067500D01*
X107166546Y-163005145D01*
X107185842Y-162988425D01*
X107208026Y-162972891D01*
X107371401Y-162858495D01*
X107538495Y-162691401D01*
X107674035Y-162497830D01*
X107773903Y-162283663D01*
X107835063Y-162055408D01*
X107855659Y-161820000D01*
X107835063Y-161584592D01*
X107773903Y-161356337D01*
X107674035Y-161142171D01*
X107538495Y-160948599D01*
X107538494Y-160948597D01*
X107371402Y-160781506D01*
X107371396Y-160781501D01*
X107185842Y-160651575D01*
X107142217Y-160596998D01*
X107135023Y-160527500D01*
X107166546Y-160465145D01*
X107185842Y-160448425D01*
X107208026Y-160432891D01*
X107371401Y-160318495D01*
X107538495Y-160151401D01*
X107674035Y-159957830D01*
X107773903Y-159743663D01*
X107835063Y-159515408D01*
X107855659Y-159280000D01*
X107835063Y-159044592D01*
X107773903Y-158816337D01*
X107674035Y-158602171D01*
X107538495Y-158408599D01*
X107538494Y-158408597D01*
X107371402Y-158241506D01*
X107371396Y-158241501D01*
X107185842Y-158111575D01*
X107142217Y-158056998D01*
X107135023Y-157987500D01*
X107166546Y-157925145D01*
X107185842Y-157908425D01*
X107208026Y-157892891D01*
X107371401Y-157778495D01*
X107538495Y-157611401D01*
X107674035Y-157417830D01*
X107773903Y-157203663D01*
X107835063Y-156975408D01*
X107855659Y-156740000D01*
X107835063Y-156504592D01*
X107773903Y-156276337D01*
X107674035Y-156062171D01*
X107538495Y-155868599D01*
X107416179Y-155746283D01*
X107382696Y-155684963D01*
X107387680Y-155615271D01*
X107429551Y-155559337D01*
X107460529Y-155542422D01*
X107592086Y-155493354D01*
X107592093Y-155493350D01*
X107707187Y-155407190D01*
X107707190Y-155407187D01*
X107793350Y-155292093D01*
X107793354Y-155292086D01*
X107843596Y-155157379D01*
X107843598Y-155157372D01*
X107849999Y-155097844D01*
X107850000Y-155097827D01*
X107850000Y-154450000D01*
X106944560Y-154450000D01*
X106975245Y-154396853D01*
X107010000Y-154267143D01*
X107010000Y-154132857D01*
X106975245Y-154003147D01*
X106944560Y-153950000D01*
X107850000Y-153950000D01*
X107850000Y-153302172D01*
X107849999Y-153302155D01*
X107843598Y-153242627D01*
X107843596Y-153242620D01*
X107793354Y-153107913D01*
X107793350Y-153107906D01*
X107707190Y-152992812D01*
X107707187Y-152992809D01*
X107592093Y-152906649D01*
X107592088Y-152906646D01*
X107460528Y-152857577D01*
X107440380Y-152842494D01*
X112296857Y-152842494D01*
X112296857Y-152842505D01*
X112317390Y-153090312D01*
X112317392Y-153090324D01*
X112378436Y-153331381D01*
X112478326Y-153559106D01*
X112614333Y-153767282D01*
X112614336Y-153767285D01*
X112782756Y-153950238D01*
X112865508Y-154014647D01*
X112906321Y-154071357D01*
X112909996Y-154141130D01*
X112875364Y-154201813D01*
X112865514Y-154210348D01*
X112806900Y-154255969D01*
X112782757Y-154274761D01*
X112614333Y-154457717D01*
X112478326Y-154665893D01*
X112378436Y-154893618D01*
X112317392Y-155134675D01*
X112317390Y-155134687D01*
X112296857Y-155382494D01*
X112296857Y-155382505D01*
X112317390Y-155630312D01*
X112317392Y-155630324D01*
X112378436Y-155871381D01*
X112478326Y-156099106D01*
X112614333Y-156307282D01*
X112614336Y-156307285D01*
X112782756Y-156490238D01*
X112865508Y-156554647D01*
X112906321Y-156611357D01*
X112909996Y-156681130D01*
X112875364Y-156741813D01*
X112865514Y-156750348D01*
X112806900Y-156795969D01*
X112782757Y-156814761D01*
X112614333Y-156997717D01*
X112478326Y-157205893D01*
X112378436Y-157433618D01*
X112317392Y-157674675D01*
X112317390Y-157674687D01*
X112296857Y-157922494D01*
X112296857Y-157922505D01*
X112317390Y-158170312D01*
X112317392Y-158170324D01*
X112378436Y-158411381D01*
X112478326Y-158639106D01*
X112614333Y-158847282D01*
X112614336Y-158847285D01*
X112782756Y-159030238D01*
X112865508Y-159094647D01*
X112906321Y-159151357D01*
X112909996Y-159221130D01*
X112875364Y-159281813D01*
X112865514Y-159290348D01*
X112806900Y-159335969D01*
X112782757Y-159354761D01*
X112614333Y-159537717D01*
X112478326Y-159745893D01*
X112378436Y-159973618D01*
X112317392Y-160214675D01*
X112317390Y-160214687D01*
X112296857Y-160462494D01*
X112296857Y-160462505D01*
X112317390Y-160710312D01*
X112317392Y-160710324D01*
X112378436Y-160951381D01*
X112478326Y-161179106D01*
X112614333Y-161387282D01*
X112614336Y-161387285D01*
X112782756Y-161570238D01*
X112865508Y-161634647D01*
X112906321Y-161691357D01*
X112909996Y-161761130D01*
X112875364Y-161821813D01*
X112865514Y-161830348D01*
X112806900Y-161875969D01*
X112782757Y-161894761D01*
X112614333Y-162077717D01*
X112478326Y-162285893D01*
X112378436Y-162513618D01*
X112317392Y-162754675D01*
X112317390Y-162754687D01*
X112296857Y-163002494D01*
X112296857Y-163002505D01*
X112317390Y-163250312D01*
X112317392Y-163250324D01*
X112378436Y-163491381D01*
X112478326Y-163719106D01*
X112614333Y-163927282D01*
X112614336Y-163927285D01*
X112782756Y-164110238D01*
X112865508Y-164174647D01*
X112906321Y-164231357D01*
X112909996Y-164301130D01*
X112875364Y-164361813D01*
X112865514Y-164370348D01*
X112851408Y-164381328D01*
X112782757Y-164434761D01*
X112614333Y-164617717D01*
X112478326Y-164825893D01*
X112378436Y-165053618D01*
X112317392Y-165294675D01*
X112317390Y-165294687D01*
X112296857Y-165542494D01*
X112296857Y-165542505D01*
X112317390Y-165790312D01*
X112317392Y-165790324D01*
X112378436Y-166031381D01*
X112478326Y-166259106D01*
X112614333Y-166467282D01*
X112614336Y-166467285D01*
X112782756Y-166650238D01*
X112865508Y-166714647D01*
X112906321Y-166771357D01*
X112909996Y-166841130D01*
X112875364Y-166901813D01*
X112865514Y-166910348D01*
X112806900Y-166955969D01*
X112782757Y-166974761D01*
X112614333Y-167157717D01*
X112478326Y-167365893D01*
X112378436Y-167593618D01*
X112317392Y-167834675D01*
X112317390Y-167834687D01*
X112296857Y-168082494D01*
X112296857Y-168082505D01*
X112317390Y-168330312D01*
X112317392Y-168330324D01*
X112378436Y-168571381D01*
X112478326Y-168799106D01*
X112614333Y-169007282D01*
X112614336Y-169007285D01*
X112782756Y-169190238D01*
X112978991Y-169342974D01*
X113197690Y-169461328D01*
X113432886Y-169542071D01*
X113678165Y-169583000D01*
X113926835Y-169583000D01*
X114172114Y-169542071D01*
X114407310Y-169461328D01*
X114626009Y-169342974D01*
X114822244Y-169190238D01*
X114990664Y-169007285D01*
X115126673Y-168799107D01*
X115226563Y-168571381D01*
X115287608Y-168330321D01*
X115294892Y-168242421D01*
X115308143Y-168082505D01*
X115308143Y-168082494D01*
X115287609Y-167834687D01*
X115287607Y-167834675D01*
X115226563Y-167593618D01*
X115126673Y-167365893D01*
X114990666Y-167157717D01*
X114969057Y-167134244D01*
X114822244Y-166974762D01*
X114739491Y-166910352D01*
X114698679Y-166853643D01*
X114695004Y-166783870D01*
X114729636Y-166723187D01*
X114739485Y-166714651D01*
X114822244Y-166650238D01*
X114990664Y-166467285D01*
X115126673Y-166259107D01*
X115226563Y-166031381D01*
X115287608Y-165790321D01*
X115293795Y-165715659D01*
X115308143Y-165542505D01*
X115308143Y-165542494D01*
X115287609Y-165294687D01*
X115287607Y-165294675D01*
X115226563Y-165053618D01*
X115126673Y-164825893D01*
X114990666Y-164617717D01*
X114885061Y-164503000D01*
X114822244Y-164434762D01*
X114739491Y-164370352D01*
X114698679Y-164313643D01*
X114695004Y-164243870D01*
X114729636Y-164183187D01*
X114739485Y-164174651D01*
X114822244Y-164110238D01*
X114990664Y-163927285D01*
X115126673Y-163719107D01*
X115226563Y-163491381D01*
X115287608Y-163250321D01*
X115292941Y-163185965D01*
X115308143Y-163002505D01*
X115308143Y-163002494D01*
X115287609Y-162754687D01*
X115287607Y-162754675D01*
X115226563Y-162513618D01*
X115126673Y-162285893D01*
X114990666Y-162077717D01*
X114969057Y-162054244D01*
X114822244Y-161894762D01*
X114739491Y-161830352D01*
X114698679Y-161773643D01*
X114695004Y-161703870D01*
X114729636Y-161643187D01*
X114739485Y-161634651D01*
X114822244Y-161570238D01*
X114990664Y-161387285D01*
X115126673Y-161179107D01*
X115226563Y-160951381D01*
X115287608Y-160710321D01*
X115292941Y-160645965D01*
X115308143Y-160462505D01*
X115308143Y-160462494D01*
X115287609Y-160214687D01*
X115287607Y-160214675D01*
X115226563Y-159973618D01*
X115126673Y-159745893D01*
X114990666Y-159537717D01*
X114969057Y-159514244D01*
X114822244Y-159354762D01*
X114739491Y-159290352D01*
X114698679Y-159233643D01*
X114695004Y-159163870D01*
X114729636Y-159103187D01*
X114739485Y-159094651D01*
X114822244Y-159030238D01*
X114990664Y-158847285D01*
X115126673Y-158639107D01*
X115226563Y-158411381D01*
X115287608Y-158170321D01*
X115292941Y-158105965D01*
X115308143Y-157922505D01*
X115308143Y-157922494D01*
X115287609Y-157674687D01*
X115287607Y-157674675D01*
X115226563Y-157433618D01*
X115126673Y-157205893D01*
X114990666Y-156997717D01*
X114969057Y-156974244D01*
X114822244Y-156814762D01*
X114739491Y-156750352D01*
X114698679Y-156693643D01*
X114695004Y-156623870D01*
X114729636Y-156563187D01*
X114739485Y-156554651D01*
X114822244Y-156490238D01*
X114990664Y-156307285D01*
X115126673Y-156099107D01*
X115226563Y-155871381D01*
X115287608Y-155630321D01*
X115294222Y-155550500D01*
X115308143Y-155382505D01*
X115308143Y-155382494D01*
X115287609Y-155134687D01*
X115287607Y-155134675D01*
X115226563Y-154893618D01*
X115126673Y-154665893D01*
X114990666Y-154457717D01*
X114969057Y-154434244D01*
X114822244Y-154274762D01*
X114739491Y-154210352D01*
X114698679Y-154153643D01*
X114695004Y-154083870D01*
X114729636Y-154023187D01*
X114739485Y-154014651D01*
X114822244Y-153950238D01*
X114990664Y-153767285D01*
X115126673Y-153559107D01*
X115226563Y-153331381D01*
X115287608Y-153090321D01*
X115293795Y-153015659D01*
X115308143Y-152842505D01*
X115308143Y-152842494D01*
X127536857Y-152842494D01*
X127536857Y-152842505D01*
X127557390Y-153090312D01*
X127557392Y-153090324D01*
X127618436Y-153331381D01*
X127718326Y-153559106D01*
X127854333Y-153767282D01*
X127854336Y-153767285D01*
X128022756Y-153950238D01*
X128105508Y-154014647D01*
X128146321Y-154071357D01*
X128149996Y-154141130D01*
X128115364Y-154201813D01*
X128105514Y-154210348D01*
X128046900Y-154255969D01*
X128022757Y-154274761D01*
X127854333Y-154457717D01*
X127718326Y-154665893D01*
X127618436Y-154893618D01*
X127557392Y-155134675D01*
X127557390Y-155134687D01*
X127536857Y-155382494D01*
X127536857Y-155382505D01*
X127557390Y-155630312D01*
X127557392Y-155630324D01*
X127618436Y-155871381D01*
X127718326Y-156099106D01*
X127854333Y-156307282D01*
X127854336Y-156307285D01*
X128022756Y-156490238D01*
X128105508Y-156554647D01*
X128146321Y-156611357D01*
X128149996Y-156681130D01*
X128115364Y-156741813D01*
X128105514Y-156750348D01*
X128046900Y-156795969D01*
X128022757Y-156814761D01*
X127854333Y-156997717D01*
X127718326Y-157205893D01*
X127618436Y-157433618D01*
X127557392Y-157674675D01*
X127557390Y-157674687D01*
X127536857Y-157922494D01*
X127536857Y-157922505D01*
X127557390Y-158170312D01*
X127557392Y-158170324D01*
X127618436Y-158411381D01*
X127718326Y-158639106D01*
X127854333Y-158847282D01*
X127854336Y-158847285D01*
X128022756Y-159030238D01*
X128105508Y-159094647D01*
X128146321Y-159151357D01*
X128149996Y-159221130D01*
X128115364Y-159281813D01*
X128105514Y-159290348D01*
X128046900Y-159335969D01*
X128022757Y-159354761D01*
X127854333Y-159537717D01*
X127718326Y-159745893D01*
X127618436Y-159973618D01*
X127557392Y-160214675D01*
X127557390Y-160214687D01*
X127536857Y-160462494D01*
X127536857Y-160462505D01*
X127557390Y-160710312D01*
X127557392Y-160710324D01*
X127618436Y-160951381D01*
X127718326Y-161179106D01*
X127854333Y-161387282D01*
X127854336Y-161387285D01*
X128022756Y-161570238D01*
X128105508Y-161634647D01*
X128146321Y-161691357D01*
X128149996Y-161761130D01*
X128115364Y-161821813D01*
X128105514Y-161830348D01*
X128046900Y-161875969D01*
X128022757Y-161894761D01*
X127854333Y-162077717D01*
X127718326Y-162285893D01*
X127618436Y-162513618D01*
X127557392Y-162754675D01*
X127557390Y-162754687D01*
X127536857Y-163002494D01*
X127536857Y-163002505D01*
X127557390Y-163250312D01*
X127557392Y-163250324D01*
X127618436Y-163491381D01*
X127718326Y-163719106D01*
X127854333Y-163927282D01*
X127854336Y-163927285D01*
X128022756Y-164110238D01*
X128022759Y-164110240D01*
X128022762Y-164110243D01*
X128126243Y-164190786D01*
X128167056Y-164247496D01*
X128173843Y-164296323D01*
X128172441Y-164318889D01*
X128913090Y-165059537D01*
X128849507Y-165076575D01*
X128735493Y-165142401D01*
X128642401Y-165235493D01*
X128576575Y-165349507D01*
X128559537Y-165413089D01*
X127819064Y-164672616D01*
X127718767Y-164826132D01*
X127618912Y-165053782D01*
X127557887Y-165294761D01*
X127557885Y-165294770D01*
X127537359Y-165542494D01*
X127537359Y-165542505D01*
X127557885Y-165790229D01*
X127557887Y-165790238D01*
X127618912Y-166031217D01*
X127718766Y-166258864D01*
X127819064Y-166412382D01*
X128559537Y-165671909D01*
X128576575Y-165735493D01*
X128642401Y-165849507D01*
X128735493Y-165942599D01*
X128849507Y-166008425D01*
X128913090Y-166025462D01*
X128172442Y-166766109D01*
X128173843Y-166788677D01*
X128158350Y-166856807D01*
X128126244Y-166894213D01*
X128022758Y-166974760D01*
X127854333Y-167157717D01*
X127718326Y-167365893D01*
X127618436Y-167593618D01*
X127557392Y-167834675D01*
X127557390Y-167834687D01*
X127536857Y-168082494D01*
X127536857Y-168082505D01*
X127557390Y-168330312D01*
X127557392Y-168330324D01*
X127618436Y-168571381D01*
X127718326Y-168799106D01*
X127854333Y-169007282D01*
X127854336Y-169007285D01*
X128022756Y-169190238D01*
X128218991Y-169342974D01*
X128437690Y-169461328D01*
X128672886Y-169542071D01*
X128918165Y-169583000D01*
X129166835Y-169583000D01*
X129412114Y-169542071D01*
X129647310Y-169461328D01*
X129866009Y-169342974D01*
X130062244Y-169190238D01*
X130230664Y-169007285D01*
X130366673Y-168799107D01*
X130466563Y-168571381D01*
X130527608Y-168330321D01*
X130534892Y-168242421D01*
X130548143Y-168082505D01*
X130548143Y-168082494D01*
X130527609Y-167834687D01*
X130527607Y-167834675D01*
X130466563Y-167593618D01*
X130366673Y-167365893D01*
X130230666Y-167157717D01*
X130209057Y-167134244D01*
X130062244Y-166974762D01*
X129958753Y-166894212D01*
X129917942Y-166837503D01*
X129911155Y-166788676D01*
X129912556Y-166766109D01*
X129171909Y-166025462D01*
X129235493Y-166008425D01*
X129349507Y-165942599D01*
X129442599Y-165849507D01*
X129508425Y-165735493D01*
X129525462Y-165671910D01*
X130265934Y-166412382D01*
X130366231Y-166258869D01*
X130466087Y-166031217D01*
X130527112Y-165790238D01*
X130527114Y-165790229D01*
X130547641Y-165542505D01*
X130547641Y-165542494D01*
X130527114Y-165294770D01*
X130527112Y-165294761D01*
X130466087Y-165053782D01*
X130366231Y-164826130D01*
X130265934Y-164672616D01*
X129525462Y-165413089D01*
X129508425Y-165349507D01*
X129442599Y-165235493D01*
X129349507Y-165142401D01*
X129235493Y-165076575D01*
X129171910Y-165059537D01*
X129912556Y-164318890D01*
X129911155Y-164296325D01*
X129926647Y-164228194D01*
X129958750Y-164190790D01*
X130062244Y-164110238D01*
X130230664Y-163927285D01*
X130366673Y-163719107D01*
X130466563Y-163491381D01*
X130527608Y-163250321D01*
X130532941Y-163185965D01*
X130548143Y-163002505D01*
X130548143Y-163002494D01*
X130527609Y-162754687D01*
X130527607Y-162754675D01*
X130466563Y-162513618D01*
X130366673Y-162285893D01*
X130230666Y-162077717D01*
X130209057Y-162054244D01*
X130062244Y-161894762D01*
X129979491Y-161830352D01*
X129938679Y-161773643D01*
X129935004Y-161703870D01*
X129969636Y-161643187D01*
X129979485Y-161634651D01*
X130062244Y-161570238D01*
X130230664Y-161387285D01*
X130366673Y-161179107D01*
X130466563Y-160951381D01*
X130527608Y-160710321D01*
X130532941Y-160645965D01*
X130548143Y-160462505D01*
X130548143Y-160462494D01*
X130527609Y-160214687D01*
X130527607Y-160214675D01*
X130466563Y-159973618D01*
X130366673Y-159745893D01*
X130230666Y-159537717D01*
X130209057Y-159514244D01*
X130062244Y-159354762D01*
X129979491Y-159290352D01*
X129938679Y-159233643D01*
X129935004Y-159163870D01*
X129969636Y-159103187D01*
X129979485Y-159094651D01*
X130062244Y-159030238D01*
X130230664Y-158847285D01*
X130366673Y-158639107D01*
X130466563Y-158411381D01*
X130527608Y-158170321D01*
X130532941Y-158105965D01*
X130548143Y-157922505D01*
X130548143Y-157922494D01*
X130527609Y-157674687D01*
X130527607Y-157674675D01*
X130466563Y-157433618D01*
X130366673Y-157205893D01*
X130230666Y-156997717D01*
X130209057Y-156974244D01*
X130062244Y-156814762D01*
X129979491Y-156750352D01*
X129938679Y-156693643D01*
X129935004Y-156623870D01*
X129969636Y-156563187D01*
X129979485Y-156554651D01*
X130062244Y-156490238D01*
X130230664Y-156307285D01*
X130366673Y-156099107D01*
X130466563Y-155871381D01*
X130527608Y-155630321D01*
X130534222Y-155550500D01*
X130548143Y-155382505D01*
X130548143Y-155382494D01*
X130527609Y-155134687D01*
X130527607Y-155134675D01*
X130466563Y-154893618D01*
X130366673Y-154665893D01*
X130230666Y-154457717D01*
X130209057Y-154434244D01*
X130062244Y-154274762D01*
X129979491Y-154210352D01*
X129938679Y-154153643D01*
X129935004Y-154083870D01*
X129969636Y-154023187D01*
X129979485Y-154014651D01*
X130062244Y-153950238D01*
X130230664Y-153767285D01*
X130366673Y-153559107D01*
X130466563Y-153331381D01*
X130527608Y-153090321D01*
X130533795Y-153015659D01*
X130548143Y-152842505D01*
X130548143Y-152842494D01*
X130527609Y-152594687D01*
X130527607Y-152594675D01*
X130466563Y-152353618D01*
X130366673Y-152125893D01*
X130230666Y-151917717D01*
X130209057Y-151894244D01*
X130062244Y-151734762D01*
X129866009Y-151582026D01*
X129866007Y-151582025D01*
X129866006Y-151582024D01*
X129647311Y-151463672D01*
X129647302Y-151463669D01*
X129412116Y-151382929D01*
X129166835Y-151342000D01*
X128918165Y-151342000D01*
X128672883Y-151382929D01*
X128437697Y-151463669D01*
X128437688Y-151463672D01*
X128218993Y-151582024D01*
X128022757Y-151734761D01*
X127854333Y-151917717D01*
X127718326Y-152125893D01*
X127618436Y-152353618D01*
X127557392Y-152594675D01*
X127557390Y-152594687D01*
X127536857Y-152842494D01*
X115308143Y-152842494D01*
X115287609Y-152594687D01*
X115287607Y-152594675D01*
X115226563Y-152353618D01*
X115126673Y-152125893D01*
X114990666Y-151917717D01*
X114969057Y-151894244D01*
X114822244Y-151734762D01*
X114626009Y-151582026D01*
X114626007Y-151582025D01*
X114626006Y-151582024D01*
X114407311Y-151463672D01*
X114407302Y-151463669D01*
X114172116Y-151382929D01*
X113926835Y-151342000D01*
X113678165Y-151342000D01*
X113432883Y-151382929D01*
X113197697Y-151463669D01*
X113197688Y-151463672D01*
X112978993Y-151582024D01*
X112782757Y-151734761D01*
X112614333Y-151917717D01*
X112478326Y-152125893D01*
X112378436Y-152353618D01*
X112317392Y-152594675D01*
X112317390Y-152594687D01*
X112296857Y-152842494D01*
X107440380Y-152842494D01*
X107404595Y-152815705D01*
X107380178Y-152750241D01*
X107395030Y-152681968D01*
X107416175Y-152653720D01*
X107538495Y-152531401D01*
X107674035Y-152337830D01*
X107773903Y-152123663D01*
X107835063Y-151895408D01*
X107855659Y-151660000D01*
X107835063Y-151424592D01*
X107773903Y-151196337D01*
X107674035Y-150982171D01*
X107538495Y-150788599D01*
X107538494Y-150788597D01*
X107371402Y-150621506D01*
X107371396Y-150621501D01*
X107185842Y-150491575D01*
X107142217Y-150436998D01*
X107135023Y-150367500D01*
X107166546Y-150305145D01*
X107185842Y-150288425D01*
X107208026Y-150272891D01*
X107371401Y-150158495D01*
X107538495Y-149991401D01*
X107674035Y-149797830D01*
X107773903Y-149583663D01*
X107835063Y-149355408D01*
X107855659Y-149120000D01*
X107835063Y-148884592D01*
X107773903Y-148656337D01*
X107674035Y-148442171D01*
X107538495Y-148248599D01*
X107538494Y-148248597D01*
X107371402Y-148081506D01*
X107371396Y-148081501D01*
X107185842Y-147951575D01*
X107142217Y-147896998D01*
X107135023Y-147827500D01*
X107166546Y-147765145D01*
X107185842Y-147748425D01*
X107284301Y-147679483D01*
X107371401Y-147618495D01*
X107538495Y-147451401D01*
X107674035Y-147257830D01*
X107773903Y-147043663D01*
X107835063Y-146815408D01*
X107855659Y-146580000D01*
X107835063Y-146344592D01*
X107773903Y-146116337D01*
X107674035Y-145902171D01*
X107606466Y-145805671D01*
X107538494Y-145708597D01*
X107371402Y-145541506D01*
X107371396Y-145541501D01*
X107185842Y-145411575D01*
X107142217Y-145356998D01*
X107135023Y-145287500D01*
X107166546Y-145225145D01*
X107185842Y-145208425D01*
X107208026Y-145192891D01*
X107371401Y-145078495D01*
X107538495Y-144911401D01*
X107674035Y-144717830D01*
X107773903Y-144503663D01*
X107835063Y-144275408D01*
X107855659Y-144040000D01*
X107835063Y-143804592D01*
X107773903Y-143576337D01*
X107674035Y-143362171D01*
X107656994Y-143337834D01*
X107538496Y-143168600D01*
X107482001Y-143112105D01*
X107416179Y-143046283D01*
X107382696Y-142984963D01*
X107387680Y-142915271D01*
X107429551Y-142859337D01*
X107460529Y-142842422D01*
X107592086Y-142793354D01*
X107592093Y-142793350D01*
X107707187Y-142707190D01*
X107707190Y-142707187D01*
X107793350Y-142592093D01*
X107793354Y-142592086D01*
X107843596Y-142457379D01*
X107843598Y-142457372D01*
X107849999Y-142397844D01*
X107850000Y-142397827D01*
X107850000Y-141750000D01*
X106944560Y-141750000D01*
X106975245Y-141696853D01*
X107010000Y-141567143D01*
X107010000Y-141432857D01*
X106975245Y-141303147D01*
X106944560Y-141250000D01*
X107850000Y-141250000D01*
X107850000Y-140602172D01*
X107849999Y-140602155D01*
X107843598Y-140542627D01*
X107843596Y-140542620D01*
X107793354Y-140407913D01*
X107793350Y-140407906D01*
X107707190Y-140292812D01*
X107707187Y-140292809D01*
X107592093Y-140206649D01*
X107592088Y-140206646D01*
X107460528Y-140157577D01*
X107404595Y-140115705D01*
X107380178Y-140050241D01*
X107395030Y-139981968D01*
X107416175Y-139953720D01*
X107538495Y-139831401D01*
X107674035Y-139637830D01*
X107773903Y-139423663D01*
X107835063Y-139195408D01*
X107835536Y-139189997D01*
X124812677Y-139189997D01*
X124812677Y-139190002D01*
X124831929Y-139410062D01*
X124831930Y-139410070D01*
X124889104Y-139623445D01*
X124889105Y-139623447D01*
X124889106Y-139623450D01*
X124904445Y-139656344D01*
X124982466Y-139823662D01*
X124982468Y-139823666D01*
X125109170Y-140004615D01*
X125109175Y-140004621D01*
X125265378Y-140160824D01*
X125265384Y-140160829D01*
X125446333Y-140287531D01*
X125446335Y-140287532D01*
X125446338Y-140287534D01*
X125506653Y-140315659D01*
X125575781Y-140347894D01*
X125628220Y-140394066D01*
X125647372Y-140461260D01*
X125627156Y-140528141D01*
X125575781Y-140572658D01*
X125446590Y-140632901D01*
X125381811Y-140678258D01*
X125950590Y-141247037D01*
X125887007Y-141264075D01*
X125772993Y-141329901D01*
X125679901Y-141422993D01*
X125614075Y-141537007D01*
X125597037Y-141600590D01*
X125028258Y-141031811D01*
X124982901Y-141096590D01*
X124889579Y-141296720D01*
X124889575Y-141296729D01*
X124832426Y-141510013D01*
X124832424Y-141510023D01*
X124813179Y-141729999D01*
X124813179Y-141730000D01*
X124832424Y-141949976D01*
X124832426Y-141949986D01*
X124889575Y-142163270D01*
X124889580Y-142163284D01*
X124982898Y-142363405D01*
X124982901Y-142363411D01*
X125028258Y-142428187D01*
X125028259Y-142428188D01*
X125597037Y-141859409D01*
X125614075Y-141922993D01*
X125679901Y-142037007D01*
X125772993Y-142130099D01*
X125887007Y-142195925D01*
X125950590Y-142212962D01*
X125381810Y-142781740D01*
X125446589Y-142827098D01*
X125575781Y-142887342D01*
X125628220Y-142933514D01*
X125647372Y-143000708D01*
X125627156Y-143067589D01*
X125575781Y-143112106D01*
X125446340Y-143172465D01*
X125446338Y-143172466D01*
X125265377Y-143299175D01*
X125109175Y-143455377D01*
X124982466Y-143636338D01*
X124982465Y-143636340D01*
X124889107Y-143836548D01*
X124889104Y-143836554D01*
X124831930Y-144049929D01*
X124831929Y-144049937D01*
X124812677Y-144269997D01*
X124812677Y-144270002D01*
X124831929Y-144490062D01*
X124831930Y-144490070D01*
X124889104Y-144703445D01*
X124889105Y-144703447D01*
X124889106Y-144703450D01*
X124982466Y-144903662D01*
X124982468Y-144903666D01*
X125104885Y-145078495D01*
X125109174Y-145084620D01*
X125265380Y-145240826D01*
X125332037Y-145287500D01*
X125381202Y-145321925D01*
X125424827Y-145376502D01*
X125432021Y-145446000D01*
X125400498Y-145508355D01*
X125340269Y-145543769D01*
X125310082Y-145547500D01*
X125270131Y-145547500D01*
X125270123Y-145547501D01*
X125210516Y-145553908D01*
X125075671Y-145604202D01*
X125075664Y-145604206D01*
X124960455Y-145690452D01*
X124960452Y-145690455D01*
X124874206Y-145805664D01*
X124874202Y-145805671D01*
X124823908Y-145940517D01*
X124817501Y-146000116D01*
X124817501Y-146000123D01*
X124817500Y-146000135D01*
X124817500Y-147619870D01*
X124817501Y-147619876D01*
X124823908Y-147679483D01*
X124874202Y-147814328D01*
X124874206Y-147814335D01*
X124960452Y-147929544D01*
X124960455Y-147929547D01*
X125075664Y-148015793D01*
X125075671Y-148015797D01*
X125210517Y-148066091D01*
X125210516Y-148066091D01*
X125217444Y-148066835D01*
X125270127Y-148072500D01*
X126889872Y-148072499D01*
X126949483Y-148066091D01*
X127084331Y-148015796D01*
X127199546Y-147929546D01*
X127285796Y-147814331D01*
X127336091Y-147679483D01*
X127342500Y-147619873D01*
X127342499Y-146000128D01*
X127336091Y-145940517D01*
X127285796Y-145805669D01*
X127285795Y-145805668D01*
X127285793Y-145805664D01*
X127199547Y-145690455D01*
X127199544Y-145690452D01*
X127084335Y-145604206D01*
X127084328Y-145604202D01*
X126949482Y-145553908D01*
X126949483Y-145553908D01*
X126889883Y-145547501D01*
X126889881Y-145547500D01*
X126889873Y-145547500D01*
X126889865Y-145547500D01*
X126849921Y-145547500D01*
X126782882Y-145527815D01*
X126737127Y-145475011D01*
X126727183Y-145405853D01*
X126756208Y-145342297D01*
X126778798Y-145321925D01*
X126795829Y-145310000D01*
X126894620Y-145240826D01*
X127050826Y-145084620D01*
X127177534Y-144903662D01*
X127270894Y-144703450D01*
X127328070Y-144490068D01*
X127344513Y-144302116D01*
X127347323Y-144270002D01*
X127347323Y-144269997D01*
X127328070Y-144049937D01*
X127328070Y-144049932D01*
X127270894Y-143836550D01*
X127177534Y-143636339D01*
X127050826Y-143455380D01*
X126894620Y-143299174D01*
X126894616Y-143299171D01*
X126894615Y-143299170D01*
X126713666Y-143172468D01*
X126713662Y-143172466D01*
X126584218Y-143112105D01*
X126531779Y-143065932D01*
X126512627Y-142998739D01*
X126532843Y-142931858D01*
X126584219Y-142887340D01*
X126713416Y-142827095D01*
X126713417Y-142827094D01*
X126778188Y-142781741D01*
X126209410Y-142212962D01*
X126272993Y-142195925D01*
X126387007Y-142130099D01*
X126480099Y-142037007D01*
X126545925Y-141922993D01*
X126562962Y-141859409D01*
X127131741Y-142428188D01*
X127177094Y-142363417D01*
X127177100Y-142363407D01*
X127270419Y-142163284D01*
X127270424Y-142163270D01*
X127327573Y-141949986D01*
X127327575Y-141949976D01*
X127346821Y-141730000D01*
X127346821Y-141729999D01*
X127327575Y-141510023D01*
X127327573Y-141510013D01*
X127270424Y-141296729D01*
X127270420Y-141296720D01*
X127177096Y-141096586D01*
X127131741Y-141031811D01*
X127131740Y-141031810D01*
X126562962Y-141600589D01*
X126545925Y-141537007D01*
X126480099Y-141422993D01*
X126387007Y-141329901D01*
X126272993Y-141264075D01*
X126209410Y-141247037D01*
X126778188Y-140678259D01*
X126778187Y-140678258D01*
X126713411Y-140632901D01*
X126713405Y-140632898D01*
X126584219Y-140572658D01*
X126531779Y-140526486D01*
X126512627Y-140459293D01*
X126532843Y-140392411D01*
X126584219Y-140347894D01*
X126713662Y-140287534D01*
X126894620Y-140160826D01*
X127050826Y-140004620D01*
X127177534Y-139823662D01*
X127270894Y-139623450D01*
X127328070Y-139410068D01*
X127342509Y-139245017D01*
X127347323Y-139190002D01*
X127347323Y-139189997D01*
X127328070Y-138969937D01*
X127328070Y-138969932D01*
X127270894Y-138756550D01*
X127177534Y-138556339D01*
X127050826Y-138375380D01*
X126894620Y-138219174D01*
X126894616Y-138219171D01*
X126894615Y-138219170D01*
X126713666Y-138092468D01*
X126713662Y-138092466D01*
X126609003Y-138043663D01*
X126513450Y-137999106D01*
X126513447Y-137999105D01*
X126513445Y-137999104D01*
X126300070Y-137941930D01*
X126300062Y-137941929D01*
X126080002Y-137922677D01*
X126079998Y-137922677D01*
X125859937Y-137941929D01*
X125859929Y-137941930D01*
X125646554Y-137999104D01*
X125646548Y-137999107D01*
X125446340Y-138092465D01*
X125446338Y-138092466D01*
X125265377Y-138219175D01*
X125109175Y-138375377D01*
X124982466Y-138556338D01*
X124982465Y-138556340D01*
X124889107Y-138756548D01*
X124889104Y-138756554D01*
X124831930Y-138969929D01*
X124831929Y-138969937D01*
X124812677Y-139189997D01*
X107835536Y-139189997D01*
X107855659Y-138960000D01*
X107835063Y-138724592D01*
X107773903Y-138496337D01*
X107674035Y-138282171D01*
X107656995Y-138257834D01*
X107538494Y-138088597D01*
X107371402Y-137921506D01*
X107371396Y-137921501D01*
X107185842Y-137791575D01*
X107142217Y-137736998D01*
X107135023Y-137667500D01*
X107166546Y-137605145D01*
X107185842Y-137588425D01*
X107208026Y-137572891D01*
X107371401Y-137458495D01*
X107538495Y-137291401D01*
X107674035Y-137097830D01*
X107773903Y-136883663D01*
X107835063Y-136655408D01*
X107855659Y-136420000D01*
X107835063Y-136184592D01*
X107773903Y-135956337D01*
X107674035Y-135742171D01*
X107656995Y-135717834D01*
X107538494Y-135548597D01*
X107371402Y-135381506D01*
X107371396Y-135381501D01*
X107185842Y-135251575D01*
X107142217Y-135196998D01*
X107135023Y-135127500D01*
X107166546Y-135065145D01*
X107185842Y-135048425D01*
X107208026Y-135032891D01*
X107371401Y-134918495D01*
X107538495Y-134751401D01*
X107674035Y-134557830D01*
X107773903Y-134343663D01*
X107835063Y-134115408D01*
X107855659Y-133880000D01*
X107835063Y-133644592D01*
X107773903Y-133416337D01*
X107674035Y-133202171D01*
X107656995Y-133177834D01*
X107538494Y-133008597D01*
X107371402Y-132841506D01*
X107371396Y-132841501D01*
X107185842Y-132711575D01*
X107142217Y-132656998D01*
X107135023Y-132587500D01*
X107166546Y-132525145D01*
X107185842Y-132508425D01*
X107208026Y-132492891D01*
X107371401Y-132378495D01*
X107538495Y-132211401D01*
X107674035Y-132017830D01*
X107773903Y-131803663D01*
X107835063Y-131575408D01*
X107855659Y-131340000D01*
X107835063Y-131104592D01*
X107788626Y-130931285D01*
X107773905Y-130876344D01*
X107773904Y-130876343D01*
X107773903Y-130876337D01*
X107674035Y-130662171D01*
X107538495Y-130468599D01*
X107416179Y-130346283D01*
X107382696Y-130284963D01*
X107387680Y-130215271D01*
X107429551Y-130159337D01*
X107460529Y-130142422D01*
X107592086Y-130093354D01*
X107592093Y-130093350D01*
X107707187Y-130007190D01*
X107707190Y-130007187D01*
X107793350Y-129892093D01*
X107793354Y-129892086D01*
X107843596Y-129757379D01*
X107843598Y-129757372D01*
X107849999Y-129697844D01*
X107850000Y-129697827D01*
X107850000Y-129050000D01*
X106944560Y-129050000D01*
X106975245Y-128996853D01*
X107010000Y-128867143D01*
X107010000Y-128732857D01*
X106975245Y-128603147D01*
X106944560Y-128550000D01*
X107850000Y-128550000D01*
X107850000Y-127902172D01*
X107849999Y-127902155D01*
X107843598Y-127842627D01*
X107843596Y-127842620D01*
X107793354Y-127707913D01*
X107793350Y-127707906D01*
X107707190Y-127592812D01*
X107707187Y-127592809D01*
X107592093Y-127506649D01*
X107592088Y-127506646D01*
X107460528Y-127457577D01*
X107404595Y-127415705D01*
X107380178Y-127350241D01*
X107395030Y-127281968D01*
X107416175Y-127253720D01*
X107538495Y-127131401D01*
X107674035Y-126937830D01*
X107773903Y-126723663D01*
X107835063Y-126495408D01*
X107855659Y-126260000D01*
X107835063Y-126024592D01*
X107777553Y-125809960D01*
X107773905Y-125796344D01*
X107773904Y-125796343D01*
X107773903Y-125796337D01*
X107674035Y-125582171D01*
X107538495Y-125388599D01*
X107538494Y-125388597D01*
X107371402Y-125221506D01*
X107371396Y-125221501D01*
X107185842Y-125091575D01*
X107142217Y-125036998D01*
X107135023Y-124967500D01*
X107166546Y-124905145D01*
X107185842Y-124888425D01*
X107269027Y-124830178D01*
X107371401Y-124758495D01*
X107538495Y-124591401D01*
X107674035Y-124397830D01*
X107773903Y-124183663D01*
X107835063Y-123955408D01*
X107855659Y-123720000D01*
X107835063Y-123484592D01*
X107778004Y-123271641D01*
X107773905Y-123256344D01*
X107773904Y-123256343D01*
X107773903Y-123256337D01*
X107674035Y-123042171D01*
X107582540Y-122911501D01*
X107538494Y-122848597D01*
X107371402Y-122681506D01*
X107371395Y-122681501D01*
X107363677Y-122676097D01*
X107276334Y-122614938D01*
X107177834Y-122545967D01*
X107177830Y-122545965D01*
X107177828Y-122545964D01*
X106963663Y-122446097D01*
X106963659Y-122446096D01*
X106963655Y-122446094D01*
X106735413Y-122384938D01*
X106735403Y-122384936D01*
X106500001Y-122364341D01*
X106499999Y-122364341D01*
X106264596Y-122384936D01*
X106264586Y-122384938D01*
X106036344Y-122446094D01*
X106036335Y-122446098D01*
X105822171Y-122545964D01*
X105822169Y-122545965D01*
X105628597Y-122681505D01*
X105461505Y-122848597D01*
X105325965Y-123042169D01*
X105325964Y-123042171D01*
X105226098Y-123256335D01*
X105226094Y-123256344D01*
X105164938Y-123484586D01*
X105164936Y-123484596D01*
X105144341Y-123719999D01*
X105144341Y-123720000D01*
X105164936Y-123955403D01*
X105164938Y-123955413D01*
X105226094Y-124183655D01*
X105226096Y-124183659D01*
X105226097Y-124183663D01*
X105325965Y-124397830D01*
X105325967Y-124397834D01*
X105461501Y-124591395D01*
X105461506Y-124591402D01*
X105628597Y-124758493D01*
X105628603Y-124758498D01*
X105814158Y-124888425D01*
X105857783Y-124943002D01*
X105864977Y-125012500D01*
X105833454Y-125074855D01*
X105814158Y-125091575D01*
X105628597Y-125221505D01*
X105461505Y-125388597D01*
X105325965Y-125582169D01*
X105325964Y-125582171D01*
X105226098Y-125796335D01*
X105226094Y-125796344D01*
X105164938Y-126024586D01*
X105164936Y-126024596D01*
X105144341Y-126259999D01*
X105144341Y-126260000D01*
X105164936Y-126495403D01*
X105164938Y-126495413D01*
X105226094Y-126723655D01*
X105226096Y-126723659D01*
X105226097Y-126723663D01*
X105325965Y-126937830D01*
X105325967Y-126937834D01*
X105434281Y-127092521D01*
X105461501Y-127131396D01*
X105461506Y-127131402D01*
X105583818Y-127253714D01*
X105617303Y-127315037D01*
X105612319Y-127384729D01*
X105570447Y-127440662D01*
X105539471Y-127457577D01*
X105407912Y-127506646D01*
X105407906Y-127506649D01*
X105292812Y-127592809D01*
X105292809Y-127592812D01*
X105206649Y-127707906D01*
X105206645Y-127707913D01*
X105156403Y-127842620D01*
X105156401Y-127842627D01*
X105150000Y-127902155D01*
X105150000Y-128550000D01*
X106055440Y-128550000D01*
X106024755Y-128603147D01*
X105990000Y-128732857D01*
X105990000Y-128867143D01*
X106024755Y-128996853D01*
X106055440Y-129050000D01*
X105150000Y-129050000D01*
X105150000Y-129697844D01*
X105156401Y-129757372D01*
X105156403Y-129757379D01*
X105206645Y-129892086D01*
X105206649Y-129892093D01*
X105292809Y-130007187D01*
X105292812Y-130007190D01*
X105407906Y-130093350D01*
X105407913Y-130093354D01*
X105539470Y-130142421D01*
X105595403Y-130184292D01*
X105619821Y-130249756D01*
X105604970Y-130318029D01*
X105583819Y-130346284D01*
X105461503Y-130468600D01*
X105325965Y-130662169D01*
X105325964Y-130662171D01*
X105226098Y-130876335D01*
X105226094Y-130876344D01*
X105164938Y-131104586D01*
X105164936Y-131104596D01*
X105144341Y-131339999D01*
X105144341Y-131340000D01*
X105164936Y-131575403D01*
X105164938Y-131575413D01*
X105226094Y-131803655D01*
X105226096Y-131803659D01*
X105226097Y-131803663D01*
X105325965Y-132017830D01*
X105325967Y-132017834D01*
X105461501Y-132211395D01*
X105461506Y-132211402D01*
X105628597Y-132378493D01*
X105628603Y-132378498D01*
X105814158Y-132508425D01*
X105857783Y-132563002D01*
X105864977Y-132632500D01*
X105833454Y-132694855D01*
X105814158Y-132711575D01*
X105628597Y-132841505D01*
X105461505Y-133008597D01*
X105325965Y-133202169D01*
X105325964Y-133202171D01*
X105226098Y-133416335D01*
X105226094Y-133416344D01*
X105164938Y-133644586D01*
X105164936Y-133644596D01*
X105144341Y-133879999D01*
X105144341Y-133880000D01*
X105164936Y-134115403D01*
X105164938Y-134115413D01*
X105226094Y-134343655D01*
X105226096Y-134343659D01*
X105226097Y-134343663D01*
X105249141Y-134393080D01*
X105325965Y-134557830D01*
X105325967Y-134557834D01*
X105461501Y-134751395D01*
X105461506Y-134751402D01*
X105628597Y-134918493D01*
X105628603Y-134918498D01*
X105814158Y-135048425D01*
X105857783Y-135103002D01*
X105864977Y-135172500D01*
X105833454Y-135234855D01*
X105814158Y-135251575D01*
X105628597Y-135381505D01*
X105461505Y-135548597D01*
X105325965Y-135742169D01*
X105325964Y-135742171D01*
X105226098Y-135956335D01*
X105226094Y-135956344D01*
X105164938Y-136184586D01*
X105164936Y-136184596D01*
X105144341Y-136419999D01*
X105144341Y-136420000D01*
X105164936Y-136655403D01*
X105164938Y-136655413D01*
X105226094Y-136883655D01*
X105226096Y-136883659D01*
X105226097Y-136883663D01*
X105325965Y-137097830D01*
X105325967Y-137097834D01*
X105461501Y-137291395D01*
X105461506Y-137291402D01*
X105628597Y-137458493D01*
X105628603Y-137458498D01*
X105814158Y-137588425D01*
X105857783Y-137643002D01*
X105864977Y-137712500D01*
X105833454Y-137774855D01*
X105814158Y-137791575D01*
X105628597Y-137921505D01*
X105461505Y-138088597D01*
X105325965Y-138282169D01*
X105325964Y-138282171D01*
X105226098Y-138496335D01*
X105226094Y-138496344D01*
X105164938Y-138724586D01*
X105164936Y-138724596D01*
X105144341Y-138959999D01*
X105144341Y-138960000D01*
X105164936Y-139195403D01*
X105164938Y-139195413D01*
X105226094Y-139423655D01*
X105226096Y-139423659D01*
X105226097Y-139423663D01*
X105319260Y-139623451D01*
X105325965Y-139637830D01*
X105325967Y-139637834D01*
X105434281Y-139792521D01*
X105461501Y-139831396D01*
X105461506Y-139831402D01*
X105583818Y-139953714D01*
X105617303Y-140015037D01*
X105612319Y-140084729D01*
X105570447Y-140140662D01*
X105539471Y-140157577D01*
X105407912Y-140206646D01*
X105407906Y-140206649D01*
X105292812Y-140292809D01*
X105292809Y-140292812D01*
X105206649Y-140407906D01*
X105206645Y-140407913D01*
X105156403Y-140542620D01*
X105156401Y-140542627D01*
X105150000Y-140602155D01*
X105150000Y-141250000D01*
X106055440Y-141250000D01*
X106024755Y-141303147D01*
X105990000Y-141432857D01*
X105990000Y-141567143D01*
X106024755Y-141696853D01*
X106055440Y-141750000D01*
X105150000Y-141750000D01*
X105150000Y-142397844D01*
X105156401Y-142457372D01*
X105156403Y-142457379D01*
X105206645Y-142592086D01*
X105206649Y-142592093D01*
X105292809Y-142707187D01*
X105292812Y-142707190D01*
X105407906Y-142793350D01*
X105407913Y-142793354D01*
X105539470Y-142842421D01*
X105595403Y-142884292D01*
X105619821Y-142949756D01*
X105604970Y-143018029D01*
X105583819Y-143046284D01*
X105461503Y-143168600D01*
X105325965Y-143362169D01*
X105325964Y-143362171D01*
X105226098Y-143576335D01*
X105226094Y-143576344D01*
X105164938Y-143804586D01*
X105164936Y-143804596D01*
X105144341Y-144039999D01*
X105144341Y-144040000D01*
X105164936Y-144275403D01*
X105164938Y-144275413D01*
X105226094Y-144503655D01*
X105226096Y-144503659D01*
X105226097Y-144503663D01*
X105319260Y-144703451D01*
X105325965Y-144717830D01*
X105325967Y-144717834D01*
X105461501Y-144911395D01*
X105461506Y-144911402D01*
X105628597Y-145078493D01*
X105628603Y-145078498D01*
X105814158Y-145208425D01*
X105857783Y-145263002D01*
X105864977Y-145332500D01*
X105833454Y-145394855D01*
X105814158Y-145411575D01*
X105628597Y-145541505D01*
X105461505Y-145708597D01*
X105325965Y-145902169D01*
X105325964Y-145902171D01*
X105226098Y-146116335D01*
X105226094Y-146116344D01*
X105164938Y-146344586D01*
X105164936Y-146344596D01*
X105144341Y-146579999D01*
X105144341Y-146580000D01*
X105164936Y-146815403D01*
X105164938Y-146815413D01*
X105226094Y-147043655D01*
X105226096Y-147043659D01*
X105226097Y-147043663D01*
X105325965Y-147257830D01*
X105325967Y-147257834D01*
X105461501Y-147451395D01*
X105461506Y-147451402D01*
X105628597Y-147618493D01*
X105628603Y-147618498D01*
X105814158Y-147748425D01*
X105857783Y-147803002D01*
X105864977Y-147872500D01*
X105833454Y-147934855D01*
X105814158Y-147951575D01*
X105628597Y-148081505D01*
X105461505Y-148248597D01*
X105325965Y-148442169D01*
X105325964Y-148442171D01*
X105226098Y-148656335D01*
X105226094Y-148656344D01*
X105164938Y-148884586D01*
X105164936Y-148884596D01*
X105144341Y-149119999D01*
X105144341Y-149120000D01*
X105164936Y-149355403D01*
X105164938Y-149355413D01*
X105226094Y-149583655D01*
X105226096Y-149583659D01*
X105226097Y-149583663D01*
X105325965Y-149797830D01*
X105325967Y-149797834D01*
X105461501Y-149991395D01*
X105461506Y-149991402D01*
X105628597Y-150158493D01*
X105628603Y-150158498D01*
X105814158Y-150288425D01*
X105857783Y-150343002D01*
X105864977Y-150412500D01*
X105833454Y-150474855D01*
X105814158Y-150491575D01*
X105628597Y-150621505D01*
X105461505Y-150788597D01*
X105325965Y-150982169D01*
X105325964Y-150982171D01*
X105226098Y-151196335D01*
X105226094Y-151196344D01*
X105164938Y-151424586D01*
X105164936Y-151424596D01*
X105144341Y-151659999D01*
X105144341Y-151660000D01*
X105164936Y-151895403D01*
X105164938Y-151895413D01*
X105226094Y-152123655D01*
X105226096Y-152123659D01*
X105226097Y-152123663D01*
X105227137Y-152125893D01*
X105325965Y-152337830D01*
X105325967Y-152337834D01*
X105434281Y-152492521D01*
X105461501Y-152531396D01*
X105461506Y-152531402D01*
X105583818Y-152653714D01*
X105617303Y-152715037D01*
X105612319Y-152784729D01*
X105570447Y-152840662D01*
X105539471Y-152857577D01*
X105407912Y-152906646D01*
X105407906Y-152906649D01*
X105292812Y-152992809D01*
X105292809Y-152992812D01*
X105206649Y-153107906D01*
X105206645Y-153107913D01*
X105156403Y-153242620D01*
X105156401Y-153242627D01*
X105150000Y-153302155D01*
X105150000Y-153950000D01*
X106055440Y-153950000D01*
X106024755Y-154003147D01*
X105990000Y-154132857D01*
X105990000Y-154267143D01*
X106024755Y-154396853D01*
X106055440Y-154450000D01*
X105150000Y-154450000D01*
X105150000Y-155097844D01*
X105156401Y-155157372D01*
X105156403Y-155157379D01*
X105206645Y-155292086D01*
X105206649Y-155292093D01*
X105292809Y-155407187D01*
X105292812Y-155407190D01*
X105407906Y-155493350D01*
X105407913Y-155493354D01*
X105539470Y-155542421D01*
X105595403Y-155584292D01*
X105619821Y-155649756D01*
X105604970Y-155718029D01*
X105583819Y-155746284D01*
X105461503Y-155868600D01*
X105325965Y-156062169D01*
X105325964Y-156062171D01*
X105226098Y-156276335D01*
X105226094Y-156276344D01*
X105164938Y-156504586D01*
X105164936Y-156504596D01*
X105144341Y-156739999D01*
X105144341Y-156740000D01*
X105164936Y-156975403D01*
X105164938Y-156975413D01*
X105226094Y-157203655D01*
X105226096Y-157203659D01*
X105226097Y-157203663D01*
X105227137Y-157205893D01*
X105325965Y-157417830D01*
X105325967Y-157417834D01*
X105461501Y-157611395D01*
X105461506Y-157611402D01*
X105628597Y-157778493D01*
X105628603Y-157778498D01*
X105814158Y-157908425D01*
X105857783Y-157963002D01*
X105864977Y-158032500D01*
X105833454Y-158094855D01*
X105814158Y-158111575D01*
X105628597Y-158241505D01*
X105461505Y-158408597D01*
X105325965Y-158602169D01*
X105325964Y-158602171D01*
X105226098Y-158816335D01*
X105226094Y-158816344D01*
X105164938Y-159044586D01*
X105164936Y-159044596D01*
X105144341Y-159279999D01*
X105144341Y-159280000D01*
X105164936Y-159515403D01*
X105164938Y-159515413D01*
X105226094Y-159743655D01*
X105226096Y-159743659D01*
X105226097Y-159743663D01*
X105227137Y-159745893D01*
X105325965Y-159957830D01*
X105325967Y-159957834D01*
X105461501Y-160151395D01*
X105461506Y-160151402D01*
X105628597Y-160318493D01*
X105628603Y-160318498D01*
X105814158Y-160448425D01*
X105857783Y-160503002D01*
X105864977Y-160572500D01*
X105833454Y-160634855D01*
X105814158Y-160651575D01*
X105628597Y-160781505D01*
X105461505Y-160948597D01*
X105325965Y-161142169D01*
X105325964Y-161142171D01*
X105226098Y-161356335D01*
X105226094Y-161356344D01*
X105164938Y-161584586D01*
X105164936Y-161584596D01*
X105144341Y-161819999D01*
X105144341Y-161820000D01*
X105164936Y-162055403D01*
X105164938Y-162055413D01*
X105226094Y-162283655D01*
X105226096Y-162283659D01*
X105226097Y-162283663D01*
X105227137Y-162285893D01*
X105325965Y-162497830D01*
X105325967Y-162497834D01*
X105461501Y-162691395D01*
X105461506Y-162691402D01*
X105628597Y-162858493D01*
X105628603Y-162858498D01*
X105814158Y-162988425D01*
X105857783Y-163043002D01*
X105864977Y-163112500D01*
X105833454Y-163174855D01*
X105814158Y-163191575D01*
X105628597Y-163321505D01*
X105461505Y-163488597D01*
X105325965Y-163682169D01*
X105325964Y-163682171D01*
X105226098Y-163896335D01*
X105226094Y-163896344D01*
X105164938Y-164124586D01*
X105164936Y-164124596D01*
X105144341Y-164359999D01*
X105144341Y-164360000D01*
X105164936Y-164595403D01*
X105164938Y-164595413D01*
X105226094Y-164823655D01*
X105226096Y-164823659D01*
X105226097Y-164823663D01*
X105325965Y-165037830D01*
X105325967Y-165037834D01*
X105399186Y-165142401D01*
X105461501Y-165231396D01*
X105461506Y-165231402D01*
X105583818Y-165353714D01*
X105617303Y-165415037D01*
X105612319Y-165484729D01*
X105570447Y-165540662D01*
X105539471Y-165557577D01*
X105407912Y-165606646D01*
X105407906Y-165606649D01*
X105292812Y-165692809D01*
X105292809Y-165692812D01*
X105206649Y-165807906D01*
X105206645Y-165807913D01*
X105156403Y-165942620D01*
X105156401Y-165942627D01*
X105150000Y-166002155D01*
X105150000Y-166650000D01*
X106055440Y-166650000D01*
X106024755Y-166703147D01*
X105990000Y-166832857D01*
X105990000Y-166967143D01*
X106024755Y-167096853D01*
X106055440Y-167150000D01*
X105150000Y-167150000D01*
X105150000Y-167797844D01*
X105156401Y-167857372D01*
X105156403Y-167857379D01*
X105206645Y-167992086D01*
X105206649Y-167992093D01*
X105292809Y-168107187D01*
X105292812Y-168107190D01*
X105407906Y-168193350D01*
X105407913Y-168193354D01*
X105539470Y-168242421D01*
X105595403Y-168284292D01*
X105619821Y-168349756D01*
X105604970Y-168418029D01*
X105583819Y-168446284D01*
X105461503Y-168568600D01*
X105325965Y-168762169D01*
X105325964Y-168762171D01*
X105226098Y-168976335D01*
X105226094Y-168976344D01*
X105164938Y-169204586D01*
X105164936Y-169204596D01*
X105144341Y-169439999D01*
X105144341Y-169440000D01*
X105164936Y-169675403D01*
X105164938Y-169675413D01*
X105226094Y-169903655D01*
X105226096Y-169903659D01*
X105226097Y-169903663D01*
X105270821Y-169999573D01*
X105325965Y-170117830D01*
X105325967Y-170117834D01*
X105461501Y-170311395D01*
X105461506Y-170311402D01*
X105628597Y-170478493D01*
X105628603Y-170478498D01*
X105814158Y-170608425D01*
X105857783Y-170663002D01*
X105864977Y-170732500D01*
X105833454Y-170794855D01*
X105814158Y-170811575D01*
X105628597Y-170941505D01*
X105461505Y-171108597D01*
X105325965Y-171302169D01*
X105325964Y-171302171D01*
X105226098Y-171516335D01*
X105226094Y-171516344D01*
X105164938Y-171744586D01*
X105164936Y-171744596D01*
X105144341Y-171979999D01*
X105144341Y-171980000D01*
X105164936Y-172215403D01*
X105164938Y-172215413D01*
X105199368Y-172343907D01*
X105197705Y-172413757D01*
X105158542Y-172471619D01*
X105094314Y-172499123D01*
X105079593Y-172500000D01*
X101768989Y-172500000D01*
X101701950Y-172480315D01*
X101656195Y-172427511D01*
X101646251Y-172358353D01*
X101655432Y-172326191D01*
X101655662Y-172325666D01*
X101664157Y-172306300D01*
X101721134Y-172081305D01*
X101721135Y-172081297D01*
X101740300Y-171850006D01*
X101740300Y-171849993D01*
X101721135Y-171618702D01*
X101721133Y-171618691D01*
X101664157Y-171393699D01*
X101570924Y-171181151D01*
X101443983Y-170986852D01*
X101443980Y-170986849D01*
X101443979Y-170986847D01*
X101286784Y-170816087D01*
X101286779Y-170816083D01*
X101286777Y-170816081D01*
X101103634Y-170673535D01*
X101103628Y-170673531D01*
X100899504Y-170563064D01*
X100899495Y-170563061D01*
X100679984Y-170487702D01*
X100508282Y-170459050D01*
X100451049Y-170449500D01*
X100218951Y-170449500D01*
X100173164Y-170457140D01*
X99990015Y-170487702D01*
X99770504Y-170563061D01*
X99770495Y-170563064D01*
X99566371Y-170673531D01*
X99566365Y-170673535D01*
X99383222Y-170816081D01*
X99383219Y-170816084D01*
X99226016Y-170986852D01*
X99099075Y-171181151D01*
X99005842Y-171393699D01*
X98948866Y-171618691D01*
X98948864Y-171618702D01*
X98929700Y-171849993D01*
X98929700Y-171850006D01*
X98948864Y-172081297D01*
X98948866Y-172081308D01*
X99005842Y-172306297D01*
X99014568Y-172326191D01*
X99023469Y-172395492D01*
X98993492Y-172458603D01*
X98934152Y-172495489D01*
X98901011Y-172500000D01*
X96318989Y-172500000D01*
X96251950Y-172480315D01*
X96206195Y-172427511D01*
X96196251Y-172358353D01*
X96205432Y-172326191D01*
X96205662Y-172325666D01*
X96214157Y-172306300D01*
X96271134Y-172081305D01*
X96271135Y-172081297D01*
X96290300Y-171850006D01*
X96290300Y-171849993D01*
X96271135Y-171618702D01*
X96271133Y-171618691D01*
X96214157Y-171393699D01*
X96120924Y-171181151D01*
X95993983Y-170986852D01*
X95993980Y-170986849D01*
X95993979Y-170986847D01*
X95836784Y-170816087D01*
X95836779Y-170816083D01*
X95836777Y-170816081D01*
X95653634Y-170673535D01*
X95653628Y-170673531D01*
X95449504Y-170563064D01*
X95449495Y-170563061D01*
X95229984Y-170487702D01*
X95058282Y-170459050D01*
X95001049Y-170449500D01*
X94768951Y-170449500D01*
X94723164Y-170457140D01*
X94540015Y-170487702D01*
X94320504Y-170563061D01*
X94320495Y-170563064D01*
X94116371Y-170673531D01*
X94116365Y-170673535D01*
X93933222Y-170816081D01*
X93933219Y-170816084D01*
X93776016Y-170986852D01*
X93649075Y-171181151D01*
X93555842Y-171393699D01*
X93498866Y-171618691D01*
X93498864Y-171618702D01*
X93479700Y-171849993D01*
X93479700Y-171850006D01*
X93498864Y-172081297D01*
X93498866Y-172081308D01*
X93555842Y-172306297D01*
X93564568Y-172326191D01*
X93573469Y-172395492D01*
X93543492Y-172458603D01*
X93484152Y-172495489D01*
X93451011Y-172500000D01*
X90140407Y-172500000D01*
X90073368Y-172480315D01*
X90027613Y-172427511D01*
X90017669Y-172358353D01*
X90020632Y-172343907D01*
X90030709Y-172306300D01*
X90055063Y-172215408D01*
X90075659Y-171980000D01*
X90055063Y-171744592D01*
X89993903Y-171516337D01*
X89894035Y-171302171D01*
X89809297Y-171181151D01*
X89758494Y-171108597D01*
X89591402Y-170941506D01*
X89591396Y-170941501D01*
X89405842Y-170811575D01*
X89362217Y-170756998D01*
X89355023Y-170687500D01*
X89386546Y-170625145D01*
X89405842Y-170608425D01*
X89470628Y-170563061D01*
X89591401Y-170478495D01*
X89758495Y-170311401D01*
X89894035Y-170117830D01*
X89993903Y-169903663D01*
X90055063Y-169675408D01*
X90075659Y-169440000D01*
X90055063Y-169204592D01*
X89993903Y-168976337D01*
X89921000Y-168819997D01*
X93929723Y-168819997D01*
X93929723Y-168820002D01*
X93948793Y-169037975D01*
X93948793Y-169037979D01*
X94005422Y-169249322D01*
X94005424Y-169249326D01*
X94005425Y-169249330D01*
X94035948Y-169314786D01*
X94097897Y-169447638D01*
X94114140Y-169470835D01*
X94223402Y-169626877D01*
X94378123Y-169781598D01*
X94557361Y-169907102D01*
X94755670Y-169999575D01*
X94967023Y-170056207D01*
X95149926Y-170072208D01*
X95184998Y-170075277D01*
X95185000Y-170075277D01*
X95185002Y-170075277D01*
X95213254Y-170072805D01*
X95402977Y-170056207D01*
X95614330Y-169999575D01*
X95812639Y-169907102D01*
X95991877Y-169781598D01*
X96146598Y-169626877D01*
X96272102Y-169447639D01*
X96364575Y-169249330D01*
X96421207Y-169037977D01*
X96440277Y-168820000D01*
X96440277Y-168819997D01*
X98779723Y-168819997D01*
X98779723Y-168820002D01*
X98798793Y-169037975D01*
X98798793Y-169037979D01*
X98855422Y-169249322D01*
X98855424Y-169249326D01*
X98855425Y-169249330D01*
X98885948Y-169314786D01*
X98947897Y-169447638D01*
X98964140Y-169470835D01*
X99073402Y-169626877D01*
X99228123Y-169781598D01*
X99407361Y-169907102D01*
X99605670Y-169999575D01*
X99817023Y-170056207D01*
X99999926Y-170072208D01*
X100034998Y-170075277D01*
X100035000Y-170075277D01*
X100035002Y-170075277D01*
X100063254Y-170072805D01*
X100252977Y-170056207D01*
X100464330Y-169999575D01*
X100662639Y-169907102D01*
X100841877Y-169781598D01*
X100996598Y-169626877D01*
X101122102Y-169447639D01*
X101214575Y-169249330D01*
X101271207Y-169037977D01*
X101290277Y-168820000D01*
X101271207Y-168602023D01*
X101214575Y-168390670D01*
X101122102Y-168192362D01*
X101122100Y-168192359D01*
X101122099Y-168192357D01*
X100996599Y-168013124D01*
X100975561Y-167992086D01*
X100841877Y-167858402D01*
X100662639Y-167732898D01*
X100662640Y-167732898D01*
X100662638Y-167732897D01*
X100563484Y-167686661D01*
X100464330Y-167640425D01*
X100464326Y-167640424D01*
X100464322Y-167640422D01*
X100252977Y-167583793D01*
X100035002Y-167564723D01*
X100034998Y-167564723D01*
X99889682Y-167577436D01*
X99817023Y-167583793D01*
X99817020Y-167583793D01*
X99605677Y-167640422D01*
X99605668Y-167640426D01*
X99407361Y-167732898D01*
X99407357Y-167732900D01*
X99228121Y-167858402D01*
X99073402Y-168013121D01*
X98947900Y-168192357D01*
X98947898Y-168192361D01*
X98855426Y-168390668D01*
X98855422Y-168390677D01*
X98798793Y-168602020D01*
X98798793Y-168602024D01*
X98779723Y-168819997D01*
X96440277Y-168819997D01*
X96421207Y-168602023D01*
X96364575Y-168390670D01*
X96272102Y-168192362D01*
X96272100Y-168192359D01*
X96272099Y-168192357D01*
X96146599Y-168013124D01*
X96125561Y-167992086D01*
X95991877Y-167858402D01*
X95812639Y-167732898D01*
X95812640Y-167732898D01*
X95812638Y-167732897D01*
X95713484Y-167686661D01*
X95614330Y-167640425D01*
X95614326Y-167640424D01*
X95614322Y-167640422D01*
X95402977Y-167583793D01*
X95185002Y-167564723D01*
X95184998Y-167564723D01*
X95039682Y-167577436D01*
X94967023Y-167583793D01*
X94967020Y-167583793D01*
X94755677Y-167640422D01*
X94755668Y-167640426D01*
X94557361Y-167732898D01*
X94557357Y-167732900D01*
X94378121Y-167858402D01*
X94223402Y-168013121D01*
X94097900Y-168192357D01*
X94097898Y-168192361D01*
X94005426Y-168390668D01*
X94005422Y-168390677D01*
X93948793Y-168602020D01*
X93948793Y-168602024D01*
X93929723Y-168819997D01*
X89921000Y-168819997D01*
X89894035Y-168762171D01*
X89781899Y-168602024D01*
X89758496Y-168568600D01*
X89758495Y-168568599D01*
X89636179Y-168446283D01*
X89602696Y-168384963D01*
X89607680Y-168315271D01*
X89649551Y-168259337D01*
X89680529Y-168242422D01*
X89812086Y-168193354D01*
X89812093Y-168193350D01*
X89927187Y-168107190D01*
X89927190Y-168107187D01*
X90013350Y-167992093D01*
X90013354Y-167992086D01*
X90063596Y-167857379D01*
X90063598Y-167857372D01*
X90069999Y-167797844D01*
X90070000Y-167797827D01*
X90070000Y-167150000D01*
X89164560Y-167150000D01*
X89195245Y-167096853D01*
X89230000Y-166967143D01*
X89230000Y-166832857D01*
X89195245Y-166703147D01*
X89164560Y-166650000D01*
X90070000Y-166650000D01*
X90070000Y-166002172D01*
X90069999Y-166002155D01*
X90063598Y-165942627D01*
X90063596Y-165942620D01*
X90013354Y-165807913D01*
X90013350Y-165807906D01*
X89927190Y-165692812D01*
X89927187Y-165692809D01*
X89812093Y-165606649D01*
X89812088Y-165606646D01*
X89680528Y-165557577D01*
X89624595Y-165515705D01*
X89600178Y-165450241D01*
X89615030Y-165381968D01*
X89636175Y-165353720D01*
X89758495Y-165231401D01*
X89894035Y-165037830D01*
X89993903Y-164823663D01*
X90055063Y-164595408D01*
X90075659Y-164360000D01*
X90055063Y-164124592D01*
X89993903Y-163896337D01*
X89894035Y-163682171D01*
X89758495Y-163488599D01*
X89758494Y-163488597D01*
X89591402Y-163321506D01*
X89591396Y-163321501D01*
X89405842Y-163191575D01*
X89362217Y-163136998D01*
X89355023Y-163067500D01*
X89386546Y-163005145D01*
X89405842Y-162988425D01*
X89428026Y-162972891D01*
X89591401Y-162858495D01*
X89758495Y-162691401D01*
X89894035Y-162497830D01*
X89993903Y-162283663D01*
X90055063Y-162055408D01*
X90075659Y-161820000D01*
X90055063Y-161584592D01*
X89993903Y-161356337D01*
X89894035Y-161142171D01*
X89758495Y-160948599D01*
X89758494Y-160948597D01*
X89591402Y-160781506D01*
X89591396Y-160781501D01*
X89405842Y-160651575D01*
X89362217Y-160596998D01*
X89355023Y-160527500D01*
X89386546Y-160465145D01*
X89405842Y-160448425D01*
X89428026Y-160432891D01*
X89591401Y-160318495D01*
X89758495Y-160151401D01*
X89894035Y-159957830D01*
X89993903Y-159743663D01*
X90055063Y-159515408D01*
X90075659Y-159280000D01*
X90055063Y-159044592D01*
X89993903Y-158816337D01*
X89894035Y-158602171D01*
X89758495Y-158408599D01*
X89758494Y-158408597D01*
X89591402Y-158241506D01*
X89591396Y-158241501D01*
X89405842Y-158111575D01*
X89362217Y-158056998D01*
X89355023Y-157987500D01*
X89386546Y-157925145D01*
X89405842Y-157908425D01*
X89428026Y-157892891D01*
X89591401Y-157778495D01*
X89758495Y-157611401D01*
X89894035Y-157417830D01*
X89993903Y-157203663D01*
X90055063Y-156975408D01*
X90075659Y-156740000D01*
X90055063Y-156504592D01*
X89993903Y-156276337D01*
X89894035Y-156062171D01*
X89758495Y-155868599D01*
X89636567Y-155746671D01*
X89603084Y-155685351D01*
X89608068Y-155615659D01*
X89649939Y-155559725D01*
X89680915Y-155542810D01*
X89812331Y-155493796D01*
X89927546Y-155407546D01*
X90013796Y-155292331D01*
X90064091Y-155157483D01*
X90070500Y-155097873D01*
X90070499Y-153302128D01*
X90064091Y-153242517D01*
X90013884Y-153107906D01*
X90013797Y-153107671D01*
X90013793Y-153107664D01*
X89927547Y-152992455D01*
X89927544Y-152992452D01*
X89812335Y-152906206D01*
X89812328Y-152906202D01*
X89680917Y-152857189D01*
X89624983Y-152815318D01*
X89600566Y-152749853D01*
X89615418Y-152681580D01*
X89636563Y-152653332D01*
X89758495Y-152531401D01*
X89894035Y-152337830D01*
X89993903Y-152123663D01*
X90055063Y-151895408D01*
X90075659Y-151660000D01*
X90055063Y-151424592D01*
X89993903Y-151196337D01*
X89894035Y-150982171D01*
X89758495Y-150788599D01*
X89758494Y-150788597D01*
X89591402Y-150621506D01*
X89591396Y-150621501D01*
X89405842Y-150491575D01*
X89362217Y-150436998D01*
X89355023Y-150367500D01*
X89386546Y-150305145D01*
X89405842Y-150288425D01*
X89428026Y-150272891D01*
X89591401Y-150158495D01*
X89758495Y-149991401D01*
X89894035Y-149797830D01*
X89993903Y-149583663D01*
X90055063Y-149355408D01*
X90075659Y-149120000D01*
X90055063Y-148884592D01*
X89993903Y-148656337D01*
X89894035Y-148442171D01*
X89758495Y-148248599D01*
X89758494Y-148248597D01*
X89591402Y-148081506D01*
X89591396Y-148081501D01*
X89405842Y-147951575D01*
X89362217Y-147896998D01*
X89355023Y-147827500D01*
X89386546Y-147765145D01*
X89405842Y-147748425D01*
X89504301Y-147679483D01*
X89591401Y-147618495D01*
X89758495Y-147451401D01*
X89894035Y-147257830D01*
X89993903Y-147043663D01*
X90055063Y-146815408D01*
X90075659Y-146580000D01*
X90055063Y-146344592D01*
X89993903Y-146116337D01*
X89894035Y-145902171D01*
X89826466Y-145805671D01*
X89758494Y-145708597D01*
X89591402Y-145541506D01*
X89591396Y-145541501D01*
X89405842Y-145411575D01*
X89362217Y-145356998D01*
X89355023Y-145287500D01*
X89386546Y-145225145D01*
X89405842Y-145208425D01*
X89428026Y-145192891D01*
X89591401Y-145078495D01*
X89758495Y-144911401D01*
X89894035Y-144717830D01*
X89993903Y-144503663D01*
X90055063Y-144275408D01*
X90075659Y-144040000D01*
X90055063Y-143804592D01*
X89993903Y-143576337D01*
X89894035Y-143362171D01*
X89876994Y-143337834D01*
X89758496Y-143168600D01*
X89702001Y-143112105D01*
X89636179Y-143046283D01*
X89602696Y-142984963D01*
X89607680Y-142915271D01*
X89649551Y-142859337D01*
X89680529Y-142842422D01*
X89812086Y-142793354D01*
X89812093Y-142793350D01*
X89927187Y-142707190D01*
X89927190Y-142707187D01*
X90013350Y-142592093D01*
X90013354Y-142592086D01*
X90063596Y-142457379D01*
X90063598Y-142457372D01*
X90069999Y-142397844D01*
X90070000Y-142397827D01*
X90070000Y-141750000D01*
X89164560Y-141750000D01*
X89195245Y-141696853D01*
X89230000Y-141567143D01*
X89230000Y-141432857D01*
X89195245Y-141303147D01*
X89164560Y-141250000D01*
X90070000Y-141250000D01*
X90070000Y-140602172D01*
X90069999Y-140602155D01*
X90063598Y-140542627D01*
X90063596Y-140542620D01*
X90013354Y-140407913D01*
X90013350Y-140407906D01*
X89927190Y-140292812D01*
X89927187Y-140292809D01*
X89812093Y-140206649D01*
X89812088Y-140206646D01*
X89680528Y-140157577D01*
X89624595Y-140115705D01*
X89600178Y-140050241D01*
X89615030Y-139981968D01*
X89636175Y-139953720D01*
X89758495Y-139831401D01*
X89894035Y-139637830D01*
X89993903Y-139423663D01*
X90055063Y-139195408D01*
X90075659Y-138960000D01*
X90055063Y-138724592D01*
X89993903Y-138496337D01*
X89894035Y-138282171D01*
X89876995Y-138257834D01*
X89758494Y-138088597D01*
X89591402Y-137921506D01*
X89591396Y-137921501D01*
X89405842Y-137791575D01*
X89362217Y-137736998D01*
X89355023Y-137667500D01*
X89386546Y-137605145D01*
X89405842Y-137588425D01*
X89428026Y-137572891D01*
X89591401Y-137458495D01*
X89758495Y-137291401D01*
X89894035Y-137097830D01*
X89993903Y-136883663D01*
X90055063Y-136655408D01*
X90075659Y-136420000D01*
X90055063Y-136184592D01*
X89993903Y-135956337D01*
X89894035Y-135742171D01*
X89876995Y-135717834D01*
X89758494Y-135548597D01*
X89591402Y-135381506D01*
X89591396Y-135381501D01*
X89405842Y-135251575D01*
X89362217Y-135196998D01*
X89355023Y-135127500D01*
X89386546Y-135065145D01*
X89405842Y-135048425D01*
X89428026Y-135032891D01*
X89591401Y-134918495D01*
X89758495Y-134751401D01*
X89894035Y-134557830D01*
X89993903Y-134343663D01*
X90055063Y-134115408D01*
X90075659Y-133880000D01*
X90055063Y-133644592D01*
X89993903Y-133416337D01*
X89894035Y-133202171D01*
X89876995Y-133177834D01*
X89758494Y-133008597D01*
X89591402Y-132841506D01*
X89591396Y-132841501D01*
X89405842Y-132711575D01*
X89362217Y-132656998D01*
X89355023Y-132587500D01*
X89386546Y-132525145D01*
X89405842Y-132508425D01*
X89428026Y-132492891D01*
X89591401Y-132378495D01*
X89758495Y-132211401D01*
X89894035Y-132017830D01*
X89993903Y-131803663D01*
X90055063Y-131575408D01*
X90075659Y-131340000D01*
X90055063Y-131104592D01*
X90008626Y-130931285D01*
X89993905Y-130876344D01*
X89993904Y-130876343D01*
X89993903Y-130876337D01*
X89894035Y-130662171D01*
X89758495Y-130468599D01*
X89636179Y-130346283D01*
X89602696Y-130284963D01*
X89607680Y-130215271D01*
X89649551Y-130159337D01*
X89680529Y-130142422D01*
X89812086Y-130093354D01*
X89812093Y-130093350D01*
X89927187Y-130007190D01*
X89927190Y-130007187D01*
X90013350Y-129892093D01*
X90013354Y-129892086D01*
X90063596Y-129757379D01*
X90063598Y-129757372D01*
X90069999Y-129697844D01*
X90070000Y-129697827D01*
X90070000Y-129050000D01*
X89164560Y-129050000D01*
X89195245Y-128996853D01*
X89230000Y-128867143D01*
X89230000Y-128732857D01*
X89195245Y-128603147D01*
X89164560Y-128550000D01*
X90070000Y-128550000D01*
X90070000Y-127902172D01*
X90069999Y-127902155D01*
X90063598Y-127842627D01*
X90063596Y-127842620D01*
X90013354Y-127707913D01*
X90013350Y-127707906D01*
X89927190Y-127592812D01*
X89927187Y-127592809D01*
X89812093Y-127506649D01*
X89812088Y-127506646D01*
X89680528Y-127457577D01*
X89624595Y-127415705D01*
X89600178Y-127350241D01*
X89615030Y-127281968D01*
X89636175Y-127253720D01*
X89758495Y-127131401D01*
X89894035Y-126937830D01*
X89993903Y-126723663D01*
X90055063Y-126495408D01*
X90075659Y-126260000D01*
X90055063Y-126024592D01*
X89997553Y-125809960D01*
X89993905Y-125796344D01*
X89993904Y-125796343D01*
X89993903Y-125796337D01*
X89894035Y-125582171D01*
X89758495Y-125388599D01*
X89758494Y-125388597D01*
X89591402Y-125221506D01*
X89591396Y-125221501D01*
X89405842Y-125091575D01*
X89362217Y-125036998D01*
X89355023Y-124967500D01*
X89386546Y-124905145D01*
X89405842Y-124888425D01*
X89489027Y-124830178D01*
X89591401Y-124758495D01*
X89758495Y-124591401D01*
X89894035Y-124397830D01*
X89993903Y-124183663D01*
X90055063Y-123955408D01*
X90055536Y-123949999D01*
X93714341Y-123949999D01*
X93714341Y-123950000D01*
X93734936Y-124185403D01*
X93734938Y-124185413D01*
X93796094Y-124413655D01*
X93796096Y-124413659D01*
X93796097Y-124413663D01*
X93870945Y-124574174D01*
X93895965Y-124627830D01*
X93895967Y-124627834D01*
X93950578Y-124705826D01*
X94031505Y-124821401D01*
X94198599Y-124988495D01*
X94272297Y-125040099D01*
X94392165Y-125124032D01*
X94392167Y-125124033D01*
X94392170Y-125124035D01*
X94606337Y-125223903D01*
X94834592Y-125285063D01*
X95005319Y-125300000D01*
X95069999Y-125305659D01*
X95070000Y-125305659D01*
X95070001Y-125305659D01*
X95134681Y-125300000D01*
X95305408Y-125285063D01*
X95533663Y-125223903D01*
X95747830Y-125124035D01*
X95941401Y-124988495D01*
X96063717Y-124866178D01*
X96125036Y-124832696D01*
X96194728Y-124837680D01*
X96250662Y-124879551D01*
X96267577Y-124910528D01*
X96316646Y-125042088D01*
X96316649Y-125042093D01*
X96402809Y-125157187D01*
X96402812Y-125157190D01*
X96517906Y-125243350D01*
X96517913Y-125243354D01*
X96652620Y-125293596D01*
X96652627Y-125293598D01*
X96712155Y-125299999D01*
X96712172Y-125300000D01*
X97360000Y-125300000D01*
X97360000Y-124394560D01*
X97413147Y-124425245D01*
X97542857Y-124460000D01*
X97677143Y-124460000D01*
X97806853Y-124425245D01*
X97860000Y-124394560D01*
X97860000Y-125300000D01*
X98507828Y-125300000D01*
X98507844Y-125299999D01*
X98567372Y-125293598D01*
X98567379Y-125293596D01*
X98702086Y-125243354D01*
X98702093Y-125243350D01*
X98817187Y-125157190D01*
X98817190Y-125157187D01*
X98903350Y-125042093D01*
X98903354Y-125042086D01*
X98952422Y-124910529D01*
X98994293Y-124854595D01*
X99059757Y-124830178D01*
X99128030Y-124845030D01*
X99156285Y-124866181D01*
X99278599Y-124988495D01*
X99352297Y-125040099D01*
X99472165Y-125124032D01*
X99472167Y-125124033D01*
X99472170Y-125124035D01*
X99686337Y-125223903D01*
X99914592Y-125285063D01*
X100085319Y-125300000D01*
X100149999Y-125305659D01*
X100150000Y-125305659D01*
X100150001Y-125305659D01*
X100214681Y-125300000D01*
X100385408Y-125285063D01*
X100613663Y-125223903D01*
X100827830Y-125124035D01*
X101021401Y-124988495D01*
X101188495Y-124821401D01*
X101324035Y-124627830D01*
X101423903Y-124413663D01*
X101485063Y-124185408D01*
X101505659Y-123950000D01*
X101485063Y-123714592D01*
X101426355Y-123495487D01*
X101423905Y-123486344D01*
X101423904Y-123486343D01*
X101423903Y-123486337D01*
X101324035Y-123272171D01*
X101323073Y-123270796D01*
X101188494Y-123078597D01*
X101021402Y-122911506D01*
X101021395Y-122911501D01*
X100827834Y-122775967D01*
X100827830Y-122775965D01*
X100827828Y-122775964D01*
X100613663Y-122676097D01*
X100613659Y-122676096D01*
X100613655Y-122676094D01*
X100385413Y-122614938D01*
X100385403Y-122614936D01*
X100150001Y-122594341D01*
X100149999Y-122594341D01*
X99914596Y-122614936D01*
X99914586Y-122614938D01*
X99686344Y-122676094D01*
X99686335Y-122676098D01*
X99472171Y-122775964D01*
X99472169Y-122775965D01*
X99278600Y-122911503D01*
X99156284Y-123033819D01*
X99094961Y-123067303D01*
X99025269Y-123062319D01*
X98969336Y-123020447D01*
X98952421Y-122989470D01*
X98903354Y-122857913D01*
X98903350Y-122857906D01*
X98817190Y-122742812D01*
X98817187Y-122742809D01*
X98702093Y-122656649D01*
X98702086Y-122656645D01*
X98567379Y-122606403D01*
X98567372Y-122606401D01*
X98507844Y-122600000D01*
X97860000Y-122600000D01*
X97860000Y-123505439D01*
X97806853Y-123474755D01*
X97677143Y-123440000D01*
X97542857Y-123440000D01*
X97413147Y-123474755D01*
X97360000Y-123505439D01*
X97360000Y-122600000D01*
X96712155Y-122600000D01*
X96652627Y-122606401D01*
X96652620Y-122606403D01*
X96517913Y-122656645D01*
X96517906Y-122656649D01*
X96402812Y-122742809D01*
X96402809Y-122742812D01*
X96316649Y-122857906D01*
X96316645Y-122857913D01*
X96267578Y-122989470D01*
X96225707Y-123045404D01*
X96160242Y-123069821D01*
X96091969Y-123054969D01*
X96063715Y-123033819D01*
X96019366Y-122989470D01*
X95941401Y-122911505D01*
X95941397Y-122911502D01*
X95941396Y-122911501D01*
X95747834Y-122775967D01*
X95747830Y-122775965D01*
X95747828Y-122775964D01*
X95533663Y-122676097D01*
X95533659Y-122676096D01*
X95533655Y-122676094D01*
X95305413Y-122614938D01*
X95305403Y-122614936D01*
X95070001Y-122594341D01*
X95069999Y-122594341D01*
X94834596Y-122614936D01*
X94834586Y-122614938D01*
X94606344Y-122676094D01*
X94606335Y-122676098D01*
X94392171Y-122775964D01*
X94392169Y-122775965D01*
X94198597Y-122911505D01*
X94031505Y-123078597D01*
X93895965Y-123272169D01*
X93895964Y-123272171D01*
X93796098Y-123486335D01*
X93796094Y-123486344D01*
X93734938Y-123714586D01*
X93734936Y-123714596D01*
X93714341Y-123949999D01*
X90055536Y-123949999D01*
X90075659Y-123720000D01*
X90055063Y-123484592D01*
X89998004Y-123271641D01*
X89993905Y-123256344D01*
X89993904Y-123256343D01*
X89993903Y-123256337D01*
X89894035Y-123042171D01*
X89802540Y-122911501D01*
X89758494Y-122848597D01*
X89591402Y-122681506D01*
X89591395Y-122681501D01*
X89583677Y-122676097D01*
X89496334Y-122614938D01*
X89397834Y-122545967D01*
X89397830Y-122545965D01*
X89397828Y-122545964D01*
X89183663Y-122446097D01*
X89183659Y-122446096D01*
X89183655Y-122446094D01*
X88955413Y-122384938D01*
X88955403Y-122384936D01*
X88720001Y-122364341D01*
X88719999Y-122364341D01*
X88484596Y-122384936D01*
X88484586Y-122384938D01*
X88256344Y-122446094D01*
X88256335Y-122446098D01*
X88042171Y-122545964D01*
X88042169Y-122545965D01*
X87848597Y-122681505D01*
X87681505Y-122848597D01*
X87545965Y-123042169D01*
X87545964Y-123042171D01*
X87446098Y-123256335D01*
X87446094Y-123256344D01*
X87384938Y-123484586D01*
X87384936Y-123484596D01*
X87364341Y-123719999D01*
X87364341Y-123720000D01*
X87384936Y-123955403D01*
X87384938Y-123955413D01*
X87446094Y-124183655D01*
X87446096Y-124183659D01*
X87446097Y-124183663D01*
X87545965Y-124397830D01*
X87545967Y-124397834D01*
X87681501Y-124591395D01*
X87681506Y-124591402D01*
X87848597Y-124758493D01*
X87848603Y-124758498D01*
X88034158Y-124888425D01*
X88077783Y-124943002D01*
X88084977Y-125012500D01*
X88053454Y-125074855D01*
X88034158Y-125091575D01*
X87848597Y-125221505D01*
X87681505Y-125388597D01*
X87545965Y-125582169D01*
X87545964Y-125582171D01*
X87446098Y-125796335D01*
X87446094Y-125796344D01*
X87384938Y-126024586D01*
X87384936Y-126024596D01*
X87364341Y-126259999D01*
X87364341Y-126260000D01*
X87384936Y-126495403D01*
X87384938Y-126495413D01*
X87446094Y-126723655D01*
X87446096Y-126723659D01*
X87446097Y-126723663D01*
X87545965Y-126937830D01*
X87545967Y-126937834D01*
X87654281Y-127092521D01*
X87681501Y-127131396D01*
X87681506Y-127131402D01*
X87803818Y-127253714D01*
X87837303Y-127315037D01*
X87832319Y-127384729D01*
X87790447Y-127440662D01*
X87759471Y-127457577D01*
X87627912Y-127506646D01*
X87627906Y-127506649D01*
X87512812Y-127592809D01*
X87512809Y-127592812D01*
X87426649Y-127707906D01*
X87426645Y-127707913D01*
X87376403Y-127842620D01*
X87376401Y-127842627D01*
X87370000Y-127902155D01*
X87370000Y-128550000D01*
X88275440Y-128550000D01*
X88244755Y-128603147D01*
X88210000Y-128732857D01*
X88210000Y-128867143D01*
X88244755Y-128996853D01*
X88275440Y-129050000D01*
X87370000Y-129050000D01*
X87370000Y-129697844D01*
X87376401Y-129757372D01*
X87376403Y-129757379D01*
X87426645Y-129892086D01*
X87426649Y-129892093D01*
X87512809Y-130007187D01*
X87512812Y-130007190D01*
X87627906Y-130093350D01*
X87627913Y-130093354D01*
X87759470Y-130142421D01*
X87815403Y-130184292D01*
X87839821Y-130249756D01*
X87824970Y-130318029D01*
X87803819Y-130346284D01*
X87681503Y-130468600D01*
X87545965Y-130662169D01*
X87545964Y-130662171D01*
X87446098Y-130876335D01*
X87446094Y-130876344D01*
X87384938Y-131104586D01*
X87384936Y-131104596D01*
X87364341Y-131339999D01*
X87364341Y-131340000D01*
X87384936Y-131575403D01*
X87384938Y-131575413D01*
X87446094Y-131803655D01*
X87446096Y-131803659D01*
X87446097Y-131803663D01*
X87545965Y-132017830D01*
X87545967Y-132017834D01*
X87681501Y-132211395D01*
X87681506Y-132211402D01*
X87848597Y-132378493D01*
X87848603Y-132378498D01*
X88034158Y-132508425D01*
X88077783Y-132563002D01*
X88084977Y-132632500D01*
X88053454Y-132694855D01*
X88034158Y-132711575D01*
X87848597Y-132841505D01*
X87681505Y-133008597D01*
X87545965Y-133202169D01*
X87545964Y-133202171D01*
X87446098Y-133416335D01*
X87446094Y-133416344D01*
X87384938Y-133644586D01*
X87384936Y-133644596D01*
X87364341Y-133879999D01*
X87364341Y-133880000D01*
X87384936Y-134115403D01*
X87384938Y-134115413D01*
X87446094Y-134343655D01*
X87446096Y-134343659D01*
X87446097Y-134343663D01*
X87469141Y-134393080D01*
X87545965Y-134557830D01*
X87545967Y-134557834D01*
X87681501Y-134751395D01*
X87681506Y-134751402D01*
X87848597Y-134918493D01*
X87848603Y-134918498D01*
X88034158Y-135048425D01*
X88077783Y-135103002D01*
X88084977Y-135172500D01*
X88053454Y-135234855D01*
X88034158Y-135251575D01*
X87848597Y-135381505D01*
X87681505Y-135548597D01*
X87545965Y-135742169D01*
X87545964Y-135742171D01*
X87446098Y-135956335D01*
X87446094Y-135956344D01*
X87384938Y-136184586D01*
X87384936Y-136184596D01*
X87364341Y-136419999D01*
X87364341Y-136420000D01*
X87384936Y-136655403D01*
X87384938Y-136655413D01*
X87446094Y-136883655D01*
X87446096Y-136883659D01*
X87446097Y-136883663D01*
X87545965Y-137097830D01*
X87545967Y-137097834D01*
X87681501Y-137291395D01*
X87681506Y-137291402D01*
X87848597Y-137458493D01*
X87848603Y-137458498D01*
X88034158Y-137588425D01*
X88077783Y-137643002D01*
X88084977Y-137712500D01*
X88053454Y-137774855D01*
X88034158Y-137791575D01*
X87848597Y-137921505D01*
X87681505Y-138088597D01*
X87545965Y-138282169D01*
X87545964Y-138282171D01*
X87446098Y-138496335D01*
X87446094Y-138496344D01*
X87384938Y-138724586D01*
X87384936Y-138724596D01*
X87364341Y-138959999D01*
X87364341Y-138960000D01*
X87384936Y-139195403D01*
X87384938Y-139195413D01*
X87446094Y-139423655D01*
X87446096Y-139423659D01*
X87446097Y-139423663D01*
X87539260Y-139623451D01*
X87545965Y-139637830D01*
X87545967Y-139637834D01*
X87654281Y-139792521D01*
X87681501Y-139831396D01*
X87681506Y-139831402D01*
X87803818Y-139953714D01*
X87837303Y-140015037D01*
X87832319Y-140084729D01*
X87790447Y-140140662D01*
X87759471Y-140157577D01*
X87627912Y-140206646D01*
X87627906Y-140206649D01*
X87512812Y-140292809D01*
X87512809Y-140292812D01*
X87426649Y-140407906D01*
X87426645Y-140407913D01*
X87376403Y-140542620D01*
X87376401Y-140542627D01*
X87370000Y-140602155D01*
X87370000Y-141250000D01*
X88275440Y-141250000D01*
X88244755Y-141303147D01*
X88210000Y-141432857D01*
X88210000Y-141567143D01*
X88244755Y-141696853D01*
X88275440Y-141750000D01*
X87370000Y-141750000D01*
X87370000Y-142397844D01*
X87376401Y-142457372D01*
X87376403Y-142457379D01*
X87426645Y-142592086D01*
X87426649Y-142592093D01*
X87512809Y-142707187D01*
X87512812Y-142707190D01*
X87627906Y-142793350D01*
X87627913Y-142793354D01*
X87759470Y-142842421D01*
X87815403Y-142884292D01*
X87839821Y-142949756D01*
X87824970Y-143018029D01*
X87803819Y-143046284D01*
X87681503Y-143168600D01*
X87545965Y-143362169D01*
X87545964Y-143362171D01*
X87446098Y-143576335D01*
X87446094Y-143576344D01*
X87384938Y-143804586D01*
X87384936Y-143804596D01*
X87364341Y-144039999D01*
X87364341Y-144040000D01*
X87384936Y-144275403D01*
X87384938Y-144275413D01*
X87446094Y-144503655D01*
X87446096Y-144503659D01*
X87446097Y-144503663D01*
X87539260Y-144703451D01*
X87545965Y-144717830D01*
X87545967Y-144717834D01*
X87681501Y-144911395D01*
X87681506Y-144911402D01*
X87848597Y-145078493D01*
X87848603Y-145078498D01*
X88034158Y-145208425D01*
X88077783Y-145263002D01*
X88084977Y-145332500D01*
X88053454Y-145394855D01*
X88034158Y-145411575D01*
X87848597Y-145541505D01*
X87681505Y-145708597D01*
X87545965Y-145902169D01*
X87545964Y-145902171D01*
X87446098Y-146116335D01*
X87446094Y-146116344D01*
X87384938Y-146344586D01*
X87384936Y-146344596D01*
X87364341Y-146579999D01*
X87364341Y-146580000D01*
X87384936Y-146815403D01*
X87384938Y-146815413D01*
X87446094Y-147043655D01*
X87446096Y-147043659D01*
X87446097Y-147043663D01*
X87545965Y-147257830D01*
X87545967Y-147257834D01*
X87681501Y-147451395D01*
X87681506Y-147451402D01*
X87848597Y-147618493D01*
X87848603Y-147618498D01*
X88034158Y-147748425D01*
X88077783Y-147803002D01*
X88084977Y-147872500D01*
X88053454Y-147934855D01*
X88034158Y-147951575D01*
X87848597Y-148081505D01*
X87681505Y-148248597D01*
X87545965Y-148442169D01*
X87545964Y-148442171D01*
X87446098Y-148656335D01*
X87446094Y-148656344D01*
X87384938Y-148884586D01*
X87384936Y-148884596D01*
X87364341Y-149119999D01*
X87364341Y-149120000D01*
X87384936Y-149355403D01*
X87384938Y-149355413D01*
X87446094Y-149583655D01*
X87446096Y-149583659D01*
X87446097Y-149583663D01*
X87545965Y-149797830D01*
X87545967Y-149797834D01*
X87681501Y-149991395D01*
X87681506Y-149991402D01*
X87848597Y-150158493D01*
X87848603Y-150158498D01*
X88034158Y-150288425D01*
X88077783Y-150343002D01*
X88084977Y-150412500D01*
X88053454Y-150474855D01*
X88034158Y-150491575D01*
X87848597Y-150621505D01*
X87681505Y-150788597D01*
X87545965Y-150982169D01*
X87545964Y-150982171D01*
X87446098Y-151196335D01*
X87446094Y-151196344D01*
X87384938Y-151424586D01*
X87384936Y-151424596D01*
X87364341Y-151659999D01*
X87364341Y-151660000D01*
X87384936Y-151895403D01*
X87384938Y-151895413D01*
X87446094Y-152123655D01*
X87446096Y-152123659D01*
X87446097Y-152123663D01*
X87447137Y-152125893D01*
X87545965Y-152337830D01*
X87545967Y-152337834D01*
X87654281Y-152492521D01*
X87681501Y-152531396D01*
X87681506Y-152531402D01*
X87803430Y-152653326D01*
X87836915Y-152714649D01*
X87831931Y-152784341D01*
X87790059Y-152840274D01*
X87759083Y-152857189D01*
X87627669Y-152906203D01*
X87627664Y-152906206D01*
X87512455Y-152992452D01*
X87512452Y-152992455D01*
X87426206Y-153107664D01*
X87426202Y-153107671D01*
X87375908Y-153242517D01*
X87369501Y-153302116D01*
X87369501Y-153302123D01*
X87369500Y-153302135D01*
X87369500Y-155097870D01*
X87369501Y-155097876D01*
X87375908Y-155157483D01*
X87426202Y-155292328D01*
X87426206Y-155292335D01*
X87512452Y-155407544D01*
X87512455Y-155407547D01*
X87627664Y-155493793D01*
X87627671Y-155493797D01*
X87759081Y-155542810D01*
X87815015Y-155584681D01*
X87839432Y-155650145D01*
X87824580Y-155718418D01*
X87803430Y-155746673D01*
X87681503Y-155868600D01*
X87545965Y-156062169D01*
X87545964Y-156062171D01*
X87446098Y-156276335D01*
X87446094Y-156276344D01*
X87384938Y-156504586D01*
X87384936Y-156504596D01*
X87364341Y-156739999D01*
X87364341Y-156740000D01*
X87384936Y-156975403D01*
X87384938Y-156975413D01*
X87446094Y-157203655D01*
X87446096Y-157203659D01*
X87446097Y-157203663D01*
X87447137Y-157205893D01*
X87545965Y-157417830D01*
X87545967Y-157417834D01*
X87681501Y-157611395D01*
X87681506Y-157611402D01*
X87848597Y-157778493D01*
X87848603Y-157778498D01*
X88034158Y-157908425D01*
X88077783Y-157963002D01*
X88084977Y-158032500D01*
X88053454Y-158094855D01*
X88034158Y-158111575D01*
X87848597Y-158241505D01*
X87681505Y-158408597D01*
X87545965Y-158602169D01*
X87545964Y-158602171D01*
X87446098Y-158816335D01*
X87446094Y-158816344D01*
X87384938Y-159044586D01*
X87384936Y-159044596D01*
X87364341Y-159279999D01*
X87364341Y-159280000D01*
X87384936Y-159515403D01*
X87384938Y-159515413D01*
X87446094Y-159743655D01*
X87446096Y-159743659D01*
X87446097Y-159743663D01*
X87447137Y-159745893D01*
X87545965Y-159957830D01*
X87545967Y-159957834D01*
X87681501Y-160151395D01*
X87681506Y-160151402D01*
X87848597Y-160318493D01*
X87848603Y-160318498D01*
X88034158Y-160448425D01*
X88077783Y-160503002D01*
X88084977Y-160572500D01*
X88053454Y-160634855D01*
X88034158Y-160651575D01*
X87848597Y-160781505D01*
X87681505Y-160948597D01*
X87545965Y-161142169D01*
X87545964Y-161142171D01*
X87446098Y-161356335D01*
X87446094Y-161356344D01*
X87384938Y-161584586D01*
X87384936Y-161584596D01*
X87364341Y-161819999D01*
X87364341Y-161820000D01*
X87384936Y-162055403D01*
X87384938Y-162055413D01*
X87446094Y-162283655D01*
X87446096Y-162283659D01*
X87446097Y-162283663D01*
X87447137Y-162285893D01*
X87545965Y-162497830D01*
X87545967Y-162497834D01*
X87681501Y-162691395D01*
X87681506Y-162691402D01*
X87848597Y-162858493D01*
X87848603Y-162858498D01*
X88034158Y-162988425D01*
X88077783Y-163043002D01*
X88084977Y-163112500D01*
X88053454Y-163174855D01*
X88034158Y-163191575D01*
X87848597Y-163321505D01*
X87681505Y-163488597D01*
X87545965Y-163682169D01*
X87545964Y-163682171D01*
X87446098Y-163896335D01*
X87446094Y-163896344D01*
X87384938Y-164124586D01*
X87384936Y-164124596D01*
X87364341Y-164359999D01*
X87364341Y-164360000D01*
X87384936Y-164595403D01*
X87384938Y-164595413D01*
X87446094Y-164823655D01*
X87446096Y-164823659D01*
X87446097Y-164823663D01*
X87545965Y-165037830D01*
X87545967Y-165037834D01*
X87619186Y-165142401D01*
X87681501Y-165231396D01*
X87681506Y-165231402D01*
X87803818Y-165353714D01*
X87837303Y-165415037D01*
X87832319Y-165484729D01*
X87790447Y-165540662D01*
X87759471Y-165557577D01*
X87627912Y-165606646D01*
X87627906Y-165606649D01*
X87512812Y-165692809D01*
X87512809Y-165692812D01*
X87426649Y-165807906D01*
X87426645Y-165807913D01*
X87376403Y-165942620D01*
X87376401Y-165942627D01*
X87370000Y-166002155D01*
X87370000Y-166650000D01*
X88275440Y-166650000D01*
X88244755Y-166703147D01*
X88210000Y-166832857D01*
X88210000Y-166967143D01*
X88244755Y-167096853D01*
X88275440Y-167150000D01*
X87370000Y-167150000D01*
X87370000Y-167797844D01*
X87376401Y-167857372D01*
X87376403Y-167857379D01*
X87426645Y-167992086D01*
X87426649Y-167992093D01*
X87512809Y-168107187D01*
X87512812Y-168107190D01*
X87627906Y-168193350D01*
X87627913Y-168193354D01*
X87759470Y-168242421D01*
X87815403Y-168284292D01*
X87839821Y-168349756D01*
X87824970Y-168418029D01*
X87803819Y-168446284D01*
X87681503Y-168568600D01*
X87545965Y-168762169D01*
X87545964Y-168762171D01*
X87446098Y-168976335D01*
X87446094Y-168976344D01*
X87384938Y-169204586D01*
X87384936Y-169204596D01*
X87364341Y-169439999D01*
X87364341Y-169440000D01*
X87384936Y-169675403D01*
X87384938Y-169675413D01*
X87446094Y-169903655D01*
X87446096Y-169903659D01*
X87446097Y-169903663D01*
X87490821Y-169999573D01*
X87545965Y-170117830D01*
X87545967Y-170117834D01*
X87681501Y-170311395D01*
X87681506Y-170311402D01*
X87848597Y-170478493D01*
X87848603Y-170478498D01*
X88034158Y-170608425D01*
X88077783Y-170663002D01*
X88084977Y-170732500D01*
X88053454Y-170794855D01*
X88034158Y-170811575D01*
X87848597Y-170941505D01*
X87681505Y-171108597D01*
X87545965Y-171302169D01*
X87545964Y-171302171D01*
X87446098Y-171516335D01*
X87446094Y-171516344D01*
X87384938Y-171744586D01*
X87384936Y-171744596D01*
X87364341Y-171979999D01*
X87364341Y-171980000D01*
X87384936Y-172215403D01*
X87384938Y-172215413D01*
X87419368Y-172343907D01*
X87417705Y-172413757D01*
X87378542Y-172471619D01*
X87314314Y-172499123D01*
X87299593Y-172500000D01*
X81302123Y-172500000D01*
X81235084Y-172480315D01*
X81189329Y-172427511D01*
X81179385Y-172358353D01*
X81180154Y-172353649D01*
X81185213Y-172326039D01*
X81204934Y-172000000D01*
X81185213Y-171673961D01*
X81126332Y-171352658D01*
X81029164Y-171040835D01*
X81029160Y-171040824D01*
X80895102Y-170742958D01*
X80895101Y-170742956D01*
X80726118Y-170463423D01*
X80578522Y-170275030D01*
X79436290Y-171417262D01*
X79339033Y-171283398D01*
X79216602Y-171160967D01*
X79082736Y-171063708D01*
X80224968Y-169921476D01*
X80036576Y-169773881D01*
X79757043Y-169604898D01*
X79757041Y-169604897D01*
X79459175Y-169470839D01*
X79459164Y-169470835D01*
X79147341Y-169373667D01*
X78826038Y-169314786D01*
X78500000Y-169295065D01*
X78173961Y-169314786D01*
X77852666Y-169373665D01*
X77660890Y-169433425D01*
X77591030Y-169434575D01*
X77531637Y-169397774D01*
X77501569Y-169334705D01*
X77500000Y-169315039D01*
X77500000Y-127419999D01*
X78644341Y-127419999D01*
X78644341Y-127420000D01*
X78664936Y-127655403D01*
X78664938Y-127655413D01*
X78726094Y-127883655D01*
X78726096Y-127883659D01*
X78726097Y-127883663D01*
X78734720Y-127902155D01*
X78825965Y-128097830D01*
X78825967Y-128097834D01*
X78961501Y-128291395D01*
X78961506Y-128291402D01*
X79128597Y-128458493D01*
X79128603Y-128458498D01*
X79314594Y-128588730D01*
X79358219Y-128643307D01*
X79365413Y-128712805D01*
X79333890Y-128775160D01*
X79314595Y-128791880D01*
X79128922Y-128921890D01*
X79128920Y-128921891D01*
X78961891Y-129088920D01*
X78961886Y-129088926D01*
X78826400Y-129282420D01*
X78826399Y-129282422D01*
X78726570Y-129496507D01*
X78726567Y-129496513D01*
X78669364Y-129709999D01*
X78669364Y-129710000D01*
X79566988Y-129710000D01*
X79534075Y-129767007D01*
X79500000Y-129894174D01*
X79500000Y-130025826D01*
X79534075Y-130152993D01*
X79566988Y-130210000D01*
X78669364Y-130210000D01*
X78726567Y-130423486D01*
X78726570Y-130423492D01*
X78826399Y-130637578D01*
X78961894Y-130831082D01*
X79128917Y-130998105D01*
X79314595Y-131128119D01*
X79358219Y-131182696D01*
X79365412Y-131252195D01*
X79333890Y-131314549D01*
X79314595Y-131331269D01*
X79128594Y-131461508D01*
X78961505Y-131628597D01*
X78825965Y-131822169D01*
X78825964Y-131822171D01*
X78726098Y-132036335D01*
X78726094Y-132036344D01*
X78664938Y-132264586D01*
X78664936Y-132264596D01*
X78644341Y-132499999D01*
X78644341Y-132500000D01*
X78664936Y-132735403D01*
X78664938Y-132735413D01*
X78726094Y-132963655D01*
X78726096Y-132963659D01*
X78726097Y-132963663D01*
X78747051Y-133008599D01*
X78825965Y-133177830D01*
X78825967Y-133177834D01*
X78961501Y-133371395D01*
X78961506Y-133371402D01*
X79128597Y-133538493D01*
X79128603Y-133538498D01*
X79314158Y-133668425D01*
X79357783Y-133723002D01*
X79364977Y-133792500D01*
X79333454Y-133854855D01*
X79314158Y-133871575D01*
X79128597Y-134001505D01*
X78961505Y-134168597D01*
X78825965Y-134362169D01*
X78825964Y-134362171D01*
X78726098Y-134576335D01*
X78726094Y-134576344D01*
X78664938Y-134804586D01*
X78664936Y-134804596D01*
X78644341Y-135039999D01*
X78644341Y-135040000D01*
X78664936Y-135275403D01*
X78664938Y-135275413D01*
X78726094Y-135503655D01*
X78726096Y-135503659D01*
X78726097Y-135503663D01*
X78825965Y-135717830D01*
X78825967Y-135717834D01*
X78961501Y-135911395D01*
X78961506Y-135911402D01*
X79128597Y-136078493D01*
X79128603Y-136078498D01*
X79314158Y-136208425D01*
X79357783Y-136263002D01*
X79364977Y-136332500D01*
X79333454Y-136394855D01*
X79314158Y-136411575D01*
X79128597Y-136541505D01*
X78961505Y-136708597D01*
X78825965Y-136902169D01*
X78825964Y-136902171D01*
X78726098Y-137116335D01*
X78726094Y-137116344D01*
X78664938Y-137344586D01*
X78664936Y-137344596D01*
X78644341Y-137579999D01*
X78644341Y-137580000D01*
X78664936Y-137815403D01*
X78664938Y-137815413D01*
X78726094Y-138043655D01*
X78726096Y-138043659D01*
X78726097Y-138043663D01*
X78807939Y-138219174D01*
X78825965Y-138257830D01*
X78825967Y-138257834D01*
X78961501Y-138451395D01*
X78961506Y-138451402D01*
X79128597Y-138618493D01*
X79128603Y-138618498D01*
X79314158Y-138748425D01*
X79357783Y-138803002D01*
X79364977Y-138872500D01*
X79333454Y-138934855D01*
X79314158Y-138951575D01*
X79128597Y-139081505D01*
X78961505Y-139248597D01*
X78825965Y-139442169D01*
X78825964Y-139442171D01*
X78726098Y-139656335D01*
X78726094Y-139656344D01*
X78664938Y-139884586D01*
X78664936Y-139884596D01*
X78644341Y-140119999D01*
X78644341Y-140120000D01*
X78664936Y-140355403D01*
X78664938Y-140355413D01*
X78726094Y-140583655D01*
X78726096Y-140583659D01*
X78726097Y-140583663D01*
X78770208Y-140678258D01*
X78825965Y-140797830D01*
X78825967Y-140797834D01*
X78961501Y-140991395D01*
X78961506Y-140991402D01*
X79128597Y-141158493D01*
X79128603Y-141158498D01*
X79314158Y-141288425D01*
X79357783Y-141343002D01*
X79364977Y-141412500D01*
X79333454Y-141474855D01*
X79314158Y-141491575D01*
X79128597Y-141621505D01*
X78961505Y-141788597D01*
X78825965Y-141982169D01*
X78825964Y-141982171D01*
X78726098Y-142196335D01*
X78726094Y-142196344D01*
X78664938Y-142424586D01*
X78664936Y-142424596D01*
X78644341Y-142659999D01*
X78644341Y-142660000D01*
X78664936Y-142895403D01*
X78664938Y-142895413D01*
X78726094Y-143123655D01*
X78726096Y-143123659D01*
X78726097Y-143123663D01*
X78807939Y-143299174D01*
X78825965Y-143337830D01*
X78825967Y-143337834D01*
X78908272Y-143455377D01*
X78961501Y-143531396D01*
X78961506Y-143531402D01*
X79083430Y-143653326D01*
X79116915Y-143714649D01*
X79111931Y-143784341D01*
X79070059Y-143840274D01*
X79039083Y-143857189D01*
X78907669Y-143906203D01*
X78907664Y-143906206D01*
X78792455Y-143992452D01*
X78792452Y-143992455D01*
X78706206Y-144107664D01*
X78706202Y-144107671D01*
X78655908Y-144242517D01*
X78652372Y-144275413D01*
X78649501Y-144302123D01*
X78649500Y-144302135D01*
X78649500Y-146097870D01*
X78649501Y-146097876D01*
X78655908Y-146157483D01*
X78706202Y-146292328D01*
X78706206Y-146292335D01*
X78792452Y-146407544D01*
X78792455Y-146407547D01*
X78907664Y-146493793D01*
X78907671Y-146493797D01*
X79042517Y-146544091D01*
X79042516Y-146544091D01*
X79049444Y-146544835D01*
X79102127Y-146550500D01*
X80897872Y-146550499D01*
X80957483Y-146544091D01*
X81092331Y-146493796D01*
X81207546Y-146407546D01*
X81293796Y-146292331D01*
X81344091Y-146157483D01*
X81350500Y-146097873D01*
X81350499Y-144302128D01*
X81344091Y-144242517D01*
X81293796Y-144107669D01*
X81293795Y-144107668D01*
X81293793Y-144107664D01*
X81207547Y-143992455D01*
X81207544Y-143992452D01*
X81092335Y-143906206D01*
X81092328Y-143906202D01*
X80960917Y-143857189D01*
X80904983Y-143815318D01*
X80880566Y-143749853D01*
X80895418Y-143681580D01*
X80916563Y-143653332D01*
X81038495Y-143531401D01*
X81174035Y-143337830D01*
X81273903Y-143123663D01*
X81335063Y-142895408D01*
X81355659Y-142660000D01*
X81335063Y-142424592D01*
X81273903Y-142196337D01*
X81174035Y-141982171D01*
X81169186Y-141975245D01*
X81038494Y-141788597D01*
X80871402Y-141621506D01*
X80871396Y-141621501D01*
X80685842Y-141491575D01*
X80642217Y-141436998D01*
X80635023Y-141367500D01*
X80666546Y-141305145D01*
X80685842Y-141288425D01*
X80769281Y-141230000D01*
X80871401Y-141158495D01*
X81038495Y-140991401D01*
X81174035Y-140797830D01*
X81273903Y-140583663D01*
X81335063Y-140355408D01*
X81355659Y-140120000D01*
X81335063Y-139884592D01*
X81273903Y-139656337D01*
X81174035Y-139442171D01*
X81161077Y-139423664D01*
X81038494Y-139248597D01*
X80871402Y-139081506D01*
X80871396Y-139081501D01*
X80685842Y-138951575D01*
X80642217Y-138896998D01*
X80635023Y-138827500D01*
X80666546Y-138765145D01*
X80685842Y-138748425D01*
X80719887Y-138724586D01*
X80871401Y-138618495D01*
X81038495Y-138451401D01*
X81174035Y-138257830D01*
X81273903Y-138043663D01*
X81335063Y-137815408D01*
X81355659Y-137580000D01*
X81335063Y-137344592D01*
X81273903Y-137116337D01*
X81174035Y-136902171D01*
X81161077Y-136883664D01*
X81038494Y-136708597D01*
X80871402Y-136541506D01*
X80871396Y-136541501D01*
X80685842Y-136411575D01*
X80642217Y-136356998D01*
X80635023Y-136287500D01*
X80666546Y-136225145D01*
X80685842Y-136208425D01*
X80719887Y-136184586D01*
X80871401Y-136078495D01*
X81038495Y-135911401D01*
X81174035Y-135717830D01*
X81273903Y-135503663D01*
X81335063Y-135275408D01*
X81355659Y-135040000D01*
X81335063Y-134804592D01*
X81273903Y-134576337D01*
X81174035Y-134362171D01*
X81161077Y-134343664D01*
X81038494Y-134168597D01*
X80871402Y-134001506D01*
X80871396Y-134001501D01*
X80685842Y-133871575D01*
X80642217Y-133816998D01*
X80635023Y-133747500D01*
X80666546Y-133685145D01*
X80685842Y-133668425D01*
X80719887Y-133644586D01*
X80871401Y-133538495D01*
X81038495Y-133371401D01*
X81174035Y-133177830D01*
X81273903Y-132963663D01*
X81335063Y-132735408D01*
X81355659Y-132500000D01*
X81335063Y-132264592D01*
X81273903Y-132036337D01*
X81174035Y-131822171D01*
X81161077Y-131803664D01*
X81038494Y-131628597D01*
X80871402Y-131461506D01*
X80871401Y-131461505D01*
X80685405Y-131331269D01*
X80641781Y-131276692D01*
X80634588Y-131207193D01*
X80666110Y-131144839D01*
X80685405Y-131128119D01*
X80871082Y-130998105D01*
X81038105Y-130831082D01*
X81173600Y-130637578D01*
X81273429Y-130423492D01*
X81273432Y-130423486D01*
X81330636Y-130210000D01*
X80433012Y-130210000D01*
X80465925Y-130152993D01*
X80500000Y-130025826D01*
X80500000Y-129894174D01*
X80465925Y-129767007D01*
X80433012Y-129710000D01*
X81330636Y-129710000D01*
X81330635Y-129709999D01*
X81273432Y-129496513D01*
X81273429Y-129496507D01*
X81173600Y-129282422D01*
X81173599Y-129282420D01*
X81038113Y-129088926D01*
X81038108Y-129088920D01*
X80871078Y-128921890D01*
X80685405Y-128791879D01*
X80641780Y-128737302D01*
X80634588Y-128667804D01*
X80666110Y-128605449D01*
X80685406Y-128588730D01*
X80741261Y-128549620D01*
X80871401Y-128458495D01*
X81038495Y-128291401D01*
X81174035Y-128097830D01*
X81273903Y-127883663D01*
X81335063Y-127655408D01*
X81355659Y-127420000D01*
X81335063Y-127184592D01*
X81273903Y-126956337D01*
X81174035Y-126742171D01*
X81161077Y-126723664D01*
X81038494Y-126548597D01*
X80871402Y-126381506D01*
X80871395Y-126381501D01*
X80677834Y-126245967D01*
X80677830Y-126245965D01*
X80677828Y-126245964D01*
X80463663Y-126146097D01*
X80463659Y-126146096D01*
X80463655Y-126146094D01*
X80235413Y-126084938D01*
X80235403Y-126084936D01*
X80000001Y-126064341D01*
X79999999Y-126064341D01*
X79764596Y-126084936D01*
X79764586Y-126084938D01*
X79536344Y-126146094D01*
X79536335Y-126146098D01*
X79322171Y-126245964D01*
X79322169Y-126245965D01*
X79128597Y-126381505D01*
X78961505Y-126548597D01*
X78825965Y-126742169D01*
X78825964Y-126742171D01*
X78726098Y-126956335D01*
X78726094Y-126956344D01*
X78664938Y-127184586D01*
X78664936Y-127184596D01*
X78644341Y-127419999D01*
X77500000Y-127419999D01*
X77500000Y-113209992D01*
X114049671Y-113209992D01*
X114049671Y-113210007D01*
X114068964Y-113504363D01*
X114068965Y-113504373D01*
X114068966Y-113504380D01*
X114068968Y-113504390D01*
X114126518Y-113793716D01*
X114126521Y-113793730D01*
X114221349Y-114073080D01*
X114351825Y-114337660D01*
X114351829Y-114337667D01*
X114515725Y-114582955D01*
X114710241Y-114804758D01*
X114932043Y-114999273D01*
X115177335Y-115163172D01*
X115441923Y-115293652D01*
X115721278Y-115388481D01*
X115939634Y-115431914D01*
X116001545Y-115464298D01*
X116036119Y-115525014D01*
X116032380Y-115594784D01*
X115991514Y-115651456D01*
X115955706Y-115670812D01*
X115744938Y-115743169D01*
X115744930Y-115743172D01*
X115542408Y-115852772D01*
X115360694Y-115994206D01*
X115360689Y-115994211D01*
X115204728Y-116163629D01*
X115078782Y-116356405D01*
X114986282Y-116567285D01*
X114929753Y-116790515D01*
X114910738Y-117019994D01*
X114910738Y-117020005D01*
X114929753Y-117249484D01*
X114986282Y-117472714D01*
X115078782Y-117683594D01*
X115204728Y-117876370D01*
X115204731Y-117876373D01*
X115360692Y-118045792D01*
X115477591Y-118136778D01*
X115546459Y-118190380D01*
X115545476Y-118191641D01*
X115586183Y-118239349D01*
X115595600Y-118308581D01*
X115566092Y-118371914D01*
X115546136Y-118389205D01*
X115546459Y-118389620D01*
X115360694Y-118534206D01*
X115360689Y-118534211D01*
X115204728Y-118703629D01*
X115078782Y-118896405D01*
X114986282Y-119107285D01*
X114929753Y-119330515D01*
X114910738Y-119559994D01*
X114910738Y-119560005D01*
X114929753Y-119789484D01*
X114986282Y-120012714D01*
X115078782Y-120223594D01*
X115204728Y-120416370D01*
X115204731Y-120416373D01*
X115360692Y-120585792D01*
X115477591Y-120676778D01*
X115546459Y-120730380D01*
X115545476Y-120731641D01*
X115586183Y-120779349D01*
X115595600Y-120848581D01*
X115566092Y-120911914D01*
X115546136Y-120929205D01*
X115546459Y-120929620D01*
X115360694Y-121074206D01*
X115360689Y-121074211D01*
X115204728Y-121243629D01*
X115078782Y-121436405D01*
X114986282Y-121647285D01*
X114929753Y-121870515D01*
X114910738Y-122099994D01*
X114910738Y-122100005D01*
X114929753Y-122329484D01*
X114986282Y-122552714D01*
X115078782Y-122763594D01*
X115204728Y-122956370D01*
X115204731Y-122956373D01*
X115360692Y-123125792D01*
X115477591Y-123216778D01*
X115546459Y-123270380D01*
X115545476Y-123271641D01*
X115586183Y-123319349D01*
X115595600Y-123388581D01*
X115566092Y-123451914D01*
X115546136Y-123469205D01*
X115546459Y-123469620D01*
X115360694Y-123614206D01*
X115360689Y-123614211D01*
X115204728Y-123783629D01*
X115078782Y-123976405D01*
X114986282Y-124187285D01*
X114929753Y-124410515D01*
X114910738Y-124639994D01*
X114910738Y-124640005D01*
X114929753Y-124869484D01*
X114986282Y-125092714D01*
X115078782Y-125303594D01*
X115204728Y-125496370D01*
X115204731Y-125496373D01*
X115360692Y-125665792D01*
X115477591Y-125756778D01*
X115546459Y-125810380D01*
X115545476Y-125811641D01*
X115586183Y-125859349D01*
X115595600Y-125928581D01*
X115566092Y-125991914D01*
X115546136Y-126009205D01*
X115546459Y-126009620D01*
X115360694Y-126154206D01*
X115360689Y-126154211D01*
X115204728Y-126323629D01*
X115078782Y-126516405D01*
X114986282Y-126727285D01*
X114929753Y-126950515D01*
X114910738Y-127179994D01*
X114910738Y-127180005D01*
X114929753Y-127409484D01*
X114986282Y-127632714D01*
X115078782Y-127843594D01*
X115204728Y-128036370D01*
X115204731Y-128036373D01*
X115360692Y-128205792D01*
X115468883Y-128290000D01*
X115546459Y-128350380D01*
X115545476Y-128351641D01*
X115586183Y-128399349D01*
X115595600Y-128468581D01*
X115566092Y-128531914D01*
X115546136Y-128549205D01*
X115546459Y-128549620D01*
X115360694Y-128694206D01*
X115360689Y-128694211D01*
X115204728Y-128863629D01*
X115078782Y-129056405D01*
X114986282Y-129267285D01*
X114929753Y-129490515D01*
X114910738Y-129719994D01*
X114910738Y-129720005D01*
X114929753Y-129949484D01*
X114986282Y-130172714D01*
X115078782Y-130383594D01*
X115204728Y-130576370D01*
X115204731Y-130576373D01*
X115360692Y-130745792D01*
X115542411Y-130887229D01*
X115744931Y-130996828D01*
X115744935Y-130996829D01*
X115744941Y-130996832D01*
X115955705Y-131069187D01*
X116012721Y-131109572D01*
X116038852Y-131174372D01*
X116025801Y-131243012D01*
X115977712Y-131293699D01*
X115939634Y-131308085D01*
X115721283Y-131351518D01*
X115721269Y-131351521D01*
X115441919Y-131446349D01*
X115177334Y-131576828D01*
X114932041Y-131740728D01*
X114710241Y-131935241D01*
X114515728Y-132157041D01*
X114351828Y-132402334D01*
X114221349Y-132666919D01*
X114126521Y-132946269D01*
X114126518Y-132946283D01*
X114068968Y-133235609D01*
X114068964Y-133235636D01*
X114049671Y-133529992D01*
X114049671Y-133530007D01*
X114068964Y-133824363D01*
X114068965Y-133824373D01*
X114068966Y-133824380D01*
X114068968Y-133824390D01*
X114126518Y-134113716D01*
X114126521Y-134113730D01*
X114221349Y-134393080D01*
X114351825Y-134657660D01*
X114351829Y-134657667D01*
X114515725Y-134902955D01*
X114710241Y-135124758D01*
X114932044Y-135319274D01*
X115177332Y-135483170D01*
X115177339Y-135483174D01*
X115218887Y-135503663D01*
X115441923Y-135613652D01*
X115721278Y-135708481D01*
X116010620Y-135766034D01*
X116038888Y-135767886D01*
X116304993Y-135785329D01*
X116305000Y-135785329D01*
X116305007Y-135785329D01*
X116540675Y-135769881D01*
X116599380Y-135766034D01*
X116888722Y-135708481D01*
X117168077Y-135613652D01*
X117432665Y-135483172D01*
X117677957Y-135319273D01*
X117899758Y-135124758D01*
X118094273Y-134902957D01*
X118258172Y-134657665D01*
X118388652Y-134393077D01*
X118483481Y-134113722D01*
X118541034Y-133824380D01*
X118559772Y-133538498D01*
X118560329Y-133530007D01*
X118560329Y-133529992D01*
X118541035Y-133235636D01*
X118541034Y-133235620D01*
X118483481Y-132946278D01*
X118388652Y-132666923D01*
X118258172Y-132402336D01*
X118094273Y-132157043D01*
X118051655Y-132108447D01*
X117899758Y-131935241D01*
X117677955Y-131740725D01*
X117432667Y-131576829D01*
X117432660Y-131576825D01*
X117168080Y-131446349D01*
X116888730Y-131351521D01*
X116888724Y-131351519D01*
X116888722Y-131351519D01*
X116830806Y-131339999D01*
X116670365Y-131308085D01*
X116608454Y-131275700D01*
X116573880Y-131214984D01*
X116577619Y-131145215D01*
X116618486Y-131088543D01*
X116654294Y-131069187D01*
X116865058Y-130996832D01*
X116865060Y-130996831D01*
X116865069Y-130996828D01*
X117067589Y-130887229D01*
X117249308Y-130745792D01*
X117405269Y-130576373D01*
X117531217Y-130383595D01*
X117623717Y-130172716D01*
X117680246Y-129949488D01*
X117696165Y-129757379D01*
X117699262Y-129720005D01*
X117699262Y-129719994D01*
X117680246Y-129490515D01*
X117680246Y-129490512D01*
X117623717Y-129267284D01*
X117531217Y-129056405D01*
X117443335Y-128921891D01*
X117405271Y-128863629D01*
X117323829Y-128775160D01*
X117249308Y-128694208D01*
X117120605Y-128594035D01*
X117063541Y-128549620D01*
X117064525Y-128548354D01*
X117023824Y-128500670D01*
X117014396Y-128431439D01*
X117043893Y-128368102D01*
X117063865Y-128350796D01*
X117063541Y-128350380D01*
X117100174Y-128321866D01*
X117249308Y-128205792D01*
X117405269Y-128036373D01*
X117531217Y-127843595D01*
X117623717Y-127632716D01*
X117680246Y-127409488D01*
X117693154Y-127253713D01*
X117699262Y-127180005D01*
X117699262Y-127179994D01*
X117680729Y-126956344D01*
X117680246Y-126950512D01*
X117623717Y-126727284D01*
X117531217Y-126516405D01*
X117517496Y-126495403D01*
X117405271Y-126323629D01*
X117333775Y-126245964D01*
X117249308Y-126154208D01*
X117155436Y-126081144D01*
X117063541Y-126009620D01*
X117064525Y-126008354D01*
X117023824Y-125960670D01*
X117014396Y-125891439D01*
X117043893Y-125828102D01*
X117063865Y-125810796D01*
X117063541Y-125810380D01*
X117100174Y-125781866D01*
X117249308Y-125665792D01*
X117405269Y-125496373D01*
X117531217Y-125303595D01*
X117623717Y-125092716D01*
X117680246Y-124869488D01*
X117689443Y-124758493D01*
X117699262Y-124640005D01*
X117699262Y-124639994D01*
X117680506Y-124413655D01*
X117680246Y-124410512D01*
X117623717Y-124187284D01*
X117531217Y-123976405D01*
X117470099Y-123882857D01*
X117405271Y-123783629D01*
X117346695Y-123719999D01*
X117249308Y-123614208D01*
X117096775Y-123495487D01*
X117063541Y-123469620D01*
X117064525Y-123468354D01*
X117023824Y-123420670D01*
X117014396Y-123351439D01*
X117043893Y-123288102D01*
X117063865Y-123270796D01*
X117063541Y-123270380D01*
X117100174Y-123241866D01*
X117249308Y-123125792D01*
X117405269Y-122956373D01*
X117531217Y-122763595D01*
X117623717Y-122552716D01*
X117680246Y-122329488D01*
X117699262Y-122100000D01*
X117680246Y-121870512D01*
X117623717Y-121647284D01*
X117531217Y-121436405D01*
X117405271Y-121243629D01*
X117378355Y-121214390D01*
X117249308Y-121074208D01*
X117067589Y-120932771D01*
X117067590Y-120932771D01*
X117063541Y-120929620D01*
X117064525Y-120928354D01*
X117023824Y-120880670D01*
X117014396Y-120811439D01*
X117043893Y-120748102D01*
X117063865Y-120730796D01*
X117063541Y-120730380D01*
X117100174Y-120701866D01*
X117249308Y-120585792D01*
X117405269Y-120416373D01*
X117531217Y-120223595D01*
X117623717Y-120012716D01*
X117680246Y-119789488D01*
X117699262Y-119560000D01*
X117680246Y-119330512D01*
X117623717Y-119107284D01*
X117531217Y-118896405D01*
X117405271Y-118703629D01*
X117378355Y-118674390D01*
X117249308Y-118534208D01*
X117067589Y-118392771D01*
X117067590Y-118392771D01*
X117063541Y-118389620D01*
X117064525Y-118388354D01*
X117023824Y-118340670D01*
X117014396Y-118271439D01*
X117043893Y-118208102D01*
X117063865Y-118190796D01*
X117063541Y-118190380D01*
X117100174Y-118161866D01*
X117249308Y-118045792D01*
X117405269Y-117876373D01*
X117531217Y-117683595D01*
X117623717Y-117472716D01*
X117680246Y-117249488D01*
X117699262Y-117020000D01*
X117680246Y-116790512D01*
X117623717Y-116567284D01*
X117531217Y-116356405D01*
X117405271Y-116163629D01*
X117378355Y-116134390D01*
X117249308Y-115994208D01*
X117181036Y-115941070D01*
X117067591Y-115852772D01*
X116865069Y-115743172D01*
X116865061Y-115743169D01*
X116654293Y-115670812D01*
X116597278Y-115630427D01*
X116571147Y-115565627D01*
X116584198Y-115496987D01*
X116632287Y-115446299D01*
X116670362Y-115431914D01*
X116888722Y-115388481D01*
X117168077Y-115293652D01*
X117432665Y-115163172D01*
X117677957Y-114999273D01*
X117899758Y-114804758D01*
X118094273Y-114582957D01*
X118258172Y-114337665D01*
X118388652Y-114073077D01*
X118483481Y-113793722D01*
X118541034Y-113504380D01*
X118560329Y-113210000D01*
X118560329Y-113209992D01*
X126749671Y-113209992D01*
X126749671Y-113210007D01*
X126768964Y-113504363D01*
X126768965Y-113504373D01*
X126768966Y-113504380D01*
X126768968Y-113504390D01*
X126826518Y-113793716D01*
X126826521Y-113793730D01*
X126921349Y-114073080D01*
X127051825Y-114337660D01*
X127051829Y-114337667D01*
X127215725Y-114582955D01*
X127410241Y-114804758D01*
X127632043Y-114999273D01*
X127877335Y-115163172D01*
X128141923Y-115293652D01*
X128421278Y-115388481D01*
X128639634Y-115431914D01*
X128701545Y-115464298D01*
X128736119Y-115525014D01*
X128732380Y-115594784D01*
X128691514Y-115651456D01*
X128655706Y-115670812D01*
X128444938Y-115743169D01*
X128444930Y-115743172D01*
X128242408Y-115852772D01*
X128060694Y-115994206D01*
X128060689Y-115994211D01*
X127904728Y-116163629D01*
X127778782Y-116356405D01*
X127686282Y-116567285D01*
X127629753Y-116790515D01*
X127610738Y-117019994D01*
X127610738Y-117020005D01*
X127629753Y-117249484D01*
X127686282Y-117472714D01*
X127778782Y-117683594D01*
X127904728Y-117876370D01*
X127904731Y-117876373D01*
X128060692Y-118045792D01*
X128177591Y-118136778D01*
X128246459Y-118190380D01*
X128245476Y-118191641D01*
X128286183Y-118239349D01*
X128295600Y-118308581D01*
X128266092Y-118371914D01*
X128246136Y-118389205D01*
X128246459Y-118389620D01*
X128060694Y-118534206D01*
X128060689Y-118534211D01*
X127904728Y-118703629D01*
X127778782Y-118896405D01*
X127686282Y-119107285D01*
X127629753Y-119330515D01*
X127610738Y-119559994D01*
X127610738Y-119560005D01*
X127629753Y-119789484D01*
X127686282Y-120012714D01*
X127778782Y-120223594D01*
X127904728Y-120416370D01*
X127904731Y-120416373D01*
X128060692Y-120585792D01*
X128177591Y-120676778D01*
X128246459Y-120730380D01*
X128245476Y-120731641D01*
X128286183Y-120779349D01*
X128295600Y-120848581D01*
X128266092Y-120911914D01*
X128246136Y-120929205D01*
X128246459Y-120929620D01*
X128060694Y-121074206D01*
X128060689Y-121074211D01*
X127904728Y-121243629D01*
X127778782Y-121436405D01*
X127686282Y-121647285D01*
X127629753Y-121870515D01*
X127610738Y-122099994D01*
X127610738Y-122100005D01*
X127629753Y-122329484D01*
X127686282Y-122552714D01*
X127778782Y-122763594D01*
X127904728Y-122956370D01*
X127904731Y-122956373D01*
X128060692Y-123125792D01*
X128177591Y-123216778D01*
X128246459Y-123270380D01*
X128245570Y-123271521D01*
X128286632Y-123319624D01*
X128296063Y-123388855D01*
X128266568Y-123452194D01*
X128246429Y-123469651D01*
X128246733Y-123470041D01*
X128214040Y-123495485D01*
X128214040Y-123495487D01*
X128875591Y-124157037D01*
X128812007Y-124174075D01*
X128697993Y-124239901D01*
X128604901Y-124332993D01*
X128539075Y-124447007D01*
X128522037Y-124510591D01*
X127861759Y-123850313D01*
X127779224Y-123976644D01*
X127686757Y-124187446D01*
X127630249Y-124410591D01*
X127630247Y-124410603D01*
X127611240Y-124639994D01*
X127611240Y-124640005D01*
X127630247Y-124869396D01*
X127630249Y-124869408D01*
X127686757Y-125092553D01*
X127779223Y-125303352D01*
X127861760Y-125429685D01*
X128522037Y-124769408D01*
X128539075Y-124832993D01*
X128604901Y-124947007D01*
X128697993Y-125040099D01*
X128812007Y-125105925D01*
X128875590Y-125122962D01*
X128214040Y-125784512D01*
X128214040Y-125784514D01*
X128246733Y-125809960D01*
X128245789Y-125811172D01*
X128286639Y-125859043D01*
X128296060Y-125928274D01*
X128266556Y-125991609D01*
X128246181Y-126009263D01*
X128246459Y-126009620D01*
X128060694Y-126154206D01*
X128060689Y-126154211D01*
X127904728Y-126323629D01*
X127778782Y-126516405D01*
X127686282Y-126727285D01*
X127629753Y-126950515D01*
X127610738Y-127179994D01*
X127610738Y-127180005D01*
X127629753Y-127409484D01*
X127686282Y-127632714D01*
X127778782Y-127843594D01*
X127904728Y-128036370D01*
X127904731Y-128036373D01*
X128060692Y-128205792D01*
X128168883Y-128290000D01*
X128246459Y-128350380D01*
X128245476Y-128351641D01*
X128286183Y-128399349D01*
X128295600Y-128468581D01*
X128266092Y-128531914D01*
X128246136Y-128549205D01*
X128246459Y-128549620D01*
X128060694Y-128694206D01*
X128060689Y-128694211D01*
X127904728Y-128863629D01*
X127778782Y-129056405D01*
X127686282Y-129267285D01*
X127629753Y-129490515D01*
X127610738Y-129719994D01*
X127610738Y-129720005D01*
X127629753Y-129949484D01*
X127686282Y-130172714D01*
X127778782Y-130383594D01*
X127904728Y-130576370D01*
X127904731Y-130576373D01*
X128060692Y-130745792D01*
X128242411Y-130887229D01*
X128444931Y-130996828D01*
X128444935Y-130996829D01*
X128444941Y-130996832D01*
X128655705Y-131069187D01*
X128712721Y-131109572D01*
X128738852Y-131174372D01*
X128725801Y-131243012D01*
X128677712Y-131293699D01*
X128639634Y-131308085D01*
X128421283Y-131351518D01*
X128421269Y-131351521D01*
X128141919Y-131446349D01*
X127877334Y-131576828D01*
X127632041Y-131740728D01*
X127410241Y-131935241D01*
X127215728Y-132157041D01*
X127051828Y-132402334D01*
X126921349Y-132666919D01*
X126826521Y-132946269D01*
X126826518Y-132946283D01*
X126768968Y-133235609D01*
X126768964Y-133235636D01*
X126749671Y-133529992D01*
X126749671Y-133530007D01*
X126768964Y-133824363D01*
X126768965Y-133824373D01*
X126768966Y-133824380D01*
X126768968Y-133824390D01*
X126826518Y-134113716D01*
X126826521Y-134113730D01*
X126921349Y-134393080D01*
X127051825Y-134657660D01*
X127051829Y-134657667D01*
X127215725Y-134902955D01*
X127410241Y-135124758D01*
X127632044Y-135319274D01*
X127877332Y-135483170D01*
X127877339Y-135483174D01*
X127918887Y-135503663D01*
X128141923Y-135613652D01*
X128421278Y-135708481D01*
X128710620Y-135766034D01*
X128738888Y-135767886D01*
X129004993Y-135785329D01*
X129005000Y-135785329D01*
X129005007Y-135785329D01*
X129240675Y-135769881D01*
X129299380Y-135766034D01*
X129588722Y-135708481D01*
X129868077Y-135613652D01*
X130132665Y-135483172D01*
X130377957Y-135319273D01*
X130599758Y-135124758D01*
X130794273Y-134902957D01*
X130958172Y-134657665D01*
X131088652Y-134393077D01*
X131183481Y-134113722D01*
X131241034Y-133824380D01*
X131259772Y-133538498D01*
X131260329Y-133530007D01*
X131260329Y-133529992D01*
X131241035Y-133235636D01*
X131241034Y-133235620D01*
X131183481Y-132946278D01*
X131088652Y-132666923D01*
X130958172Y-132402336D01*
X130794273Y-132157043D01*
X130751655Y-132108447D01*
X130599758Y-131935241D01*
X130377955Y-131740725D01*
X130132667Y-131576829D01*
X130132660Y-131576825D01*
X129868080Y-131446349D01*
X129588730Y-131351521D01*
X129588724Y-131351519D01*
X129588722Y-131351519D01*
X129530806Y-131339999D01*
X129370365Y-131308085D01*
X129308454Y-131275700D01*
X129273880Y-131214984D01*
X129277619Y-131145215D01*
X129318486Y-131088543D01*
X129354294Y-131069187D01*
X129565058Y-130996832D01*
X129565060Y-130996831D01*
X129565069Y-130996828D01*
X129767589Y-130887229D01*
X129949308Y-130745792D01*
X130105269Y-130576373D01*
X130231217Y-130383595D01*
X130323717Y-130172716D01*
X130380246Y-129949488D01*
X130396165Y-129757379D01*
X130399262Y-129720005D01*
X130399262Y-129719994D01*
X130380246Y-129490515D01*
X130380246Y-129490512D01*
X130323717Y-129267284D01*
X130231217Y-129056405D01*
X130143335Y-128921891D01*
X130105271Y-128863629D01*
X130023829Y-128775160D01*
X129949308Y-128694208D01*
X129820605Y-128594035D01*
X129763541Y-128549620D01*
X129764525Y-128548354D01*
X129723824Y-128500670D01*
X129714396Y-128431439D01*
X129743893Y-128368102D01*
X129763865Y-128350796D01*
X129763541Y-128350380D01*
X129800174Y-128321866D01*
X129949308Y-128205792D01*
X130105269Y-128036373D01*
X130231217Y-127843595D01*
X130323717Y-127632716D01*
X130380246Y-127409488D01*
X130393154Y-127253713D01*
X130399262Y-127180005D01*
X130399262Y-127179994D01*
X130380729Y-126956344D01*
X130380246Y-126950512D01*
X130323717Y-126727284D01*
X130231217Y-126516405D01*
X130217496Y-126495403D01*
X130105271Y-126323629D01*
X130033775Y-126245964D01*
X129949308Y-126154208D01*
X129855436Y-126081144D01*
X129763541Y-126009620D01*
X129764428Y-126008480D01*
X129723363Y-125960366D01*
X129713938Y-125891135D01*
X129743437Y-125827798D01*
X129763571Y-125810352D01*
X129763266Y-125809960D01*
X129795958Y-125784513D01*
X129795959Y-125784511D01*
X129134410Y-125122962D01*
X129197993Y-125105925D01*
X129312007Y-125040099D01*
X129405099Y-124947007D01*
X129470925Y-124832993D01*
X129487962Y-124769409D01*
X130148238Y-125429685D01*
X130230772Y-125303359D01*
X130230777Y-125303351D01*
X130323242Y-125092553D01*
X130379750Y-124869408D01*
X130379752Y-124869396D01*
X130398760Y-124640005D01*
X130398760Y-124639994D01*
X130379752Y-124410603D01*
X130379750Y-124410591D01*
X130323242Y-124187446D01*
X130230774Y-123976642D01*
X130148238Y-123850313D01*
X129487962Y-124510589D01*
X129470925Y-124447007D01*
X129405099Y-124332993D01*
X129312007Y-124239901D01*
X129197993Y-124174075D01*
X129134409Y-124157037D01*
X129795958Y-123495486D01*
X129795958Y-123495484D01*
X129763267Y-123470040D01*
X129764209Y-123468829D01*
X129723355Y-123420947D01*
X129713941Y-123351714D01*
X129743450Y-123288382D01*
X129763820Y-123270738D01*
X129763541Y-123270380D01*
X129800174Y-123241866D01*
X129949308Y-123125792D01*
X130105269Y-122956373D01*
X130231217Y-122763595D01*
X130323717Y-122552716D01*
X130380246Y-122329488D01*
X130399262Y-122100000D01*
X130380246Y-121870512D01*
X130323717Y-121647284D01*
X130231217Y-121436405D01*
X130105271Y-121243629D01*
X130078355Y-121214390D01*
X129949308Y-121074208D01*
X129767589Y-120932771D01*
X129767590Y-120932771D01*
X129763541Y-120929620D01*
X129764525Y-120928354D01*
X129723824Y-120880670D01*
X129714396Y-120811439D01*
X129743893Y-120748102D01*
X129763865Y-120730796D01*
X129763541Y-120730380D01*
X129800174Y-120701866D01*
X129949308Y-120585792D01*
X130105269Y-120416373D01*
X130231217Y-120223595D01*
X130323717Y-120012716D01*
X130380246Y-119789488D01*
X130399262Y-119560000D01*
X130380246Y-119330512D01*
X130323717Y-119107284D01*
X130231217Y-118896405D01*
X130105271Y-118703629D01*
X130078355Y-118674390D01*
X129949308Y-118534208D01*
X129767589Y-118392771D01*
X129767590Y-118392771D01*
X129763541Y-118389620D01*
X129764525Y-118388354D01*
X129723824Y-118340670D01*
X129714396Y-118271439D01*
X129743893Y-118208102D01*
X129763865Y-118190796D01*
X129763541Y-118190380D01*
X129800174Y-118161866D01*
X129949308Y-118045792D01*
X130105269Y-117876373D01*
X130231217Y-117683595D01*
X130323717Y-117472716D01*
X130380246Y-117249488D01*
X130399262Y-117020000D01*
X130380246Y-116790512D01*
X130323717Y-116567284D01*
X130231217Y-116356405D01*
X130105271Y-116163629D01*
X130078355Y-116134390D01*
X129949308Y-115994208D01*
X129881036Y-115941070D01*
X129767591Y-115852772D01*
X129565069Y-115743172D01*
X129565061Y-115743169D01*
X129354293Y-115670812D01*
X129297278Y-115630427D01*
X129271147Y-115565627D01*
X129284198Y-115496987D01*
X129332287Y-115446299D01*
X129370362Y-115431914D01*
X129588722Y-115388481D01*
X129868077Y-115293652D01*
X130132665Y-115163172D01*
X130377957Y-114999273D01*
X130599758Y-114804758D01*
X130794273Y-114582957D01*
X130958172Y-114337665D01*
X131088652Y-114073077D01*
X131183481Y-113793722D01*
X131241034Y-113504380D01*
X131260329Y-113210000D01*
X131260329Y-113209992D01*
X131241035Y-112915636D01*
X131241034Y-112915620D01*
X131183481Y-112626278D01*
X131088652Y-112346923D01*
X130958172Y-112082336D01*
X130794273Y-111837043D01*
X130751655Y-111788447D01*
X130599758Y-111615241D01*
X130377955Y-111420725D01*
X130132667Y-111256829D01*
X130132660Y-111256825D01*
X129868080Y-111126349D01*
X129588730Y-111031521D01*
X129588724Y-111031519D01*
X129588722Y-111031519D01*
X129299380Y-110973966D01*
X129299373Y-110973965D01*
X129299363Y-110973964D01*
X129005007Y-110954671D01*
X129004993Y-110954671D01*
X128710636Y-110973964D01*
X128710624Y-110973965D01*
X128710620Y-110973966D01*
X128710612Y-110973967D01*
X128710609Y-110973968D01*
X128421283Y-111031518D01*
X128421269Y-111031521D01*
X128141919Y-111126349D01*
X127877334Y-111256828D01*
X127632041Y-111420728D01*
X127410241Y-111615241D01*
X127215728Y-111837041D01*
X127051828Y-112082334D01*
X126921349Y-112346919D01*
X126826521Y-112626269D01*
X126826518Y-112626283D01*
X126768968Y-112915609D01*
X126768964Y-112915636D01*
X126749671Y-113209992D01*
X118560329Y-113209992D01*
X118541035Y-112915636D01*
X118541034Y-112915620D01*
X118483481Y-112626278D01*
X118388652Y-112346923D01*
X118258172Y-112082336D01*
X118094273Y-111837043D01*
X118051655Y-111788447D01*
X117899758Y-111615241D01*
X117677955Y-111420725D01*
X117432667Y-111256829D01*
X117432660Y-111256825D01*
X117168080Y-111126349D01*
X116888730Y-111031521D01*
X116888724Y-111031519D01*
X116888722Y-111031519D01*
X116599380Y-110973966D01*
X116599373Y-110973965D01*
X116599363Y-110973964D01*
X116305007Y-110954671D01*
X116304993Y-110954671D01*
X116010636Y-110973964D01*
X116010624Y-110973965D01*
X116010620Y-110973966D01*
X116010612Y-110973967D01*
X116010609Y-110973968D01*
X115721283Y-111031518D01*
X115721269Y-111031521D01*
X115441919Y-111126349D01*
X115177334Y-111256828D01*
X114932041Y-111420728D01*
X114710241Y-111615241D01*
X114515728Y-111837041D01*
X114351828Y-112082334D01*
X114221349Y-112346919D01*
X114126521Y-112626269D01*
X114126518Y-112626283D01*
X114068968Y-112915609D01*
X114068964Y-112915636D01*
X114049671Y-113209992D01*
X77500000Y-113209992D01*
X77500000Y-106499996D01*
X104694435Y-106499996D01*
X104694435Y-106500003D01*
X104714630Y-106679249D01*
X104714631Y-106679254D01*
X104774211Y-106849523D01*
X104844633Y-106961598D01*
X104870184Y-107002262D01*
X104997738Y-107129816D01*
X105006345Y-107135224D01*
X105137623Y-107217712D01*
X105150478Y-107225789D01*
X105234750Y-107255277D01*
X105320745Y-107285368D01*
X105320750Y-107285369D01*
X105499996Y-107305565D01*
X105500000Y-107305565D01*
X105500004Y-107305565D01*
X105679249Y-107285369D01*
X105679252Y-107285368D01*
X105679255Y-107285368D01*
X105849522Y-107225789D01*
X106002262Y-107129816D01*
X106129816Y-107002262D01*
X106225789Y-106849522D01*
X106285368Y-106679255D01*
X106285846Y-106675016D01*
X106305565Y-106500003D01*
X106305565Y-106499996D01*
X106285369Y-106320750D01*
X106285368Y-106320745D01*
X106225788Y-106150476D01*
X106186582Y-106088080D01*
X106129816Y-105997738D01*
X106002262Y-105870184D01*
X105978503Y-105855255D01*
X105849523Y-105774211D01*
X105679254Y-105714631D01*
X105679249Y-105714630D01*
X105500004Y-105694435D01*
X105499996Y-105694435D01*
X105320750Y-105714630D01*
X105320745Y-105714631D01*
X105150476Y-105774211D01*
X104997737Y-105870184D01*
X104870184Y-105997737D01*
X104774211Y-106150476D01*
X104714631Y-106320745D01*
X104714630Y-106320750D01*
X104694435Y-106499996D01*
X77500000Y-106499996D01*
X77500000Y-105638428D01*
X113900000Y-105638428D01*
X113900000Y-105750000D01*
X114719670Y-105750000D01*
X114699925Y-105769745D01*
X114650556Y-105855255D01*
X114625000Y-105950630D01*
X114625000Y-106049370D01*
X114650556Y-106144745D01*
X114699925Y-106230255D01*
X114719670Y-106250000D01*
X113900000Y-106250000D01*
X113900000Y-106361571D01*
X113927085Y-106532584D01*
X113980591Y-106697257D01*
X114059195Y-106851524D01*
X114160967Y-106991602D01*
X114283397Y-107114032D01*
X114423475Y-107215804D01*
X114577744Y-107294408D01*
X114742415Y-107347914D01*
X114742414Y-107347914D01*
X114749999Y-107349115D01*
X114750000Y-107349114D01*
X114750000Y-106280330D01*
X114769745Y-106300075D01*
X114855255Y-106349444D01*
X114950630Y-106375000D01*
X115049370Y-106375000D01*
X115144745Y-106349444D01*
X115230255Y-106300075D01*
X115250000Y-106280330D01*
X115250000Y-107349115D01*
X115257584Y-107347914D01*
X115422255Y-107294408D01*
X115576524Y-107215804D01*
X115716598Y-107114035D01*
X115824199Y-107006434D01*
X115885522Y-106972949D01*
X115955214Y-106977933D01*
X116011148Y-107019804D01*
X116017418Y-107029016D01*
X116057288Y-107093656D01*
X116181344Y-107217712D01*
X116330666Y-107309814D01*
X116497203Y-107364999D01*
X116599991Y-107375500D01*
X117400008Y-107375499D01*
X117400016Y-107375498D01*
X117400019Y-107375498D01*
X117456302Y-107369748D01*
X117502797Y-107364999D01*
X117669334Y-107309814D01*
X117818656Y-107217712D01*
X117942712Y-107093656D01*
X118034814Y-106944334D01*
X118089999Y-106777797D01*
X118100500Y-106675009D01*
X118100499Y-105324992D01*
X118089999Y-105222203D01*
X118034814Y-105055666D01*
X117942712Y-104906344D01*
X117818656Y-104782288D01*
X117694310Y-104705591D01*
X117669336Y-104690187D01*
X117669331Y-104690185D01*
X117667862Y-104689698D01*
X117502797Y-104635001D01*
X117502795Y-104635000D01*
X117400010Y-104624500D01*
X116599998Y-104624500D01*
X116599980Y-104624501D01*
X116497203Y-104635000D01*
X116497200Y-104635001D01*
X116330668Y-104690185D01*
X116330663Y-104690187D01*
X116181342Y-104782289D01*
X116057289Y-104906342D01*
X116017420Y-104970981D01*
X115965472Y-105017705D01*
X115896509Y-105028928D01*
X115832427Y-105001084D01*
X115824200Y-104993565D01*
X115716602Y-104885967D01*
X115576524Y-104784195D01*
X115422257Y-104705591D01*
X115257589Y-104652087D01*
X115257581Y-104652085D01*
X115250000Y-104650884D01*
X115250000Y-105719670D01*
X115230255Y-105699925D01*
X115144745Y-105650556D01*
X115049370Y-105625000D01*
X114950630Y-105625000D01*
X114855255Y-105650556D01*
X114769745Y-105699925D01*
X114750000Y-105719670D01*
X114750000Y-104650884D01*
X114749999Y-104650884D01*
X114742418Y-104652085D01*
X114742410Y-104652087D01*
X114577742Y-104705591D01*
X114423475Y-104784195D01*
X114283397Y-104885967D01*
X114160967Y-105008397D01*
X114059195Y-105148475D01*
X113980591Y-105302742D01*
X113927085Y-105467415D01*
X113900000Y-105638428D01*
X77500000Y-105638428D01*
X77500000Y-81674637D01*
X84647100Y-81674637D01*
X84647100Y-81865362D01*
X84676936Y-82053741D01*
X84735871Y-82235128D01*
X84735872Y-82235131D01*
X84822461Y-82405069D01*
X84934567Y-82559370D01*
X85069430Y-82694233D01*
X85223731Y-82806339D01*
X85307080Y-82848807D01*
X85393668Y-82892927D01*
X85393674Y-82892929D01*
X85484166Y-82922331D01*
X85541842Y-82961768D01*
X85569041Y-83026126D01*
X85557127Y-83094972D01*
X85509883Y-83146449D01*
X85484168Y-83158193D01*
X85393862Y-83187536D01*
X85223992Y-83274089D01*
X85069754Y-83386151D01*
X85069753Y-83386151D01*
X84934951Y-83520953D01*
X84934951Y-83520954D01*
X84822889Y-83675192D01*
X84736335Y-83845063D01*
X84677426Y-84026369D01*
X84672100Y-84060000D01*
X86136988Y-84060000D01*
X86104075Y-84117007D01*
X86070000Y-84244174D01*
X86070000Y-84375826D01*
X86104075Y-84502993D01*
X86136988Y-84560000D01*
X84672100Y-84560000D01*
X84677426Y-84593630D01*
X84736335Y-84774936D01*
X84822889Y-84944807D01*
X84934951Y-85099045D01*
X84934951Y-85099046D01*
X85069753Y-85233848D01*
X85223992Y-85345910D01*
X85393863Y-85432464D01*
X85484167Y-85461806D01*
X85541843Y-85501244D01*
X85569041Y-85565602D01*
X85557126Y-85634449D01*
X85509882Y-85685924D01*
X85484167Y-85697668D01*
X85393671Y-85727071D01*
X85393668Y-85727072D01*
X85223730Y-85813661D01*
X85069427Y-85925769D01*
X84934569Y-86060627D01*
X84822461Y-86214930D01*
X84735872Y-86384868D01*
X84735871Y-86384871D01*
X84676936Y-86566258D01*
X84647100Y-86754637D01*
X84647100Y-86945362D01*
X84676936Y-87133741D01*
X84735871Y-87315128D01*
X84735872Y-87315131D01*
X84822461Y-87485069D01*
X84934567Y-87639370D01*
X85069430Y-87774233D01*
X85223731Y-87886339D01*
X85307080Y-87928807D01*
X85393668Y-87972927D01*
X85393671Y-87972928D01*
X85483358Y-88002069D01*
X85541034Y-88041506D01*
X85568232Y-88105865D01*
X85556317Y-88174711D01*
X85509073Y-88226187D01*
X85483358Y-88237931D01*
X85393671Y-88267071D01*
X85393668Y-88267072D01*
X85223730Y-88353661D01*
X85069427Y-88465769D01*
X84934569Y-88600627D01*
X84822461Y-88754930D01*
X84735872Y-88924868D01*
X84735871Y-88924871D01*
X84676936Y-89106258D01*
X84647100Y-89294637D01*
X84647100Y-89485362D01*
X84676936Y-89673741D01*
X84735871Y-89855128D01*
X84735872Y-89855131D01*
X84822461Y-90025069D01*
X84934567Y-90179370D01*
X85069430Y-90314233D01*
X85223731Y-90426339D01*
X85307080Y-90468807D01*
X85393668Y-90512927D01*
X85393671Y-90512928D01*
X85483358Y-90542069D01*
X85541034Y-90581506D01*
X85568232Y-90645865D01*
X85556317Y-90714711D01*
X85509073Y-90766187D01*
X85483358Y-90777931D01*
X85393671Y-90807071D01*
X85393668Y-90807072D01*
X85223730Y-90893661D01*
X85069427Y-91005769D01*
X84934569Y-91140627D01*
X84822461Y-91294930D01*
X84735872Y-91464868D01*
X84735871Y-91464871D01*
X84676936Y-91646258D01*
X84647100Y-91834637D01*
X84647100Y-92025362D01*
X84676936Y-92213741D01*
X84735871Y-92395128D01*
X84735872Y-92395131D01*
X84822461Y-92565069D01*
X84934567Y-92719370D01*
X85069430Y-92854233D01*
X85223731Y-92966339D01*
X85307080Y-93008807D01*
X85393668Y-93052927D01*
X85393671Y-93052928D01*
X85483358Y-93082069D01*
X85541034Y-93121506D01*
X85568232Y-93185865D01*
X85556317Y-93254711D01*
X85509073Y-93306187D01*
X85483358Y-93317931D01*
X85393671Y-93347071D01*
X85393668Y-93347072D01*
X85223730Y-93433661D01*
X85069427Y-93545769D01*
X84934569Y-93680627D01*
X84822461Y-93834930D01*
X84735872Y-94004868D01*
X84735871Y-94004871D01*
X84676936Y-94186258D01*
X84647100Y-94374637D01*
X84647100Y-94565362D01*
X84676936Y-94753741D01*
X84735871Y-94935128D01*
X84735872Y-94935131D01*
X84822461Y-95105069D01*
X84934567Y-95259370D01*
X85069430Y-95394233D01*
X85223731Y-95506339D01*
X85307080Y-95548807D01*
X85393668Y-95592927D01*
X85393671Y-95592928D01*
X85483358Y-95622069D01*
X85541034Y-95661506D01*
X85568232Y-95725865D01*
X85556317Y-95794711D01*
X85509073Y-95846187D01*
X85483358Y-95857931D01*
X85393671Y-95887071D01*
X85393668Y-95887072D01*
X85223730Y-95973661D01*
X85069427Y-96085769D01*
X84934569Y-96220627D01*
X84822461Y-96374930D01*
X84735872Y-96544868D01*
X84735871Y-96544871D01*
X84676936Y-96726258D01*
X84647100Y-96914637D01*
X84647100Y-97105362D01*
X84676936Y-97293741D01*
X84735871Y-97475128D01*
X84735872Y-97475131D01*
X84822461Y-97645069D01*
X84934567Y-97799370D01*
X85069430Y-97934233D01*
X85223731Y-98046339D01*
X85307080Y-98088807D01*
X85393668Y-98132927D01*
X85393671Y-98132928D01*
X85483358Y-98162069D01*
X85541034Y-98201506D01*
X85568232Y-98265865D01*
X85556317Y-98334711D01*
X85509073Y-98386187D01*
X85483358Y-98397931D01*
X85393671Y-98427071D01*
X85393668Y-98427072D01*
X85223730Y-98513661D01*
X85069427Y-98625769D01*
X84934569Y-98760627D01*
X84822461Y-98914930D01*
X84735872Y-99084868D01*
X84735871Y-99084871D01*
X84676936Y-99266258D01*
X84647100Y-99454637D01*
X84647100Y-99645362D01*
X84676936Y-99833741D01*
X84735871Y-100015128D01*
X84735872Y-100015131D01*
X84822461Y-100185069D01*
X84934567Y-100339370D01*
X85069430Y-100474233D01*
X85223731Y-100586339D01*
X85307080Y-100628807D01*
X85393668Y-100672927D01*
X85393671Y-100672928D01*
X85484364Y-100702395D01*
X85575060Y-100731864D01*
X85763437Y-100761700D01*
X85763438Y-100761700D01*
X87376562Y-100761700D01*
X87376563Y-100761700D01*
X87564940Y-100731864D01*
X87746331Y-100672927D01*
X87916269Y-100586339D01*
X88070570Y-100474233D01*
X88205433Y-100339370D01*
X88317539Y-100185069D01*
X88404127Y-100015131D01*
X88463064Y-99833740D01*
X88492900Y-99645363D01*
X88492900Y-99454637D01*
X88463064Y-99266260D01*
X88404127Y-99084869D01*
X88404127Y-99084868D01*
X88317538Y-98914930D01*
X88205433Y-98760630D01*
X88070570Y-98625767D01*
X87916269Y-98513661D01*
X87746331Y-98427072D01*
X87746328Y-98427071D01*
X87656641Y-98397931D01*
X87598966Y-98358494D01*
X87571767Y-98294135D01*
X87583681Y-98225289D01*
X87630925Y-98173813D01*
X87656641Y-98162069D01*
X87746328Y-98132928D01*
X87746331Y-98132927D01*
X87916269Y-98046339D01*
X88070570Y-97934233D01*
X88205433Y-97799370D01*
X88317539Y-97645069D01*
X88404127Y-97475131D01*
X88463064Y-97293740D01*
X88492900Y-97105363D01*
X88492900Y-96914637D01*
X88463064Y-96726260D01*
X88404127Y-96544869D01*
X88404127Y-96544868D01*
X88317538Y-96374930D01*
X88205433Y-96220630D01*
X88070570Y-96085767D01*
X87916269Y-95973661D01*
X87746331Y-95887072D01*
X87746328Y-95887071D01*
X87656641Y-95857931D01*
X87598966Y-95818494D01*
X87571767Y-95754135D01*
X87583681Y-95685289D01*
X87630925Y-95633813D01*
X87656641Y-95622069D01*
X87746328Y-95592928D01*
X87746331Y-95592927D01*
X87916269Y-95506339D01*
X88070570Y-95394233D01*
X88205433Y-95259370D01*
X88317539Y-95105069D01*
X88404127Y-94935131D01*
X88463064Y-94753740D01*
X88492900Y-94565363D01*
X88492900Y-94374637D01*
X88463064Y-94186260D01*
X88404127Y-94004869D01*
X88404127Y-94004868D01*
X88317538Y-93834930D01*
X88205433Y-93680630D01*
X88070570Y-93545767D01*
X87916269Y-93433661D01*
X87746331Y-93347072D01*
X87746328Y-93347071D01*
X87656641Y-93317931D01*
X87598966Y-93278494D01*
X87571767Y-93214135D01*
X87583681Y-93145289D01*
X87630925Y-93093813D01*
X87656641Y-93082069D01*
X87746328Y-93052928D01*
X87746331Y-93052927D01*
X87916269Y-92966339D01*
X88070570Y-92854233D01*
X88205433Y-92719370D01*
X88317539Y-92565069D01*
X88404127Y-92395131D01*
X88463064Y-92213740D01*
X88492900Y-92025363D01*
X88492900Y-91834637D01*
X88463064Y-91646260D01*
X88404127Y-91464869D01*
X88404127Y-91464868D01*
X88317538Y-91294930D01*
X88205433Y-91140630D01*
X88070570Y-91005767D01*
X87916269Y-90893661D01*
X87746331Y-90807072D01*
X87746328Y-90807071D01*
X87656641Y-90777931D01*
X87598966Y-90738494D01*
X87571767Y-90674135D01*
X87583681Y-90605289D01*
X87630925Y-90553813D01*
X87656641Y-90542069D01*
X87746328Y-90512928D01*
X87746331Y-90512927D01*
X87916269Y-90426339D01*
X88070570Y-90314233D01*
X88205433Y-90179370D01*
X88317539Y-90025069D01*
X88404127Y-89855131D01*
X88463064Y-89673740D01*
X88492900Y-89485363D01*
X88492900Y-89294637D01*
X88463064Y-89106260D01*
X88404127Y-88924869D01*
X88404127Y-88924868D01*
X88317538Y-88754930D01*
X88205433Y-88600630D01*
X88070570Y-88465767D01*
X87916269Y-88353661D01*
X87746331Y-88267072D01*
X87746328Y-88267071D01*
X87656641Y-88237931D01*
X87598966Y-88198494D01*
X87571767Y-88134135D01*
X87583681Y-88065289D01*
X87630925Y-88013813D01*
X87656641Y-88002069D01*
X87746328Y-87972928D01*
X87746331Y-87972927D01*
X87916269Y-87886339D01*
X88070570Y-87774233D01*
X88205433Y-87639370D01*
X88317539Y-87485069D01*
X88404127Y-87315131D01*
X88463064Y-87133740D01*
X88492900Y-86945363D01*
X88492900Y-86754637D01*
X88463064Y-86566260D01*
X88404127Y-86384869D01*
X88404127Y-86384868D01*
X88317538Y-86214930D01*
X88205433Y-86060630D01*
X88070570Y-85925767D01*
X87916269Y-85813661D01*
X87746331Y-85727072D01*
X87746328Y-85727071D01*
X87655832Y-85697668D01*
X87598157Y-85658231D01*
X87570958Y-85593872D01*
X87582872Y-85525026D01*
X87630116Y-85473550D01*
X87655832Y-85461806D01*
X87746136Y-85432464D01*
X87916007Y-85345910D01*
X88070245Y-85233848D01*
X88070246Y-85233848D01*
X88205048Y-85099046D01*
X88205048Y-85099045D01*
X88317110Y-84944807D01*
X88403664Y-84774936D01*
X88462573Y-84593630D01*
X88467900Y-84560000D01*
X87003012Y-84560000D01*
X87035925Y-84502993D01*
X87070000Y-84375826D01*
X87070000Y-84244174D01*
X87035925Y-84117007D01*
X87003012Y-84060000D01*
X88467900Y-84060000D01*
X88462573Y-84026369D01*
X88403664Y-83845063D01*
X88317110Y-83675192D01*
X88205048Y-83520954D01*
X88205048Y-83520953D01*
X88070246Y-83386151D01*
X87916007Y-83274089D01*
X87746137Y-83187536D01*
X87655831Y-83158193D01*
X87598156Y-83118755D01*
X87570958Y-83054396D01*
X87582873Y-82985550D01*
X87630118Y-82934074D01*
X87655830Y-82922332D01*
X87746331Y-82892927D01*
X87916269Y-82806339D01*
X88070570Y-82694233D01*
X88205433Y-82559370D01*
X88317539Y-82405069D01*
X88404127Y-82235131D01*
X88463064Y-82053740D01*
X88492900Y-81865363D01*
X88492900Y-81674637D01*
X107507100Y-81674637D01*
X107507100Y-81865362D01*
X107536936Y-82053741D01*
X107595871Y-82235128D01*
X107595872Y-82235131D01*
X107682461Y-82405069D01*
X107794567Y-82559370D01*
X107929430Y-82694233D01*
X108083731Y-82806339D01*
X108167080Y-82848807D01*
X108253668Y-82892927D01*
X108253671Y-82892928D01*
X108343358Y-82922069D01*
X108401034Y-82961506D01*
X108428232Y-83025865D01*
X108416317Y-83094711D01*
X108369073Y-83146187D01*
X108343358Y-83157931D01*
X108253671Y-83187071D01*
X108253668Y-83187072D01*
X108083730Y-83273661D01*
X107929427Y-83385769D01*
X107794569Y-83520627D01*
X107682461Y-83674930D01*
X107595872Y-83844868D01*
X107595871Y-83844871D01*
X107536936Y-84026258D01*
X107507100Y-84214637D01*
X107507100Y-84405362D01*
X107536936Y-84593741D01*
X107595871Y-84775128D01*
X107595872Y-84775131D01*
X107682328Y-84944807D01*
X107682461Y-84945069D01*
X107794567Y-85099370D01*
X107929430Y-85234233D01*
X108083731Y-85346339D01*
X108167080Y-85388807D01*
X108253668Y-85432927D01*
X108253671Y-85432928D01*
X108343358Y-85462069D01*
X108401034Y-85501506D01*
X108428232Y-85565865D01*
X108416317Y-85634711D01*
X108369073Y-85686187D01*
X108343358Y-85697931D01*
X108253671Y-85727071D01*
X108253668Y-85727072D01*
X108083730Y-85813661D01*
X107929427Y-85925769D01*
X107794569Y-86060627D01*
X107682461Y-86214930D01*
X107595872Y-86384868D01*
X107595871Y-86384871D01*
X107536936Y-86566258D01*
X107507100Y-86754637D01*
X107507100Y-86945362D01*
X107536936Y-87133741D01*
X107595871Y-87315128D01*
X107595872Y-87315131D01*
X107682461Y-87485069D01*
X107794567Y-87639370D01*
X107929430Y-87774233D01*
X108083731Y-87886339D01*
X108167080Y-87928807D01*
X108253668Y-87972927D01*
X108253671Y-87972928D01*
X108343358Y-88002069D01*
X108401034Y-88041506D01*
X108428232Y-88105865D01*
X108416317Y-88174711D01*
X108369073Y-88226187D01*
X108343358Y-88237931D01*
X108253671Y-88267071D01*
X108253668Y-88267072D01*
X108083730Y-88353661D01*
X107929427Y-88465769D01*
X107794569Y-88600627D01*
X107682461Y-88754930D01*
X107595872Y-88924868D01*
X107595871Y-88924871D01*
X107536936Y-89106258D01*
X107507100Y-89294637D01*
X107507100Y-89485362D01*
X107536936Y-89673741D01*
X107595871Y-89855128D01*
X107595872Y-89855131D01*
X107682461Y-90025069D01*
X107794567Y-90179370D01*
X107929430Y-90314233D01*
X108083731Y-90426339D01*
X108167080Y-90468807D01*
X108253668Y-90512927D01*
X108253671Y-90512928D01*
X108343358Y-90542069D01*
X108401034Y-90581506D01*
X108428232Y-90645865D01*
X108416317Y-90714711D01*
X108369073Y-90766187D01*
X108343358Y-90777931D01*
X108253671Y-90807071D01*
X108253668Y-90807072D01*
X108083730Y-90893661D01*
X107929427Y-91005769D01*
X107794569Y-91140627D01*
X107682461Y-91294930D01*
X107595872Y-91464868D01*
X107595871Y-91464871D01*
X107536936Y-91646258D01*
X107507100Y-91834637D01*
X107507100Y-92025362D01*
X107536936Y-92213741D01*
X107595871Y-92395128D01*
X107595872Y-92395131D01*
X107682461Y-92565069D01*
X107794567Y-92719370D01*
X107929430Y-92854233D01*
X108083731Y-92966339D01*
X108167080Y-93008807D01*
X108253668Y-93052927D01*
X108253671Y-93052928D01*
X108343358Y-93082069D01*
X108401034Y-93121506D01*
X108428232Y-93185865D01*
X108416317Y-93254711D01*
X108369073Y-93306187D01*
X108343358Y-93317931D01*
X108253671Y-93347071D01*
X108253668Y-93347072D01*
X108083730Y-93433661D01*
X107929427Y-93545769D01*
X107794569Y-93680627D01*
X107682461Y-93834930D01*
X107595872Y-94004868D01*
X107595871Y-94004871D01*
X107536936Y-94186258D01*
X107507100Y-94374637D01*
X107507100Y-94565362D01*
X107536936Y-94753741D01*
X107595871Y-94935128D01*
X107595872Y-94935131D01*
X107682461Y-95105069D01*
X107794567Y-95259370D01*
X107929430Y-95394233D01*
X108083731Y-95506339D01*
X108167080Y-95548807D01*
X108253668Y-95592927D01*
X108253671Y-95592928D01*
X108343358Y-95622069D01*
X108401034Y-95661506D01*
X108428232Y-95725865D01*
X108416317Y-95794711D01*
X108369073Y-95846187D01*
X108343358Y-95857931D01*
X108253671Y-95887071D01*
X108253668Y-95887072D01*
X108083730Y-95973661D01*
X107929427Y-96085769D01*
X107794569Y-96220627D01*
X107682461Y-96374930D01*
X107595872Y-96544868D01*
X107595871Y-96544871D01*
X107536936Y-96726258D01*
X107507100Y-96914637D01*
X107507100Y-97105362D01*
X107536936Y-97293741D01*
X107595871Y-97475128D01*
X107595872Y-97475131D01*
X107682461Y-97645069D01*
X107794567Y-97799370D01*
X107929430Y-97934233D01*
X108083731Y-98046339D01*
X108167080Y-98088807D01*
X108253668Y-98132927D01*
X108253671Y-98132928D01*
X108343358Y-98162069D01*
X108401034Y-98201506D01*
X108428232Y-98265865D01*
X108416317Y-98334711D01*
X108369073Y-98386187D01*
X108343358Y-98397931D01*
X108253671Y-98427071D01*
X108253668Y-98427072D01*
X108083730Y-98513661D01*
X107929427Y-98625769D01*
X107794569Y-98760627D01*
X107682461Y-98914930D01*
X107595872Y-99084868D01*
X107595871Y-99084871D01*
X107536936Y-99266258D01*
X107507100Y-99454637D01*
X107507100Y-99645362D01*
X107536936Y-99833741D01*
X107595871Y-100015128D01*
X107595872Y-100015131D01*
X107682461Y-100185069D01*
X107794567Y-100339370D01*
X107929430Y-100474233D01*
X108083731Y-100586339D01*
X108167080Y-100628807D01*
X108253668Y-100672927D01*
X108253671Y-100672928D01*
X108344364Y-100702395D01*
X108435060Y-100731864D01*
X108623437Y-100761700D01*
X108623438Y-100761700D01*
X110236562Y-100761700D01*
X110236563Y-100761700D01*
X110424940Y-100731864D01*
X110606331Y-100672927D01*
X110776269Y-100586339D01*
X110930570Y-100474233D01*
X111065433Y-100339370D01*
X111177539Y-100185069D01*
X111264127Y-100015131D01*
X111323064Y-99833740D01*
X111352900Y-99645363D01*
X111352900Y-99454637D01*
X111323064Y-99266260D01*
X111264127Y-99084869D01*
X111264127Y-99084868D01*
X111177538Y-98914930D01*
X111065433Y-98760630D01*
X110930570Y-98625767D01*
X110776269Y-98513661D01*
X110606331Y-98427072D01*
X110606328Y-98427071D01*
X110516641Y-98397931D01*
X110458966Y-98358494D01*
X110431767Y-98294135D01*
X110443681Y-98225289D01*
X110490925Y-98173813D01*
X110516641Y-98162069D01*
X110606328Y-98132928D01*
X110606331Y-98132927D01*
X110776269Y-98046339D01*
X110930570Y-97934233D01*
X111065433Y-97799370D01*
X111177539Y-97645069D01*
X111264127Y-97475131D01*
X111323064Y-97293740D01*
X111352900Y-97105363D01*
X111352900Y-96914637D01*
X111323064Y-96726260D01*
X111264127Y-96544869D01*
X111264127Y-96544868D01*
X111177538Y-96374930D01*
X111065433Y-96220630D01*
X110930570Y-96085767D01*
X110776269Y-95973661D01*
X110606331Y-95887072D01*
X110606328Y-95887071D01*
X110516641Y-95857931D01*
X110458966Y-95818494D01*
X110431767Y-95754135D01*
X110443681Y-95685289D01*
X110490925Y-95633813D01*
X110516641Y-95622069D01*
X110606328Y-95592928D01*
X110606331Y-95592927D01*
X110776269Y-95506339D01*
X110930570Y-95394233D01*
X111065433Y-95259370D01*
X111177539Y-95105069D01*
X111264127Y-94935131D01*
X111323064Y-94753740D01*
X111352900Y-94565363D01*
X111352900Y-94374637D01*
X111323064Y-94186260D01*
X111264127Y-94004869D01*
X111264127Y-94004868D01*
X111177538Y-93834930D01*
X111065433Y-93680630D01*
X110930570Y-93545767D01*
X110776269Y-93433661D01*
X110606331Y-93347072D01*
X110606328Y-93347071D01*
X110516641Y-93317931D01*
X110458966Y-93278494D01*
X110431767Y-93214135D01*
X110443681Y-93145289D01*
X110490925Y-93093813D01*
X110516641Y-93082069D01*
X110606328Y-93052928D01*
X110606331Y-93052927D01*
X110776269Y-92966339D01*
X110930570Y-92854233D01*
X111065433Y-92719370D01*
X111177539Y-92565069D01*
X111264127Y-92395131D01*
X111323064Y-92213740D01*
X111352900Y-92025363D01*
X111352900Y-91834637D01*
X111323064Y-91646260D01*
X111264127Y-91464869D01*
X111264127Y-91464868D01*
X111177538Y-91294930D01*
X111065433Y-91140630D01*
X110930570Y-91005767D01*
X110776269Y-90893661D01*
X110606331Y-90807072D01*
X110606328Y-90807071D01*
X110516641Y-90777931D01*
X110458966Y-90738494D01*
X110431767Y-90674135D01*
X110443681Y-90605289D01*
X110490925Y-90553813D01*
X110516641Y-90542069D01*
X110606328Y-90512928D01*
X110606331Y-90512927D01*
X110776269Y-90426339D01*
X110930570Y-90314233D01*
X111065433Y-90179370D01*
X111177539Y-90025069D01*
X111264127Y-89855131D01*
X111323064Y-89673740D01*
X111352900Y-89485363D01*
X111352900Y-89294637D01*
X111323064Y-89106260D01*
X111264127Y-88924869D01*
X111264127Y-88924868D01*
X111177538Y-88754930D01*
X111065433Y-88600630D01*
X110930570Y-88465767D01*
X110776269Y-88353661D01*
X110606331Y-88267072D01*
X110606328Y-88267071D01*
X110516641Y-88237931D01*
X110458966Y-88198494D01*
X110431767Y-88134135D01*
X110443681Y-88065289D01*
X110490925Y-88013813D01*
X110516641Y-88002069D01*
X110606328Y-87972928D01*
X110606331Y-87972927D01*
X110776269Y-87886339D01*
X110930570Y-87774233D01*
X111065433Y-87639370D01*
X111177539Y-87485069D01*
X111264127Y-87315131D01*
X111323064Y-87133740D01*
X111352900Y-86945363D01*
X111352900Y-86754637D01*
X111323064Y-86566260D01*
X111264127Y-86384869D01*
X111264127Y-86384868D01*
X111177538Y-86214930D01*
X111065433Y-86060630D01*
X110930570Y-85925767D01*
X110776269Y-85813661D01*
X110606331Y-85727072D01*
X110606328Y-85727071D01*
X110516641Y-85697931D01*
X110458966Y-85658494D01*
X110431767Y-85594135D01*
X110443681Y-85525289D01*
X110490925Y-85473813D01*
X110516641Y-85462069D01*
X110606328Y-85432928D01*
X110606331Y-85432927D01*
X110607240Y-85432464D01*
X110776269Y-85346339D01*
X110930570Y-85234233D01*
X111065433Y-85099370D01*
X111177539Y-84945069D01*
X111264127Y-84775131D01*
X111323064Y-84593740D01*
X111352900Y-84405363D01*
X111352900Y-84214637D01*
X111323064Y-84026260D01*
X111264127Y-83844869D01*
X111264127Y-83844868D01*
X111220007Y-83758280D01*
X111177539Y-83674931D01*
X111065433Y-83520630D01*
X110930570Y-83385767D01*
X110776269Y-83273661D01*
X110606331Y-83187072D01*
X110606328Y-83187071D01*
X110516641Y-83157931D01*
X110458966Y-83118494D01*
X110431767Y-83054135D01*
X110443681Y-82985289D01*
X110490925Y-82933813D01*
X110516641Y-82922069D01*
X110606328Y-82892928D01*
X110606331Y-82892927D01*
X110776269Y-82806339D01*
X110930570Y-82694233D01*
X111065433Y-82559370D01*
X111177539Y-82405069D01*
X111264127Y-82235131D01*
X111323064Y-82053740D01*
X111352900Y-81865363D01*
X111352900Y-81674637D01*
X111323064Y-81486260D01*
X111264127Y-81304869D01*
X111264127Y-81304868D01*
X111177538Y-81134930D01*
X111065433Y-80980630D01*
X110930570Y-80845767D01*
X110776269Y-80733661D01*
X110771282Y-80731120D01*
X110606331Y-80647072D01*
X110606328Y-80647071D01*
X110424941Y-80588136D01*
X110288803Y-80566574D01*
X110236563Y-80558300D01*
X108623437Y-80558300D01*
X108598681Y-80562221D01*
X108435058Y-80588136D01*
X108253671Y-80647071D01*
X108253668Y-80647072D01*
X108083730Y-80733661D01*
X107929427Y-80845769D01*
X107794569Y-80980627D01*
X107682461Y-81134930D01*
X107595872Y-81304868D01*
X107595871Y-81304871D01*
X107536936Y-81486258D01*
X107507100Y-81674637D01*
X88492900Y-81674637D01*
X88463064Y-81486260D01*
X88404127Y-81304869D01*
X88404127Y-81304868D01*
X88317538Y-81134930D01*
X88205433Y-80980630D01*
X88070570Y-80845767D01*
X87916269Y-80733661D01*
X87911282Y-80731120D01*
X87746331Y-80647072D01*
X87746328Y-80647071D01*
X87564941Y-80588136D01*
X87428803Y-80566574D01*
X87376563Y-80558300D01*
X85763437Y-80558300D01*
X85738681Y-80562221D01*
X85575058Y-80588136D01*
X85393671Y-80647071D01*
X85393668Y-80647072D01*
X85223730Y-80733661D01*
X85069427Y-80845769D01*
X84934569Y-80980627D01*
X84822461Y-81134930D01*
X84735872Y-81304868D01*
X84735871Y-81304871D01*
X84676936Y-81486258D01*
X84647100Y-81674637D01*
X77500000Y-81674637D01*
X77500000Y-80684959D01*
X77519685Y-80617920D01*
X77572489Y-80572165D01*
X77641647Y-80562221D01*
X77660891Y-80566574D01*
X77852661Y-80626333D01*
X78173961Y-80685213D01*
X78500000Y-80704934D01*
X78826038Y-80685213D01*
X79147341Y-80626332D01*
X79459164Y-80529164D01*
X79459175Y-80529160D01*
X79757041Y-80395102D01*
X79757043Y-80395101D01*
X80036586Y-80226112D01*
X80224968Y-80078523D01*
X80224968Y-80078522D01*
X79082736Y-78936290D01*
X79216602Y-78839033D01*
X79339033Y-78716602D01*
X79436290Y-78582736D01*
X80578522Y-79724968D01*
X80578523Y-79724968D01*
X80726112Y-79536586D01*
X80895101Y-79257043D01*
X80895102Y-79257041D01*
X81029160Y-78959175D01*
X81029164Y-78959164D01*
X81126332Y-78647341D01*
X81185213Y-78326038D01*
X81204934Y-78000000D01*
X81185213Y-77673960D01*
X81180154Y-77646351D01*
X81187432Y-77576862D01*
X81231124Y-77522338D01*
X81297357Y-77500092D01*
X81302123Y-77500000D01*
X129197877Y-77500000D01*
X129264916Y-77519685D01*
G37*
%TD.AperFunction*%
%TD*%
M02*
