%TF.GenerationSoftware,KiCad,Pcbnew,8.0.6*%
%TF.CreationDate,2025-06-01T11:12:23+01:00*%
%TF.ProjectId,Leo_Cansat,4c656f5f-4361-46e7-9361-742e6b696361,rev?*%
%TF.SameCoordinates,Original*%
%TF.FileFunction,Legend,Bot*%
%TF.FilePolarity,Positive*%
%FSLAX46Y46*%
G04 Gerber Fmt 4.6, Leading zero omitted, Abs format (unit mm)*
G04 Created by KiCad (PCBNEW 8.0.6) date 2025-06-01 11:12:23*
%MOMM*%
%LPD*%
G01*
G04 APERTURE LIST*
%ADD10C,0.000000*%
%ADD11C,0.100000*%
%ADD12C,0.150000*%
%ADD13C,0.120000*%
G04 APERTURE END LIST*
D10*
G36*
X118627868Y-89642595D02*
G01*
X118640071Y-89643148D01*
X118652817Y-89644166D01*
X118665749Y-89645618D01*
X118678511Y-89647474D01*
X118690745Y-89649701D01*
X118702096Y-89652269D01*
X118712207Y-89655148D01*
X118720720Y-89658305D01*
X118724267Y-89659979D01*
X118727281Y-89661711D01*
X118729717Y-89663497D01*
X118731531Y-89665333D01*
X118738246Y-89673787D01*
X118750031Y-89690551D01*
X118786267Y-89745039D01*
X118835153Y-89820859D01*
X118891604Y-89910073D01*
X119033156Y-90133646D01*
X119189260Y-89888906D01*
X119345365Y-89644166D01*
X119408864Y-89644166D01*
X119415246Y-89644228D01*
X119421468Y-89644409D01*
X119427497Y-89644707D01*
X119433297Y-89645117D01*
X119438833Y-89645636D01*
X119444072Y-89646259D01*
X119448976Y-89646983D01*
X119453513Y-89647804D01*
X119457646Y-89648718D01*
X119461342Y-89649722D01*
X119463014Y-89650255D01*
X119464564Y-89650810D01*
X119465988Y-89651385D01*
X119467279Y-89651980D01*
X119468436Y-89652594D01*
X119469452Y-89653227D01*
X119470324Y-89653879D01*
X119471047Y-89654548D01*
X119471617Y-89655235D01*
X119472029Y-89655939D01*
X119472280Y-89656659D01*
X119472364Y-89657395D01*
X119468584Y-89665749D01*
X119457750Y-89685032D01*
X119417959Y-89751488D01*
X119359069Y-89846965D01*
X119287156Y-89961666D01*
X119101948Y-90254031D01*
X119101948Y-90689270D01*
X118969656Y-90689270D01*
X118969656Y-90248739D01*
X118777833Y-89953729D01*
X118703212Y-89838304D01*
X118642234Y-89742724D01*
X118601100Y-89676909D01*
X118589912Y-89658264D01*
X118587002Y-89653050D01*
X118586010Y-89650781D01*
X118586383Y-89649253D01*
X118587470Y-89647892D01*
X118589228Y-89646694D01*
X118591612Y-89645655D01*
X118598079Y-89644037D01*
X118606515Y-89643009D01*
X118616564Y-89642539D01*
X118627868Y-89642595D01*
G37*
G36*
X127798801Y-89646812D02*
G01*
X127892729Y-89650781D01*
X127896697Y-90170687D01*
X127899343Y-90689270D01*
X127767052Y-90689270D01*
X127767052Y-89772489D01*
X127485270Y-90230219D01*
X127204812Y-90689270D01*
X126999760Y-90689270D01*
X127002406Y-90170687D01*
X127006375Y-89650781D01*
X127125437Y-89650781D01*
X127125437Y-90116448D01*
X127126119Y-90296778D01*
X127127918Y-90442877D01*
X127129119Y-90498440D01*
X127130460Y-90539864D01*
X127131894Y-90565289D01*
X127132631Y-90571420D01*
X127133003Y-90572739D01*
X127133374Y-90572854D01*
X127255910Y-90375905D01*
X127645343Y-89739416D01*
X127703552Y-89642844D01*
X127798801Y-89646812D01*
G37*
G36*
X129848423Y-96099842D02*
G01*
X129850868Y-96100259D01*
X129853151Y-96100917D01*
X129855275Y-96101818D01*
X129857245Y-96102964D01*
X129859063Y-96104355D01*
X129860732Y-96105992D01*
X129862257Y-96107877D01*
X129863640Y-96110012D01*
X129864885Y-96112396D01*
X129865996Y-96115032D01*
X129866975Y-96117921D01*
X129867826Y-96121063D01*
X129868553Y-96124461D01*
X129869159Y-96128114D01*
X129869647Y-96132026D01*
X129870020Y-96136196D01*
X129870283Y-96140626D01*
X129870489Y-96150270D01*
X129870375Y-96157706D01*
X129870011Y-96164678D01*
X129869364Y-96171246D01*
X129868401Y-96177473D01*
X129867090Y-96183421D01*
X129865396Y-96189151D01*
X129863288Y-96194727D01*
X129860732Y-96200210D01*
X129857696Y-96205662D01*
X129854146Y-96211145D01*
X129850050Y-96216721D01*
X129845374Y-96222452D01*
X129840086Y-96228400D01*
X129834153Y-96234627D01*
X129827541Y-96241195D01*
X129820218Y-96248166D01*
X129798220Y-96265891D01*
X129753866Y-96298933D01*
X129608882Y-96403278D01*
X129406848Y-96545822D01*
X129169343Y-96711187D01*
X128421895Y-97229770D01*
X128389763Y-97251937D01*
X128374584Y-97262120D01*
X128360049Y-97271669D01*
X128346196Y-97280560D01*
X128333064Y-97288766D01*
X128320691Y-97296264D01*
X128309117Y-97303027D01*
X128298380Y-97309030D01*
X128288518Y-97314248D01*
X128279572Y-97318656D01*
X128271579Y-97322229D01*
X128264578Y-97324942D01*
X128258608Y-97326769D01*
X128256022Y-97327343D01*
X128253708Y-97327686D01*
X128251671Y-97327794D01*
X128249916Y-97327666D01*
X128246657Y-97327028D01*
X128243577Y-97326113D01*
X128240679Y-97324929D01*
X128237963Y-97323488D01*
X128235432Y-97321797D01*
X128233086Y-97319867D01*
X128230927Y-97317707D01*
X128228956Y-97315326D01*
X128227176Y-97312733D01*
X128225586Y-97309939D01*
X128224190Y-97306953D01*
X128222988Y-97303784D01*
X128221981Y-97300441D01*
X128221172Y-97296934D01*
X128220561Y-97293273D01*
X128220151Y-97289467D01*
X128219935Y-97281457D01*
X128220538Y-97272980D01*
X128221970Y-97264111D01*
X128224243Y-97254927D01*
X128227369Y-97245502D01*
X128231359Y-97235912D01*
X128236225Y-97226234D01*
X128241979Y-97216541D01*
X128259502Y-97198566D01*
X128300063Y-97165506D01*
X128363506Y-97117408D01*
X128449677Y-97054318D01*
X128689579Y-96883352D01*
X129018531Y-96652979D01*
X129558777Y-96279751D01*
X129729743Y-96162776D01*
X129779205Y-96129458D01*
X129800374Y-96115875D01*
X129809882Y-96110869D01*
X129818580Y-96106772D01*
X129822634Y-96105067D01*
X129826495Y-96103593D01*
X129830167Y-96102351D01*
X129833654Y-96101343D01*
X129836959Y-96100569D01*
X129840085Y-96100031D01*
X129843035Y-96099729D01*
X129845814Y-96099666D01*
X129848423Y-96099842D01*
G37*
G36*
X127899343Y-93282187D02*
G01*
X127237885Y-93282187D01*
X127237885Y-93163125D01*
X127767052Y-93163125D01*
X127767052Y-92237083D01*
X127899343Y-92237083D01*
X127899343Y-93282187D01*
G37*
G36*
X124988927Y-89304177D02*
G01*
X124988927Y-89408687D01*
X124674073Y-89403396D01*
X124577151Y-89401920D01*
X124536857Y-89401137D01*
X124501453Y-89400274D01*
X124470521Y-89399295D01*
X124443645Y-89398163D01*
X124420408Y-89396841D01*
X124400394Y-89395293D01*
X124383186Y-89393480D01*
X124368368Y-89391368D01*
X124361724Y-89390187D01*
X124355522Y-89388918D01*
X124349709Y-89387555D01*
X124344232Y-89386094D01*
X124339041Y-89384531D01*
X124334082Y-89382860D01*
X124324655Y-89379177D01*
X124315533Y-89375011D01*
X124306302Y-89370323D01*
X124294327Y-89363538D01*
X124283182Y-89356541D01*
X124272827Y-89349272D01*
X124263224Y-89341673D01*
X124254335Y-89333687D01*
X124246119Y-89325256D01*
X124238540Y-89316320D01*
X124231557Y-89306823D01*
X124225132Y-89296705D01*
X124219227Y-89285909D01*
X124213802Y-89274377D01*
X124208819Y-89262050D01*
X124204239Y-89248871D01*
X124200024Y-89234781D01*
X124196134Y-89219721D01*
X124192531Y-89203635D01*
X124189898Y-89190251D01*
X124187702Y-89176900D01*
X124185936Y-89163598D01*
X124184596Y-89150362D01*
X124183675Y-89137210D01*
X124183276Y-89126927D01*
X124303739Y-89126927D01*
X124304192Y-89142535D01*
X124305196Y-89157367D01*
X124306773Y-89171194D01*
X124308948Y-89183791D01*
X124310543Y-89190177D01*
X124312350Y-89196429D01*
X124314363Y-89202537D01*
X124316575Y-89208493D01*
X124318981Y-89214285D01*
X124321575Y-89219905D01*
X124324351Y-89225343D01*
X124327303Y-89230590D01*
X124330426Y-89235634D01*
X124333713Y-89240468D01*
X124337160Y-89245080D01*
X124340760Y-89249462D01*
X124344506Y-89253603D01*
X124348395Y-89257495D01*
X124352419Y-89261127D01*
X124356573Y-89264489D01*
X124362555Y-89268727D01*
X124368776Y-89272530D01*
X124375505Y-89275930D01*
X124383010Y-89278959D01*
X124391562Y-89281646D01*
X124401430Y-89284023D01*
X124412883Y-89286121D01*
X124426191Y-89287971D01*
X124459447Y-89291051D01*
X124503354Y-89293511D01*
X124560067Y-89295599D01*
X124631739Y-89297562D01*
X124869864Y-89304177D01*
X124869864Y-88916562D01*
X124687302Y-88917885D01*
X124644979Y-88918259D01*
X124605761Y-88918893D01*
X124569559Y-88919798D01*
X124536282Y-88920986D01*
X124505843Y-88922468D01*
X124478152Y-88924257D01*
X124453119Y-88926363D01*
X124430656Y-88928799D01*
X124410673Y-88931576D01*
X124393082Y-88934706D01*
X124377793Y-88938200D01*
X124370984Y-88940087D01*
X124364717Y-88942070D01*
X124358981Y-88944149D01*
X124353765Y-88946327D01*
X124349057Y-88948605D01*
X124344847Y-88950984D01*
X124341124Y-88953466D01*
X124337875Y-88956051D01*
X124335091Y-88958743D01*
X124332760Y-88961541D01*
X124328423Y-88968790D01*
X124324358Y-88977982D01*
X124320586Y-88988892D01*
X124317133Y-89001291D01*
X124314021Y-89014954D01*
X124311273Y-89029654D01*
X124308913Y-89045163D01*
X124306963Y-89061256D01*
X124305448Y-89077706D01*
X124304390Y-89094285D01*
X124303812Y-89110768D01*
X124303739Y-89126927D01*
X124183276Y-89126927D01*
X124183168Y-89124157D01*
X124183069Y-89111223D01*
X124183374Y-89098422D01*
X124184075Y-89085772D01*
X124185169Y-89073291D01*
X124186648Y-89060995D01*
X124188508Y-89048900D01*
X124190743Y-89037025D01*
X124193347Y-89025386D01*
X124196315Y-89013999D01*
X124199642Y-89002883D01*
X124203321Y-88992053D01*
X124207347Y-88981527D01*
X124211715Y-88971321D01*
X124216418Y-88961454D01*
X124221452Y-88951941D01*
X124226811Y-88942799D01*
X124232490Y-88934046D01*
X124238482Y-88925699D01*
X124244782Y-88917774D01*
X124251384Y-88910288D01*
X124258284Y-88903259D01*
X124265475Y-88896703D01*
X124272952Y-88890637D01*
X124280709Y-88885079D01*
X124288740Y-88880045D01*
X124297041Y-88875552D01*
X124339375Y-88854385D01*
X124301010Y-88825281D01*
X124289843Y-88816755D01*
X124279637Y-88807987D01*
X124270361Y-88798890D01*
X124261984Y-88789376D01*
X124254475Y-88779358D01*
X124247804Y-88768750D01*
X124241939Y-88757462D01*
X124236849Y-88745410D01*
X124232503Y-88732505D01*
X124228870Y-88718660D01*
X124225919Y-88703787D01*
X124223619Y-88687801D01*
X124221940Y-88670613D01*
X124220849Y-88652137D01*
X124220317Y-88632284D01*
X124220316Y-88628166D01*
X124338052Y-88628166D01*
X124338302Y-88646651D01*
X124339060Y-88663927D01*
X124339632Y-88672120D01*
X124340337Y-88680024D01*
X124341174Y-88687640D01*
X124342145Y-88694974D01*
X124343251Y-88702028D01*
X124344495Y-88708807D01*
X124345878Y-88715315D01*
X124347400Y-88721556D01*
X124349064Y-88727533D01*
X124350871Y-88733250D01*
X124352822Y-88738712D01*
X124354919Y-88743922D01*
X124357163Y-88748883D01*
X124359556Y-88753601D01*
X124362100Y-88758078D01*
X124364794Y-88762318D01*
X124367642Y-88766327D01*
X124370645Y-88770106D01*
X124373803Y-88773661D01*
X124377119Y-88776995D01*
X124380594Y-88780111D01*
X124384229Y-88783015D01*
X124388026Y-88785709D01*
X124391987Y-88788198D01*
X124396112Y-88790485D01*
X124400403Y-88792575D01*
X124404861Y-88794471D01*
X124409489Y-88796177D01*
X124414739Y-88797648D01*
X124421969Y-88799081D01*
X124441859Y-88801799D01*
X124468137Y-88804269D01*
X124499778Y-88806429D01*
X124535761Y-88808217D01*
X124575061Y-88809571D01*
X124616655Y-88810429D01*
X124659521Y-88810729D01*
X124869864Y-88810729D01*
X124869864Y-88466771D01*
X124652906Y-88466771D01*
X124608301Y-88467014D01*
X124565449Y-88467721D01*
X124525356Y-88468864D01*
X124489030Y-88470409D01*
X124457479Y-88472326D01*
X124431710Y-88474584D01*
X124421309Y-88475831D01*
X124412732Y-88477152D01*
X124406104Y-88478543D01*
X124401552Y-88480000D01*
X124393208Y-88483495D01*
X124385529Y-88487560D01*
X124378498Y-88492237D01*
X124372096Y-88497570D01*
X124366307Y-88503600D01*
X124361112Y-88510370D01*
X124356495Y-88517923D01*
X124352439Y-88526302D01*
X124348924Y-88535549D01*
X124345935Y-88545706D01*
X124343454Y-88556817D01*
X124341462Y-88568925D01*
X124339944Y-88582070D01*
X124338881Y-88596298D01*
X124338256Y-88611649D01*
X124338052Y-88628166D01*
X124220316Y-88628166D01*
X124220312Y-88610968D01*
X124220886Y-88588939D01*
X124222116Y-88567992D01*
X124224004Y-88548126D01*
X124226555Y-88529340D01*
X124228080Y-88520352D01*
X124229772Y-88511632D01*
X124231632Y-88503181D01*
X124233660Y-88494999D01*
X124235857Y-88487085D01*
X124238222Y-88479439D01*
X124240758Y-88472062D01*
X124243463Y-88464952D01*
X124246339Y-88458109D01*
X124249386Y-88451533D01*
X124252604Y-88445225D01*
X124255995Y-88439183D01*
X124259558Y-88433408D01*
X124263293Y-88427899D01*
X124267203Y-88422655D01*
X124271286Y-88417678D01*
X124275543Y-88412966D01*
X124279976Y-88408519D01*
X124284584Y-88404338D01*
X124289367Y-88400421D01*
X124294327Y-88396768D01*
X124299464Y-88393380D01*
X124304779Y-88390256D01*
X124310271Y-88387396D01*
X124316200Y-88384774D01*
X124323665Y-88382357D01*
X124343757Y-88378094D01*
X124371662Y-88374513D01*
X124408497Y-88371521D01*
X124455378Y-88369025D01*
X124513421Y-88366932D01*
X124667458Y-88363583D01*
X124988927Y-88358292D01*
X124988927Y-88810729D01*
X124988927Y-89304177D01*
G37*
G36*
X127945769Y-89292560D02*
G01*
X127970011Y-89362969D01*
X127978718Y-89391489D01*
X127978485Y-89393396D01*
X127978194Y-89394291D01*
X127977785Y-89395148D01*
X127976617Y-89396745D01*
X127974977Y-89398187D01*
X127972864Y-89399473D01*
X127970277Y-89400605D01*
X127967213Y-89401582D01*
X127963670Y-89402403D01*
X127959647Y-89403070D01*
X127955141Y-89403582D01*
X127950151Y-89403938D01*
X127944674Y-89404140D01*
X127938709Y-89404186D01*
X127932253Y-89404078D01*
X127925306Y-89403814D01*
X127917864Y-89403396D01*
X127855687Y-89399427D01*
X127815999Y-89290948D01*
X127776312Y-89181146D01*
X127256406Y-89181146D01*
X127216718Y-89290948D01*
X127178354Y-89399427D01*
X127114854Y-89403396D01*
X127108487Y-89403815D01*
X127102307Y-89404085D01*
X127096343Y-89404212D01*
X127090628Y-89404202D01*
X127085191Y-89404059D01*
X127080065Y-89403791D01*
X127075280Y-89403402D01*
X127070867Y-89402899D01*
X127066857Y-89402288D01*
X127063281Y-89401574D01*
X127060170Y-89400763D01*
X127058798Y-89400323D01*
X127057555Y-89399861D01*
X127056443Y-89399378D01*
X127055467Y-89398874D01*
X127054631Y-89398350D01*
X127053938Y-89397807D01*
X127053392Y-89397245D01*
X127052997Y-89396666D01*
X127052757Y-89396070D01*
X127052677Y-89395458D01*
X127067745Y-89350686D01*
X127108735Y-89237700D01*
X127164108Y-89088541D01*
X127292124Y-89088541D01*
X127518343Y-89088541D01*
X127555312Y-89088521D01*
X127588000Y-89088443D01*
X127616654Y-89088280D01*
X127641519Y-89088004D01*
X127652608Y-89087815D01*
X127662842Y-89087589D01*
X127672252Y-89087320D01*
X127680868Y-89087007D01*
X127688722Y-89086645D01*
X127695844Y-89086231D01*
X127702266Y-89085762D01*
X127708016Y-89085234D01*
X127713128Y-89084644D01*
X127717631Y-89083989D01*
X127721555Y-89083265D01*
X127723310Y-89082877D01*
X127724933Y-89082469D01*
X127726426Y-89082043D01*
X127727794Y-89081598D01*
X127729040Y-89081133D01*
X127730169Y-89080647D01*
X127731184Y-89080141D01*
X127732090Y-89079614D01*
X127732889Y-89079066D01*
X127733586Y-89078495D01*
X127734185Y-89077903D01*
X127734689Y-89077288D01*
X127735102Y-89076649D01*
X127735429Y-89075987D01*
X127735673Y-89075301D01*
X127735838Y-89074591D01*
X127735927Y-89073856D01*
X127735945Y-89073095D01*
X127735895Y-89072309D01*
X127735782Y-89071497D01*
X127735609Y-89070658D01*
X127735379Y-89069793D01*
X127734768Y-89067979D01*
X127733979Y-89066052D01*
X127625499Y-88760458D01*
X127604992Y-88704149D01*
X127585461Y-88652041D01*
X127567387Y-88605235D01*
X127551251Y-88564832D01*
X127537533Y-88531932D01*
X127526715Y-88507636D01*
X127522543Y-88499059D01*
X127519276Y-88493045D01*
X127516974Y-88489733D01*
X127516204Y-88489133D01*
X127515697Y-88489260D01*
X127512220Y-88495934D01*
X127505982Y-88510406D01*
X127486593Y-88559209D01*
X127460259Y-88628600D01*
X127429708Y-88711510D01*
X127322552Y-89006521D01*
X127292124Y-89088541D01*
X127164108Y-89088541D01*
X127243177Y-88875552D01*
X127433677Y-88367552D01*
X127519666Y-88363583D01*
X127605656Y-88359614D01*
X127632114Y-88429729D01*
X127749895Y-88748924D01*
X127861971Y-89057453D01*
X127867546Y-89073095D01*
X127945769Y-89292560D01*
G37*
G36*
X121991720Y-89650943D02*
G01*
X122027165Y-89651458D01*
X122059385Y-89652368D01*
X122088597Y-89653716D01*
X122115020Y-89655545D01*
X122138868Y-89657897D01*
X122160360Y-89660815D01*
X122170291Y-89662499D01*
X122179713Y-89664341D01*
X122188655Y-89666345D01*
X122197144Y-89668518D01*
X122205206Y-89670864D01*
X122212869Y-89673389D01*
X122220160Y-89676098D01*
X122227106Y-89678997D01*
X122233734Y-89682090D01*
X122240071Y-89685383D01*
X122246145Y-89688882D01*
X122251983Y-89692592D01*
X122257611Y-89696517D01*
X122263057Y-89700664D01*
X122268348Y-89705038D01*
X122273511Y-89709644D01*
X122283562Y-89719573D01*
X122290077Y-89727266D01*
X122296225Y-89735683D01*
X122302006Y-89744777D01*
X122307416Y-89754506D01*
X122317118Y-89775685D01*
X122325317Y-89798865D01*
X122331996Y-89823688D01*
X122337140Y-89849797D01*
X122340735Y-89876837D01*
X122342763Y-89904450D01*
X122343210Y-89932281D01*
X122342060Y-89959971D01*
X122339298Y-89987166D01*
X122334908Y-90013508D01*
X122328875Y-90038641D01*
X122321183Y-90062208D01*
X122311816Y-90083853D01*
X122306500Y-90093843D01*
X122300760Y-90103219D01*
X122291420Y-90116545D01*
X122281666Y-90128778D01*
X122271361Y-90139972D01*
X122260370Y-90150182D01*
X122248557Y-90159462D01*
X122235787Y-90167866D01*
X122221925Y-90175448D01*
X122206833Y-90182263D01*
X122190377Y-90188364D01*
X122172422Y-90193807D01*
X122152831Y-90198645D01*
X122131468Y-90202933D01*
X122108199Y-90206725D01*
X122082887Y-90210075D01*
X122055397Y-90213037D01*
X122025594Y-90215666D01*
X121915159Y-90225089D01*
X121870490Y-90229401D01*
X121832179Y-90233753D01*
X121815250Y-90236016D01*
X121799721Y-90238376D01*
X121785528Y-90240862D01*
X121772609Y-90243502D01*
X121760900Y-90246325D01*
X121750338Y-90249360D01*
X121740860Y-90252635D01*
X121732402Y-90256181D01*
X121724902Y-90260024D01*
X121718295Y-90264195D01*
X121712520Y-90268722D01*
X121707512Y-90273634D01*
X121703209Y-90278960D01*
X121699546Y-90284728D01*
X121696462Y-90290968D01*
X121693893Y-90297708D01*
X121691775Y-90304977D01*
X121690045Y-90312804D01*
X121688640Y-90321217D01*
X121687498Y-90330246D01*
X121685745Y-90350266D01*
X121684281Y-90373094D01*
X121683398Y-90395032D01*
X121683227Y-90405528D01*
X121683237Y-90415711D01*
X121683429Y-90425582D01*
X121683804Y-90435142D01*
X121684363Y-90444393D01*
X121685108Y-90453337D01*
X121686038Y-90461974D01*
X121687156Y-90470306D01*
X121688461Y-90478336D01*
X121689955Y-90486063D01*
X121691639Y-90493490D01*
X121693514Y-90500619D01*
X121695581Y-90507449D01*
X121697841Y-90513984D01*
X121700294Y-90520224D01*
X121702943Y-90526171D01*
X121705787Y-90531827D01*
X121708827Y-90537192D01*
X121712066Y-90542268D01*
X121715503Y-90547058D01*
X121719139Y-90551561D01*
X121722976Y-90555780D01*
X121727015Y-90559716D01*
X121731256Y-90563370D01*
X121735701Y-90566745D01*
X121740350Y-90569841D01*
X121745204Y-90572660D01*
X121750265Y-90575203D01*
X121755534Y-90577472D01*
X121761010Y-90579468D01*
X121773996Y-90582986D01*
X121791225Y-90586096D01*
X121812106Y-90588790D01*
X121836044Y-90591065D01*
X121890723Y-90594328D01*
X121950518Y-90595840D01*
X122010685Y-90595553D01*
X122066480Y-90593421D01*
X122091255Y-90591649D01*
X122113159Y-90589398D01*
X122131598Y-90586663D01*
X122145979Y-90583437D01*
X122156230Y-90580175D01*
X122165665Y-90576316D01*
X122174306Y-90571822D01*
X122182173Y-90566653D01*
X122189289Y-90560771D01*
X122192571Y-90557550D01*
X122195674Y-90554137D01*
X122198599Y-90550526D01*
X122201349Y-90546712D01*
X122206337Y-90538458D01*
X122210658Y-90529336D01*
X122214334Y-90519307D01*
X122217386Y-90508332D01*
X122219835Y-90496373D01*
X122221703Y-90483390D01*
X122223011Y-90469346D01*
X122223780Y-90454201D01*
X122224031Y-90437916D01*
X122224031Y-90371771D01*
X122360292Y-90371771D01*
X122351031Y-90453792D01*
X122347561Y-90480241D01*
X122343551Y-90504595D01*
X122338924Y-90526956D01*
X122336356Y-90537422D01*
X122333606Y-90547429D01*
X122330663Y-90556991D01*
X122327520Y-90566120D01*
X122324165Y-90574829D01*
X122320591Y-90583132D01*
X122316787Y-90591042D01*
X122312743Y-90598571D01*
X122308452Y-90605733D01*
X122303902Y-90612541D01*
X122299085Y-90619008D01*
X122293991Y-90625147D01*
X122288610Y-90630971D01*
X122282934Y-90636493D01*
X122276953Y-90641727D01*
X122270657Y-90646685D01*
X122264037Y-90651380D01*
X122257083Y-90655825D01*
X122249786Y-90660035D01*
X122242137Y-90664021D01*
X122234126Y-90667796D01*
X122225744Y-90671375D01*
X122216981Y-90674769D01*
X122207827Y-90677993D01*
X122188312Y-90683979D01*
X122170233Y-90688508D01*
X122148604Y-90692185D01*
X122123223Y-90695025D01*
X122093889Y-90697043D01*
X122060400Y-90698255D01*
X122022555Y-90698676D01*
X121980152Y-90698322D01*
X121932989Y-90697208D01*
X121891413Y-90696078D01*
X121853826Y-90694617D01*
X121819967Y-90692740D01*
X121804354Y-90691621D01*
X121789577Y-90690366D01*
X121775601Y-90688966D01*
X121762396Y-90687411D01*
X121749927Y-90685689D01*
X121738164Y-90683790D01*
X121727073Y-90681705D01*
X121716622Y-90679422D01*
X121706778Y-90676931D01*
X121697510Y-90674222D01*
X121688784Y-90671285D01*
X121680569Y-90668108D01*
X121672831Y-90664682D01*
X121665538Y-90660996D01*
X121658658Y-90657039D01*
X121652158Y-90652802D01*
X121646006Y-90648274D01*
X121640170Y-90643444D01*
X121634616Y-90638302D01*
X121629313Y-90632838D01*
X121624228Y-90627040D01*
X121619329Y-90620900D01*
X121614582Y-90614406D01*
X121609957Y-90607548D01*
X121605419Y-90600315D01*
X121600937Y-90592698D01*
X121591597Y-90575334D01*
X121587691Y-90567118D01*
X121584256Y-90558963D01*
X121581263Y-90550685D01*
X121578683Y-90542096D01*
X121576486Y-90533011D01*
X121574644Y-90523245D01*
X121573128Y-90512610D01*
X121571908Y-90500920D01*
X121570956Y-90487991D01*
X121570242Y-90473635D01*
X121569412Y-90439901D01*
X121569187Y-90398229D01*
X121569694Y-90354859D01*
X121571508Y-90316311D01*
X121575065Y-90282259D01*
X121580804Y-90252377D01*
X121584629Y-90238899D01*
X121589164Y-90226340D01*
X121594463Y-90214662D01*
X121600581Y-90203822D01*
X121607573Y-90193781D01*
X121615494Y-90184498D01*
X121624398Y-90175931D01*
X121634341Y-90168041D01*
X121645376Y-90160787D01*
X121657560Y-90154128D01*
X121670945Y-90148022D01*
X121685588Y-90142431D01*
X121718865Y-90132625D01*
X121757827Y-90124385D01*
X121802912Y-90117386D01*
X121854560Y-90111301D01*
X121913207Y-90105805D01*
X121979291Y-90100573D01*
X122019101Y-90097579D01*
X122054377Y-90094423D01*
X122085389Y-90090910D01*
X122112410Y-90086847D01*
X122124508Y-90084549D01*
X122135709Y-90082040D01*
X122146049Y-90079297D01*
X122155560Y-90076295D01*
X122164276Y-90073010D01*
X122172232Y-90069418D01*
X122179461Y-90065495D01*
X122185997Y-90061216D01*
X122191875Y-90056557D01*
X122197127Y-90051494D01*
X122201789Y-90046003D01*
X122205893Y-90040059D01*
X122209474Y-90033639D01*
X122212566Y-90026718D01*
X122215202Y-90019272D01*
X122217417Y-90011276D01*
X122219244Y-90002706D01*
X122220718Y-89993539D01*
X122221871Y-89983750D01*
X122222739Y-89973314D01*
X122223754Y-89950407D01*
X122224031Y-89924625D01*
X122223779Y-89907378D01*
X122223008Y-89891327D01*
X122222420Y-89883736D01*
X122221694Y-89876427D01*
X122220827Y-89869395D01*
X122219814Y-89862634D01*
X122218655Y-89856138D01*
X122217346Y-89849902D01*
X122215883Y-89843921D01*
X122214264Y-89838188D01*
X122212487Y-89832699D01*
X122210548Y-89827447D01*
X122208443Y-89822427D01*
X122206172Y-89817634D01*
X122203730Y-89813062D01*
X122201114Y-89808705D01*
X122198322Y-89804557D01*
X122195351Y-89800614D01*
X122192197Y-89796870D01*
X122188859Y-89793319D01*
X122185332Y-89789955D01*
X122181615Y-89786773D01*
X122177704Y-89783767D01*
X122173596Y-89780932D01*
X122169289Y-89778263D01*
X122164779Y-89775753D01*
X122160063Y-89773397D01*
X122155140Y-89771189D01*
X122150005Y-89769125D01*
X122144656Y-89767198D01*
X122131529Y-89763680D01*
X122114366Y-89760573D01*
X122093749Y-89757884D01*
X122070262Y-89755622D01*
X122017012Y-89752408D01*
X121959282Y-89750992D01*
X121901738Y-89751436D01*
X121849046Y-89753803D01*
X121825978Y-89755727D01*
X121805873Y-89758154D01*
X121789315Y-89761093D01*
X121776885Y-89764552D01*
X121768918Y-89767694D01*
X121761395Y-89771647D01*
X121754326Y-89776382D01*
X121747719Y-89781874D01*
X121741585Y-89788094D01*
X121735934Y-89795015D01*
X121730775Y-89802611D01*
X121726118Y-89810854D01*
X121721973Y-89819717D01*
X121718349Y-89829173D01*
X121715255Y-89839195D01*
X121712703Y-89849756D01*
X121710701Y-89860828D01*
X121709259Y-89872385D01*
X121708386Y-89884399D01*
X121708094Y-89896843D01*
X121708049Y-89903379D01*
X121707861Y-89909127D01*
X121707448Y-89914139D01*
X121706729Y-89918465D01*
X121706230Y-89920386D01*
X121705623Y-89922155D01*
X121704899Y-89923778D01*
X121704047Y-89925260D01*
X121703058Y-89926609D01*
X121701921Y-89927831D01*
X121700627Y-89928931D01*
X121699164Y-89929917D01*
X121697523Y-89930793D01*
X121695693Y-89931568D01*
X121693665Y-89932247D01*
X121691428Y-89932836D01*
X121686287Y-89933771D01*
X121680188Y-89934423D01*
X121673051Y-89934842D01*
X121664794Y-89935079D01*
X121644593Y-89935208D01*
X121581094Y-89935208D01*
X121590354Y-89857156D01*
X121594555Y-89826061D01*
X121599906Y-89798152D01*
X121606687Y-89773266D01*
X121615179Y-89751240D01*
X121620155Y-89741249D01*
X121625663Y-89731912D01*
X121631740Y-89723208D01*
X121638421Y-89715118D01*
X121645740Y-89707621D01*
X121653732Y-89700697D01*
X121662433Y-89694324D01*
X121671879Y-89688484D01*
X121682103Y-89683155D01*
X121693141Y-89678318D01*
X121705029Y-89673952D01*
X121717801Y-89670036D01*
X121746139Y-89663474D01*
X121778436Y-89658470D01*
X121814972Y-89654862D01*
X121856030Y-89652486D01*
X121901890Y-89651180D01*
X121952833Y-89650781D01*
X121991720Y-89650943D01*
G37*
G36*
X128223458Y-91436718D02*
G01*
X128222631Y-93115665D01*
X128221783Y-93282001D01*
X128220812Y-92934260D01*
X128220812Y-89931239D01*
X128223458Y-91436718D01*
G37*
G36*
X129850214Y-95584210D02*
G01*
X129853397Y-95584688D01*
X129856243Y-95585545D01*
X129858769Y-95586832D01*
X129859917Y-95587653D01*
X129860992Y-95588600D01*
X129861996Y-95589680D01*
X129862931Y-95590899D01*
X129864603Y-95593779D01*
X129866024Y-95597291D01*
X129867213Y-95601485D01*
X129868187Y-95606412D01*
X129868963Y-95612122D01*
X129869559Y-95618664D01*
X129869992Y-95626091D01*
X129870280Y-95634452D01*
X129870489Y-95654176D01*
X129870420Y-95665278D01*
X129870187Y-95675338D01*
X129869748Y-95684460D01*
X129869063Y-95692748D01*
X129868091Y-95700307D01*
X129867485Y-95703847D01*
X129866792Y-95707243D01*
X129866006Y-95710510D01*
X129865124Y-95713659D01*
X129864139Y-95716706D01*
X129863048Y-95719661D01*
X129861843Y-95722539D01*
X129860522Y-95725353D01*
X129859077Y-95728115D01*
X129857505Y-95730839D01*
X129855801Y-95733537D01*
X129853958Y-95736224D01*
X129851973Y-95738912D01*
X129849839Y-95741613D01*
X129845108Y-95747111D01*
X129839723Y-95752822D01*
X129833645Y-95758850D01*
X129826833Y-95765302D01*
X129588418Y-95937591D01*
X129093275Y-96285373D01*
X128585234Y-96638365D01*
X128308125Y-96826281D01*
X128290560Y-96836776D01*
X128283330Y-96840984D01*
X128276995Y-96844512D01*
X128274130Y-96846026D01*
X128271450Y-96847375D01*
X128268942Y-96848559D01*
X128266592Y-96849582D01*
X128264388Y-96850443D01*
X128262315Y-96851146D01*
X128260362Y-96851690D01*
X128258515Y-96852078D01*
X128256761Y-96852310D01*
X128255087Y-96852390D01*
X128253480Y-96852317D01*
X128251926Y-96852093D01*
X128250414Y-96851720D01*
X128248929Y-96851200D01*
X128247458Y-96850533D01*
X128245989Y-96849721D01*
X128244508Y-96848766D01*
X128243002Y-96847669D01*
X128241459Y-96846431D01*
X128239865Y-96845055D01*
X128238207Y-96843540D01*
X128236472Y-96841890D01*
X128232718Y-96838187D01*
X128230455Y-96835739D01*
X128228376Y-96833112D01*
X128226482Y-96830313D01*
X128224770Y-96827350D01*
X128223241Y-96824231D01*
X128221893Y-96820961D01*
X128219737Y-96814002D01*
X128218294Y-96806532D01*
X128217556Y-96798608D01*
X128217516Y-96790289D01*
X128218166Y-96781632D01*
X128219498Y-96772697D01*
X128221504Y-96763540D01*
X128224177Y-96754221D01*
X128227509Y-96744797D01*
X128231492Y-96735327D01*
X128236119Y-96725868D01*
X128241380Y-96716479D01*
X128247270Y-96707218D01*
X128324297Y-96644579D01*
X128506293Y-96510703D01*
X129045485Y-96127285D01*
X129585421Y-95753044D01*
X129768348Y-95630641D01*
X129822770Y-95596342D01*
X129846676Y-95584062D01*
X129850214Y-95584210D01*
G37*
G36*
X123718927Y-89407364D02*
G01*
X123655427Y-89403396D01*
X123593250Y-89399427D01*
X123589281Y-89191729D01*
X123585312Y-88982708D01*
X123374968Y-88982708D01*
X123332224Y-88982951D01*
X123290984Y-88983659D01*
X123252255Y-88984801D01*
X123217045Y-88986346D01*
X123186362Y-88988263D01*
X123161214Y-88990522D01*
X123151030Y-88991769D01*
X123142608Y-88993090D01*
X123136073Y-88994481D01*
X123131552Y-88995937D01*
X123120441Y-89000415D01*
X123110387Y-89005531D01*
X123101330Y-89011457D01*
X123093208Y-89018365D01*
X123085962Y-89026428D01*
X123079532Y-89035819D01*
X123073857Y-89046709D01*
X123068879Y-89059272D01*
X123064535Y-89073680D01*
X123060768Y-89090105D01*
X123057516Y-89108719D01*
X123054719Y-89129697D01*
X123052318Y-89153208D01*
X123050252Y-89179427D01*
X123046885Y-89240677D01*
X123040270Y-89406041D01*
X122922531Y-89406041D01*
X122927822Y-89223479D01*
X122928688Y-89187397D01*
X122929848Y-89154904D01*
X122931380Y-89125776D01*
X122932310Y-89112403D01*
X122933362Y-89099786D01*
X122934546Y-89087899D01*
X122935871Y-89076711D01*
X122937347Y-89066197D01*
X122938985Y-89056326D01*
X122940792Y-89047072D01*
X122942780Y-89038406D01*
X122944958Y-89030300D01*
X122947336Y-89022726D01*
X122949922Y-89015656D01*
X122952728Y-89009062D01*
X122955762Y-89002915D01*
X122959035Y-88997188D01*
X122962556Y-88991852D01*
X122966334Y-88986880D01*
X122970380Y-88982243D01*
X122974703Y-88977913D01*
X122979313Y-88973862D01*
X122984219Y-88970062D01*
X122989432Y-88966484D01*
X122994960Y-88963102D01*
X123000814Y-88959886D01*
X123007004Y-88956809D01*
X123013538Y-88953842D01*
X123020426Y-88950958D01*
X123060115Y-88933760D01*
X123013813Y-88905979D01*
X123008810Y-88903101D01*
X123003748Y-88899946D01*
X122998659Y-88896546D01*
X122993576Y-88892936D01*
X122988531Y-88889147D01*
X122983558Y-88885213D01*
X122978690Y-88881166D01*
X122973959Y-88877040D01*
X122969399Y-88872868D01*
X122965043Y-88868681D01*
X122960922Y-88864515D01*
X122957072Y-88860400D01*
X122953523Y-88856371D01*
X122950310Y-88852460D01*
X122947465Y-88848700D01*
X122945021Y-88845125D01*
X122939536Y-88835093D01*
X122934510Y-88822108D01*
X122929963Y-88806534D01*
X122925921Y-88788735D01*
X122922406Y-88769076D01*
X122919441Y-88747921D01*
X122917050Y-88725635D01*
X122915255Y-88702580D01*
X122914081Y-88679123D01*
X122913856Y-88669177D01*
X123032333Y-88669177D01*
X123032409Y-88686939D01*
X123033129Y-88703991D01*
X123034484Y-88720307D01*
X123035397Y-88728181D01*
X123036467Y-88735860D01*
X123037692Y-88743342D01*
X123039070Y-88750622D01*
X123040602Y-88757698D01*
X123042286Y-88764566D01*
X123044121Y-88771223D01*
X123046106Y-88777666D01*
X123048240Y-88783890D01*
X123050523Y-88789893D01*
X123052953Y-88795671D01*
X123055529Y-88801221D01*
X123058251Y-88806540D01*
X123061117Y-88811623D01*
X123064126Y-88816468D01*
X123067278Y-88821071D01*
X123070571Y-88825430D01*
X123074005Y-88829539D01*
X123077578Y-88833397D01*
X123081290Y-88836999D01*
X123085140Y-88840343D01*
X123089126Y-88843425D01*
X123093247Y-88846241D01*
X123097504Y-88848788D01*
X123101894Y-88851063D01*
X123106417Y-88853062D01*
X123111247Y-88854564D01*
X123118206Y-88856088D01*
X123137980Y-88859160D01*
X123164669Y-88862201D01*
X123197201Y-88865134D01*
X123234509Y-88867880D01*
X123275522Y-88870364D01*
X123319171Y-88872506D01*
X123364385Y-88874229D01*
X123586635Y-88879521D01*
X123586635Y-88466771D01*
X123357771Y-88466771D01*
X123302676Y-88467021D01*
X123254356Y-88467783D01*
X123212640Y-88469073D01*
X123194205Y-88469920D01*
X123177358Y-88470905D01*
X123162076Y-88472029D01*
X123148339Y-88473295D01*
X123136125Y-88474704D01*
X123125413Y-88476258D01*
X123116181Y-88477960D01*
X123108408Y-88479811D01*
X123102074Y-88481813D01*
X123097156Y-88483968D01*
X123089670Y-88488447D01*
X123082596Y-88493934D01*
X123075945Y-88500418D01*
X123069726Y-88507884D01*
X123063949Y-88516320D01*
X123058623Y-88525710D01*
X123053759Y-88536043D01*
X123049366Y-88547303D01*
X123045453Y-88559478D01*
X123042030Y-88572555D01*
X123039107Y-88586519D01*
X123036694Y-88601357D01*
X123034801Y-88617055D01*
X123033436Y-88633600D01*
X123032610Y-88650979D01*
X123032333Y-88669177D01*
X122913856Y-88669177D01*
X122913550Y-88655627D01*
X122913685Y-88632457D01*
X122914511Y-88609976D01*
X122916049Y-88588550D01*
X122918324Y-88568542D01*
X122921359Y-88550317D01*
X122925176Y-88534239D01*
X122929399Y-88520684D01*
X122934589Y-88507342D01*
X122940690Y-88494271D01*
X122947646Y-88481529D01*
X122955399Y-88469175D01*
X122963895Y-88457267D01*
X122973077Y-88445863D01*
X122982889Y-88435021D01*
X122993274Y-88424798D01*
X123004177Y-88415254D01*
X123015541Y-88406447D01*
X123027310Y-88398434D01*
X123039428Y-88391273D01*
X123051838Y-88385024D01*
X123064485Y-88379743D01*
X123077312Y-88375489D01*
X123094267Y-88372585D01*
X123120679Y-88369867D01*
X123155587Y-88367397D01*
X123198028Y-88365237D01*
X123301671Y-88362095D01*
X123423916Y-88360937D01*
X123718927Y-88360937D01*
X123718927Y-88879521D01*
X123718927Y-89407364D01*
G37*
G36*
X129867599Y-88917121D02*
G01*
X129868242Y-89084516D01*
X129868822Y-89522439D01*
X129868645Y-90058250D01*
X129868625Y-90119329D01*
X129867854Y-90900937D01*
X129866634Y-91655000D01*
X129864003Y-93282187D01*
X129863874Y-93361562D01*
X129830801Y-93393317D01*
X129808699Y-93410735D01*
X129758413Y-93447577D01*
X129586062Y-93570423D01*
X129339297Y-93743621D01*
X129043666Y-93948942D01*
X128749980Y-94152464D01*
X128506898Y-94319026D01*
X128339718Y-94431513D01*
X128292497Y-94462131D01*
X128273739Y-94472812D01*
X128272146Y-94472705D01*
X128270359Y-94472391D01*
X128268401Y-94471879D01*
X128266295Y-94471180D01*
X128264065Y-94470302D01*
X128261735Y-94469256D01*
X128259327Y-94468050D01*
X128256864Y-94466696D01*
X128254371Y-94465202D01*
X128251869Y-94463578D01*
X128249384Y-94461834D01*
X128246937Y-94459980D01*
X128244552Y-94458025D01*
X128242253Y-94455978D01*
X128240063Y-94453850D01*
X128238005Y-94451650D01*
X128236315Y-94449050D01*
X128234715Y-94444463D01*
X128231778Y-94427763D01*
X128229174Y-94398423D01*
X128226885Y-94353319D01*
X128224890Y-94289324D01*
X128223170Y-94203314D01*
X128220479Y-93952741D01*
X128218655Y-93576594D01*
X128217545Y-93049867D01*
X128217190Y-92237083D01*
X128640177Y-92237083D01*
X128640177Y-92409062D01*
X129275177Y-92409062D01*
X129275177Y-92686874D01*
X128718234Y-92686874D01*
X128722187Y-92770229D01*
X128726166Y-92852239D01*
X129000000Y-92856218D01*
X129275177Y-92858854D01*
X129275177Y-93282187D01*
X129473614Y-93282187D01*
X129473614Y-92237083D01*
X128640177Y-92237083D01*
X128217190Y-92237083D01*
X128216940Y-91666594D01*
X128641192Y-91666594D01*
X128642812Y-91710552D01*
X128645336Y-91746330D01*
X128649047Y-91778863D01*
X128654112Y-91808320D01*
X128657203Y-91821946D01*
X128660694Y-91834866D01*
X128664605Y-91847099D01*
X128668958Y-91858667D01*
X128673772Y-91869591D01*
X128679069Y-91879892D01*
X128684868Y-91889590D01*
X128691192Y-91898706D01*
X128698059Y-91907261D01*
X128705490Y-91915276D01*
X128713507Y-91922771D01*
X128722130Y-91929768D01*
X128731379Y-91936288D01*
X128741276Y-91942350D01*
X128751839Y-91947976D01*
X128763091Y-91953188D01*
X128775052Y-91958004D01*
X128787742Y-91962448D01*
X128801182Y-91966538D01*
X128815393Y-91970297D01*
X128846207Y-91976902D01*
X128880351Y-91982430D01*
X128917989Y-91987047D01*
X128962864Y-91991385D01*
X129002406Y-91994468D01*
X129038351Y-91996280D01*
X129072434Y-91996806D01*
X129106394Y-91996029D01*
X129141967Y-91993934D01*
X129180888Y-91990506D01*
X129224895Y-91985729D01*
X129256276Y-91981354D01*
X129285005Y-91976096D01*
X129311192Y-91969846D01*
X129334945Y-91962494D01*
X129345943Y-91958372D01*
X129356373Y-91953934D01*
X129366249Y-91949166D01*
X129375584Y-91944055D01*
X129384392Y-91938588D01*
X129392686Y-91932751D01*
X129400481Y-91926530D01*
X129407789Y-91919911D01*
X129414624Y-91912882D01*
X129421000Y-91905428D01*
X129426930Y-91897537D01*
X129432428Y-91889194D01*
X129437507Y-91880386D01*
X129442182Y-91871099D01*
X129446465Y-91861320D01*
X129450370Y-91851035D01*
X129453911Y-91840231D01*
X129457101Y-91828894D01*
X129462483Y-91804567D01*
X129466625Y-91777946D01*
X129469635Y-91748922D01*
X129477593Y-91655000D01*
X129384989Y-91655000D01*
X129367201Y-91655094D01*
X129351458Y-91655447D01*
X129337633Y-91656160D01*
X129325601Y-91657337D01*
X129320217Y-91658131D01*
X129315235Y-91659080D01*
X129310637Y-91660195D01*
X129306409Y-91661491D01*
X129302535Y-91662979D01*
X129298998Y-91664673D01*
X129295784Y-91666586D01*
X129292876Y-91668730D01*
X129290258Y-91671118D01*
X129287916Y-91673763D01*
X129285833Y-91676678D01*
X129283993Y-91679876D01*
X129282381Y-91683369D01*
X129280981Y-91687171D01*
X129279777Y-91691293D01*
X129278754Y-91695750D01*
X129277186Y-91705717D01*
X129276151Y-91717174D01*
X129275523Y-91730223D01*
X129275177Y-91744968D01*
X129275055Y-91749964D01*
X129274689Y-91754785D01*
X129274070Y-91759434D01*
X129273195Y-91763913D01*
X129272057Y-91768225D01*
X129270651Y-91772373D01*
X129268971Y-91776360D01*
X129267012Y-91780190D01*
X129264769Y-91783865D01*
X129262234Y-91787387D01*
X129259404Y-91790760D01*
X129256272Y-91793987D01*
X129252833Y-91797070D01*
X129249082Y-91800013D01*
X129245012Y-91802818D01*
X129240618Y-91805489D01*
X129235895Y-91808028D01*
X129230836Y-91810438D01*
X129225437Y-91812722D01*
X129219692Y-91814883D01*
X129213596Y-91816924D01*
X129207142Y-91818847D01*
X129200325Y-91820657D01*
X129193139Y-91822355D01*
X129185580Y-91823944D01*
X129177641Y-91825428D01*
X129169317Y-91826809D01*
X129160602Y-91828090D01*
X129141978Y-91830365D01*
X129121723Y-91832275D01*
X129097852Y-91833937D01*
X129074432Y-91834965D01*
X129051574Y-91835377D01*
X129029389Y-91835190D01*
X129007986Y-91834422D01*
X128987477Y-91833090D01*
X128967972Y-91831211D01*
X128949581Y-91828803D01*
X128932415Y-91825884D01*
X128916584Y-91822470D01*
X128902199Y-91818580D01*
X128889370Y-91814230D01*
X128878207Y-91809439D01*
X128868821Y-91804223D01*
X128861323Y-91798600D01*
X128855822Y-91792588D01*
X128854103Y-91789743D01*
X128852424Y-91786198D01*
X128850795Y-91781998D01*
X128849227Y-91777188D01*
X128847728Y-91771811D01*
X128846308Y-91765914D01*
X128844977Y-91759539D01*
X128843746Y-91752733D01*
X128842622Y-91745539D01*
X128841617Y-91738001D01*
X128840740Y-91730166D01*
X128840001Y-91722077D01*
X128839409Y-91713778D01*
X128838974Y-91705315D01*
X128838706Y-91696731D01*
X128838614Y-91688073D01*
X128838763Y-91667064D01*
X128839435Y-91648556D01*
X128840073Y-91640177D01*
X128840968Y-91632350D01*
X128842162Y-91625048D01*
X128843697Y-91618248D01*
X128845617Y-91611925D01*
X128847962Y-91606054D01*
X128850775Y-91600610D01*
X128854098Y-91595568D01*
X128857974Y-91590905D01*
X128862444Y-91586594D01*
X128867550Y-91582612D01*
X128873335Y-91578934D01*
X128879842Y-91575535D01*
X128887111Y-91572391D01*
X128895185Y-91569476D01*
X128904107Y-91566766D01*
X128913918Y-91564236D01*
X128924661Y-91561861D01*
X128936378Y-91559618D01*
X128949110Y-91557480D01*
X128977792Y-91553425D01*
X129011043Y-91549497D01*
X129049201Y-91545499D01*
X129092604Y-91541234D01*
X129150453Y-91535377D01*
X129202179Y-91529043D01*
X129248107Y-91521973D01*
X129288563Y-91513907D01*
X129323872Y-91504584D01*
X129339698Y-91499371D01*
X129354360Y-91493747D01*
X129367898Y-91487678D01*
X129380352Y-91481134D01*
X129391764Y-91474081D01*
X129402174Y-91466486D01*
X129411623Y-91458319D01*
X129420151Y-91449545D01*
X129427800Y-91440132D01*
X129434609Y-91430049D01*
X129440620Y-91419262D01*
X129445873Y-91407739D01*
X129450409Y-91395448D01*
X129454269Y-91382356D01*
X129457493Y-91368430D01*
X129460122Y-91353639D01*
X129463759Y-91321330D01*
X129465503Y-91285169D01*
X129465682Y-91244896D01*
X129465197Y-91219197D01*
X129464224Y-91195145D01*
X129462740Y-91172677D01*
X129460721Y-91151735D01*
X129458143Y-91132258D01*
X129454985Y-91114186D01*
X129451221Y-91097459D01*
X129446830Y-91082017D01*
X129441788Y-91067799D01*
X129436071Y-91054746D01*
X129429657Y-91042798D01*
X129422522Y-91031894D01*
X129414642Y-91021974D01*
X129405995Y-91012979D01*
X129396558Y-91004848D01*
X129386307Y-90997521D01*
X129375215Y-90991017D01*
X129362593Y-90984903D01*
X129348537Y-90979179D01*
X129333146Y-90973847D01*
X129316516Y-90968908D01*
X129298745Y-90964364D01*
X129279930Y-90960216D01*
X129260170Y-90956466D01*
X129239560Y-90953115D01*
X129218199Y-90950165D01*
X129196185Y-90947617D01*
X129173613Y-90945473D01*
X129150583Y-90943733D01*
X129127191Y-90942400D01*
X129103534Y-90941476D01*
X129079710Y-90940960D01*
X129031951Y-90941163D01*
X128984692Y-90943020D01*
X128938712Y-90946542D01*
X128894789Y-90951743D01*
X128873843Y-90954976D01*
X128853703Y-90958633D01*
X128834468Y-90962715D01*
X128816234Y-90967225D01*
X128799099Y-90972163D01*
X128783160Y-90977531D01*
X128768514Y-90983330D01*
X128755260Y-90989562D01*
X128750703Y-90991979D01*
X128746213Y-90994755D01*
X128741794Y-90997878D01*
X128737453Y-91001335D01*
X128733192Y-91005114D01*
X128729018Y-91009203D01*
X128724935Y-91013587D01*
X128720948Y-91018256D01*
X128717062Y-91023197D01*
X128713282Y-91028395D01*
X128709612Y-91033841D01*
X128706057Y-91039519D01*
X128699313Y-91051527D01*
X128693088Y-91064317D01*
X128687421Y-91077790D01*
X128682352Y-91091844D01*
X128677917Y-91106379D01*
X128674157Y-91121293D01*
X128671110Y-91136486D01*
X128668815Y-91151856D01*
X128667310Y-91167304D01*
X128666635Y-91182729D01*
X128666635Y-91244896D01*
X128759239Y-91244896D01*
X128789061Y-91244772D01*
X128801242Y-91244548D01*
X128811783Y-91244153D01*
X128820820Y-91243542D01*
X128828489Y-91242666D01*
X128834925Y-91241481D01*
X128840265Y-91239940D01*
X128842566Y-91239021D01*
X128844644Y-91237995D01*
X128846515Y-91236857D01*
X128848196Y-91235601D01*
X128849706Y-91234221D01*
X128851060Y-91232710D01*
X128853368Y-91229277D01*
X128855259Y-91225255D01*
X128856866Y-91220597D01*
X128858327Y-91215256D01*
X128859776Y-91209187D01*
X128861375Y-91201040D01*
X128863145Y-91192630D01*
X128866886Y-91175949D01*
X128873005Y-91149656D01*
X128874198Y-91146358D01*
X128875791Y-91143162D01*
X128877780Y-91140070D01*
X128880162Y-91137082D01*
X128882933Y-91134201D01*
X128886091Y-91131428D01*
X128889631Y-91128765D01*
X128893550Y-91126212D01*
X128897846Y-91123772D01*
X128902514Y-91121445D01*
X128907551Y-91119234D01*
X128912954Y-91117140D01*
X128918719Y-91115163D01*
X128924844Y-91113307D01*
X128931324Y-91111571D01*
X128938156Y-91109958D01*
X128945337Y-91108469D01*
X128952863Y-91107106D01*
X128968938Y-91104761D01*
X128986355Y-91102935D01*
X129005085Y-91101641D01*
X129025102Y-91100890D01*
X129046379Y-91100693D01*
X129068889Y-91101063D01*
X129092604Y-91102010D01*
X129117878Y-91103434D01*
X129140694Y-91105281D01*
X129161171Y-91107632D01*
X129179423Y-91110568D01*
X129195566Y-91114170D01*
X129209718Y-91118521D01*
X129216083Y-91121002D01*
X129221994Y-91123701D01*
X129227464Y-91126627D01*
X129232510Y-91129791D01*
X129237145Y-91133204D01*
X129241383Y-91136874D01*
X129245239Y-91140813D01*
X129248729Y-91145031D01*
X129251865Y-91149537D01*
X129254664Y-91154342D01*
X129257139Y-91159456D01*
X129259304Y-91164890D01*
X129261175Y-91170653D01*
X129262766Y-91176755D01*
X129265166Y-91190020D01*
X129266620Y-91204765D01*
X129267244Y-91221072D01*
X129267349Y-91241237D01*
X129267089Y-91259169D01*
X129266349Y-91275024D01*
X129265013Y-91288957D01*
X129264084Y-91295251D01*
X129262963Y-91301123D01*
X129261634Y-91306592D01*
X129260083Y-91311677D01*
X129258296Y-91316397D01*
X129256259Y-91320773D01*
X129253955Y-91324823D01*
X129251372Y-91328567D01*
X129248494Y-91332025D01*
X129245307Y-91335214D01*
X129241796Y-91338156D01*
X129237947Y-91340869D01*
X129233746Y-91343373D01*
X129229177Y-91345687D01*
X129224226Y-91347830D01*
X129218879Y-91349822D01*
X129206939Y-91353430D01*
X129193238Y-91356666D01*
X129177662Y-91359684D01*
X129160093Y-91362640D01*
X129116952Y-91368179D01*
X129066988Y-91374213D01*
X129016279Y-91379751D01*
X128992546Y-91382024D01*
X128970906Y-91383802D01*
X128920204Y-91388692D01*
X128874604Y-91394586D01*
X128833875Y-91401712D01*
X128797788Y-91410300D01*
X128781413Y-91415213D01*
X128766111Y-91420577D01*
X128751855Y-91426420D01*
X128738614Y-91432772D01*
X128726361Y-91439661D01*
X128715067Y-91447115D01*
X128704702Y-91455163D01*
X128695238Y-91463833D01*
X128686646Y-91473155D01*
X128678897Y-91483156D01*
X128671963Y-91493865D01*
X128665814Y-91505312D01*
X128660422Y-91517524D01*
X128655758Y-91530530D01*
X128651793Y-91544358D01*
X128648498Y-91559038D01*
X128645845Y-91574598D01*
X128643804Y-91591066D01*
X128641446Y-91626842D01*
X128641192Y-91666594D01*
X128216940Y-91666594D01*
X128216843Y-91444651D01*
X128219337Y-89657395D01*
X128638859Y-89657395D01*
X128642812Y-90084708D01*
X128646016Y-90305282D01*
X128648044Y-90382384D01*
X128650584Y-90441394D01*
X128653806Y-90485335D01*
X128657881Y-90517231D01*
X128662979Y-90540104D01*
X128669270Y-90556979D01*
X128673824Y-90566437D01*
X128678572Y-90575471D01*
X128683535Y-90584089D01*
X128688737Y-90592302D01*
X128694201Y-90600119D01*
X128699950Y-90607548D01*
X128706005Y-90614601D01*
X128712391Y-90621285D01*
X128719129Y-90627611D01*
X128726243Y-90633587D01*
X128733755Y-90639225D01*
X128741688Y-90644532D01*
X128750065Y-90649518D01*
X128758908Y-90654193D01*
X128768241Y-90658566D01*
X128778085Y-90662647D01*
X128788465Y-90666445D01*
X128799402Y-90669969D01*
X128810920Y-90673229D01*
X128823041Y-90676235D01*
X128835787Y-90678996D01*
X128849183Y-90681521D01*
X128863250Y-90683819D01*
X128878011Y-90685901D01*
X128893489Y-90687776D01*
X128909706Y-90689452D01*
X128944452Y-90692250D01*
X128982430Y-90694369D01*
X129023822Y-90695885D01*
X129058394Y-90696632D01*
X129093027Y-90696898D01*
X129126791Y-90696699D01*
X129158757Y-90696051D01*
X129187995Y-90694968D01*
X129213574Y-90693467D01*
X129234564Y-90691562D01*
X129250036Y-90689270D01*
X129271204Y-90685001D01*
X129291075Y-90680105D01*
X129309687Y-90674547D01*
X129327076Y-90668289D01*
X129343279Y-90661295D01*
X129358333Y-90653527D01*
X129372275Y-90644949D01*
X129385141Y-90635524D01*
X129396969Y-90625216D01*
X129407795Y-90613987D01*
X129417655Y-90601801D01*
X129426588Y-90588621D01*
X129434629Y-90574410D01*
X129441815Y-90559131D01*
X129448183Y-90542748D01*
X129453770Y-90525224D01*
X129456609Y-90514951D01*
X129459181Y-90503313D01*
X129461497Y-90490064D01*
X129463568Y-90474955D01*
X129465407Y-90457738D01*
X129467025Y-90438164D01*
X129468434Y-90415986D01*
X129469645Y-90390955D01*
X129471521Y-90331344D01*
X129472746Y-90257346D01*
X129473412Y-90166976D01*
X129473614Y-90058250D01*
X129473614Y-89657395D01*
X129275177Y-89657395D01*
X129275177Y-90047656D01*
X129274206Y-90220938D01*
X129271376Y-90348457D01*
X129269302Y-90395325D01*
X129266809Y-90431079D01*
X129263913Y-90455824D01*
X129260630Y-90469671D01*
X129258551Y-90473803D01*
X129256278Y-90477767D01*
X129253802Y-90481565D01*
X129251116Y-90485200D01*
X129248210Y-90488674D01*
X129245078Y-90491989D01*
X129241710Y-90495149D01*
X129238098Y-90498155D01*
X129234234Y-90501009D01*
X129230110Y-90503715D01*
X129225718Y-90506275D01*
X129221049Y-90508691D01*
X129216095Y-90510965D01*
X129210848Y-90513100D01*
X129205300Y-90515099D01*
X129199442Y-90516963D01*
X129193266Y-90518696D01*
X129186765Y-90520299D01*
X129179929Y-90521775D01*
X129172750Y-90523127D01*
X129165221Y-90524357D01*
X129157333Y-90525467D01*
X129149077Y-90526460D01*
X129140447Y-90527338D01*
X129122026Y-90528759D01*
X129102004Y-90529751D01*
X129080316Y-90530331D01*
X129056895Y-90530520D01*
X129033475Y-90530331D01*
X129011787Y-90529751D01*
X128991765Y-90528759D01*
X128973344Y-90527338D01*
X128956458Y-90525467D01*
X128941040Y-90523127D01*
X128927026Y-90520299D01*
X128914348Y-90516963D01*
X128902942Y-90513100D01*
X128892742Y-90508691D01*
X128883680Y-90503715D01*
X128875693Y-90498155D01*
X128868713Y-90491989D01*
X128862675Y-90485200D01*
X128857513Y-90477767D01*
X128853161Y-90469671D01*
X128851471Y-90464103D01*
X128849877Y-90455824D01*
X128848380Y-90444821D01*
X128846981Y-90431079D01*
X128844489Y-90395325D01*
X128842415Y-90348457D01*
X128840775Y-90290364D01*
X128839585Y-90220938D01*
X128838859Y-90140072D01*
X128838614Y-90047656D01*
X128838614Y-89657395D01*
X128638859Y-89657395D01*
X128219337Y-89657395D01*
X128220204Y-89035625D01*
X128624312Y-89035625D01*
X128633562Y-89132208D01*
X128635868Y-89153003D01*
X128638800Y-89173182D01*
X128642332Y-89192686D01*
X128646441Y-89211458D01*
X128651099Y-89229439D01*
X128656283Y-89246571D01*
X128661967Y-89262797D01*
X128668126Y-89278057D01*
X128674734Y-89292294D01*
X128681767Y-89305450D01*
X128689198Y-89317466D01*
X128697004Y-89328285D01*
X128705159Y-89337848D01*
X128713637Y-89346097D01*
X128722413Y-89352974D01*
X128731463Y-89358422D01*
X128750647Y-89366757D01*
X128774555Y-89374376D01*
X128802579Y-89381248D01*
X128834111Y-89387338D01*
X128868541Y-89392614D01*
X128905261Y-89397044D01*
X128943664Y-89400593D01*
X128983140Y-89403230D01*
X129023081Y-89404921D01*
X129062879Y-89405634D01*
X129101925Y-89405335D01*
X129139611Y-89403991D01*
X129175328Y-89401571D01*
X129208468Y-89398040D01*
X129238422Y-89393366D01*
X129264583Y-89387515D01*
X129280420Y-89382952D01*
X129295222Y-89378167D01*
X129309040Y-89373127D01*
X129321924Y-89367796D01*
X129333924Y-89362139D01*
X129345091Y-89356122D01*
X129355475Y-89349710D01*
X129365127Y-89342867D01*
X129374097Y-89335559D01*
X129382434Y-89327752D01*
X129390191Y-89319409D01*
X129397416Y-89310497D01*
X129404161Y-89300980D01*
X129410476Y-89290824D01*
X129416410Y-89279993D01*
X129422015Y-89268453D01*
X129431078Y-89243388D01*
X129439386Y-89211927D01*
X129446901Y-89174927D01*
X129453580Y-89133247D01*
X129459383Y-89087745D01*
X129464270Y-89039281D01*
X129471131Y-88936897D01*
X129473837Y-88832963D01*
X129473530Y-88782560D01*
X129472063Y-88734346D01*
X129469394Y-88689178D01*
X129465483Y-88647914D01*
X129460288Y-88611414D01*
X129453770Y-88580536D01*
X129448724Y-88562558D01*
X129443478Y-88545786D01*
X129437988Y-88530158D01*
X129432209Y-88515610D01*
X129426097Y-88502077D01*
X129419606Y-88489495D01*
X129412693Y-88477801D01*
X129405313Y-88466931D01*
X129397422Y-88456820D01*
X129388974Y-88447405D01*
X129379925Y-88438621D01*
X129370232Y-88430406D01*
X129359848Y-88422694D01*
X129348731Y-88415422D01*
X129336834Y-88408526D01*
X129324114Y-88401943D01*
X129312548Y-88396761D01*
X129299734Y-88391883D01*
X129285760Y-88387309D01*
X129270709Y-88383041D01*
X129254668Y-88379080D01*
X129237723Y-88375428D01*
X129219959Y-88372085D01*
X129201463Y-88369053D01*
X129182319Y-88366333D01*
X129162613Y-88363926D01*
X129142432Y-88361834D01*
X129121860Y-88360057D01*
X129079890Y-88357455D01*
X129037387Y-88356131D01*
X128995039Y-88356095D01*
X128953530Y-88357356D01*
X128913549Y-88359924D01*
X128875780Y-88363808D01*
X128840910Y-88369017D01*
X128824776Y-88372122D01*
X128809625Y-88375562D01*
X128795542Y-88379338D01*
X128782612Y-88383450D01*
X128770922Y-88387902D01*
X128760557Y-88392692D01*
X128753577Y-88396587D01*
X128746778Y-88400824D01*
X128740163Y-88405398D01*
X128733734Y-88410304D01*
X128727494Y-88415535D01*
X128721446Y-88421086D01*
X128715592Y-88426950D01*
X128709935Y-88433123D01*
X128704478Y-88439598D01*
X128699223Y-88446370D01*
X128694173Y-88453432D01*
X128689330Y-88460780D01*
X128684698Y-88468406D01*
X128680279Y-88476305D01*
X128676075Y-88484472D01*
X128672089Y-88492901D01*
X128668325Y-88501585D01*
X128664784Y-88510519D01*
X128661469Y-88519698D01*
X128658383Y-88529115D01*
X128655529Y-88538764D01*
X128652909Y-88548640D01*
X128650526Y-88558737D01*
X128648382Y-88569049D01*
X128644824Y-88590296D01*
X128642256Y-88612333D01*
X128640700Y-88635114D01*
X128640177Y-88658593D01*
X128640177Y-88704895D01*
X128834635Y-88704895D01*
X128842593Y-88644047D01*
X128844565Y-88627987D01*
X128847086Y-88613483D01*
X128848588Y-88606787D01*
X128850269Y-88600448D01*
X128852145Y-88594454D01*
X128854229Y-88588794D01*
X128856536Y-88583458D01*
X128859080Y-88578435D01*
X128861876Y-88573714D01*
X128864937Y-88569284D01*
X128868279Y-88565133D01*
X128871914Y-88561252D01*
X128875859Y-88557629D01*
X128880126Y-88554254D01*
X128884730Y-88551114D01*
X128889686Y-88548201D01*
X128895007Y-88545502D01*
X128900709Y-88543006D01*
X128906805Y-88540704D01*
X128913310Y-88538583D01*
X128920238Y-88536633D01*
X128927602Y-88534844D01*
X128935419Y-88533204D01*
X128943701Y-88531702D01*
X128961721Y-88529069D01*
X128981775Y-88526859D01*
X129003979Y-88524984D01*
X129027917Y-88523341D01*
X129050627Y-88522381D01*
X129072121Y-88522108D01*
X129092409Y-88522522D01*
X129111504Y-88523626D01*
X129129416Y-88525421D01*
X129146158Y-88527910D01*
X129161742Y-88531095D01*
X129176178Y-88534977D01*
X129189478Y-88539559D01*
X129201655Y-88544843D01*
X129212719Y-88550830D01*
X129222682Y-88557523D01*
X129231556Y-88564923D01*
X129239352Y-88573033D01*
X129246083Y-88581854D01*
X129249605Y-88587709D01*
X129251222Y-88590796D01*
X129252746Y-88594029D01*
X129254180Y-88597442D01*
X129255526Y-88601063D01*
X129256787Y-88604925D01*
X129257967Y-88609058D01*
X129259066Y-88613494D01*
X129260089Y-88618262D01*
X129261916Y-88628924D01*
X129263467Y-88641291D01*
X129264764Y-88655612D01*
X129265828Y-88672134D01*
X129266682Y-88691105D01*
X129267345Y-88712774D01*
X129267840Y-88737388D01*
X129268188Y-88765196D01*
X129268410Y-88796445D01*
X129268562Y-88870260D01*
X129267817Y-88989091D01*
X129266398Y-89037512D01*
X129263847Y-89079241D01*
X129259839Y-89114753D01*
X129254048Y-89144526D01*
X129250382Y-89157408D01*
X129246148Y-89169035D01*
X129241306Y-89179465D01*
X129235815Y-89188757D01*
X129229633Y-89196973D01*
X129222721Y-89204170D01*
X129215038Y-89210409D01*
X129206543Y-89215750D01*
X129197195Y-89220251D01*
X129186954Y-89223973D01*
X129175779Y-89226975D01*
X129163629Y-89229317D01*
X129136243Y-89232257D01*
X129104469Y-89233271D01*
X129067983Y-89232835D01*
X129026458Y-89231427D01*
X128997807Y-89230321D01*
X128972250Y-89228905D01*
X128949592Y-89227054D01*
X128929639Y-89224646D01*
X128912198Y-89221555D01*
X128897075Y-89217659D01*
X128890322Y-89215369D01*
X128884076Y-89212832D01*
X128878313Y-89210030D01*
X128873007Y-89206950D01*
X128868136Y-89203576D01*
X128863675Y-89199891D01*
X128859599Y-89195880D01*
X128855885Y-89191529D01*
X128852507Y-89186821D01*
X128849443Y-89181741D01*
X128846668Y-89176274D01*
X128844156Y-89170403D01*
X128839831Y-89157390D01*
X128836272Y-89142580D01*
X128833287Y-89125847D01*
X128830682Y-89107067D01*
X128822749Y-89035625D01*
X128624312Y-89035625D01*
X128220204Y-89035625D01*
X128220316Y-88955591D01*
X128226331Y-88523912D01*
X128236687Y-88391375D01*
X128270574Y-88322787D01*
X128350025Y-88175305D01*
X128589746Y-87743311D01*
X128844100Y-87294697D01*
X128941845Y-87126442D01*
X129001343Y-87028771D01*
X129004778Y-87023844D01*
X129008140Y-87019236D01*
X129011433Y-87014944D01*
X129014663Y-87010971D01*
X129017833Y-87007315D01*
X129020949Y-87003976D01*
X129024016Y-87000956D01*
X129027037Y-86998253D01*
X129030017Y-86995868D01*
X129032961Y-86993801D01*
X129035874Y-86992052D01*
X129038759Y-86990620D01*
X129041623Y-86989507D01*
X129044469Y-86988712D01*
X129047301Y-86988234D01*
X129050126Y-86988075D01*
X129051536Y-86988115D01*
X129052946Y-86988234D01*
X129054356Y-86988433D01*
X129055766Y-86988712D01*
X129057178Y-86989070D01*
X129058592Y-86989507D01*
X129060008Y-86990024D01*
X129061427Y-86990620D01*
X129062850Y-86991296D01*
X129064277Y-86992052D01*
X129065709Y-86992886D01*
X129067146Y-86993801D01*
X129068589Y-86994795D01*
X129070038Y-86995868D01*
X129072959Y-86998253D01*
X129075913Y-87000956D01*
X129078904Y-87003976D01*
X129081937Y-87007315D01*
X129085017Y-87010971D01*
X129088149Y-87014944D01*
X129091337Y-87019236D01*
X129094586Y-87023844D01*
X129097901Y-87028771D01*
X129239080Y-87272725D01*
X129488158Y-87718341D01*
X129729299Y-88156516D01*
X129846666Y-88378145D01*
X129850639Y-88390650D01*
X129852448Y-88398327D01*
X129854142Y-88407490D01*
X129855725Y-88418541D01*
X129857199Y-88431883D01*
X129859837Y-88467048D01*
X129862079Y-88516205D01*
X129863951Y-88582572D01*
X129865478Y-88669367D01*
X129866686Y-88779811D01*
X129867039Y-88832963D01*
X129867599Y-88917121D01*
G37*
G36*
X126708718Y-92237083D02*
G01*
X126827781Y-92237083D01*
X126827781Y-93282187D01*
X126708718Y-93282187D01*
X126708718Y-92237083D01*
G37*
G36*
X120182771Y-89646812D02*
G01*
X120577000Y-89650781D01*
X120580969Y-89707666D01*
X120584938Y-89763229D01*
X120239656Y-89763229D01*
X120239656Y-90689270D01*
X120120594Y-90689270D01*
X120120594Y-89763229D01*
X119789865Y-89763229D01*
X119789865Y-89644166D01*
X120182771Y-89646812D01*
G37*
G36*
X123533718Y-91985729D02*
G01*
X122872260Y-91985729D01*
X122872260Y-91879895D01*
X123414656Y-91879895D01*
X123414656Y-91496249D01*
X122884166Y-91496249D01*
X122888135Y-91447302D01*
X122892104Y-91397031D01*
X123152719Y-91393062D01*
X123414656Y-91390416D01*
X123414656Y-91046458D01*
X122872260Y-91046458D01*
X122872260Y-90940625D01*
X123533718Y-90940625D01*
X123533718Y-91985729D01*
G37*
G36*
X125917089Y-89644229D02*
G01*
X125923952Y-89644420D01*
X125927181Y-89644564D01*
X125930277Y-89644742D01*
X125933241Y-89644954D01*
X125936073Y-89645200D01*
X125938775Y-89645481D01*
X125941349Y-89645797D01*
X125943796Y-89646150D01*
X125946116Y-89646538D01*
X125948312Y-89646964D01*
X125950383Y-89647427D01*
X125952332Y-89647927D01*
X125954160Y-89648466D01*
X125955867Y-89649043D01*
X125957456Y-89649660D01*
X125958927Y-89650317D01*
X125960281Y-89651014D01*
X125961520Y-89651751D01*
X125962645Y-89652530D01*
X125963657Y-89653350D01*
X125964557Y-89654212D01*
X125965347Y-89655117D01*
X125966028Y-89656066D01*
X125966600Y-89657057D01*
X125967066Y-89658093D01*
X125967426Y-89659174D01*
X125967682Y-89660299D01*
X125967835Y-89661470D01*
X125967885Y-89662687D01*
X125964226Y-89676723D01*
X125953746Y-89709485D01*
X125915299Y-89822760D01*
X125789291Y-90181271D01*
X125663283Y-90535481D01*
X125624836Y-90644126D01*
X125610697Y-90685302D01*
X125610239Y-90685782D01*
X125608894Y-90686232D01*
X125603711Y-90687038D01*
X125595489Y-90687720D01*
X125584570Y-90688278D01*
X125556003Y-90689022D01*
X125520739Y-90689270D01*
X125432104Y-90689270D01*
X125249541Y-90175979D01*
X125121714Y-89810854D01*
X125082668Y-89697124D01*
X125072020Y-89664956D01*
X125068302Y-89652104D01*
X125068382Y-89651616D01*
X125068622Y-89651143D01*
X125069563Y-89650249D01*
X125071092Y-89649424D01*
X125073180Y-89648673D01*
X125075795Y-89647999D01*
X125078906Y-89647406D01*
X125082482Y-89646899D01*
X125086492Y-89646481D01*
X125095690Y-89645929D01*
X125106253Y-89645779D01*
X125117932Y-89646063D01*
X125130479Y-89646812D01*
X125151056Y-89648264D01*
X125159489Y-89649132D01*
X125166859Y-89650243D01*
X125170187Y-89650926D01*
X125173299Y-89651712D01*
X125176212Y-89652615D01*
X125178941Y-89653649D01*
X125181504Y-89654829D01*
X125183916Y-89656168D01*
X125186195Y-89657680D01*
X125188356Y-89659380D01*
X125190417Y-89661281D01*
X125192394Y-89663398D01*
X125194302Y-89665745D01*
X125196160Y-89668335D01*
X125197982Y-89671184D01*
X125199786Y-89674303D01*
X125203405Y-89681415D01*
X125207147Y-89689782D01*
X125211146Y-89699517D01*
X125220437Y-89723541D01*
X125241914Y-89782246D01*
X125279141Y-89888575D01*
X125380510Y-90182594D01*
X125431587Y-90333013D01*
X125474602Y-90456272D01*
X125491653Y-90503724D01*
X125504968Y-90539595D01*
X125513972Y-90562289D01*
X125516679Y-90568195D01*
X125518093Y-90570208D01*
X125522336Y-90562167D01*
X125531695Y-90539120D01*
X125563403Y-90454453D01*
X125608506Y-90329106D01*
X125662291Y-90175979D01*
X125766471Y-89878157D01*
X125804050Y-89771724D01*
X125825010Y-89714281D01*
X125850145Y-89644166D01*
X125909677Y-89644166D01*
X125917089Y-89644229D01*
G37*
G36*
X122316635Y-88360937D02*
G01*
X122435697Y-88360937D01*
X122435697Y-89406041D01*
X122316635Y-89406041D01*
X122316635Y-88360937D01*
G37*
G36*
X121112781Y-90689270D02*
G01*
X120993718Y-90689270D01*
X120996364Y-90170687D01*
X121000333Y-89650781D01*
X121055895Y-89646812D01*
X121112781Y-89642844D01*
X121112781Y-90689270D01*
G37*
G36*
X120127208Y-88351677D02*
G01*
X120168150Y-88353938D01*
X120205767Y-88356806D01*
X120240236Y-88360359D01*
X120256346Y-88362418D01*
X120271737Y-88364679D01*
X120286429Y-88367150D01*
X120300447Y-88369843D01*
X120313811Y-88372766D01*
X120326545Y-88375931D01*
X120338670Y-88379347D01*
X120350209Y-88383023D01*
X120361184Y-88386971D01*
X120371617Y-88391199D01*
X120381531Y-88395718D01*
X120390948Y-88400537D01*
X120399890Y-88405667D01*
X120408380Y-88411118D01*
X120416439Y-88416899D01*
X120424091Y-88423020D01*
X120431357Y-88429491D01*
X120438259Y-88436323D01*
X120444821Y-88443525D01*
X120451063Y-88451107D01*
X120457009Y-88459078D01*
X120462681Y-88467450D01*
X120468101Y-88476232D01*
X120473292Y-88485433D01*
X120478275Y-88495064D01*
X120483073Y-88505135D01*
X120491111Y-88524674D01*
X120494505Y-88534639D01*
X120497521Y-88545112D01*
X120500189Y-88556376D01*
X120502537Y-88568713D01*
X120506389Y-88597739D01*
X120509311Y-88634455D01*
X120511536Y-88681124D01*
X120513296Y-88740010D01*
X120514823Y-88813375D01*
X120515895Y-88899560D01*
X120515466Y-88976874D01*
X120513273Y-89045808D01*
X120511434Y-89077287D01*
X120509056Y-89106856D01*
X120506106Y-89134575D01*
X120502551Y-89160508D01*
X120498360Y-89184715D01*
X120493498Y-89207258D01*
X120487935Y-89228198D01*
X120481636Y-89247597D01*
X120474569Y-89265517D01*
X120466702Y-89282018D01*
X120458001Y-89297163D01*
X120448434Y-89311013D01*
X120437969Y-89323630D01*
X120426572Y-89335074D01*
X120414212Y-89345408D01*
X120400854Y-89354694D01*
X120386467Y-89362992D01*
X120371018Y-89370364D01*
X120354473Y-89376872D01*
X120336802Y-89382577D01*
X120317969Y-89387541D01*
X120297944Y-89391825D01*
X120276694Y-89395491D01*
X120254184Y-89398601D01*
X120205260Y-89403396D01*
X120156731Y-89406021D01*
X120103024Y-89407034D01*
X120046526Y-89406558D01*
X119989625Y-89404718D01*
X119934708Y-89401639D01*
X119884163Y-89397442D01*
X119840378Y-89392254D01*
X119821766Y-89389327D01*
X119805739Y-89386198D01*
X119786198Y-89380584D01*
X119768227Y-89373098D01*
X119751783Y-89363635D01*
X119736824Y-89352091D01*
X119723306Y-89338361D01*
X119711187Y-89322341D01*
X119700425Y-89303926D01*
X119690976Y-89283010D01*
X119682799Y-89259490D01*
X119675851Y-89233261D01*
X119670088Y-89204218D01*
X119665469Y-89172257D01*
X119661950Y-89137273D01*
X119659490Y-89099161D01*
X119658045Y-89057817D01*
X119657572Y-89013135D01*
X119657572Y-88876875D01*
X120107364Y-88876875D01*
X120107364Y-88982708D01*
X119776635Y-88982708D01*
X119776635Y-89081927D01*
X119776903Y-89105362D01*
X119777720Y-89127089D01*
X119778343Y-89137332D01*
X119779112Y-89147170D01*
X119780030Y-89156611D01*
X119781100Y-89165663D01*
X119782325Y-89174334D01*
X119783709Y-89182630D01*
X119785253Y-89190559D01*
X119786960Y-89198129D01*
X119788835Y-89205347D01*
X119790879Y-89212222D01*
X119793095Y-89218759D01*
X119795487Y-89224967D01*
X119798057Y-89230854D01*
X119800808Y-89236426D01*
X119803744Y-89241692D01*
X119806866Y-89246658D01*
X119810178Y-89251333D01*
X119813683Y-89255724D01*
X119817384Y-89259838D01*
X119821284Y-89263683D01*
X119825385Y-89267267D01*
X119829690Y-89270596D01*
X119834203Y-89273679D01*
X119838926Y-89276522D01*
X119843862Y-89279134D01*
X119849014Y-89281522D01*
X119854386Y-89283694D01*
X119859979Y-89285656D01*
X119874530Y-89289362D01*
X119893910Y-89292545D01*
X119917429Y-89295208D01*
X119944397Y-89297356D01*
X120005924Y-89300120D01*
X120072969Y-89300870D01*
X120140014Y-89299634D01*
X120201540Y-89296446D01*
X120228508Y-89294129D01*
X120252028Y-89291335D01*
X120271408Y-89288069D01*
X120285958Y-89284333D01*
X120291253Y-89282416D01*
X120296691Y-89280158D01*
X120302230Y-89277589D01*
X120307828Y-89274742D01*
X120313440Y-89271646D01*
X120319026Y-89268334D01*
X120324542Y-89264835D01*
X120329945Y-89261182D01*
X120335193Y-89257404D01*
X120340244Y-89253534D01*
X120345054Y-89249601D01*
X120349582Y-89245638D01*
X120353784Y-89241674D01*
X120357618Y-89237742D01*
X120361041Y-89233871D01*
X120364010Y-89230093D01*
X120372800Y-89216942D01*
X120376399Y-89209914D01*
X120379513Y-89202023D01*
X120382178Y-89192844D01*
X120384428Y-89181957D01*
X120386298Y-89168938D01*
X120387823Y-89153364D01*
X120389978Y-89112865D01*
X120391172Y-89057081D01*
X120391792Y-88886135D01*
X120391700Y-88826171D01*
X120391365Y-88772972D01*
X120390702Y-88726078D01*
X120389621Y-88685031D01*
X120388898Y-88666557D01*
X120388037Y-88649372D01*
X120387029Y-88633418D01*
X120385862Y-88618640D01*
X120384525Y-88604979D01*
X120383008Y-88592377D01*
X120381300Y-88580778D01*
X120379389Y-88570123D01*
X120377266Y-88560357D01*
X120374918Y-88551420D01*
X120372335Y-88543256D01*
X120369506Y-88535808D01*
X120366421Y-88529017D01*
X120363068Y-88522827D01*
X120359436Y-88517180D01*
X120355515Y-88512019D01*
X120351293Y-88507285D01*
X120346760Y-88502923D01*
X120341905Y-88498874D01*
X120336717Y-88495082D01*
X120331185Y-88491487D01*
X120325298Y-88488035D01*
X120319046Y-88484665D01*
X120312416Y-88481323D01*
X120299843Y-88476567D01*
X120282834Y-88472233D01*
X120261946Y-88468341D01*
X120237734Y-88464910D01*
X120181564Y-88459510D01*
X120118775Y-88456187D01*
X120053815Y-88455097D01*
X119991134Y-88456394D01*
X119962039Y-88457986D01*
X119935181Y-88460234D01*
X119911119Y-88463155D01*
X119890406Y-88466771D01*
X119878189Y-88469402D01*
X119867268Y-88471881D01*
X119857545Y-88474276D01*
X119848920Y-88476651D01*
X119841296Y-88479073D01*
X119837828Y-88480322D01*
X119834572Y-88481607D01*
X119831518Y-88482937D01*
X119828651Y-88484319D01*
X119825960Y-88485763D01*
X119823433Y-88487276D01*
X119821057Y-88488866D01*
X119818820Y-88490542D01*
X119816710Y-88492313D01*
X119814713Y-88494185D01*
X119812818Y-88496168D01*
X119811013Y-88498269D01*
X119809284Y-88500498D01*
X119807620Y-88502861D01*
X119806009Y-88505368D01*
X119804438Y-88508027D01*
X119801365Y-88513832D01*
X119798304Y-88520343D01*
X119795156Y-88527625D01*
X119793204Y-88532283D01*
X119791322Y-88537299D01*
X119789517Y-88542624D01*
X119787798Y-88548213D01*
X119786171Y-88554019D01*
X119784645Y-88559995D01*
X119781927Y-88572273D01*
X119779705Y-88584676D01*
X119778041Y-88596830D01*
X119777438Y-88602698D01*
X119776997Y-88608364D01*
X119776727Y-88613782D01*
X119776635Y-88618906D01*
X119776519Y-88634189D01*
X119776243Y-88640373D01*
X119775705Y-88645674D01*
X119775311Y-88648016D01*
X119774818Y-88650162D01*
X119774217Y-88652122D01*
X119773496Y-88653904D01*
X119772644Y-88655516D01*
X119771650Y-88656967D01*
X119770504Y-88658266D01*
X119769194Y-88659420D01*
X119767710Y-88660439D01*
X119766040Y-88661331D01*
X119764174Y-88662104D01*
X119762101Y-88662766D01*
X119759810Y-88663327D01*
X119757290Y-88663795D01*
X119751520Y-88664485D01*
X119744704Y-88664903D01*
X119736754Y-88665118D01*
X119717104Y-88665208D01*
X119657572Y-88665208D01*
X119657572Y-88595093D01*
X119657699Y-88587011D01*
X119658076Y-88578896D01*
X119659552Y-88562625D01*
X119661950Y-88546393D01*
X119665221Y-88530312D01*
X119669313Y-88514494D01*
X119674176Y-88499053D01*
X119679760Y-88484100D01*
X119686015Y-88469747D01*
X119692890Y-88456108D01*
X119700335Y-88443294D01*
X119704255Y-88437232D01*
X119708299Y-88431418D01*
X119712460Y-88425867D01*
X119716732Y-88420593D01*
X119721108Y-88415609D01*
X119725583Y-88410930D01*
X119730150Y-88406569D01*
X119734803Y-88402542D01*
X119739535Y-88398861D01*
X119744340Y-88395542D01*
X119749213Y-88392597D01*
X119754145Y-88390041D01*
X119767230Y-88384509D01*
X119782113Y-88379331D01*
X119798701Y-88374522D01*
X119816901Y-88370094D01*
X119836621Y-88366062D01*
X119857767Y-88362438D01*
X119903966Y-88356472D01*
X119954753Y-88352305D01*
X120009386Y-88350044D01*
X120067119Y-88349798D01*
X120127208Y-88351677D01*
G37*
G36*
X126377989Y-89644166D02*
G01*
X126497051Y-89644166D01*
X126497051Y-90689270D01*
X126377989Y-90689270D01*
X126377989Y-89644166D01*
G37*
G36*
X119247469Y-88874229D02*
G01*
X119246766Y-89074754D01*
X119244823Y-89240181D01*
X119243464Y-89304345D01*
X119241888Y-89353269D01*
X119240125Y-89384800D01*
X119239184Y-89393369D01*
X119238208Y-89396781D01*
X119235757Y-89397757D01*
X119230007Y-89398698D01*
X119209311Y-89400460D01*
X119136013Y-89403396D01*
X119029477Y-89405339D01*
X118900865Y-89406041D01*
X118572781Y-89406041D01*
X118572781Y-89300208D01*
X119115177Y-89300208D01*
X119115177Y-88916562D01*
X118853240Y-88913916D01*
X118592625Y-88909948D01*
X118592625Y-88817343D01*
X118853240Y-88813375D01*
X119115177Y-88810729D01*
X119115177Y-88466771D01*
X118572781Y-88466771D01*
X118572781Y-88360937D01*
X119247469Y-88360937D01*
X119247469Y-88874229D01*
G37*
G36*
X129867843Y-93886760D02*
G01*
X129869016Y-93926267D01*
X129869291Y-93942518D01*
X129869290Y-93956751D01*
X129868964Y-93969200D01*
X129868663Y-93974830D01*
X129868262Y-93980103D01*
X129867754Y-93985049D01*
X129867133Y-93989696D01*
X129866393Y-93994075D01*
X129865528Y-93998216D01*
X129864531Y-94002147D01*
X129863396Y-94005898D01*
X129862116Y-94009499D01*
X129860686Y-94012980D01*
X129859099Y-94016369D01*
X129857348Y-94019697D01*
X129855428Y-94022993D01*
X129853332Y-94026286D01*
X129851054Y-94029607D01*
X129848588Y-94032984D01*
X129843064Y-94040027D01*
X129836711Y-94047651D01*
X129829479Y-94056093D01*
X129801116Y-94081639D01*
X129742724Y-94127014D01*
X129523389Y-94286116D01*
X129146544Y-94551133D01*
X128587260Y-94939802D01*
X128526775Y-94981337D01*
X128469252Y-95020065D01*
X128416038Y-95055166D01*
X128368483Y-95085818D01*
X128327935Y-95111199D01*
X128295743Y-95130487D01*
X128283202Y-95137590D01*
X128273256Y-95142861D01*
X128266073Y-95146199D01*
X128261822Y-95147499D01*
X128254995Y-95147217D01*
X128248875Y-95146298D01*
X128243425Y-95144630D01*
X128238609Y-95142104D01*
X128236428Y-95140485D01*
X128234390Y-95138609D01*
X128230731Y-95134035D01*
X128227595Y-95128271D01*
X128224946Y-95121206D01*
X128222746Y-95112731D01*
X128220959Y-95102735D01*
X128219548Y-95091107D01*
X128218476Y-95077736D01*
X128217707Y-95062513D01*
X128217202Y-95045327D01*
X128216843Y-95004624D01*
X128216922Y-94990928D01*
X128217161Y-94978086D01*
X128217567Y-94966054D01*
X128218146Y-94954788D01*
X128218902Y-94944242D01*
X128219843Y-94934373D01*
X128220974Y-94925136D01*
X128222300Y-94916485D01*
X128223828Y-94908378D01*
X128225564Y-94900768D01*
X128227512Y-94893612D01*
X128229680Y-94886864D01*
X128232072Y-94880481D01*
X128234695Y-94874418D01*
X128237554Y-94868630D01*
X128240656Y-94863072D01*
X128258737Y-94845466D01*
X128300724Y-94811768D01*
X128454307Y-94697708D01*
X128697186Y-94524117D01*
X129025145Y-94294219D01*
X129224973Y-94155310D01*
X129390725Y-94040942D01*
X129525161Y-93949239D01*
X129631041Y-93878326D01*
X129674135Y-93850080D01*
X129711124Y-93826327D01*
X129742354Y-93806833D01*
X129768170Y-93791365D01*
X129788916Y-93779687D01*
X129804937Y-93771565D01*
X129816580Y-93766765D01*
X129820866Y-93765537D01*
X129824187Y-93765051D01*
X129863874Y-93765051D01*
X129867843Y-93886760D01*
G37*
G36*
X129828549Y-94407603D02*
G01*
X129831680Y-94407908D01*
X129834684Y-94408519D01*
X129837561Y-94409436D01*
X129840312Y-94410659D01*
X129842937Y-94412189D01*
X129845439Y-94414025D01*
X129847816Y-94416170D01*
X129850070Y-94418622D01*
X129852202Y-94421383D01*
X129854213Y-94424453D01*
X129856102Y-94427833D01*
X129859522Y-94435523D01*
X129862466Y-94444457D01*
X129864942Y-94454639D01*
X129866954Y-94466073D01*
X129868509Y-94478763D01*
X129869613Y-94492713D01*
X129870271Y-94507926D01*
X129870489Y-94524406D01*
X129870298Y-94540478D01*
X129869709Y-94555505D01*
X129868693Y-94569554D01*
X129867223Y-94582697D01*
X129865273Y-94595002D01*
X129864109Y-94600863D01*
X129862815Y-94606540D01*
X129861387Y-94612043D01*
X129859822Y-94617381D01*
X129858117Y-94622561D01*
X129856268Y-94627593D01*
X129854271Y-94632486D01*
X129852124Y-94637248D01*
X129849823Y-94641887D01*
X129847364Y-94646414D01*
X129844744Y-94650835D01*
X129841960Y-94655161D01*
X129839009Y-94659400D01*
X129835886Y-94663560D01*
X129832590Y-94667650D01*
X129829115Y-94671680D01*
X129821619Y-94679590D01*
X129813370Y-94687361D01*
X129804343Y-94695062D01*
X129109812Y-95181399D01*
X128343843Y-95712385D01*
X128330969Y-95721241D01*
X128319542Y-95728976D01*
X128309430Y-95735613D01*
X128304824Y-95738528D01*
X128300497Y-95741179D01*
X128296432Y-95743568D01*
X128292611Y-95745698D01*
X128289018Y-95747574D01*
X128285638Y-95749197D01*
X128282451Y-95750571D01*
X128279443Y-95751699D01*
X128276596Y-95752584D01*
X128273894Y-95753230D01*
X128271320Y-95753639D01*
X128268857Y-95753816D01*
X128266488Y-95753762D01*
X128264197Y-95753481D01*
X128261967Y-95752976D01*
X128259782Y-95752250D01*
X128257624Y-95751308D01*
X128255477Y-95750150D01*
X128253324Y-95748782D01*
X128251148Y-95747205D01*
X128248934Y-95745423D01*
X128246663Y-95743440D01*
X128244320Y-95741258D01*
X128241887Y-95738881D01*
X128236687Y-95733552D01*
X128233481Y-95729861D01*
X128230558Y-95725515D01*
X128227915Y-95720555D01*
X128225548Y-95715023D01*
X128223453Y-95708961D01*
X128221627Y-95702411D01*
X128218766Y-95688014D01*
X128216935Y-95672168D01*
X128216107Y-95655207D01*
X128216251Y-95637468D01*
X128217339Y-95619284D01*
X128219342Y-95600993D01*
X128222230Y-95582927D01*
X128225975Y-95565424D01*
X128230548Y-95548818D01*
X128235919Y-95533445D01*
X128242059Y-95519639D01*
X128245408Y-95513429D01*
X128248939Y-95507737D01*
X128252648Y-95502604D01*
X128256531Y-95498072D01*
X128508154Y-95315696D01*
X129032256Y-94946912D01*
X129557102Y-94581849D01*
X129810958Y-94410635D01*
X129818385Y-94408512D01*
X129821902Y-94407905D01*
X129825290Y-94407601D01*
X129828549Y-94407603D01*
G37*
G36*
X123586635Y-90689270D02*
G01*
X123454344Y-90689270D01*
X123454344Y-90279166D01*
X123230770Y-90279166D01*
X123159454Y-90279280D01*
X123130094Y-90279480D01*
X123104494Y-90279828D01*
X123082328Y-90280362D01*
X123072431Y-90280710D01*
X123063269Y-90281120D01*
X123054802Y-90281595D01*
X123046989Y-90282142D01*
X123039789Y-90282764D01*
X123033160Y-90283466D01*
X123027062Y-90284254D01*
X123021455Y-90285131D01*
X123016297Y-90286104D01*
X123011546Y-90287176D01*
X123007163Y-90288353D01*
X123003106Y-90289640D01*
X122999335Y-90291041D01*
X122995808Y-90292561D01*
X122992485Y-90294205D01*
X122989324Y-90295978D01*
X122986284Y-90297885D01*
X122983326Y-90299930D01*
X122980407Y-90302119D01*
X122977486Y-90304455D01*
X122971479Y-90309593D01*
X122963630Y-90316894D01*
X122956441Y-90324964D01*
X122949887Y-90333891D01*
X122943945Y-90343762D01*
X122938593Y-90354663D01*
X122933807Y-90366683D01*
X122929563Y-90379908D01*
X122925838Y-90394425D01*
X122922610Y-90410323D01*
X122919854Y-90427687D01*
X122917548Y-90446605D01*
X122915669Y-90467165D01*
X122914192Y-90489454D01*
X122913095Y-90513558D01*
X122911948Y-90567562D01*
X122911948Y-90689270D01*
X122790239Y-90689270D01*
X122795531Y-90512000D01*
X122796397Y-90477328D01*
X122797562Y-90446089D01*
X122799106Y-90418055D01*
X122801112Y-90392999D01*
X122802313Y-90381517D01*
X122803660Y-90370695D01*
X122805163Y-90360504D01*
X122806833Y-90350916D01*
X122808678Y-90341903D01*
X122810710Y-90333436D01*
X122812939Y-90325487D01*
X122815375Y-90318027D01*
X122818028Y-90311029D01*
X122820907Y-90304463D01*
X122824025Y-90298302D01*
X122827390Y-90292517D01*
X122831012Y-90287080D01*
X122834903Y-90281962D01*
X122839071Y-90277136D01*
X122843528Y-90272572D01*
X122848283Y-90268243D01*
X122853347Y-90264120D01*
X122858730Y-90260175D01*
X122864442Y-90256380D01*
X122870492Y-90252705D01*
X122876892Y-90249123D01*
X122883652Y-90245606D01*
X122890781Y-90242125D01*
X122926499Y-90223604D01*
X122884166Y-90202437D01*
X122869550Y-90194516D01*
X122856411Y-90186508D01*
X122844675Y-90178232D01*
X122834268Y-90169509D01*
X122825116Y-90160158D01*
X122817147Y-90149998D01*
X122810286Y-90138851D01*
X122804461Y-90126535D01*
X122799596Y-90112870D01*
X122795619Y-90097676D01*
X122792455Y-90080773D01*
X122790032Y-90061981D01*
X122788276Y-90041118D01*
X122787113Y-90018007D01*
X122786469Y-89992464D01*
X122786320Y-89971426D01*
X122900140Y-89971426D01*
X122900487Y-89991345D01*
X122900905Y-90000787D01*
X122901488Y-90009891D01*
X122902239Y-90018664D01*
X122903157Y-90027111D01*
X122904245Y-90035239D01*
X122905504Y-90043054D01*
X122906935Y-90050562D01*
X122908540Y-90057769D01*
X122910321Y-90064680D01*
X122912278Y-90071303D01*
X122914414Y-90077643D01*
X122916730Y-90083706D01*
X122919226Y-90089498D01*
X122921906Y-90095025D01*
X122924769Y-90100294D01*
X122927818Y-90105310D01*
X122931054Y-90110079D01*
X122934479Y-90114608D01*
X122938093Y-90118902D01*
X122941899Y-90122968D01*
X122945897Y-90126812D01*
X122950090Y-90130439D01*
X122954478Y-90133856D01*
X122959064Y-90137069D01*
X122963848Y-90140083D01*
X122968833Y-90142906D01*
X122975379Y-90145776D01*
X122982695Y-90148440D01*
X123000108Y-90153200D01*
X123022016Y-90157277D01*
X123049366Y-90160765D01*
X123083103Y-90163757D01*
X123124172Y-90166346D01*
X123173521Y-90168625D01*
X123232093Y-90170687D01*
X123454344Y-90177302D01*
X123454344Y-89750000D01*
X123278395Y-89751323D01*
X123218656Y-89751773D01*
X123165666Y-89752751D01*
X123119013Y-89754447D01*
X123078284Y-89757048D01*
X123060012Y-89758747D01*
X123043066Y-89760742D01*
X123027395Y-89763058D01*
X123012947Y-89765717D01*
X122999670Y-89768744D01*
X122987513Y-89772161D01*
X122976425Y-89775992D01*
X122966353Y-89780261D01*
X122957246Y-89784992D01*
X122949052Y-89790207D01*
X122941721Y-89795930D01*
X122935200Y-89802185D01*
X122929437Y-89808995D01*
X122924381Y-89816384D01*
X122919981Y-89824375D01*
X122916185Y-89832992D01*
X122912941Y-89842258D01*
X122910198Y-89852197D01*
X122907904Y-89862831D01*
X122906008Y-89874186D01*
X122904457Y-89886284D01*
X122903201Y-89899148D01*
X122901364Y-89927271D01*
X122900436Y-89950083D01*
X122900140Y-89971426D01*
X122786320Y-89971426D01*
X122786270Y-89964312D01*
X122786547Y-89932501D01*
X122787425Y-89903427D01*
X122788982Y-89876911D01*
X122790039Y-89864556D01*
X122791293Y-89852774D01*
X122792755Y-89841542D01*
X122794434Y-89830839D01*
X122796339Y-89820641D01*
X122798479Y-89810926D01*
X122800865Y-89801673D01*
X122803505Y-89792859D01*
X122806409Y-89784461D01*
X122809587Y-89776458D01*
X122813048Y-89768827D01*
X122816801Y-89761546D01*
X122820856Y-89754592D01*
X122825222Y-89747943D01*
X122829909Y-89741577D01*
X122834926Y-89735472D01*
X122840282Y-89729606D01*
X122845988Y-89723955D01*
X122852052Y-89718498D01*
X122858484Y-89713213D01*
X122865294Y-89708076D01*
X122872490Y-89703067D01*
X122880083Y-89698163D01*
X122888081Y-89693340D01*
X122905333Y-89683854D01*
X122926781Y-89673371D01*
X122936863Y-89669125D01*
X122947191Y-89665478D01*
X122958271Y-89662381D01*
X122970608Y-89659786D01*
X122984709Y-89657644D01*
X123001079Y-89655907D01*
X123042650Y-89653455D01*
X123099367Y-89652042D01*
X123274427Y-89650781D01*
X123580020Y-89650781D01*
X123583989Y-90170687D01*
X123584023Y-90177302D01*
X123586635Y-90689270D01*
G37*
G36*
X125598791Y-88363583D02*
G01*
X125707270Y-88367552D01*
X125881895Y-88794854D01*
X125949819Y-88960673D01*
X126006580Y-89097471D01*
X126045978Y-89191109D01*
X126061812Y-89227448D01*
X126063456Y-89225686D01*
X126066838Y-89219554D01*
X126078452Y-89195057D01*
X126118532Y-89103259D01*
X126176224Y-88966068D01*
X126245697Y-88797500D01*
X126424291Y-88360937D01*
X126642572Y-88360937D01*
X126642572Y-88874229D01*
X126641870Y-89074754D01*
X126639927Y-89240181D01*
X126638568Y-89304345D01*
X126636991Y-89353269D01*
X126635229Y-89384800D01*
X126634288Y-89393369D01*
X126633312Y-89396781D01*
X126632264Y-89397757D01*
X126630633Y-89398698D01*
X126628455Y-89399601D01*
X126625767Y-89400460D01*
X126622607Y-89401274D01*
X126619011Y-89402036D01*
X126610657Y-89403396D01*
X126601001Y-89404507D01*
X126590338Y-89405339D01*
X126578961Y-89405861D01*
X126567166Y-89406041D01*
X126510281Y-89406041D01*
X126507635Y-88948312D01*
X126503666Y-88491906D01*
X126313166Y-88949635D01*
X126121343Y-89407364D01*
X126061812Y-89403396D01*
X126000958Y-89399427D01*
X125809135Y-88932437D01*
X125617312Y-88465448D01*
X125613343Y-88936406D01*
X125610697Y-89406041D01*
X125491635Y-89406041D01*
X125491635Y-88359614D01*
X125598791Y-88363583D01*
G37*
G36*
X121800698Y-89408687D02*
G01*
X121492458Y-89402073D01*
X121426702Y-89400783D01*
X121365024Y-89398951D01*
X121308400Y-89396654D01*
X121257806Y-89393970D01*
X121214219Y-89390975D01*
X121178617Y-89387748D01*
X121151975Y-89384366D01*
X121142320Y-89382641D01*
X121135271Y-89380906D01*
X121120683Y-89375728D01*
X121106683Y-89369620D01*
X121093273Y-89362582D01*
X121080452Y-89354613D01*
X121068220Y-89345714D01*
X121056578Y-89335885D01*
X121045524Y-89325126D01*
X121035060Y-89313437D01*
X121025184Y-89300818D01*
X121015898Y-89287268D01*
X121007201Y-89272789D01*
X120999093Y-89257379D01*
X120991574Y-89241039D01*
X120984644Y-89223768D01*
X120978304Y-89205568D01*
X120972552Y-89186437D01*
X120966911Y-89161229D01*
X120961904Y-89129880D01*
X120957544Y-89093318D01*
X120953845Y-89052471D01*
X120948484Y-88961637D01*
X120946929Y-88902728D01*
X121060908Y-88902728D01*
X121062179Y-88982584D01*
X121066179Y-89052332D01*
X121069261Y-89081468D01*
X121073094Y-89105739D01*
X121076854Y-89124078D01*
X121080729Y-89140949D01*
X121084770Y-89156437D01*
X121089030Y-89170624D01*
X121091259Y-89177256D01*
X121093562Y-89183595D01*
X121095946Y-89189650D01*
X121098417Y-89195432D01*
X121100983Y-89200951D01*
X121103649Y-89206218D01*
X121106422Y-89211243D01*
X121109308Y-89216038D01*
X121112315Y-89220611D01*
X121115448Y-89224973D01*
X121118715Y-89229136D01*
X121122122Y-89233109D01*
X121125674Y-89236902D01*
X121129380Y-89240527D01*
X121133245Y-89243994D01*
X121137276Y-89247312D01*
X121141479Y-89250493D01*
X121145861Y-89253547D01*
X121150429Y-89256483D01*
X121155189Y-89259314D01*
X121160148Y-89262049D01*
X121165312Y-89264698D01*
X121176281Y-89269781D01*
X121183441Y-89272651D01*
X121191580Y-89275316D01*
X121211111Y-89280075D01*
X121235510Y-89284152D01*
X121265412Y-89287640D01*
X121301454Y-89290632D01*
X121344271Y-89293221D01*
X121394497Y-89295500D01*
X121452770Y-89297562D01*
X121681635Y-89304177D01*
X121681635Y-88464125D01*
X121432927Y-88469417D01*
X121383282Y-88470226D01*
X121339253Y-88471241D01*
X121300441Y-88472573D01*
X121266446Y-88474336D01*
X121251131Y-88475414D01*
X121236870Y-88476641D01*
X121223614Y-88478033D01*
X121211313Y-88479602D01*
X121199916Y-88481363D01*
X121189375Y-88483330D01*
X121179639Y-88485516D01*
X121170659Y-88487937D01*
X121162383Y-88490606D01*
X121154764Y-88493537D01*
X121147749Y-88496744D01*
X121141291Y-88500241D01*
X121135338Y-88504043D01*
X121129841Y-88508163D01*
X121124750Y-88512615D01*
X121120016Y-88517413D01*
X121115587Y-88522572D01*
X121111415Y-88528106D01*
X121107449Y-88534028D01*
X121103639Y-88540353D01*
X121099936Y-88547094D01*
X121096290Y-88554266D01*
X121088968Y-88569958D01*
X121083965Y-88585393D01*
X121079387Y-88606870D01*
X121075260Y-88633611D01*
X121071605Y-88664836D01*
X121065807Y-88737622D01*
X121062179Y-88818997D01*
X121060908Y-88902728D01*
X120946929Y-88902728D01*
X120945928Y-88864803D01*
X120946287Y-88769396D01*
X120949670Y-88682840D01*
X120952528Y-88645203D01*
X120956183Y-88612563D01*
X120960649Y-88585849D01*
X120965937Y-88565989D01*
X120970927Y-88552039D01*
X120976461Y-88538474D01*
X120982526Y-88525309D01*
X120989109Y-88512556D01*
X120996195Y-88500230D01*
X121003772Y-88488343D01*
X121011825Y-88476910D01*
X121020342Y-88465944D01*
X121029308Y-88455458D01*
X121038710Y-88445467D01*
X121048535Y-88435983D01*
X121058769Y-88427021D01*
X121069397Y-88418594D01*
X121080408Y-88410715D01*
X121091787Y-88403397D01*
X121103520Y-88396656D01*
X121122486Y-88387421D01*
X121131996Y-88383628D01*
X121142133Y-88380326D01*
X121153356Y-88377474D01*
X121166121Y-88375029D01*
X121198109Y-88371190D01*
X121241755Y-88368467D01*
X121300718Y-88366518D01*
X121479229Y-88363583D01*
X121800698Y-88358292D01*
X121800698Y-89304177D01*
X121800698Y-89408687D01*
G37*
G36*
X124708469Y-90170687D02*
G01*
X124711114Y-90689270D01*
X124035104Y-90689270D01*
X124039073Y-90640323D01*
X124043041Y-90590052D01*
X124316885Y-90586083D01*
X124592052Y-90583437D01*
X124592052Y-90213020D01*
X124062885Y-90213020D01*
X124062885Y-90107187D01*
X124593375Y-90107187D01*
X124589406Y-89932562D01*
X124585437Y-89756614D01*
X124310271Y-89752646D01*
X124035104Y-89750000D01*
X124039073Y-89699729D01*
X124043041Y-89650781D01*
X124704500Y-89650781D01*
X124708469Y-90170687D01*
G37*
G36*
X127899343Y-91985729D02*
G01*
X127767052Y-91985729D01*
X127767052Y-91575625D01*
X127551416Y-91575625D01*
X127483930Y-91575065D01*
X127423594Y-91573196D01*
X127370026Y-91569730D01*
X127345660Y-91567308D01*
X127322841Y-91564380D01*
X127301522Y-91560909D01*
X127281655Y-91556860D01*
X127263193Y-91552196D01*
X127246086Y-91546882D01*
X127230287Y-91540882D01*
X127215749Y-91534161D01*
X127202422Y-91526681D01*
X127190260Y-91518408D01*
X127179214Y-91509306D01*
X127169236Y-91499339D01*
X127160278Y-91488470D01*
X127152293Y-91476664D01*
X127145232Y-91463886D01*
X127139048Y-91450099D01*
X127133692Y-91435267D01*
X127129116Y-91419355D01*
X127125273Y-91402327D01*
X127122115Y-91384147D01*
X127119593Y-91364778D01*
X127117660Y-91344186D01*
X127115367Y-91299188D01*
X127115166Y-91279509D01*
X127233895Y-91279509D01*
X127234368Y-91302569D01*
X127235396Y-91323463D01*
X127236136Y-91333136D01*
X127237037Y-91342316D01*
X127238107Y-91351017D01*
X127239353Y-91359254D01*
X127240783Y-91367045D01*
X127242404Y-91374404D01*
X127244223Y-91381348D01*
X127246249Y-91387892D01*
X127248488Y-91394051D01*
X127250949Y-91399842D01*
X127253638Y-91405280D01*
X127256563Y-91410382D01*
X127259732Y-91415162D01*
X127263152Y-91419637D01*
X127266831Y-91423822D01*
X127270776Y-91427733D01*
X127274995Y-91431386D01*
X127279495Y-91434796D01*
X127284284Y-91437980D01*
X127289369Y-91440952D01*
X127294757Y-91443730D01*
X127300457Y-91446328D01*
X127306476Y-91448762D01*
X127312821Y-91451048D01*
X127319500Y-91453202D01*
X127326520Y-91455239D01*
X127340618Y-91458143D01*
X127361412Y-91460862D01*
X127387912Y-91463332D01*
X127419125Y-91465492D01*
X127454058Y-91467280D01*
X127491720Y-91468634D01*
X127531118Y-91469491D01*
X127571260Y-91469791D01*
X127767052Y-91469791D01*
X127767052Y-91046458D01*
X127584489Y-91047781D01*
X127525861Y-91048166D01*
X127474199Y-91048998D01*
X127429060Y-91050540D01*
X127390000Y-91053052D01*
X127372611Y-91054754D01*
X127356575Y-91056797D01*
X127341837Y-91059213D01*
X127328342Y-91062036D01*
X127316034Y-91065297D01*
X127304857Y-91069031D01*
X127294756Y-91073268D01*
X127285675Y-91078043D01*
X127277560Y-91083387D01*
X127270354Y-91089334D01*
X127264003Y-91095915D01*
X127258450Y-91103165D01*
X127253640Y-91111115D01*
X127249518Y-91119799D01*
X127246028Y-91129248D01*
X127243115Y-91139496D01*
X127240723Y-91150576D01*
X127238797Y-91162519D01*
X127237281Y-91175359D01*
X127236120Y-91189129D01*
X127234641Y-91219587D01*
X127233916Y-91254156D01*
X127233895Y-91279509D01*
X127115166Y-91279509D01*
X127114854Y-91248864D01*
X127115449Y-91220558D01*
X127116761Y-91194126D01*
X127118824Y-91169488D01*
X127120149Y-91157817D01*
X127121675Y-91146566D01*
X127123406Y-91135723D01*
X127125347Y-91125278D01*
X127127502Y-91115223D01*
X127129876Y-91105547D01*
X127132473Y-91096241D01*
X127135296Y-91087293D01*
X127138352Y-91078695D01*
X127141643Y-91070436D01*
X127145174Y-91062506D01*
X127148950Y-91054896D01*
X127152976Y-91047596D01*
X127157254Y-91040595D01*
X127161790Y-91033884D01*
X127166589Y-91027453D01*
X127171654Y-91021292D01*
X127176989Y-91015390D01*
X127182600Y-91009739D01*
X127188491Y-91004327D01*
X127194665Y-90999146D01*
X127201127Y-90994185D01*
X127207883Y-90989434D01*
X127214935Y-90984883D01*
X127222288Y-90980523D01*
X127229947Y-90976343D01*
X127248179Y-90967489D01*
X127257457Y-90963806D01*
X127267402Y-90960572D01*
X127278433Y-90957748D01*
X127290967Y-90955298D01*
X127322221Y-90951373D01*
X127364513Y-90948503D01*
X127421192Y-90946392D01*
X127591104Y-90943271D01*
X127899343Y-90937979D01*
X127899343Y-91469791D01*
X127899343Y-91985729D01*
G37*
G36*
X129833441Y-95031314D02*
G01*
X129836946Y-95031912D01*
X129840258Y-95032891D01*
X129843381Y-95034254D01*
X129846316Y-95036004D01*
X129849067Y-95038143D01*
X129851637Y-95040674D01*
X129854029Y-95043601D01*
X129856246Y-95046926D01*
X129858290Y-95050652D01*
X129860164Y-95054782D01*
X129861872Y-95059319D01*
X129863416Y-95064266D01*
X129866024Y-95075401D01*
X129868012Y-95088210D01*
X129869404Y-95102717D01*
X129870222Y-95118945D01*
X129870489Y-95136916D01*
X129870422Y-95149197D01*
X129870200Y-95160310D01*
X129869791Y-95170362D01*
X129869166Y-95179456D01*
X129868293Y-95187698D01*
X129867753Y-95191532D01*
X129867140Y-95195192D01*
X129866450Y-95198691D01*
X129865678Y-95202042D01*
X129864821Y-95205259D01*
X129863874Y-95208354D01*
X129862835Y-95211340D01*
X129861699Y-95214231D01*
X129860462Y-95217040D01*
X129859120Y-95219779D01*
X129857670Y-95222462D01*
X129856107Y-95225103D01*
X129854429Y-95227713D01*
X129852630Y-95230306D01*
X129850707Y-95232895D01*
X129848656Y-95235493D01*
X129844155Y-95240770D01*
X129839096Y-95246241D01*
X129833447Y-95252010D01*
X129633997Y-95396291D01*
X129198282Y-95702794D01*
X128707749Y-96044520D01*
X128343843Y-96294468D01*
X128326502Y-96305984D01*
X128310659Y-96315715D01*
X128303283Y-96319906D01*
X128296262Y-96323644D01*
X128289589Y-96326927D01*
X128283258Y-96329753D01*
X128277262Y-96332120D01*
X128271595Y-96334025D01*
X128266250Y-96335467D01*
X128261220Y-96336442D01*
X128256500Y-96336950D01*
X128252082Y-96336988D01*
X128247961Y-96336553D01*
X128244128Y-96335644D01*
X128240579Y-96334258D01*
X128237306Y-96332393D01*
X128234303Y-96330047D01*
X128231563Y-96327218D01*
X128229080Y-96323904D01*
X128226848Y-96320101D01*
X128224858Y-96315809D01*
X128223106Y-96311025D01*
X128221585Y-96305747D01*
X128220288Y-96299973D01*
X128219208Y-96293700D01*
X128218339Y-96286926D01*
X128217675Y-96279649D01*
X128217209Y-96271868D01*
X128216843Y-96254781D01*
X128217585Y-96241112D01*
X128219306Y-96227413D01*
X128221991Y-96213714D01*
X128225628Y-96200045D01*
X128230203Y-96186439D01*
X128235703Y-96172925D01*
X128242113Y-96159536D01*
X128249420Y-96146302D01*
X128257611Y-96133253D01*
X128266672Y-96120422D01*
X128276590Y-96107839D01*
X128287351Y-96095535D01*
X128298941Y-96083540D01*
X128311347Y-96071887D01*
X128324555Y-96060606D01*
X128338552Y-96049728D01*
X129087653Y-95526846D01*
X129787145Y-95045635D01*
X129798110Y-95039887D01*
X129808198Y-95035558D01*
X129812921Y-95033932D01*
X129817434Y-95032670D01*
X129821740Y-95031775D01*
X129825841Y-95031248D01*
X129829740Y-95031094D01*
X129833441Y-95031314D01*
G37*
G36*
X124197822Y-92465947D02*
G01*
X124201791Y-92693489D01*
X124502093Y-92697458D01*
X124803718Y-92700104D01*
X124803718Y-92237083D01*
X124922781Y-92237083D01*
X124922781Y-93282187D01*
X124803718Y-93282187D01*
X124803718Y-92805937D01*
X124195177Y-92805937D01*
X124195177Y-93282187D01*
X124076114Y-93282187D01*
X124076114Y-92237083D01*
X124195177Y-92237083D01*
X124197822Y-92465947D01*
G37*
G36*
X123666010Y-92356146D02*
G01*
X123335281Y-92356146D01*
X123335281Y-93282187D01*
X123202989Y-93282187D01*
X123202989Y-92356146D01*
X122872260Y-92356146D01*
X122872260Y-92237083D01*
X123666010Y-92237083D01*
X123666010Y-92356146D01*
G37*
G36*
X124592282Y-90936891D02*
G01*
X124650260Y-90940625D01*
X124684929Y-90944092D01*
X124717085Y-90948084D01*
X124746850Y-90952662D01*
X124774345Y-90957885D01*
X124787280Y-90960757D01*
X124799694Y-90963813D01*
X124811601Y-90967060D01*
X124823017Y-90970507D01*
X124833957Y-90974159D01*
X124844437Y-90978026D01*
X124854472Y-90982114D01*
X124864076Y-90986431D01*
X124873266Y-90990984D01*
X124882057Y-90995781D01*
X124890463Y-91000830D01*
X124898501Y-91006138D01*
X124906184Y-91011712D01*
X124913530Y-91017560D01*
X124920552Y-91023689D01*
X124927266Y-91030108D01*
X124933688Y-91036823D01*
X124939832Y-91043842D01*
X124945715Y-91051172D01*
X124951350Y-91058822D01*
X124956754Y-91066798D01*
X124961942Y-91075108D01*
X124966928Y-91083759D01*
X124971729Y-91092760D01*
X124976748Y-91106116D01*
X124981372Y-91126306D01*
X124985577Y-91152538D01*
X124989340Y-91184021D01*
X124995448Y-91259564D01*
X124999510Y-91346595D01*
X125001339Y-91438773D01*
X125000750Y-91529757D01*
X124997557Y-91613206D01*
X124994925Y-91650124D01*
X124991572Y-91682781D01*
X124986683Y-91719043D01*
X124981356Y-91752051D01*
X124975463Y-91781993D01*
X124968876Y-91809057D01*
X124965283Y-91821569D01*
X124961468Y-91833432D01*
X124957415Y-91844670D01*
X124953110Y-91855305D01*
X124948535Y-91865362D01*
X124943674Y-91874864D01*
X124938513Y-91883835D01*
X124933033Y-91892298D01*
X124927221Y-91900276D01*
X124921059Y-91907793D01*
X124914532Y-91914873D01*
X124907624Y-91921539D01*
X124900319Y-91927814D01*
X124892600Y-91933723D01*
X124884452Y-91939287D01*
X124875859Y-91944532D01*
X124866804Y-91949481D01*
X124857273Y-91954156D01*
X124847248Y-91958582D01*
X124836714Y-91962782D01*
X124814054Y-91970598D01*
X124789166Y-91977791D01*
X124763907Y-91983469D01*
X124734681Y-91988116D01*
X124702110Y-91991756D01*
X124666817Y-91994410D01*
X124629423Y-91996104D01*
X124590550Y-91996860D01*
X124550821Y-91996701D01*
X124510858Y-91995651D01*
X124471282Y-91993732D01*
X124432715Y-91990969D01*
X124395780Y-91987384D01*
X124361099Y-91983000D01*
X124329294Y-91977842D01*
X124300987Y-91971931D01*
X124276799Y-91965292D01*
X124257354Y-91957948D01*
X124246968Y-91952603D01*
X124237151Y-91946013D01*
X124227911Y-91938202D01*
X124219258Y-91929195D01*
X124211202Y-91919017D01*
X124203752Y-91907695D01*
X124196919Y-91895252D01*
X124190712Y-91881715D01*
X124185140Y-91867107D01*
X124180214Y-91851455D01*
X124175942Y-91834784D01*
X124172336Y-91817119D01*
X124169403Y-91798485D01*
X124167155Y-91778907D01*
X124165601Y-91758410D01*
X124164750Y-91737021D01*
X124162104Y-91635156D01*
X124216344Y-91631187D01*
X124270583Y-91627218D01*
X124279843Y-91722468D01*
X124282447Y-91746199D01*
X124285417Y-91767391D01*
X124288933Y-91786203D01*
X124293176Y-91802794D01*
X124295626Y-91810307D01*
X124298326Y-91817324D01*
X124301297Y-91823865D01*
X124304563Y-91829950D01*
X124308145Y-91835599D01*
X124312067Y-91840833D01*
X124316351Y-91845669D01*
X124321019Y-91850130D01*
X124326094Y-91854234D01*
X124331599Y-91858001D01*
X124337556Y-91861451D01*
X124343987Y-91864604D01*
X124350915Y-91867481D01*
X124358363Y-91870100D01*
X124366353Y-91872481D01*
X124374907Y-91874645D01*
X124393801Y-91878400D01*
X124415223Y-91881523D01*
X124439354Y-91884174D01*
X124466374Y-91886510D01*
X124492527Y-91888481D01*
X124518335Y-91889934D01*
X124543701Y-91890879D01*
X124568529Y-91891326D01*
X124592720Y-91891285D01*
X124616179Y-91890766D01*
X124638809Y-91889777D01*
X124660513Y-91888329D01*
X124681193Y-91886432D01*
X124700753Y-91884094D01*
X124719096Y-91881327D01*
X124736126Y-91878139D01*
X124751744Y-91874540D01*
X124765855Y-91870540D01*
X124778361Y-91866148D01*
X124789166Y-91861375D01*
X124799766Y-91855164D01*
X124809284Y-91848210D01*
X124817787Y-91840175D01*
X124825340Y-91830720D01*
X124832009Y-91819505D01*
X124837861Y-91806192D01*
X124842961Y-91790441D01*
X124847375Y-91771912D01*
X124851168Y-91750268D01*
X124854408Y-91725169D01*
X124857159Y-91696275D01*
X124859488Y-91663247D01*
X124863141Y-91583436D01*
X124865895Y-91483020D01*
X124867160Y-91429378D01*
X124867955Y-91380872D01*
X124868241Y-91337210D01*
X124867983Y-91298102D01*
X124867144Y-91263257D01*
X124865686Y-91232385D01*
X124864714Y-91218347D01*
X124863574Y-91205194D01*
X124862260Y-91192889D01*
X124860769Y-91181395D01*
X124859096Y-91170677D01*
X124857236Y-91160697D01*
X124855185Y-91151420D01*
X124852938Y-91142809D01*
X124850490Y-91134827D01*
X124847837Y-91127439D01*
X124844974Y-91120609D01*
X124841897Y-91114299D01*
X124838601Y-91108473D01*
X124835081Y-91103096D01*
X124831333Y-91098130D01*
X124827353Y-91093540D01*
X124823135Y-91089289D01*
X124818675Y-91085341D01*
X124813968Y-91081659D01*
X124809010Y-91078208D01*
X124801832Y-91074119D01*
X124793022Y-91070287D01*
X124770963Y-91063392D01*
X124743738Y-91057529D01*
X124712251Y-91052700D01*
X124677408Y-91048911D01*
X124640113Y-91046163D01*
X124601272Y-91044463D01*
X124561790Y-91043812D01*
X124522571Y-91044216D01*
X124484521Y-91045678D01*
X124448544Y-91048201D01*
X124415546Y-91051791D01*
X124386431Y-91056450D01*
X124362105Y-91062183D01*
X124343472Y-91068993D01*
X124336573Y-91072804D01*
X124331437Y-91076885D01*
X124329440Y-91079142D01*
X124327427Y-91081918D01*
X124325414Y-91085175D01*
X124323417Y-91088874D01*
X124321451Y-91092976D01*
X124319531Y-91097442D01*
X124317673Y-91102234D01*
X124315893Y-91107312D01*
X124314206Y-91112639D01*
X124312627Y-91118175D01*
X124311172Y-91123881D01*
X124309857Y-91129719D01*
X124308697Y-91135650D01*
X124307707Y-91141636D01*
X124306904Y-91147637D01*
X124306302Y-91153614D01*
X124301803Y-91192857D01*
X124299724Y-91208692D01*
X124297599Y-91222240D01*
X124296484Y-91228213D01*
X124295312Y-91233680D01*
X124294071Y-91238665D01*
X124292744Y-91243190D01*
X124291318Y-91247277D01*
X124289777Y-91250948D01*
X124288107Y-91254226D01*
X124286292Y-91257132D01*
X124284319Y-91259690D01*
X124282172Y-91261922D01*
X124279837Y-91263849D01*
X124277298Y-91265494D01*
X124274542Y-91266879D01*
X124271552Y-91268027D01*
X124268315Y-91268960D01*
X124264816Y-91269700D01*
X124261039Y-91270270D01*
X124256971Y-91270691D01*
X124247900Y-91271178D01*
X124237483Y-91271340D01*
X124225604Y-91271354D01*
X124164750Y-91271354D01*
X124172687Y-91185364D01*
X124174776Y-91166288D01*
X124177552Y-91147783D01*
X124180992Y-91129894D01*
X124185069Y-91112666D01*
X124189758Y-91096143D01*
X124195035Y-91080371D01*
X124200873Y-91065392D01*
X124207248Y-91051254D01*
X124214135Y-91037998D01*
X124217763Y-91031716D01*
X124221508Y-91025671D01*
X124225370Y-91019870D01*
X124229343Y-91014317D01*
X124233425Y-91009018D01*
X124237613Y-91003980D01*
X124241904Y-90999207D01*
X124246295Y-90994705D01*
X124250781Y-90990480D01*
X124255362Y-90986537D01*
X124260032Y-90982881D01*
X124264789Y-90979519D01*
X124269630Y-90976456D01*
X124274552Y-90973698D01*
X124287535Y-90967731D01*
X124302578Y-90962238D01*
X124319540Y-90957231D01*
X124338279Y-90952717D01*
X124358654Y-90948707D01*
X124380522Y-90945211D01*
X124403743Y-90942238D01*
X124428175Y-90939798D01*
X124480108Y-90936555D01*
X124535187Y-90935560D01*
X124592282Y-90936891D01*
G37*
G36*
X126522187Y-91950010D02*
G01*
X126536739Y-91987052D01*
X126469270Y-91983083D01*
X126401802Y-91979114D01*
X126366083Y-91879895D01*
X126330364Y-91780677D01*
X126065781Y-91776708D01*
X125801197Y-91774062D01*
X125762833Y-91879895D01*
X125724468Y-91985729D01*
X125659645Y-91985729D01*
X125651303Y-91985667D01*
X125647385Y-91985589D01*
X125643633Y-91985481D01*
X125640048Y-91985341D01*
X125636626Y-91985171D01*
X125633368Y-91984969D01*
X125630273Y-91984737D01*
X125627337Y-91984473D01*
X125624562Y-91984179D01*
X125621945Y-91983853D01*
X125619485Y-91983496D01*
X125617181Y-91983109D01*
X125615032Y-91982690D01*
X125613037Y-91982241D01*
X125611194Y-91981760D01*
X125609502Y-91981249D01*
X125607960Y-91980706D01*
X125606566Y-91980132D01*
X125605321Y-91979528D01*
X125604221Y-91978892D01*
X125603267Y-91978225D01*
X125602456Y-91977528D01*
X125601789Y-91976799D01*
X125601262Y-91976039D01*
X125601052Y-91975648D01*
X125600876Y-91975249D01*
X125600735Y-91974842D01*
X125600629Y-91974427D01*
X125600557Y-91974005D01*
X125600520Y-91973574D01*
X125600547Y-91972691D01*
X125600710Y-91971776D01*
X125601007Y-91970830D01*
X125601437Y-91969854D01*
X125716642Y-91660291D01*
X125848823Y-91660291D01*
X125849966Y-91661035D01*
X125853321Y-91661772D01*
X125866207Y-91663206D01*
X125886565Y-91664547D01*
X125913480Y-91665748D01*
X125983326Y-91667547D01*
X126068427Y-91668229D01*
X126099000Y-91668181D01*
X126126793Y-91668035D01*
X126151907Y-91667784D01*
X126174446Y-91667423D01*
X126194512Y-91666945D01*
X126212209Y-91666345D01*
X126227638Y-91665617D01*
X126240902Y-91664756D01*
X126252104Y-91663755D01*
X126256965Y-91663201D01*
X126261348Y-91662609D01*
X126265267Y-91661980D01*
X126268735Y-91661312D01*
X126271764Y-91660604D01*
X126274368Y-91659857D01*
X126276559Y-91659069D01*
X126278350Y-91658240D01*
X126279754Y-91657369D01*
X126280783Y-91656454D01*
X126281451Y-91655496D01*
X126281771Y-91654494D01*
X126281755Y-91653447D01*
X126281416Y-91652354D01*
X126247516Y-91556608D01*
X126172937Y-91350729D01*
X126133353Y-91240183D01*
X126100342Y-91148984D01*
X126077501Y-91086559D01*
X126068427Y-91062333D01*
X126057851Y-91086290D01*
X126032439Y-91152043D01*
X125957136Y-91354367D01*
X125882578Y-91560163D01*
X125858096Y-91630257D01*
X125848823Y-91660291D01*
X125716642Y-91660291D01*
X125795906Y-91447302D01*
X125986406Y-90940625D01*
X126068427Y-90940625D01*
X126080265Y-90940674D01*
X126091014Y-90940834D01*
X126100733Y-90941122D01*
X126109478Y-90941555D01*
X126113505Y-90941831D01*
X126117309Y-90942151D01*
X126120900Y-90942515D01*
X126124284Y-90942927D01*
X126127468Y-90943388D01*
X126130460Y-90943901D01*
X126133266Y-90944467D01*
X126135895Y-90945090D01*
X126138354Y-90945770D01*
X126140649Y-90946511D01*
X126142788Y-90947314D01*
X126144779Y-90948182D01*
X126146627Y-90949117D01*
X126148342Y-90950121D01*
X126149930Y-90951196D01*
X126151398Y-90952345D01*
X126152754Y-90953569D01*
X126154005Y-90954871D01*
X126155158Y-90956253D01*
X126156220Y-90957717D01*
X126157199Y-90959265D01*
X126158101Y-90960900D01*
X126158935Y-90962623D01*
X126159708Y-90964437D01*
X126338302Y-91449947D01*
X126413519Y-91654494D01*
X126522187Y-91950010D01*
G37*
G36*
X125844128Y-92230732D02*
G01*
X125890391Y-92231585D01*
X125910691Y-92232261D01*
X125929306Y-92233119D01*
X125946391Y-92234172D01*
X125962097Y-92235429D01*
X125976579Y-92236904D01*
X125989990Y-92238608D01*
X126002481Y-92240551D01*
X126014208Y-92242747D01*
X126025322Y-92245206D01*
X126035976Y-92247940D01*
X126046325Y-92250961D01*
X126056520Y-92254281D01*
X126071181Y-92259888D01*
X126085379Y-92266267D01*
X126099085Y-92273387D01*
X126112269Y-92281215D01*
X126124903Y-92289716D01*
X126136957Y-92298860D01*
X126148403Y-92308611D01*
X126159212Y-92318938D01*
X126169354Y-92329808D01*
X126178800Y-92341188D01*
X126187521Y-92353044D01*
X126195489Y-92365344D01*
X126202673Y-92378055D01*
X126209046Y-92391143D01*
X126214578Y-92404577D01*
X126219239Y-92418322D01*
X126223298Y-92435464D01*
X126227027Y-92458155D01*
X126233419Y-92517459D01*
X126238261Y-92590777D01*
X126241398Y-92672653D01*
X126242674Y-92757630D01*
X126241935Y-92840250D01*
X126239026Y-92915057D01*
X126233791Y-92976593D01*
X126228695Y-93015953D01*
X126222727Y-93051798D01*
X126215728Y-93084302D01*
X126211793Y-93099355D01*
X126207540Y-93113639D01*
X126202949Y-93127175D01*
X126198002Y-93139985D01*
X126192678Y-93152090D01*
X126186957Y-93163512D01*
X126180819Y-93174274D01*
X126174245Y-93184397D01*
X126167215Y-93193902D01*
X126159708Y-93202812D01*
X126151705Y-93211149D01*
X126143186Y-93218933D01*
X126134132Y-93226188D01*
X126124521Y-93232934D01*
X126114336Y-93239194D01*
X126103554Y-93244990D01*
X126092158Y-93250342D01*
X126080126Y-93255274D01*
X126067439Y-93259806D01*
X126054078Y-93263962D01*
X126025251Y-93271227D01*
X125993486Y-93277244D01*
X125958625Y-93282187D01*
X125934800Y-93284624D01*
X125908734Y-93286487D01*
X125851448Y-93288554D01*
X125789914Y-93288512D01*
X125727279Y-93286487D01*
X125666691Y-93282601D01*
X125611297Y-93276978D01*
X125586531Y-93273555D01*
X125564243Y-93269744D01*
X125544827Y-93265560D01*
X125528676Y-93261021D01*
X125508308Y-93253640D01*
X125489811Y-93245257D01*
X125473104Y-93235676D01*
X125458107Y-93224702D01*
X125444738Y-93212139D01*
X125432915Y-93197792D01*
X125422557Y-93181464D01*
X125413583Y-93162959D01*
X125405911Y-93142083D01*
X125399460Y-93118639D01*
X125394148Y-93092432D01*
X125389894Y-93063265D01*
X125386617Y-93030944D01*
X125384236Y-92995272D01*
X125382668Y-92956054D01*
X125381833Y-92913094D01*
X125379187Y-92759635D01*
X125828979Y-92759635D01*
X125832947Y-92809906D01*
X125836916Y-92858854D01*
X125504864Y-92858854D01*
X125496927Y-92893250D01*
X125495232Y-92902054D01*
X125494097Y-92912897D01*
X125493494Y-92925492D01*
X125493392Y-92939552D01*
X125493763Y-92954790D01*
X125494578Y-92970919D01*
X125497423Y-93004705D01*
X125501694Y-93038615D01*
X125504292Y-93054900D01*
X125507159Y-93070355D01*
X125510266Y-93084694D01*
X125513585Y-93097630D01*
X125517085Y-93108876D01*
X125520739Y-93118145D01*
X125525281Y-93126474D01*
X125531031Y-93134111D01*
X125538078Y-93141077D01*
X125546515Y-93147394D01*
X125556433Y-93153084D01*
X125567922Y-93158166D01*
X125581074Y-93162664D01*
X125595980Y-93166597D01*
X125612731Y-93169988D01*
X125631417Y-93172858D01*
X125652131Y-93175227D01*
X125674962Y-93177118D01*
X125700003Y-93178552D01*
X125727344Y-93179550D01*
X125789291Y-93180322D01*
X125820043Y-93180367D01*
X125848838Y-93179997D01*
X125875734Y-93179200D01*
X125900788Y-93177966D01*
X125924060Y-93176282D01*
X125945607Y-93174137D01*
X125965488Y-93171519D01*
X125983760Y-93168416D01*
X126000482Y-93164817D01*
X126015712Y-93160711D01*
X126029507Y-93156085D01*
X126035885Y-93153574D01*
X126041927Y-93150929D01*
X126047639Y-93148148D01*
X126053029Y-93145229D01*
X126058104Y-93142173D01*
X126062871Y-93138976D01*
X126067338Y-93135638D01*
X126071512Y-93132157D01*
X126075400Y-93128531D01*
X126079010Y-93124760D01*
X126085474Y-93116050D01*
X126091469Y-93104818D01*
X126096991Y-93091082D01*
X126102037Y-93074861D01*
X126106602Y-93056176D01*
X126110682Y-93035044D01*
X126114275Y-93011487D01*
X126117375Y-92985523D01*
X126122082Y-92926452D01*
X126124775Y-92857986D01*
X126125420Y-92780280D01*
X126123989Y-92693489D01*
X126122154Y-92632795D01*
X126119847Y-92579388D01*
X126116661Y-92532801D01*
X126112186Y-92492571D01*
X126109338Y-92474694D01*
X126106014Y-92458232D01*
X126102163Y-92443127D01*
X126097735Y-92429319D01*
X126092678Y-92416752D01*
X126086941Y-92405367D01*
X126080473Y-92395106D01*
X126073222Y-92385911D01*
X126065139Y-92377723D01*
X126056171Y-92370486D01*
X126046267Y-92364139D01*
X126035377Y-92358626D01*
X126023449Y-92353888D01*
X126010432Y-92349867D01*
X125996276Y-92346504D01*
X125980928Y-92343743D01*
X125964338Y-92341524D01*
X125946455Y-92339790D01*
X125906604Y-92337542D01*
X125860967Y-92336534D01*
X125809135Y-92336302D01*
X125770899Y-92336650D01*
X125736413Y-92337232D01*
X125705458Y-92338092D01*
X125677815Y-92339278D01*
X125665167Y-92340008D01*
X125653264Y-92340836D01*
X125642081Y-92341769D01*
X125631588Y-92342813D01*
X125621759Y-92343973D01*
X125612566Y-92345255D01*
X125603982Y-92346664D01*
X125595980Y-92348208D01*
X125588532Y-92349891D01*
X125581611Y-92351719D01*
X125575190Y-92353699D01*
X125569240Y-92355835D01*
X125563735Y-92358135D01*
X125558648Y-92360602D01*
X125553951Y-92363245D01*
X125549616Y-92366067D01*
X125545617Y-92369076D01*
X125541925Y-92372276D01*
X125538514Y-92375674D01*
X125535356Y-92379276D01*
X125532424Y-92383087D01*
X125529690Y-92387113D01*
X125527127Y-92391359D01*
X125524708Y-92395833D01*
X125522741Y-92400027D01*
X125520817Y-92404641D01*
X125518947Y-92409631D01*
X125517143Y-92414953D01*
X125515416Y-92420562D01*
X125513778Y-92426412D01*
X125512242Y-92432461D01*
X125510817Y-92438662D01*
X125509517Y-92444972D01*
X125508352Y-92451346D01*
X125507335Y-92457740D01*
X125506476Y-92464108D01*
X125505788Y-92470406D01*
X125505283Y-92476590D01*
X125504971Y-92482615D01*
X125504864Y-92488437D01*
X125504864Y-92541354D01*
X125371250Y-92541354D01*
X125380510Y-92472562D01*
X125385377Y-92435194D01*
X125391292Y-92401822D01*
X125398622Y-92372225D01*
X125407733Y-92346182D01*
X125413071Y-92334424D01*
X125418991Y-92323472D01*
X125425540Y-92313298D01*
X125432763Y-92303875D01*
X125440705Y-92295174D01*
X125449414Y-92287168D01*
X125458934Y-92279830D01*
X125469311Y-92273132D01*
X125480591Y-92267047D01*
X125492820Y-92261546D01*
X125506044Y-92256602D01*
X125520308Y-92252188D01*
X125552140Y-92244838D01*
X125588683Y-92239274D01*
X125630304Y-92235276D01*
X125677368Y-92232623D01*
X125730242Y-92231094D01*
X125789291Y-92230468D01*
X125844128Y-92230732D01*
G37*
D11*
X103946115Y-102122419D02*
X103946115Y-102931942D01*
X103946115Y-102931942D02*
X103898496Y-103027180D01*
X103898496Y-103027180D02*
X103850877Y-103074800D01*
X103850877Y-103074800D02*
X103755639Y-103122419D01*
X103755639Y-103122419D02*
X103565163Y-103122419D01*
X103565163Y-103122419D02*
X103469925Y-103074800D01*
X103469925Y-103074800D02*
X103422306Y-103027180D01*
X103422306Y-103027180D02*
X103374687Y-102931942D01*
X103374687Y-102931942D02*
X103374687Y-102122419D01*
X102898496Y-103027180D02*
X102850877Y-103074800D01*
X102850877Y-103074800D02*
X102898496Y-103122419D01*
X102898496Y-103122419D02*
X102946115Y-103074800D01*
X102946115Y-103074800D02*
X102898496Y-103027180D01*
X102898496Y-103027180D02*
X102898496Y-103122419D01*
X102088973Y-102598609D02*
X102422306Y-102598609D01*
X102422306Y-103122419D02*
X102422306Y-102122419D01*
X102422306Y-102122419D02*
X101946116Y-102122419D01*
X101088973Y-103122419D02*
X101565163Y-103122419D01*
X101565163Y-103122419D02*
X101565163Y-102122419D01*
X99993734Y-103122419D02*
X99993734Y-102122419D01*
X99565163Y-103122419D02*
X99565163Y-102598609D01*
X99565163Y-102598609D02*
X99612782Y-102503371D01*
X99612782Y-102503371D02*
X99708020Y-102455752D01*
X99708020Y-102455752D02*
X99850877Y-102455752D01*
X99850877Y-102455752D02*
X99946115Y-102503371D01*
X99946115Y-102503371D02*
X99993734Y-102550990D01*
X98708020Y-103074800D02*
X98803258Y-103122419D01*
X98803258Y-103122419D02*
X98993734Y-103122419D01*
X98993734Y-103122419D02*
X99088972Y-103074800D01*
X99088972Y-103074800D02*
X99136591Y-102979561D01*
X99136591Y-102979561D02*
X99136591Y-102598609D01*
X99136591Y-102598609D02*
X99088972Y-102503371D01*
X99088972Y-102503371D02*
X98993734Y-102455752D01*
X98993734Y-102455752D02*
X98803258Y-102455752D01*
X98803258Y-102455752D02*
X98708020Y-102503371D01*
X98708020Y-102503371D02*
X98660401Y-102598609D01*
X98660401Y-102598609D02*
X98660401Y-102693847D01*
X98660401Y-102693847D02*
X99136591Y-102789085D01*
X98231829Y-103122419D02*
X98231829Y-102455752D01*
X98231829Y-102646228D02*
X98184210Y-102550990D01*
X98184210Y-102550990D02*
X98136591Y-102503371D01*
X98136591Y-102503371D02*
X98041353Y-102455752D01*
X98041353Y-102455752D02*
X97946115Y-102455752D01*
X97231829Y-103074800D02*
X97327067Y-103122419D01*
X97327067Y-103122419D02*
X97517543Y-103122419D01*
X97517543Y-103122419D02*
X97612781Y-103074800D01*
X97612781Y-103074800D02*
X97660400Y-102979561D01*
X97660400Y-102979561D02*
X97660400Y-102598609D01*
X97660400Y-102598609D02*
X97612781Y-102503371D01*
X97612781Y-102503371D02*
X97517543Y-102455752D01*
X97517543Y-102455752D02*
X97327067Y-102455752D01*
X97327067Y-102455752D02*
X97231829Y-102503371D01*
X97231829Y-102503371D02*
X97184210Y-102598609D01*
X97184210Y-102598609D02*
X97184210Y-102693847D01*
X97184210Y-102693847D02*
X97660400Y-102789085D01*
X129219925Y-81042587D02*
X129696115Y-81042587D01*
X129696115Y-81042587D02*
X129696115Y-80042587D01*
X128505639Y-80994968D02*
X128600877Y-81042587D01*
X128600877Y-81042587D02*
X128791353Y-81042587D01*
X128791353Y-81042587D02*
X128886591Y-80994968D01*
X128886591Y-80994968D02*
X128934210Y-80899729D01*
X128934210Y-80899729D02*
X128934210Y-80518777D01*
X128934210Y-80518777D02*
X128886591Y-80423539D01*
X128886591Y-80423539D02*
X128791353Y-80375920D01*
X128791353Y-80375920D02*
X128600877Y-80375920D01*
X128600877Y-80375920D02*
X128505639Y-80423539D01*
X128505639Y-80423539D02*
X128458020Y-80518777D01*
X128458020Y-80518777D02*
X128458020Y-80614015D01*
X128458020Y-80614015D02*
X128934210Y-80709253D01*
X127886591Y-81042587D02*
X127981829Y-80994968D01*
X127981829Y-80994968D02*
X128029448Y-80947348D01*
X128029448Y-80947348D02*
X128077067Y-80852110D01*
X128077067Y-80852110D02*
X128077067Y-80566396D01*
X128077067Y-80566396D02*
X128029448Y-80471158D01*
X128029448Y-80471158D02*
X127981829Y-80423539D01*
X127981829Y-80423539D02*
X127886591Y-80375920D01*
X127886591Y-80375920D02*
X127743734Y-80375920D01*
X127743734Y-80375920D02*
X127648496Y-80423539D01*
X127648496Y-80423539D02*
X127600877Y-80471158D01*
X127600877Y-80471158D02*
X127553258Y-80566396D01*
X127553258Y-80566396D02*
X127553258Y-80852110D01*
X127553258Y-80852110D02*
X127600877Y-80947348D01*
X127600877Y-80947348D02*
X127648496Y-80994968D01*
X127648496Y-80994968D02*
X127743734Y-81042587D01*
X127743734Y-81042587D02*
X127886591Y-81042587D01*
X125791353Y-80947348D02*
X125838972Y-80994968D01*
X125838972Y-80994968D02*
X125981829Y-81042587D01*
X125981829Y-81042587D02*
X126077067Y-81042587D01*
X126077067Y-81042587D02*
X126219924Y-80994968D01*
X126219924Y-80994968D02*
X126315162Y-80899729D01*
X126315162Y-80899729D02*
X126362781Y-80804491D01*
X126362781Y-80804491D02*
X126410400Y-80614015D01*
X126410400Y-80614015D02*
X126410400Y-80471158D01*
X126410400Y-80471158D02*
X126362781Y-80280682D01*
X126362781Y-80280682D02*
X126315162Y-80185444D01*
X126315162Y-80185444D02*
X126219924Y-80090206D01*
X126219924Y-80090206D02*
X126077067Y-80042587D01*
X126077067Y-80042587D02*
X125981829Y-80042587D01*
X125981829Y-80042587D02*
X125838972Y-80090206D01*
X125838972Y-80090206D02*
X125791353Y-80137825D01*
X125410400Y-80756872D02*
X124934210Y-80756872D01*
X125505638Y-81042587D02*
X125172305Y-80042587D01*
X125172305Y-80042587D02*
X124838972Y-81042587D01*
X124505638Y-81042587D02*
X124505638Y-80042587D01*
X124505638Y-80042587D02*
X123934210Y-81042587D01*
X123934210Y-81042587D02*
X123934210Y-80042587D01*
X123505638Y-80994968D02*
X123362781Y-81042587D01*
X123362781Y-81042587D02*
X123124686Y-81042587D01*
X123124686Y-81042587D02*
X123029448Y-80994968D01*
X123029448Y-80994968D02*
X122981829Y-80947348D01*
X122981829Y-80947348D02*
X122934210Y-80852110D01*
X122934210Y-80852110D02*
X122934210Y-80756872D01*
X122934210Y-80756872D02*
X122981829Y-80661634D01*
X122981829Y-80661634D02*
X123029448Y-80614015D01*
X123029448Y-80614015D02*
X123124686Y-80566396D01*
X123124686Y-80566396D02*
X123315162Y-80518777D01*
X123315162Y-80518777D02*
X123410400Y-80471158D01*
X123410400Y-80471158D02*
X123458019Y-80423539D01*
X123458019Y-80423539D02*
X123505638Y-80328301D01*
X123505638Y-80328301D02*
X123505638Y-80233063D01*
X123505638Y-80233063D02*
X123458019Y-80137825D01*
X123458019Y-80137825D02*
X123410400Y-80090206D01*
X123410400Y-80090206D02*
X123315162Y-80042587D01*
X123315162Y-80042587D02*
X123077067Y-80042587D01*
X123077067Y-80042587D02*
X122934210Y-80090206D01*
X122553257Y-80756872D02*
X122077067Y-80756872D01*
X122648495Y-81042587D02*
X122315162Y-80042587D01*
X122315162Y-80042587D02*
X121981829Y-81042587D01*
X121791352Y-80042587D02*
X121219924Y-80042587D01*
X121505638Y-81042587D02*
X121505638Y-80042587D01*
X119791352Y-80518777D02*
X119648495Y-80566396D01*
X119648495Y-80566396D02*
X119600876Y-80614015D01*
X119600876Y-80614015D02*
X119553257Y-80709253D01*
X119553257Y-80709253D02*
X119553257Y-80852110D01*
X119553257Y-80852110D02*
X119600876Y-80947348D01*
X119600876Y-80947348D02*
X119648495Y-80994968D01*
X119648495Y-80994968D02*
X119743733Y-81042587D01*
X119743733Y-81042587D02*
X120124685Y-81042587D01*
X120124685Y-81042587D02*
X120124685Y-80042587D01*
X120124685Y-80042587D02*
X119791352Y-80042587D01*
X119791352Y-80042587D02*
X119696114Y-80090206D01*
X119696114Y-80090206D02*
X119648495Y-80137825D01*
X119648495Y-80137825D02*
X119600876Y-80233063D01*
X119600876Y-80233063D02*
X119600876Y-80328301D01*
X119600876Y-80328301D02*
X119648495Y-80423539D01*
X119648495Y-80423539D02*
X119696114Y-80471158D01*
X119696114Y-80471158D02*
X119791352Y-80518777D01*
X119791352Y-80518777D02*
X120124685Y-80518777D01*
X118981828Y-81042587D02*
X119077066Y-80994968D01*
X119077066Y-80994968D02*
X119124685Y-80947348D01*
X119124685Y-80947348D02*
X119172304Y-80852110D01*
X119172304Y-80852110D02*
X119172304Y-80566396D01*
X119172304Y-80566396D02*
X119124685Y-80471158D01*
X119124685Y-80471158D02*
X119077066Y-80423539D01*
X119077066Y-80423539D02*
X118981828Y-80375920D01*
X118981828Y-80375920D02*
X118838971Y-80375920D01*
X118838971Y-80375920D02*
X118743733Y-80423539D01*
X118743733Y-80423539D02*
X118696114Y-80471158D01*
X118696114Y-80471158D02*
X118648495Y-80566396D01*
X118648495Y-80566396D02*
X118648495Y-80852110D01*
X118648495Y-80852110D02*
X118696114Y-80947348D01*
X118696114Y-80947348D02*
X118743733Y-80994968D01*
X118743733Y-80994968D02*
X118838971Y-81042587D01*
X118838971Y-81042587D02*
X118981828Y-81042587D01*
X117791352Y-81042587D02*
X117791352Y-80518777D01*
X117791352Y-80518777D02*
X117838971Y-80423539D01*
X117838971Y-80423539D02*
X117934209Y-80375920D01*
X117934209Y-80375920D02*
X118124685Y-80375920D01*
X118124685Y-80375920D02*
X118219923Y-80423539D01*
X117791352Y-80994968D02*
X117886590Y-81042587D01*
X117886590Y-81042587D02*
X118124685Y-81042587D01*
X118124685Y-81042587D02*
X118219923Y-80994968D01*
X118219923Y-80994968D02*
X118267542Y-80899729D01*
X118267542Y-80899729D02*
X118267542Y-80804491D01*
X118267542Y-80804491D02*
X118219923Y-80709253D01*
X118219923Y-80709253D02*
X118124685Y-80661634D01*
X118124685Y-80661634D02*
X117886590Y-80661634D01*
X117886590Y-80661634D02*
X117791352Y-80614015D01*
X117315161Y-81042587D02*
X117315161Y-80375920D01*
X117315161Y-80566396D02*
X117267542Y-80471158D01*
X117267542Y-80471158D02*
X117219923Y-80423539D01*
X117219923Y-80423539D02*
X117124685Y-80375920D01*
X117124685Y-80375920D02*
X117029447Y-80375920D01*
X116267542Y-81042587D02*
X116267542Y-80042587D01*
X116267542Y-80994968D02*
X116362780Y-81042587D01*
X116362780Y-81042587D02*
X116553256Y-81042587D01*
X116553256Y-81042587D02*
X116648494Y-80994968D01*
X116648494Y-80994968D02*
X116696113Y-80947348D01*
X116696113Y-80947348D02*
X116743732Y-80852110D01*
X116743732Y-80852110D02*
X116743732Y-80566396D01*
X116743732Y-80566396D02*
X116696113Y-80471158D01*
X116696113Y-80471158D02*
X116648494Y-80423539D01*
X116648494Y-80423539D02*
X116553256Y-80375920D01*
X116553256Y-80375920D02*
X116362780Y-80375920D01*
X116362780Y-80375920D02*
X116267542Y-80423539D01*
X129838972Y-81652531D02*
X129505639Y-82652531D01*
X129505639Y-82652531D02*
X129172306Y-81652531D01*
X128458020Y-82604912D02*
X128553258Y-82652531D01*
X128553258Y-82652531D02*
X128743734Y-82652531D01*
X128743734Y-82652531D02*
X128838972Y-82604912D01*
X128838972Y-82604912D02*
X128886591Y-82509673D01*
X128886591Y-82509673D02*
X128886591Y-82128721D01*
X128886591Y-82128721D02*
X128838972Y-82033483D01*
X128838972Y-82033483D02*
X128743734Y-81985864D01*
X128743734Y-81985864D02*
X128553258Y-81985864D01*
X128553258Y-81985864D02*
X128458020Y-82033483D01*
X128458020Y-82033483D02*
X128410401Y-82128721D01*
X128410401Y-82128721D02*
X128410401Y-82223959D01*
X128410401Y-82223959D02*
X128886591Y-82319197D01*
X127981829Y-82652531D02*
X127981829Y-81985864D01*
X127981829Y-82176340D02*
X127934210Y-82081102D01*
X127934210Y-82081102D02*
X127886591Y-82033483D01*
X127886591Y-82033483D02*
X127791353Y-81985864D01*
X127791353Y-81985864D02*
X127696115Y-81985864D01*
X127410400Y-82604912D02*
X127315162Y-82652531D01*
X127315162Y-82652531D02*
X127124686Y-82652531D01*
X127124686Y-82652531D02*
X127029448Y-82604912D01*
X127029448Y-82604912D02*
X126981829Y-82509673D01*
X126981829Y-82509673D02*
X126981829Y-82462054D01*
X126981829Y-82462054D02*
X127029448Y-82366816D01*
X127029448Y-82366816D02*
X127124686Y-82319197D01*
X127124686Y-82319197D02*
X127267543Y-82319197D01*
X127267543Y-82319197D02*
X127362781Y-82271578D01*
X127362781Y-82271578D02*
X127410400Y-82176340D01*
X127410400Y-82176340D02*
X127410400Y-82128721D01*
X127410400Y-82128721D02*
X127362781Y-82033483D01*
X127362781Y-82033483D02*
X127267543Y-81985864D01*
X127267543Y-81985864D02*
X127124686Y-81985864D01*
X127124686Y-81985864D02*
X127029448Y-82033483D01*
X126553257Y-82652531D02*
X126553257Y-81985864D01*
X126553257Y-81652531D02*
X126600876Y-81700150D01*
X126600876Y-81700150D02*
X126553257Y-81747769D01*
X126553257Y-81747769D02*
X126505638Y-81700150D01*
X126505638Y-81700150D02*
X126553257Y-81652531D01*
X126553257Y-81652531D02*
X126553257Y-81747769D01*
X125934210Y-82652531D02*
X126029448Y-82604912D01*
X126029448Y-82604912D02*
X126077067Y-82557292D01*
X126077067Y-82557292D02*
X126124686Y-82462054D01*
X126124686Y-82462054D02*
X126124686Y-82176340D01*
X126124686Y-82176340D02*
X126077067Y-82081102D01*
X126077067Y-82081102D02*
X126029448Y-82033483D01*
X126029448Y-82033483D02*
X125934210Y-81985864D01*
X125934210Y-81985864D02*
X125791353Y-81985864D01*
X125791353Y-81985864D02*
X125696115Y-82033483D01*
X125696115Y-82033483D02*
X125648496Y-82081102D01*
X125648496Y-82081102D02*
X125600877Y-82176340D01*
X125600877Y-82176340D02*
X125600877Y-82462054D01*
X125600877Y-82462054D02*
X125648496Y-82557292D01*
X125648496Y-82557292D02*
X125696115Y-82604912D01*
X125696115Y-82604912D02*
X125791353Y-82652531D01*
X125791353Y-82652531D02*
X125934210Y-82652531D01*
X125172305Y-81985864D02*
X125172305Y-82652531D01*
X125172305Y-82081102D02*
X125124686Y-82033483D01*
X125124686Y-82033483D02*
X125029448Y-81985864D01*
X125029448Y-81985864D02*
X124886591Y-81985864D01*
X124886591Y-81985864D02*
X124791353Y-82033483D01*
X124791353Y-82033483D02*
X124743734Y-82128721D01*
X124743734Y-82128721D02*
X124743734Y-82652531D01*
X122981829Y-82652531D02*
X123553257Y-82652531D01*
X123267543Y-82652531D02*
X123267543Y-81652531D01*
X123267543Y-81652531D02*
X123362781Y-81795388D01*
X123362781Y-81795388D02*
X123458019Y-81890626D01*
X123458019Y-81890626D02*
X123553257Y-81938245D01*
X122553257Y-82557292D02*
X122505638Y-82604912D01*
X122505638Y-82604912D02*
X122553257Y-82652531D01*
X122553257Y-82652531D02*
X122600876Y-82604912D01*
X122600876Y-82604912D02*
X122553257Y-82557292D01*
X122553257Y-82557292D02*
X122553257Y-82652531D01*
X121886591Y-81652531D02*
X121791353Y-81652531D01*
X121791353Y-81652531D02*
X121696115Y-81700150D01*
X121696115Y-81700150D02*
X121648496Y-81747769D01*
X121648496Y-81747769D02*
X121600877Y-81843007D01*
X121600877Y-81843007D02*
X121553258Y-82033483D01*
X121553258Y-82033483D02*
X121553258Y-82271578D01*
X121553258Y-82271578D02*
X121600877Y-82462054D01*
X121600877Y-82462054D02*
X121648496Y-82557292D01*
X121648496Y-82557292D02*
X121696115Y-82604912D01*
X121696115Y-82604912D02*
X121791353Y-82652531D01*
X121791353Y-82652531D02*
X121886591Y-82652531D01*
X121886591Y-82652531D02*
X121981829Y-82604912D01*
X121981829Y-82604912D02*
X122029448Y-82557292D01*
X122029448Y-82557292D02*
X122077067Y-82462054D01*
X122077067Y-82462054D02*
X122124686Y-82271578D01*
X122124686Y-82271578D02*
X122124686Y-82033483D01*
X122124686Y-82033483D02*
X122077067Y-81843007D01*
X122077067Y-81843007D02*
X122029448Y-81747769D01*
X122029448Y-81747769D02*
X121981829Y-81700150D01*
X121981829Y-81700150D02*
X121886591Y-81652531D01*
X129838972Y-83262475D02*
X129267544Y-83262475D01*
X129553258Y-84262475D02*
X129553258Y-83262475D01*
X128791353Y-84262475D02*
X128886591Y-84214856D01*
X128886591Y-84214856D02*
X128934210Y-84167236D01*
X128934210Y-84167236D02*
X128981829Y-84071998D01*
X128981829Y-84071998D02*
X128981829Y-83786284D01*
X128981829Y-83786284D02*
X128934210Y-83691046D01*
X128934210Y-83691046D02*
X128886591Y-83643427D01*
X128886591Y-83643427D02*
X128791353Y-83595808D01*
X128791353Y-83595808D02*
X128648496Y-83595808D01*
X128648496Y-83595808D02*
X128553258Y-83643427D01*
X128553258Y-83643427D02*
X128505639Y-83691046D01*
X128505639Y-83691046D02*
X128458020Y-83786284D01*
X128458020Y-83786284D02*
X128458020Y-84071998D01*
X128458020Y-84071998D02*
X128505639Y-84167236D01*
X128505639Y-84167236D02*
X128553258Y-84214856D01*
X128553258Y-84214856D02*
X128648496Y-84262475D01*
X128648496Y-84262475D02*
X128791353Y-84262475D01*
X127886591Y-84262475D02*
X127981829Y-84214856D01*
X127981829Y-84214856D02*
X128029448Y-84119617D01*
X128029448Y-84119617D02*
X128029448Y-83262475D01*
X127077067Y-83595808D02*
X127077067Y-84405332D01*
X127077067Y-84405332D02*
X127124686Y-84500570D01*
X127124686Y-84500570D02*
X127172305Y-84548189D01*
X127172305Y-84548189D02*
X127267543Y-84595808D01*
X127267543Y-84595808D02*
X127410400Y-84595808D01*
X127410400Y-84595808D02*
X127505638Y-84548189D01*
X127077067Y-84214856D02*
X127172305Y-84262475D01*
X127172305Y-84262475D02*
X127362781Y-84262475D01*
X127362781Y-84262475D02*
X127458019Y-84214856D01*
X127458019Y-84214856D02*
X127505638Y-84167236D01*
X127505638Y-84167236D02*
X127553257Y-84071998D01*
X127553257Y-84071998D02*
X127553257Y-83786284D01*
X127553257Y-83786284D02*
X127505638Y-83691046D01*
X127505638Y-83691046D02*
X127458019Y-83643427D01*
X127458019Y-83643427D02*
X127362781Y-83595808D01*
X127362781Y-83595808D02*
X127172305Y-83595808D01*
X127172305Y-83595808D02*
X127077067Y-83643427D01*
X126172305Y-84262475D02*
X126172305Y-83738665D01*
X126172305Y-83738665D02*
X126219924Y-83643427D01*
X126219924Y-83643427D02*
X126315162Y-83595808D01*
X126315162Y-83595808D02*
X126505638Y-83595808D01*
X126505638Y-83595808D02*
X126600876Y-83643427D01*
X126172305Y-84214856D02*
X126267543Y-84262475D01*
X126267543Y-84262475D02*
X126505638Y-84262475D01*
X126505638Y-84262475D02*
X126600876Y-84214856D01*
X126600876Y-84214856D02*
X126648495Y-84119617D01*
X126648495Y-84119617D02*
X126648495Y-84024379D01*
X126648495Y-84024379D02*
X126600876Y-83929141D01*
X126600876Y-83929141D02*
X126505638Y-83881522D01*
X126505638Y-83881522D02*
X126267543Y-83881522D01*
X126267543Y-83881522D02*
X126172305Y-83833903D01*
X124362781Y-84167236D02*
X124410400Y-84214856D01*
X124410400Y-84214856D02*
X124553257Y-84262475D01*
X124553257Y-84262475D02*
X124648495Y-84262475D01*
X124648495Y-84262475D02*
X124791352Y-84214856D01*
X124791352Y-84214856D02*
X124886590Y-84119617D01*
X124886590Y-84119617D02*
X124934209Y-84024379D01*
X124934209Y-84024379D02*
X124981828Y-83833903D01*
X124981828Y-83833903D02*
X124981828Y-83691046D01*
X124981828Y-83691046D02*
X124934209Y-83500570D01*
X124934209Y-83500570D02*
X124886590Y-83405332D01*
X124886590Y-83405332D02*
X124791352Y-83310094D01*
X124791352Y-83310094D02*
X124648495Y-83262475D01*
X124648495Y-83262475D02*
X124553257Y-83262475D01*
X124553257Y-83262475D02*
X124410400Y-83310094D01*
X124410400Y-83310094D02*
X124362781Y-83357713D01*
X123505638Y-84262475D02*
X123505638Y-83738665D01*
X123505638Y-83738665D02*
X123553257Y-83643427D01*
X123553257Y-83643427D02*
X123648495Y-83595808D01*
X123648495Y-83595808D02*
X123838971Y-83595808D01*
X123838971Y-83595808D02*
X123934209Y-83643427D01*
X123505638Y-84214856D02*
X123600876Y-84262475D01*
X123600876Y-84262475D02*
X123838971Y-84262475D01*
X123838971Y-84262475D02*
X123934209Y-84214856D01*
X123934209Y-84214856D02*
X123981828Y-84119617D01*
X123981828Y-84119617D02*
X123981828Y-84024379D01*
X123981828Y-84024379D02*
X123934209Y-83929141D01*
X123934209Y-83929141D02*
X123838971Y-83881522D01*
X123838971Y-83881522D02*
X123600876Y-83881522D01*
X123600876Y-83881522D02*
X123505638Y-83833903D01*
X123124685Y-83595808D02*
X122886590Y-84262475D01*
X122886590Y-84262475D02*
X122648495Y-83595808D01*
X121838971Y-83595808D02*
X121838971Y-84262475D01*
X122267542Y-83595808D02*
X122267542Y-84119617D01*
X122267542Y-84119617D02*
X122219923Y-84214856D01*
X122219923Y-84214856D02*
X122124685Y-84262475D01*
X122124685Y-84262475D02*
X121981828Y-84262475D01*
X121981828Y-84262475D02*
X121886590Y-84214856D01*
X121886590Y-84214856D02*
X121838971Y-84167236D01*
X121410399Y-84214856D02*
X121315161Y-84262475D01*
X121315161Y-84262475D02*
X121124685Y-84262475D01*
X121124685Y-84262475D02*
X121029447Y-84214856D01*
X121029447Y-84214856D02*
X120981828Y-84119617D01*
X120981828Y-84119617D02*
X120981828Y-84071998D01*
X120981828Y-84071998D02*
X121029447Y-83976760D01*
X121029447Y-83976760D02*
X121124685Y-83929141D01*
X121124685Y-83929141D02*
X121267542Y-83929141D01*
X121267542Y-83929141D02*
X121362780Y-83881522D01*
X121362780Y-83881522D02*
X121410399Y-83786284D01*
X121410399Y-83786284D02*
X121410399Y-83738665D01*
X121410399Y-83738665D02*
X121362780Y-83643427D01*
X121362780Y-83643427D02*
X121267542Y-83595808D01*
X121267542Y-83595808D02*
X121124685Y-83595808D01*
X121124685Y-83595808D02*
X121029447Y-83643427D01*
X120410399Y-84262475D02*
X120505637Y-84214856D01*
X120505637Y-84214856D02*
X120553256Y-84167236D01*
X120553256Y-84167236D02*
X120600875Y-84071998D01*
X120600875Y-84071998D02*
X120600875Y-83786284D01*
X120600875Y-83786284D02*
X120553256Y-83691046D01*
X120553256Y-83691046D02*
X120505637Y-83643427D01*
X120505637Y-83643427D02*
X120410399Y-83595808D01*
X120410399Y-83595808D02*
X120267542Y-83595808D01*
X120267542Y-83595808D02*
X120172304Y-83643427D01*
X120172304Y-83643427D02*
X120124685Y-83691046D01*
X120124685Y-83691046D02*
X120077066Y-83786284D01*
X120077066Y-83786284D02*
X120077066Y-84071998D01*
X120077066Y-84071998D02*
X120124685Y-84167236D01*
X120124685Y-84167236D02*
X120172304Y-84214856D01*
X120172304Y-84214856D02*
X120267542Y-84262475D01*
X120267542Y-84262475D02*
X120410399Y-84262475D01*
X119219923Y-83595808D02*
X119219923Y-84405332D01*
X119219923Y-84405332D02*
X119267542Y-84500570D01*
X119267542Y-84500570D02*
X119315161Y-84548189D01*
X119315161Y-84548189D02*
X119410399Y-84595808D01*
X119410399Y-84595808D02*
X119553256Y-84595808D01*
X119553256Y-84595808D02*
X119648494Y-84548189D01*
X119219923Y-84214856D02*
X119315161Y-84262475D01*
X119315161Y-84262475D02*
X119505637Y-84262475D01*
X119505637Y-84262475D02*
X119600875Y-84214856D01*
X119600875Y-84214856D02*
X119648494Y-84167236D01*
X119648494Y-84167236D02*
X119696113Y-84071998D01*
X119696113Y-84071998D02*
X119696113Y-83786284D01*
X119696113Y-83786284D02*
X119648494Y-83691046D01*
X119648494Y-83691046D02*
X119600875Y-83643427D01*
X119600875Y-83643427D02*
X119505637Y-83595808D01*
X119505637Y-83595808D02*
X119315161Y-83595808D01*
X119315161Y-83595808D02*
X119219923Y-83643427D01*
X118600875Y-84262475D02*
X118696113Y-84214856D01*
X118696113Y-84214856D02*
X118743732Y-84119617D01*
X118743732Y-84119617D02*
X118743732Y-83262475D01*
X117791351Y-83595808D02*
X117791351Y-84262475D01*
X118219922Y-83595808D02*
X118219922Y-84119617D01*
X118219922Y-84119617D02*
X118172303Y-84214856D01*
X118172303Y-84214856D02*
X118077065Y-84262475D01*
X118077065Y-84262475D02*
X117934208Y-84262475D01*
X117934208Y-84262475D02*
X117838970Y-84214856D01*
X117838970Y-84214856D02*
X117791351Y-84167236D01*
X129696115Y-85872419D02*
X129696115Y-84872419D01*
X129696115Y-84872419D02*
X129362782Y-85586704D01*
X129362782Y-85586704D02*
X129029449Y-84872419D01*
X129029449Y-84872419D02*
X129029449Y-85872419D01*
X128124687Y-85872419D02*
X128124687Y-85348609D01*
X128124687Y-85348609D02*
X128172306Y-85253371D01*
X128172306Y-85253371D02*
X128267544Y-85205752D01*
X128267544Y-85205752D02*
X128458020Y-85205752D01*
X128458020Y-85205752D02*
X128553258Y-85253371D01*
X128124687Y-85824800D02*
X128219925Y-85872419D01*
X128219925Y-85872419D02*
X128458020Y-85872419D01*
X128458020Y-85872419D02*
X128553258Y-85824800D01*
X128553258Y-85824800D02*
X128600877Y-85729561D01*
X128600877Y-85729561D02*
X128600877Y-85634323D01*
X128600877Y-85634323D02*
X128553258Y-85539085D01*
X128553258Y-85539085D02*
X128458020Y-85491466D01*
X128458020Y-85491466D02*
X128219925Y-85491466D01*
X128219925Y-85491466D02*
X128124687Y-85443847D01*
X127743734Y-85205752D02*
X127505639Y-85872419D01*
X127267544Y-85205752D02*
X127505639Y-85872419D01*
X127505639Y-85872419D02*
X127600877Y-86110514D01*
X127600877Y-86110514D02*
X127648496Y-86158133D01*
X127648496Y-86158133D02*
X127743734Y-86205752D01*
X126172305Y-84967657D02*
X126124686Y-84920038D01*
X126124686Y-84920038D02*
X126029448Y-84872419D01*
X126029448Y-84872419D02*
X125791353Y-84872419D01*
X125791353Y-84872419D02*
X125696115Y-84920038D01*
X125696115Y-84920038D02*
X125648496Y-84967657D01*
X125648496Y-84967657D02*
X125600877Y-85062895D01*
X125600877Y-85062895D02*
X125600877Y-85158133D01*
X125600877Y-85158133D02*
X125648496Y-85300990D01*
X125648496Y-85300990D02*
X126219924Y-85872419D01*
X126219924Y-85872419D02*
X125600877Y-85872419D01*
X124981829Y-84872419D02*
X124886591Y-84872419D01*
X124886591Y-84872419D02*
X124791353Y-84920038D01*
X124791353Y-84920038D02*
X124743734Y-84967657D01*
X124743734Y-84967657D02*
X124696115Y-85062895D01*
X124696115Y-85062895D02*
X124648496Y-85253371D01*
X124648496Y-85253371D02*
X124648496Y-85491466D01*
X124648496Y-85491466D02*
X124696115Y-85681942D01*
X124696115Y-85681942D02*
X124743734Y-85777180D01*
X124743734Y-85777180D02*
X124791353Y-85824800D01*
X124791353Y-85824800D02*
X124886591Y-85872419D01*
X124886591Y-85872419D02*
X124981829Y-85872419D01*
X124981829Y-85872419D02*
X125077067Y-85824800D01*
X125077067Y-85824800D02*
X125124686Y-85777180D01*
X125124686Y-85777180D02*
X125172305Y-85681942D01*
X125172305Y-85681942D02*
X125219924Y-85491466D01*
X125219924Y-85491466D02*
X125219924Y-85253371D01*
X125219924Y-85253371D02*
X125172305Y-85062895D01*
X125172305Y-85062895D02*
X125124686Y-84967657D01*
X125124686Y-84967657D02*
X125077067Y-84920038D01*
X125077067Y-84920038D02*
X124981829Y-84872419D01*
X124267543Y-84967657D02*
X124219924Y-84920038D01*
X124219924Y-84920038D02*
X124124686Y-84872419D01*
X124124686Y-84872419D02*
X123886591Y-84872419D01*
X123886591Y-84872419D02*
X123791353Y-84920038D01*
X123791353Y-84920038D02*
X123743734Y-84967657D01*
X123743734Y-84967657D02*
X123696115Y-85062895D01*
X123696115Y-85062895D02*
X123696115Y-85158133D01*
X123696115Y-85158133D02*
X123743734Y-85300990D01*
X123743734Y-85300990D02*
X124315162Y-85872419D01*
X124315162Y-85872419D02*
X123696115Y-85872419D01*
X122791353Y-84872419D02*
X123267543Y-84872419D01*
X123267543Y-84872419D02*
X123315162Y-85348609D01*
X123315162Y-85348609D02*
X123267543Y-85300990D01*
X123267543Y-85300990D02*
X123172305Y-85253371D01*
X123172305Y-85253371D02*
X122934210Y-85253371D01*
X122934210Y-85253371D02*
X122838972Y-85300990D01*
X122838972Y-85300990D02*
X122791353Y-85348609D01*
X122791353Y-85348609D02*
X122743734Y-85443847D01*
X122743734Y-85443847D02*
X122743734Y-85681942D01*
X122743734Y-85681942D02*
X122791353Y-85777180D01*
X122791353Y-85777180D02*
X122838972Y-85824800D01*
X122838972Y-85824800D02*
X122934210Y-85872419D01*
X122934210Y-85872419D02*
X123172305Y-85872419D01*
X123172305Y-85872419D02*
X123267543Y-85824800D01*
X123267543Y-85824800D02*
X123315162Y-85777180D01*
X98219925Y-99872419D02*
X98696115Y-99872419D01*
X98696115Y-99872419D02*
X98696115Y-98872419D01*
X97696115Y-98872419D02*
X97505639Y-98872419D01*
X97505639Y-98872419D02*
X97410401Y-98920038D01*
X97410401Y-98920038D02*
X97315163Y-99015276D01*
X97315163Y-99015276D02*
X97267544Y-99205752D01*
X97267544Y-99205752D02*
X97267544Y-99539085D01*
X97267544Y-99539085D02*
X97315163Y-99729561D01*
X97315163Y-99729561D02*
X97410401Y-99824800D01*
X97410401Y-99824800D02*
X97505639Y-99872419D01*
X97505639Y-99872419D02*
X97696115Y-99872419D01*
X97696115Y-99872419D02*
X97791353Y-99824800D01*
X97791353Y-99824800D02*
X97886591Y-99729561D01*
X97886591Y-99729561D02*
X97934210Y-99539085D01*
X97934210Y-99539085D02*
X97934210Y-99205752D01*
X97934210Y-99205752D02*
X97886591Y-99015276D01*
X97886591Y-99015276D02*
X97791353Y-98920038D01*
X97791353Y-98920038D02*
X97696115Y-98872419D01*
X96267544Y-99872419D02*
X96600877Y-99396228D01*
X96838972Y-99872419D02*
X96838972Y-98872419D01*
X96838972Y-98872419D02*
X96458020Y-98872419D01*
X96458020Y-98872419D02*
X96362782Y-98920038D01*
X96362782Y-98920038D02*
X96315163Y-98967657D01*
X96315163Y-98967657D02*
X96267544Y-99062895D01*
X96267544Y-99062895D02*
X96267544Y-99205752D01*
X96267544Y-99205752D02*
X96315163Y-99300990D01*
X96315163Y-99300990D02*
X96362782Y-99348609D01*
X96362782Y-99348609D02*
X96458020Y-99396228D01*
X96458020Y-99396228D02*
X96838972Y-99396228D01*
X95886591Y-99586704D02*
X95410401Y-99586704D01*
X95981829Y-99872419D02*
X95648496Y-98872419D01*
X95648496Y-98872419D02*
X95315163Y-99872419D01*
X86172306Y-122920038D02*
X86267544Y-122872419D01*
X86267544Y-122872419D02*
X86410401Y-122872419D01*
X86410401Y-122872419D02*
X86553258Y-122920038D01*
X86553258Y-122920038D02*
X86648496Y-123015276D01*
X86648496Y-123015276D02*
X86696115Y-123110514D01*
X86696115Y-123110514D02*
X86743734Y-123300990D01*
X86743734Y-123300990D02*
X86743734Y-123443847D01*
X86743734Y-123443847D02*
X86696115Y-123634323D01*
X86696115Y-123634323D02*
X86648496Y-123729561D01*
X86648496Y-123729561D02*
X86553258Y-123824800D01*
X86553258Y-123824800D02*
X86410401Y-123872419D01*
X86410401Y-123872419D02*
X86315163Y-123872419D01*
X86315163Y-123872419D02*
X86172306Y-123824800D01*
X86172306Y-123824800D02*
X86124687Y-123777180D01*
X86124687Y-123777180D02*
X86124687Y-123443847D01*
X86124687Y-123443847D02*
X86315163Y-123443847D01*
X85696115Y-123872419D02*
X85696115Y-122872419D01*
X85696115Y-122872419D02*
X85315163Y-122872419D01*
X85315163Y-122872419D02*
X85219925Y-122920038D01*
X85219925Y-122920038D02*
X85172306Y-122967657D01*
X85172306Y-122967657D02*
X85124687Y-123062895D01*
X85124687Y-123062895D02*
X85124687Y-123205752D01*
X85124687Y-123205752D02*
X85172306Y-123300990D01*
X85172306Y-123300990D02*
X85219925Y-123348609D01*
X85219925Y-123348609D02*
X85315163Y-123396228D01*
X85315163Y-123396228D02*
X85696115Y-123396228D01*
X84743734Y-123824800D02*
X84600877Y-123872419D01*
X84600877Y-123872419D02*
X84362782Y-123872419D01*
X84362782Y-123872419D02*
X84267544Y-123824800D01*
X84267544Y-123824800D02*
X84219925Y-123777180D01*
X84219925Y-123777180D02*
X84172306Y-123681942D01*
X84172306Y-123681942D02*
X84172306Y-123586704D01*
X84172306Y-123586704D02*
X84219925Y-123491466D01*
X84219925Y-123491466D02*
X84267544Y-123443847D01*
X84267544Y-123443847D02*
X84362782Y-123396228D01*
X84362782Y-123396228D02*
X84553258Y-123348609D01*
X84553258Y-123348609D02*
X84648496Y-123300990D01*
X84648496Y-123300990D02*
X84696115Y-123253371D01*
X84696115Y-123253371D02*
X84743734Y-123158133D01*
X84743734Y-123158133D02*
X84743734Y-123062895D01*
X84743734Y-123062895D02*
X84696115Y-122967657D01*
X84696115Y-122967657D02*
X84648496Y-122920038D01*
X84648496Y-122920038D02*
X84553258Y-122872419D01*
X84553258Y-122872419D02*
X84315163Y-122872419D01*
X84315163Y-122872419D02*
X84172306Y-122920038D01*
X82981829Y-123872419D02*
X82981829Y-122872419D01*
X82981829Y-122872419D02*
X82648496Y-123586704D01*
X82648496Y-123586704D02*
X82315163Y-122872419D01*
X82315163Y-122872419D02*
X82315163Y-123872419D01*
X81696115Y-123872419D02*
X81791353Y-123824800D01*
X81791353Y-123824800D02*
X81838972Y-123777180D01*
X81838972Y-123777180D02*
X81886591Y-123681942D01*
X81886591Y-123681942D02*
X81886591Y-123396228D01*
X81886591Y-123396228D02*
X81838972Y-123300990D01*
X81838972Y-123300990D02*
X81791353Y-123253371D01*
X81791353Y-123253371D02*
X81696115Y-123205752D01*
X81696115Y-123205752D02*
X81553258Y-123205752D01*
X81553258Y-123205752D02*
X81458020Y-123253371D01*
X81458020Y-123253371D02*
X81410401Y-123300990D01*
X81410401Y-123300990D02*
X81362782Y-123396228D01*
X81362782Y-123396228D02*
X81362782Y-123681942D01*
X81362782Y-123681942D02*
X81410401Y-123777180D01*
X81410401Y-123777180D02*
X81458020Y-123824800D01*
X81458020Y-123824800D02*
X81553258Y-123872419D01*
X81553258Y-123872419D02*
X81696115Y-123872419D01*
X80505639Y-123872419D02*
X80505639Y-122872419D01*
X80505639Y-123824800D02*
X80600877Y-123872419D01*
X80600877Y-123872419D02*
X80791353Y-123872419D01*
X80791353Y-123872419D02*
X80886591Y-123824800D01*
X80886591Y-123824800D02*
X80934210Y-123777180D01*
X80934210Y-123777180D02*
X80981829Y-123681942D01*
X80981829Y-123681942D02*
X80981829Y-123396228D01*
X80981829Y-123396228D02*
X80934210Y-123300990D01*
X80934210Y-123300990D02*
X80886591Y-123253371D01*
X80886591Y-123253371D02*
X80791353Y-123205752D01*
X80791353Y-123205752D02*
X80600877Y-123205752D01*
X80600877Y-123205752D02*
X80505639Y-123253371D01*
X79600877Y-123205752D02*
X79600877Y-123872419D01*
X80029448Y-123205752D02*
X80029448Y-123729561D01*
X80029448Y-123729561D02*
X79981829Y-123824800D01*
X79981829Y-123824800D02*
X79886591Y-123872419D01*
X79886591Y-123872419D02*
X79743734Y-123872419D01*
X79743734Y-123872419D02*
X79648496Y-123824800D01*
X79648496Y-123824800D02*
X79600877Y-123777180D01*
X78981829Y-123872419D02*
X79077067Y-123824800D01*
X79077067Y-123824800D02*
X79124686Y-123729561D01*
X79124686Y-123729561D02*
X79124686Y-122872419D01*
X78219924Y-123824800D02*
X78315162Y-123872419D01*
X78315162Y-123872419D02*
X78505638Y-123872419D01*
X78505638Y-123872419D02*
X78600876Y-123824800D01*
X78600876Y-123824800D02*
X78648495Y-123729561D01*
X78648495Y-123729561D02*
X78648495Y-123348609D01*
X78648495Y-123348609D02*
X78600876Y-123253371D01*
X78600876Y-123253371D02*
X78505638Y-123205752D01*
X78505638Y-123205752D02*
X78315162Y-123205752D01*
X78315162Y-123205752D02*
X78219924Y-123253371D01*
X78219924Y-123253371D02*
X78172305Y-123348609D01*
X78172305Y-123348609D02*
X78172305Y-123443847D01*
X78172305Y-123443847D02*
X78648495Y-123539085D01*
D12*
X98261904Y-107954819D02*
X98261904Y-108764342D01*
X98261904Y-108764342D02*
X98214285Y-108859580D01*
X98214285Y-108859580D02*
X98166666Y-108907200D01*
X98166666Y-108907200D02*
X98071428Y-108954819D01*
X98071428Y-108954819D02*
X97880952Y-108954819D01*
X97880952Y-108954819D02*
X97785714Y-108907200D01*
X97785714Y-108907200D02*
X97738095Y-108859580D01*
X97738095Y-108859580D02*
X97690476Y-108764342D01*
X97690476Y-108764342D02*
X97690476Y-107954819D01*
X97309523Y-107954819D02*
X96690476Y-107954819D01*
X96690476Y-107954819D02*
X97023809Y-108335771D01*
X97023809Y-108335771D02*
X96880952Y-108335771D01*
X96880952Y-108335771D02*
X96785714Y-108383390D01*
X96785714Y-108383390D02*
X96738095Y-108431009D01*
X96738095Y-108431009D02*
X96690476Y-108526247D01*
X96690476Y-108526247D02*
X96690476Y-108764342D01*
X96690476Y-108764342D02*
X96738095Y-108859580D01*
X96738095Y-108859580D02*
X96785714Y-108907200D01*
X96785714Y-108907200D02*
X96880952Y-108954819D01*
X96880952Y-108954819D02*
X97166666Y-108954819D01*
X97166666Y-108954819D02*
X97261904Y-108907200D01*
X97261904Y-108907200D02*
X97309523Y-108859580D01*
D11*
X93261904Y-135957419D02*
X93261904Y-136766942D01*
X93261904Y-136766942D02*
X93214285Y-136862180D01*
X93214285Y-136862180D02*
X93166666Y-136909800D01*
X93166666Y-136909800D02*
X93071428Y-136957419D01*
X93071428Y-136957419D02*
X92880952Y-136957419D01*
X92880952Y-136957419D02*
X92785714Y-136909800D01*
X92785714Y-136909800D02*
X92738095Y-136862180D01*
X92738095Y-136862180D02*
X92690476Y-136766942D01*
X92690476Y-136766942D02*
X92690476Y-135957419D01*
X91785714Y-136290752D02*
X91785714Y-136957419D01*
X92023809Y-135909800D02*
X92261904Y-136624085D01*
X92261904Y-136624085D02*
X91642857Y-136624085D01*
D12*
X116785714Y-103031009D02*
X116642857Y-103078628D01*
X116642857Y-103078628D02*
X116595238Y-103126247D01*
X116595238Y-103126247D02*
X116547619Y-103221485D01*
X116547619Y-103221485D02*
X116547619Y-103364342D01*
X116547619Y-103364342D02*
X116595238Y-103459580D01*
X116595238Y-103459580D02*
X116642857Y-103507200D01*
X116642857Y-103507200D02*
X116738095Y-103554819D01*
X116738095Y-103554819D02*
X117119047Y-103554819D01*
X117119047Y-103554819D02*
X117119047Y-102554819D01*
X117119047Y-102554819D02*
X116785714Y-102554819D01*
X116785714Y-102554819D02*
X116690476Y-102602438D01*
X116690476Y-102602438D02*
X116642857Y-102650057D01*
X116642857Y-102650057D02*
X116595238Y-102745295D01*
X116595238Y-102745295D02*
X116595238Y-102840533D01*
X116595238Y-102840533D02*
X116642857Y-102935771D01*
X116642857Y-102935771D02*
X116690476Y-102983390D01*
X116690476Y-102983390D02*
X116785714Y-103031009D01*
X116785714Y-103031009D02*
X117119047Y-103031009D01*
X116261904Y-102554819D02*
X115690476Y-102554819D01*
X115976190Y-103554819D02*
X115976190Y-102554819D01*
X114833333Y-103554819D02*
X115404761Y-103554819D01*
X115119047Y-103554819D02*
X115119047Y-102554819D01*
X115119047Y-102554819D02*
X115214285Y-102697676D01*
X115214285Y-102697676D02*
X115309523Y-102792914D01*
X115309523Y-102792914D02*
X115404761Y-102840533D01*
%TO.C,U3*%
X89250000Y-100750000D02*
X105750000Y-100750000D01*
X89250000Y-101500000D02*
X89250000Y-100750000D01*
X89250000Y-117500000D02*
X89250000Y-118250000D01*
X89250000Y-118250000D02*
X105750000Y-118250000D01*
X105750000Y-100750000D02*
X105750000Y-101500000D01*
X105750000Y-118250000D02*
X105750000Y-117500000D01*
D13*
X106550000Y-101500000D02*
X106050000Y-101500000D01*
X106050000Y-101000000D01*
X106550000Y-101500000D01*
G36*
X106550000Y-101500000D02*
G01*
X106050000Y-101500000D01*
X106050000Y-101000000D01*
X106550000Y-101500000D01*
G37*
%TO.C,U4*%
X78670000Y-126090000D02*
X78670000Y-143930000D01*
X78670000Y-146530000D02*
X78670000Y-145200000D01*
X80000000Y-146530000D02*
X78670000Y-146530000D01*
X81330000Y-126090000D02*
X78670000Y-126090000D01*
X81330000Y-126090000D02*
X81330000Y-143930000D01*
X81330000Y-143930000D02*
X78670000Y-143930000D01*
D11*
X77460000Y-147740000D02*
X100320000Y-147740000D01*
X100320000Y-124880000D01*
X77460000Y-124880000D01*
X77460000Y-147740000D01*
D13*
%TO.C,BT1*%
X112940000Y-104190000D02*
X112940000Y-108910000D01*
X112940000Y-108910000D02*
X119060000Y-108910000D01*
X113550000Y-104800000D02*
X113550000Y-108300000D01*
X113550000Y-105500000D02*
X112940000Y-105500000D01*
X113550000Y-106800000D02*
X112940000Y-106800000D01*
X113550000Y-108300000D02*
X118450000Y-108300000D01*
X115500000Y-104190000D02*
X115500000Y-104800000D01*
X115500000Y-104800000D02*
X113550000Y-104800000D01*
X115900000Y-107800000D02*
X116100000Y-107800000D01*
X115900000Y-108300000D02*
X115900000Y-107800000D01*
X116000000Y-107800000D02*
X116000000Y-108300000D01*
X116100000Y-107800000D02*
X116100000Y-108300000D01*
X116500000Y-104800000D02*
X116500000Y-104190000D01*
X117300000Y-103990000D02*
X117300000Y-104190000D01*
X117600000Y-103990000D02*
X117300000Y-103990000D01*
X117600000Y-104090000D02*
X117300000Y-104090000D01*
X117600000Y-104190000D02*
X117600000Y-103990000D01*
X118450000Y-104800000D02*
X116500000Y-104800000D01*
X118450000Y-105500000D02*
X119060000Y-105500000D01*
X118450000Y-106800000D02*
X119060000Y-106800000D01*
X118450000Y-108300000D02*
X118450000Y-104800000D01*
X119060000Y-104190000D02*
X112940000Y-104190000D01*
X119060000Y-108910000D02*
X119060000Y-104190000D01*
X119360000Y-103890000D02*
X118110000Y-103890000D01*
X119360000Y-105140000D02*
X119360000Y-103890000D01*
%TD*%
M02*
