%TF.GenerationSoftware,KiCad,Pcbnew,8.0.6*%
%TF.CreationDate,2025-06-01T11:12:23+01:00*%
%TF.ProjectId,Leo_Cansat,4c656f5f-4361-46e7-9361-742e6b696361,rev?*%
%TF.SameCoordinates,Original*%
%TF.FileFunction,Copper,L4,Bot*%
%TF.FilePolarity,Positive*%
%FSLAX46Y46*%
G04 Gerber Fmt 4.6, Leading zero omitted, Abs format (unit mm)*
G04 Created by KiCad (PCBNEW 8.0.6) date 2025-06-01 11:12:23*
%MOMM*%
%LPD*%
G01*
G04 APERTURE LIST*
G04 Aperture macros list*
%AMRoundRect*
0 Rectangle with rounded corners*
0 $1 Rounding radius*
0 $2 $3 $4 $5 $6 $7 $8 $9 X,Y pos of 4 corners*
0 Add a 4 corners polygon primitive as box body*
4,1,4,$2,$3,$4,$5,$6,$7,$8,$9,$2,$3,0*
0 Add four circle primitives for the rounded corners*
1,1,$1+$1,$2,$3*
1,1,$1+$1,$4,$5*
1,1,$1+$1,$6,$7*
1,1,$1+$1,$8,$9*
0 Add four rect primitives between the rounded corners*
20,1,$1+$1,$2,$3,$4,$5,0*
20,1,$1+$1,$4,$5,$6,$7,0*
20,1,$1+$1,$6,$7,$8,$9,0*
20,1,$1+$1,$8,$9,$2,$3,0*%
G04 Aperture macros list end*
%TA.AperFunction,ComponentPad*%
%ADD10C,2.000000*%
%TD*%
%TA.AperFunction,ComponentPad*%
%ADD11R,1.524000X1.524000*%
%TD*%
%TA.AperFunction,ComponentPad*%
%ADD12C,1.524000*%
%TD*%
%TA.AperFunction,ComponentPad*%
%ADD13C,4.400000*%
%TD*%
%TA.AperFunction,ComponentPad*%
%ADD14O,2.844800X1.422400*%
%TD*%
%TA.AperFunction,ComponentPad*%
%ADD15C,2.200000*%
%TD*%
%TA.AperFunction,ComponentPad*%
%ADD16C,1.500000*%
%TD*%
%TA.AperFunction,ComponentPad*%
%ADD17C,3.500000*%
%TD*%
%TA.AperFunction,ComponentPad*%
%ADD18C,1.778000*%
%TD*%
%TA.AperFunction,ComponentPad*%
%ADD19O,1.700000X1.700000*%
%TD*%
%TA.AperFunction,ComponentPad*%
%ADD20R,1.700000X1.700000*%
%TD*%
%TA.AperFunction,SMDPad,CuDef*%
%ADD21R,2.000000X1.500000*%
%TD*%
%TA.AperFunction,ComponentPad*%
%ADD22RoundRect,0.250000X0.350000X0.625000X-0.350000X0.625000X-0.350000X-0.625000X0.350000X-0.625000X0*%
%TD*%
%TA.AperFunction,ComponentPad*%
%ADD23O,1.200000X1.750000*%
%TD*%
%TA.AperFunction,ViaPad*%
%ADD24C,0.600000*%
%TD*%
%TA.AperFunction,Conductor*%
%ADD25C,0.200000*%
%TD*%
G04 APERTURE END LIST*
D10*
%TO.P,U7,1*%
%TO.N,N/C*%
X129042500Y-168082500D03*
%TO.P,U7,2,GND*%
%TO.N,GND*%
X129042500Y-165542500D03*
%TO.P,U7,3,3V3*%
%TO.N,+3V3*%
X129042500Y-163002500D03*
%TO.P,U7,4,MOSI*%
%TO.N,/MOSI*%
X129042500Y-160462500D03*
%TO.P,U7,5,MISO*%
%TO.N,/MISO*%
X129042500Y-157922500D03*
%TO.P,U7,6,SCK*%
%TO.N,/SCK*%
X129042500Y-155382500D03*
%TO.P,U7,7*%
%TO.N,N/C*%
X129042500Y-152842500D03*
%TO.P,U7,8*%
X113802500Y-168082500D03*
%TO.P,U7,9*%
X113802500Y-165542500D03*
%TO.P,U7,10*%
X113802500Y-163002500D03*
%TO.P,U7,11*%
X113802500Y-160462500D03*
%TO.P,U7,12*%
X113802500Y-157922500D03*
%TO.P,U7,13*%
X113802500Y-155382500D03*
%TO.P,U7,14,CS*%
%TO.N,/SDCS*%
X113802500Y-152842500D03*
%TD*%
D11*
%TO.P,U5,4,VCC*%
%TO.N,+3V3*%
X126080000Y-146810000D03*
D12*
%TO.P,U5,3,SDA*%
%TO.N,/SDA*%
X126080000Y-144270000D03*
%TO.P,U5,2,GND*%
%TO.N,GND*%
X126080000Y-141730000D03*
%TO.P,U5,1,SCL*%
%TO.N,/SCL*%
X126080000Y-139190000D03*
%TD*%
D13*
%TO.P,H4,1,1*%
%TO.N,GND*%
X132000000Y-172000000D03*
%TD*%
D14*
%TO.P,U2,P$1,5V*%
%TO.N,unconnected-(U2-5V-PadP$1)*%
X86570000Y-81770000D03*
%TO.P,U2,P$2,GND*%
%TO.N,GND*%
X86570000Y-84310000D03*
%TO.P,U2,P$3,IO12*%
%TO.N,unconnected-(U2-IO12-PadP$3)*%
X86570000Y-86850000D03*
%TO.P,U2,P$4,IO13*%
%TO.N,unconnected-(U2-IO13-PadP$4)*%
X86570000Y-89390000D03*
%TO.P,U2,P$5,IO15*%
%TO.N,unconnected-(U2-IO15-PadP$5)*%
X86570000Y-91930000D03*
%TO.P,U2,P$6,IO14*%
%TO.N,unconnected-(U2-IO14-PadP$6)*%
X86570000Y-94470000D03*
%TO.P,U2,P$7,IO2*%
%TO.N,unconnected-(U2-IO2-PadP$7)*%
X86570000Y-97010000D03*
%TO.P,U2,P$8,IO4*%
%TO.N,unconnected-(U2-IO4-PadP$8)*%
X86570000Y-99550000D03*
%TO.P,U2,P$9,.GND*%
%TO.N,unconnected-(U2-.GND-PadP$9)*%
X109430000Y-99550000D03*
%TO.P,U2,P$10,IO1/U0T*%
%TO.N,unconnected-(U2-IO1{slash}U0T-PadP$10)*%
X109430000Y-97010000D03*
%TO.P,U2,P$11,IO3/U0R*%
%TO.N,unconnected-(U2-IO3{slash}U0R-PadP$11)*%
X109430000Y-94470000D03*
%TO.P,U2,P$12,3V3.*%
%TO.N,unconnected-(U2-3V3.-PadP$12)*%
X109430000Y-91930000D03*
%TO.P,U2,P$13,GND.*%
%TO.N,unconnected-(U2-GND.-PadP$13)*%
X109430000Y-89390000D03*
%TO.P,U2,P$14,IO0*%
%TO.N,unconnected-(U2-IO0-PadP$14)*%
X109430000Y-86850000D03*
%TO.P,U2,P$15,IO16*%
%TO.N,unconnected-(U2-IO16-PadP$15)*%
X109430000Y-84310000D03*
%TO.P,U2,P$16,3V3*%
%TO.N,+3V3*%
X109430000Y-81770000D03*
%TD*%
D15*
%TO.P,SW1,*%
%TO.N,*%
X130800000Y-106000000D03*
X122200000Y-106000000D03*
D16*
%TO.P,SW1,1,A*%
%TO.N,Net-(SW1-A)*%
X128500000Y-106000000D03*
%TO.P,SW1,2,B*%
%TO.N,Net-(BT1-+)*%
X126500000Y-106000000D03*
%TO.P,SW1,3,C*%
%TO.N,unconnected-(SW1-C-Pad3)*%
X124500000Y-106000000D03*
%TD*%
D13*
%TO.P,H1,1,1*%
%TO.N,GND*%
X78500000Y-78000000D03*
%TD*%
D17*
%TO.P,U6,*%
%TO.N,*%
X116305000Y-113210000D03*
X116305000Y-133530000D03*
X129005000Y-113210000D03*
X129005000Y-133530000D03*
D18*
%TO.P,U6,1,CS*%
%TO.N,/IMUCS*%
X129005000Y-129720000D03*
%TO.P,U6,2,SDO*%
%TO.N,/MISO*%
X129005000Y-127180000D03*
%TO.P,U6,3,GND*%
%TO.N,GND*%
X129005000Y-124640000D03*
%TO.P,U6,4,AC*%
%TO.N,unconnected-(U6-AC-Pad4)*%
X129005000Y-122100000D03*
%TO.P,U6,5,AD*%
%TO.N,unconnected-(U6-AD-Pad5)*%
X129005000Y-119560000D03*
%TO.P,U6,6,FS*%
%TO.N,unconnected-(U6-FS-Pad6)*%
X129005000Y-117020000D03*
%TO.P,U6,7,VIN*%
%TO.N,+3V3*%
X116305000Y-117020000D03*
%TO.P,U6,8,1V8*%
%TO.N,unconnected-(U6-1V8-Pad8)*%
X116305000Y-119560000D03*
%TO.P,U6,9,GND*%
%TO.N,unconnected-(U6-GND-Pad9)*%
X116305000Y-122100000D03*
%TO.P,U6,10,SCL*%
%TO.N,/SCK*%
X116305000Y-124640000D03*
%TO.P,U6,11,SDA*%
%TO.N,/MOSI*%
X116305000Y-127180000D03*
%TO.P,U6,12,INT*%
%TO.N,unconnected-(U6-INT-Pad12)*%
X116305000Y-129720000D03*
%TD*%
D13*
%TO.P,H3,1,1*%
%TO.N,GND*%
X78500000Y-172000000D03*
%TD*%
D19*
%TO.P,U1,1,GPIO0*%
%TO.N,unconnected-(U1-GPIO0-Pad1)*%
X106500000Y-171980000D03*
%TO.P,U1,2,GPIO1*%
%TO.N,unconnected-(U1-GPIO1-Pad2)*%
X106500000Y-169440000D03*
D20*
%TO.P,U1,3,GND*%
%TO.N,GND*%
X106500000Y-166900000D03*
D19*
%TO.P,U1,4,GPIO2*%
%TO.N,unconnected-(U1-GPIO2-Pad4)*%
X106500000Y-164360000D03*
%TO.P,U1,5,GPIO3*%
%TO.N,unconnected-(U1-GPIO3-Pad5)*%
X106500000Y-161820000D03*
%TO.P,U1,6,GPIO4*%
%TO.N,/SDA*%
X106500000Y-159280000D03*
%TO.P,U1,7,GPIO5*%
%TO.N,/SCL*%
X106500000Y-156740000D03*
D20*
%TO.P,U1,8,GND*%
%TO.N,GND*%
X106500000Y-154200000D03*
D19*
%TO.P,U1,9,GPIO6*%
%TO.N,/SDCS*%
X106500000Y-151660000D03*
%TO.P,U1,10,GPIO7*%
%TO.N,unconnected-(U1-GPIO7-Pad10)*%
X106500000Y-149120000D03*
%TO.P,U1,11,GPIO8*%
%TO.N,unconnected-(U1-GPIO8-Pad11)*%
X106500000Y-146580000D03*
%TO.P,U1,12,GPIO9*%
%TO.N,unconnected-(U1-GPIO9-Pad12)*%
X106500000Y-144040000D03*
D20*
%TO.P,U1,13,GND*%
%TO.N,GND*%
X106500000Y-141500000D03*
D19*
%TO.P,U1,14,GPIO10*%
%TO.N,unconnected-(U1-GPIO10-Pad14)*%
X106500000Y-138960000D03*
%TO.P,U1,15,GPIO11*%
%TO.N,/IMUCS*%
X106500000Y-136420000D03*
%TO.P,U1,16,GPIO12*%
%TO.N,unconnected-(U1-GPIO12-Pad16)*%
X106500000Y-133880000D03*
%TO.P,U1,17,GPIO13*%
%TO.N,unconnected-(U1-GPIO13-Pad17)*%
X106500000Y-131340000D03*
D20*
%TO.P,U1,18,GND*%
%TO.N,GND*%
X106500000Y-128800000D03*
D19*
%TO.P,U1,19,GPIO14*%
%TO.N,unconnected-(U1-GPIO14-Pad19)*%
X106500000Y-126260000D03*
%TO.P,U1,20,GPIO15*%
%TO.N,/LORACS*%
X106500000Y-123720000D03*
%TO.P,U1,21,GPIO16*%
%TO.N,/MISO*%
X88720000Y-123720000D03*
%TO.P,U1,22,GPIO17*%
%TO.N,unconnected-(U1-GPIO17-Pad22)*%
X88720000Y-126260000D03*
D20*
%TO.P,U1,23,GND*%
%TO.N,GND*%
X88720000Y-128800000D03*
D19*
%TO.P,U1,24,GPIO18*%
%TO.N,/SCK*%
X88720000Y-131340000D03*
%TO.P,U1,25,GPIO19*%
%TO.N,/MOSI*%
X88720000Y-133880000D03*
%TO.P,U1,26,GPIO20*%
%TO.N,unconnected-(U1-GPIO20-Pad26)*%
X88720000Y-136420000D03*
%TO.P,U1,27,GPIO21*%
%TO.N,unconnected-(U1-GPIO21-Pad27)*%
X88720000Y-138960000D03*
D20*
%TO.P,U1,28,GND*%
%TO.N,GND*%
X88720000Y-141500000D03*
D19*
%TO.P,U1,29,GPIO22*%
%TO.N,unconnected-(U1-GPIO22-Pad29)*%
X88720000Y-144040000D03*
%TO.P,U1,30,RUN*%
%TO.N,unconnected-(U1-RUN-Pad30)*%
X88720000Y-146580000D03*
%TO.P,U1,31,GPIO26_ADC0*%
%TO.N,unconnected-(U1-GPIO26_ADC0-Pad31)*%
X88720000Y-149120000D03*
%TO.P,U1,32,GPIO27_ADC1*%
%TO.N,unconnected-(U1-GPIO27_ADC1-Pad32)*%
X88720000Y-151660000D03*
D20*
%TO.P,U1,33,AGND*%
%TO.N,unconnected-(U1-AGND-Pad33)*%
X88720000Y-154200000D03*
D19*
%TO.P,U1,34,GPIO28_ADC2*%
%TO.N,unconnected-(U1-GPIO28_ADC2-Pad34)*%
X88720000Y-156740000D03*
%TO.P,U1,35,ADC_VREF*%
%TO.N,unconnected-(U1-ADC_VREF-Pad35)*%
X88720000Y-159280000D03*
%TO.P,U1,36,3V3*%
%TO.N,+3V3*%
X88720000Y-161820000D03*
%TO.P,U1,37,3V3_EN*%
%TO.N,unconnected-(U1-3V3_EN-Pad37)*%
X88720000Y-164360000D03*
D20*
%TO.P,U1,38,GND*%
%TO.N,GND*%
X88720000Y-166900000D03*
D19*
%TO.P,U1,39,VSYS*%
%TO.N,Net-(SW1-A)*%
X88720000Y-169440000D03*
%TO.P,U1,40,VBUS*%
%TO.N,unconnected-(U1-VBUS-Pad40)*%
X88720000Y-171980000D03*
%TO.P,U1,41,SWCLK*%
%TO.N,unconnected-(U1-SWCLK-Pad41)*%
X100150000Y-123950000D03*
D20*
%TO.P,U1,42,GND*%
%TO.N,GND*%
X97610000Y-123950000D03*
D19*
%TO.P,U1,43,SWDIO*%
%TO.N,unconnected-(U1-SWDIO-Pad43)*%
X95070000Y-123950000D03*
%TD*%
D13*
%TO.P,H2,1,1*%
%TO.N,GND*%
X132000000Y-78000000D03*
%TD*%
D21*
%TO.P,U3,1,ANT*%
%TO.N,unconnected-(U3-ANT-Pad1)*%
X105500000Y-102500000D03*
%TO.P,U3,2,GND*%
%TO.N,GND*%
X105500000Y-104500000D03*
%TO.P,U3,3,VDD*%
%TO.N,+3V3*%
X105500000Y-106500000D03*
%TO.P,U3,4,~{RESET}*%
%TO.N,unconnected-(U3-~{RESET}-Pad4)*%
X105500000Y-108500000D03*
%TO.P,U3,5,DIO0*%
%TO.N,unconnected-(U3-DIO0-Pad5)*%
X105500000Y-110500000D03*
%TO.P,U3,6,DIO1*%
%TO.N,unconnected-(U3-DIO1-Pad6)*%
X105500000Y-112500000D03*
%TO.P,U3,7,DIO2*%
%TO.N,unconnected-(U3-DIO2-Pad7)*%
X105500000Y-114500000D03*
%TO.P,U3,8,DIO3*%
%TO.N,unconnected-(U3-DIO3-Pad8)*%
X105500000Y-116500000D03*
%TO.P,U3,9,GND*%
%TO.N,GND*%
X89500000Y-116500000D03*
%TO.P,U3,10,DIO4*%
%TO.N,unconnected-(U3-DIO4-Pad10)*%
X89500000Y-114500000D03*
%TO.P,U3,11,DIO5*%
%TO.N,unconnected-(U3-DIO5-Pad11)*%
X89500000Y-112500000D03*
%TO.P,U3,12,SCK*%
%TO.N,/SCK*%
X89500000Y-110500000D03*
%TO.P,U3,13,MISO*%
%TO.N,/MISO*%
X89500000Y-108500000D03*
%TO.P,U3,14,MOSI*%
%TO.N,/MOSI*%
X89500000Y-106500000D03*
%TO.P,U3,15,~{NSS}*%
%TO.N,/LORACS*%
X89500000Y-104500000D03*
%TO.P,U3,16,GND*%
%TO.N,GND*%
X89500000Y-102500000D03*
%TD*%
D20*
%TO.P,U4,1,SDA*%
%TO.N,/SDA*%
X80000000Y-145200000D03*
D19*
%TO.P,U4,2,SCL*%
%TO.N,/SCL*%
X80000000Y-142660000D03*
%TO.P,U4,3,TXD*%
%TO.N,unconnected-(U4-TXD-Pad3)*%
X80000000Y-140120000D03*
%TO.P,U4,4,RXD*%
%TO.N,unconnected-(U4-RXD-Pad4)*%
X80000000Y-137580000D03*
%TO.P,U4,5,TIMEPULSE*%
%TO.N,unconnected-(U4-TIMEPULSE-Pad5)*%
X80000000Y-135040000D03*
%TO.P,U4,6,NC*%
%TO.N,unconnected-(U4-NC-Pad6)*%
X80000000Y-132500000D03*
%TO.P,U4,7,GND*%
%TO.N,GND*%
X80000000Y-129960000D03*
%TO.P,U4,8,VCC*%
%TO.N,+3V3*%
X80000000Y-127420000D03*
%TD*%
D22*
%TO.P,BT1,1,+*%
%TO.N,Net-(BT1-+)*%
X117000000Y-106000000D03*
D23*
%TO.P,BT1,2,-*%
%TO.N,GND*%
X115000000Y-106000000D03*
%TD*%
D24*
%TO.N,GND*%
X105500000Y-104500000D03*
X89500000Y-102500000D03*
X89500000Y-116500000D03*
%TO.N,+3V3*%
X105500000Y-106500000D03*
%TD*%
D25*
%TO.N,/MOSI*%
X128542500Y-159962500D02*
X128542500Y-161212500D01*
X126000000Y-153500000D02*
X126000000Y-157420000D01*
X129500000Y-150000000D02*
X126000000Y-153500000D01*
X129500000Y-140375000D02*
X129500000Y-150000000D01*
X126000000Y-157420000D02*
X128542500Y-159962500D01*
X116305000Y-127180000D02*
X129500000Y-140375000D01*
%TO.N,/SCK*%
X132080000Y-152345000D02*
X129042500Y-155382500D01*
X132080000Y-140415000D02*
X132080000Y-152345000D01*
X116305000Y-124640000D02*
X132080000Y-140415000D01*
%TO.N,/SCL*%
X124050000Y-139190000D02*
X106500000Y-156740000D01*
X126000000Y-139190000D02*
X124050000Y-139190000D01*
%TO.N,/SDA*%
X111250000Y-154530000D02*
X106500000Y-159280000D01*
X119980000Y-144270000D02*
X111250000Y-153000000D01*
X111250000Y-153000000D02*
X111250000Y-154530000D01*
X126080000Y-144270000D02*
X119980000Y-144270000D01*
X106500000Y-158500000D02*
X106500000Y-159280000D01*
%TO.N,/MISO*%
X88720000Y-123720000D02*
X91500000Y-120940000D01*
X91500000Y-120940000D02*
X91500000Y-110250000D01*
X89750000Y-108500000D02*
X89500000Y-108500000D01*
X91500000Y-110250000D02*
X89750000Y-108500000D01*
%TO.N,/SCK*%
X87000000Y-112650000D02*
X87000000Y-129620000D01*
X89150000Y-110500000D02*
X87000000Y-112650000D01*
X87000000Y-129620000D02*
X88720000Y-131340000D01*
X89500000Y-110500000D02*
X89150000Y-110500000D01*
%TO.N,/MOSI*%
X89250000Y-106500000D02*
X89500000Y-106500000D01*
X88720000Y-133880000D02*
X86000000Y-131160000D01*
X86000000Y-109750000D02*
X89250000Y-106500000D01*
X86000000Y-131160000D02*
X86000000Y-109750000D01*
X88720000Y-133880000D02*
X89919138Y-132680862D01*
X89919138Y-132680862D02*
X110804138Y-132680862D01*
X110804138Y-132680862D02*
X116305000Y-127180000D01*
%TO.N,/SDA*%
X85943654Y-158130000D02*
X105350000Y-158130000D01*
X105350000Y-158130000D02*
X106500000Y-159280000D01*
X80000000Y-145200000D02*
X80000000Y-152186346D01*
X80000000Y-152186346D02*
X85943654Y-158130000D01*
%TO.N,/SCL*%
X80000000Y-142660000D02*
X80160000Y-142660000D01*
X88010000Y-150510000D02*
X100270000Y-150510000D01*
X80160000Y-142660000D02*
X88010000Y-150510000D01*
X100270000Y-150510000D02*
X106500000Y-156740000D01*
%TO.N,/LORACS*%
X106500000Y-121150000D02*
X106500000Y-123720000D01*
X89850000Y-104500000D02*
X106500000Y-121150000D01*
X89500000Y-104500000D02*
X89850000Y-104500000D01*
%TD*%
M02*
