%TF.GenerationSoftware,KiCad,Pcbnew,8.0.6*%
%TF.CreationDate,2025-06-01T11:12:23+01:00*%
%TF.ProjectId,Leo_Cansat,4c656f5f-4361-46e7-9361-742e6b696361,rev?*%
%TF.SameCoordinates,Original*%
%TF.FileFunction,Legend,Top*%
%TF.FilePolarity,Positive*%
%FSLAX46Y46*%
G04 Gerber Fmt 4.6, Leading zero omitted, Abs format (unit mm)*
G04 Created by KiCad (PCBNEW 8.0.6) date 2025-06-01 11:12:23*
%MOMM*%
%LPD*%
G01*
G04 APERTURE LIST*
%ADD10C,0.100000*%
%ADD11C,0.150000*%
%ADD12C,0.127000*%
%ADD13C,0.120000*%
G04 APERTURE END LIST*
D10*
X132627580Y-122303884D02*
X133627580Y-122303884D01*
X132627580Y-122780074D02*
X133627580Y-122780074D01*
X133627580Y-122780074D02*
X132913295Y-123113407D01*
X132913295Y-123113407D02*
X133627580Y-123446740D01*
X133627580Y-123446740D02*
X132627580Y-123446740D01*
X133627580Y-123922931D02*
X132818057Y-123922931D01*
X132818057Y-123922931D02*
X132722819Y-123970550D01*
X132722819Y-123970550D02*
X132675200Y-124018169D01*
X132675200Y-124018169D02*
X132627580Y-124113407D01*
X132627580Y-124113407D02*
X132627580Y-124303883D01*
X132627580Y-124303883D02*
X132675200Y-124399121D01*
X132675200Y-124399121D02*
X132722819Y-124446740D01*
X132722819Y-124446740D02*
X132818057Y-124494359D01*
X132818057Y-124494359D02*
X133627580Y-124494359D01*
X80372419Y-163624687D02*
X79896228Y-163958020D01*
X80372419Y-164196115D02*
X79372419Y-164196115D01*
X79372419Y-164196115D02*
X79372419Y-163815163D01*
X79372419Y-163815163D02*
X79420038Y-163719925D01*
X79420038Y-163719925D02*
X79467657Y-163672306D01*
X79467657Y-163672306D02*
X79562895Y-163624687D01*
X79562895Y-163624687D02*
X79705752Y-163624687D01*
X79705752Y-163624687D02*
X79800990Y-163672306D01*
X79800990Y-163672306D02*
X79848609Y-163719925D01*
X79848609Y-163719925D02*
X79896228Y-163815163D01*
X79896228Y-163815163D02*
X79896228Y-164196115D01*
X80372419Y-162767544D02*
X79848609Y-162767544D01*
X79848609Y-162767544D02*
X79753371Y-162815163D01*
X79753371Y-162815163D02*
X79705752Y-162910401D01*
X79705752Y-162910401D02*
X79705752Y-163100877D01*
X79705752Y-163100877D02*
X79753371Y-163196115D01*
X80324800Y-162767544D02*
X80372419Y-162862782D01*
X80372419Y-162862782D02*
X80372419Y-163100877D01*
X80372419Y-163100877D02*
X80324800Y-163196115D01*
X80324800Y-163196115D02*
X80229561Y-163243734D01*
X80229561Y-163243734D02*
X80134323Y-163243734D01*
X80134323Y-163243734D02*
X80039085Y-163196115D01*
X80039085Y-163196115D02*
X79991466Y-163100877D01*
X79991466Y-163100877D02*
X79991466Y-162862782D01*
X79991466Y-162862782D02*
X79943847Y-162767544D01*
X80324800Y-162338972D02*
X80372419Y-162243734D01*
X80372419Y-162243734D02*
X80372419Y-162053258D01*
X80372419Y-162053258D02*
X80324800Y-161958020D01*
X80324800Y-161958020D02*
X80229561Y-161910401D01*
X80229561Y-161910401D02*
X80181942Y-161910401D01*
X80181942Y-161910401D02*
X80086704Y-161958020D01*
X80086704Y-161958020D02*
X80039085Y-162053258D01*
X80039085Y-162053258D02*
X80039085Y-162196115D01*
X80039085Y-162196115D02*
X79991466Y-162291353D01*
X79991466Y-162291353D02*
X79896228Y-162338972D01*
X79896228Y-162338972D02*
X79848609Y-162338972D01*
X79848609Y-162338972D02*
X79753371Y-162291353D01*
X79753371Y-162291353D02*
X79705752Y-162196115D01*
X79705752Y-162196115D02*
X79705752Y-162053258D01*
X79705752Y-162053258D02*
X79753371Y-161958020D01*
X79705752Y-161481829D02*
X80705752Y-161481829D01*
X79753371Y-161481829D02*
X79705752Y-161386591D01*
X79705752Y-161386591D02*
X79705752Y-161196115D01*
X79705752Y-161196115D02*
X79753371Y-161100877D01*
X79753371Y-161100877D02*
X79800990Y-161053258D01*
X79800990Y-161053258D02*
X79896228Y-161005639D01*
X79896228Y-161005639D02*
X80181942Y-161005639D01*
X80181942Y-161005639D02*
X80277180Y-161053258D01*
X80277180Y-161053258D02*
X80324800Y-161100877D01*
X80324800Y-161100877D02*
X80372419Y-161196115D01*
X80372419Y-161196115D02*
X80372419Y-161386591D01*
X80372419Y-161386591D02*
X80324800Y-161481829D01*
X80372419Y-160577067D02*
X79372419Y-160577067D01*
X79753371Y-160577067D02*
X79705752Y-160481829D01*
X79705752Y-160481829D02*
X79705752Y-160291353D01*
X79705752Y-160291353D02*
X79753371Y-160196115D01*
X79753371Y-160196115D02*
X79800990Y-160148496D01*
X79800990Y-160148496D02*
X79896228Y-160100877D01*
X79896228Y-160100877D02*
X80181942Y-160100877D01*
X80181942Y-160100877D02*
X80277180Y-160148496D01*
X80277180Y-160148496D02*
X80324800Y-160196115D01*
X80324800Y-160196115D02*
X80372419Y-160291353D01*
X80372419Y-160291353D02*
X80372419Y-160481829D01*
X80372419Y-160481829D02*
X80324800Y-160577067D01*
X80324800Y-159291353D02*
X80372419Y-159386591D01*
X80372419Y-159386591D02*
X80372419Y-159577067D01*
X80372419Y-159577067D02*
X80324800Y-159672305D01*
X80324800Y-159672305D02*
X80229561Y-159719924D01*
X80229561Y-159719924D02*
X79848609Y-159719924D01*
X79848609Y-159719924D02*
X79753371Y-159672305D01*
X79753371Y-159672305D02*
X79705752Y-159577067D01*
X79705752Y-159577067D02*
X79705752Y-159386591D01*
X79705752Y-159386591D02*
X79753371Y-159291353D01*
X79753371Y-159291353D02*
X79848609Y-159243734D01*
X79848609Y-159243734D02*
X79943847Y-159243734D01*
X79943847Y-159243734D02*
X80039085Y-159719924D01*
X80372419Y-158815162D02*
X79705752Y-158815162D01*
X79896228Y-158815162D02*
X79800990Y-158767543D01*
X79800990Y-158767543D02*
X79753371Y-158719924D01*
X79753371Y-158719924D02*
X79705752Y-158624686D01*
X79705752Y-158624686D02*
X79705752Y-158529448D01*
X80372419Y-158196114D02*
X79705752Y-158196114D01*
X79896228Y-158196114D02*
X79800990Y-158148495D01*
X79800990Y-158148495D02*
X79753371Y-158100876D01*
X79753371Y-158100876D02*
X79705752Y-158005638D01*
X79705752Y-158005638D02*
X79705752Y-157910400D01*
X79705752Y-157672304D02*
X80372419Y-157434209D01*
X79705752Y-157196114D02*
X80372419Y-157434209D01*
X80372419Y-157434209D02*
X80610514Y-157529447D01*
X80610514Y-157529447D02*
X80658133Y-157577066D01*
X80658133Y-157577066D02*
X80705752Y-157672304D01*
X80372419Y-156053256D02*
X79372419Y-156053256D01*
X79372419Y-156053256D02*
X79372419Y-155672304D01*
X79372419Y-155672304D02*
X79420038Y-155577066D01*
X79420038Y-155577066D02*
X79467657Y-155529447D01*
X79467657Y-155529447D02*
X79562895Y-155481828D01*
X79562895Y-155481828D02*
X79705752Y-155481828D01*
X79705752Y-155481828D02*
X79800990Y-155529447D01*
X79800990Y-155529447D02*
X79848609Y-155577066D01*
X79848609Y-155577066D02*
X79896228Y-155672304D01*
X79896228Y-155672304D02*
X79896228Y-156053256D01*
X80372419Y-155053256D02*
X79705752Y-155053256D01*
X79372419Y-155053256D02*
X79420038Y-155100875D01*
X79420038Y-155100875D02*
X79467657Y-155053256D01*
X79467657Y-155053256D02*
X79420038Y-155005637D01*
X79420038Y-155005637D02*
X79372419Y-155053256D01*
X79372419Y-155053256D02*
X79467657Y-155053256D01*
X80372419Y-153815161D02*
X79372419Y-153815161D01*
X79372419Y-153815161D02*
X79372419Y-153434209D01*
X79372419Y-153434209D02*
X79420038Y-153338971D01*
X79420038Y-153338971D02*
X79467657Y-153291352D01*
X79467657Y-153291352D02*
X79562895Y-153243733D01*
X79562895Y-153243733D02*
X79705752Y-153243733D01*
X79705752Y-153243733D02*
X79800990Y-153291352D01*
X79800990Y-153291352D02*
X79848609Y-153338971D01*
X79848609Y-153338971D02*
X79896228Y-153434209D01*
X79896228Y-153434209D02*
X79896228Y-153815161D01*
X80372419Y-152815161D02*
X79705752Y-152815161D01*
X79372419Y-152815161D02*
X79420038Y-152862780D01*
X79420038Y-152862780D02*
X79467657Y-152815161D01*
X79467657Y-152815161D02*
X79420038Y-152767542D01*
X79420038Y-152767542D02*
X79372419Y-152815161D01*
X79372419Y-152815161D02*
X79467657Y-152815161D01*
X80324800Y-151910400D02*
X80372419Y-152005638D01*
X80372419Y-152005638D02*
X80372419Y-152196114D01*
X80372419Y-152196114D02*
X80324800Y-152291352D01*
X80324800Y-152291352D02*
X80277180Y-152338971D01*
X80277180Y-152338971D02*
X80181942Y-152386590D01*
X80181942Y-152386590D02*
X79896228Y-152386590D01*
X79896228Y-152386590D02*
X79800990Y-152338971D01*
X79800990Y-152338971D02*
X79753371Y-152291352D01*
X79753371Y-152291352D02*
X79705752Y-152196114D01*
X79705752Y-152196114D02*
X79705752Y-152005638D01*
X79705752Y-152005638D02*
X79753371Y-151910400D01*
X80372419Y-151338971D02*
X80324800Y-151434209D01*
X80324800Y-151434209D02*
X80277180Y-151481828D01*
X80277180Y-151481828D02*
X80181942Y-151529447D01*
X80181942Y-151529447D02*
X79896228Y-151529447D01*
X79896228Y-151529447D02*
X79800990Y-151481828D01*
X79800990Y-151481828D02*
X79753371Y-151434209D01*
X79753371Y-151434209D02*
X79705752Y-151338971D01*
X79705752Y-151338971D02*
X79705752Y-151196114D01*
X79705752Y-151196114D02*
X79753371Y-151100876D01*
X79753371Y-151100876D02*
X79800990Y-151053257D01*
X79800990Y-151053257D02*
X79896228Y-151005638D01*
X79896228Y-151005638D02*
X80181942Y-151005638D01*
X80181942Y-151005638D02*
X80277180Y-151053257D01*
X80277180Y-151053257D02*
X80324800Y-151100876D01*
X80324800Y-151100876D02*
X80372419Y-151196114D01*
X80372419Y-151196114D02*
X80372419Y-151338971D01*
X79467657Y-149862780D02*
X79420038Y-149815161D01*
X79420038Y-149815161D02*
X79372419Y-149719923D01*
X79372419Y-149719923D02*
X79372419Y-149481828D01*
X79372419Y-149481828D02*
X79420038Y-149386590D01*
X79420038Y-149386590D02*
X79467657Y-149338971D01*
X79467657Y-149338971D02*
X79562895Y-149291352D01*
X79562895Y-149291352D02*
X79658133Y-149291352D01*
X79658133Y-149291352D02*
X79800990Y-149338971D01*
X79800990Y-149338971D02*
X80372419Y-149910399D01*
X80372419Y-149910399D02*
X80372419Y-149291352D01*
X132175200Y-158256265D02*
X132127580Y-158399122D01*
X132127580Y-158399122D02*
X132127580Y-158637217D01*
X132127580Y-158637217D02*
X132175200Y-158732455D01*
X132175200Y-158732455D02*
X132222819Y-158780074D01*
X132222819Y-158780074D02*
X132318057Y-158827693D01*
X132318057Y-158827693D02*
X132413295Y-158827693D01*
X132413295Y-158827693D02*
X132508533Y-158780074D01*
X132508533Y-158780074D02*
X132556152Y-158732455D01*
X132556152Y-158732455D02*
X132603771Y-158637217D01*
X132603771Y-158637217D02*
X132651390Y-158446741D01*
X132651390Y-158446741D02*
X132699009Y-158351503D01*
X132699009Y-158351503D02*
X132746628Y-158303884D01*
X132746628Y-158303884D02*
X132841866Y-158256265D01*
X132841866Y-158256265D02*
X132937104Y-158256265D01*
X132937104Y-158256265D02*
X133032342Y-158303884D01*
X133032342Y-158303884D02*
X133079961Y-158351503D01*
X133079961Y-158351503D02*
X133127580Y-158446741D01*
X133127580Y-158446741D02*
X133127580Y-158684836D01*
X133127580Y-158684836D02*
X133079961Y-158827693D01*
X132127580Y-159256265D02*
X133127580Y-159256265D01*
X133127580Y-159256265D02*
X133127580Y-159494360D01*
X133127580Y-159494360D02*
X133079961Y-159637217D01*
X133079961Y-159637217D02*
X132984723Y-159732455D01*
X132984723Y-159732455D02*
X132889485Y-159780074D01*
X132889485Y-159780074D02*
X132699009Y-159827693D01*
X132699009Y-159827693D02*
X132556152Y-159827693D01*
X132556152Y-159827693D02*
X132365676Y-159780074D01*
X132365676Y-159780074D02*
X132270438Y-159732455D01*
X132270438Y-159732455D02*
X132175200Y-159637217D01*
X132175200Y-159637217D02*
X132127580Y-159494360D01*
X132127580Y-159494360D02*
X132127580Y-159256265D01*
X132222819Y-161589598D02*
X132175200Y-161541979D01*
X132175200Y-161541979D02*
X132127580Y-161399122D01*
X132127580Y-161399122D02*
X132127580Y-161303884D01*
X132127580Y-161303884D02*
X132175200Y-161161027D01*
X132175200Y-161161027D02*
X132270438Y-161065789D01*
X132270438Y-161065789D02*
X132365676Y-161018170D01*
X132365676Y-161018170D02*
X132556152Y-160970551D01*
X132556152Y-160970551D02*
X132699009Y-160970551D01*
X132699009Y-160970551D02*
X132889485Y-161018170D01*
X132889485Y-161018170D02*
X132984723Y-161065789D01*
X132984723Y-161065789D02*
X133079961Y-161161027D01*
X133079961Y-161161027D02*
X133127580Y-161303884D01*
X133127580Y-161303884D02*
X133127580Y-161399122D01*
X133127580Y-161399122D02*
X133079961Y-161541979D01*
X133079961Y-161541979D02*
X133032342Y-161589598D01*
X132127580Y-162446741D02*
X132651390Y-162446741D01*
X132651390Y-162446741D02*
X132746628Y-162399122D01*
X132746628Y-162399122D02*
X132794247Y-162303884D01*
X132794247Y-162303884D02*
X132794247Y-162113408D01*
X132794247Y-162113408D02*
X132746628Y-162018170D01*
X132175200Y-162446741D02*
X132127580Y-162351503D01*
X132127580Y-162351503D02*
X132127580Y-162113408D01*
X132127580Y-162113408D02*
X132175200Y-162018170D01*
X132175200Y-162018170D02*
X132270438Y-161970551D01*
X132270438Y-161970551D02*
X132365676Y-161970551D01*
X132365676Y-161970551D02*
X132460914Y-162018170D01*
X132460914Y-162018170D02*
X132508533Y-162113408D01*
X132508533Y-162113408D02*
X132508533Y-162351503D01*
X132508533Y-162351503D02*
X132556152Y-162446741D01*
X132127580Y-162922932D02*
X132794247Y-162922932D01*
X132603771Y-162922932D02*
X132699009Y-162970551D01*
X132699009Y-162970551D02*
X132746628Y-163018170D01*
X132746628Y-163018170D02*
X132794247Y-163113408D01*
X132794247Y-163113408D02*
X132794247Y-163208646D01*
X132127580Y-163970551D02*
X133127580Y-163970551D01*
X132175200Y-163970551D02*
X132127580Y-163875313D01*
X132127580Y-163875313D02*
X132127580Y-163684837D01*
X132127580Y-163684837D02*
X132175200Y-163589599D01*
X132175200Y-163589599D02*
X132222819Y-163541980D01*
X132222819Y-163541980D02*
X132318057Y-163494361D01*
X132318057Y-163494361D02*
X132603771Y-163494361D01*
X132603771Y-163494361D02*
X132699009Y-163541980D01*
X132699009Y-163541980D02*
X132746628Y-163589599D01*
X132746628Y-163589599D02*
X132794247Y-163684837D01*
X132794247Y-163684837D02*
X132794247Y-163875313D01*
X132794247Y-163875313D02*
X132746628Y-163970551D01*
X131651390Y-142137217D02*
X131603771Y-142280074D01*
X131603771Y-142280074D02*
X131556152Y-142327693D01*
X131556152Y-142327693D02*
X131460914Y-142375312D01*
X131460914Y-142375312D02*
X131318057Y-142375312D01*
X131318057Y-142375312D02*
X131222819Y-142327693D01*
X131222819Y-142327693D02*
X131175200Y-142280074D01*
X131175200Y-142280074D02*
X131127580Y-142184836D01*
X131127580Y-142184836D02*
X131127580Y-141803884D01*
X131127580Y-141803884D02*
X132127580Y-141803884D01*
X132127580Y-141803884D02*
X132127580Y-142137217D01*
X132127580Y-142137217D02*
X132079961Y-142232455D01*
X132079961Y-142232455D02*
X132032342Y-142280074D01*
X132032342Y-142280074D02*
X131937104Y-142327693D01*
X131937104Y-142327693D02*
X131841866Y-142327693D01*
X131841866Y-142327693D02*
X131746628Y-142280074D01*
X131746628Y-142280074D02*
X131699009Y-142232455D01*
X131699009Y-142232455D02*
X131651390Y-142137217D01*
X131651390Y-142137217D02*
X131651390Y-141803884D01*
X131127580Y-142803884D02*
X132127580Y-142803884D01*
X132127580Y-142803884D02*
X131413295Y-143137217D01*
X131413295Y-143137217D02*
X132127580Y-143470550D01*
X132127580Y-143470550D02*
X131127580Y-143470550D01*
X131127580Y-143946741D02*
X132127580Y-143946741D01*
X132127580Y-143946741D02*
X132127580Y-144327693D01*
X132127580Y-144327693D02*
X132079961Y-144422931D01*
X132079961Y-144422931D02*
X132032342Y-144470550D01*
X132032342Y-144470550D02*
X131937104Y-144518169D01*
X131937104Y-144518169D02*
X131794247Y-144518169D01*
X131794247Y-144518169D02*
X131699009Y-144470550D01*
X131699009Y-144470550D02*
X131651390Y-144422931D01*
X131651390Y-144422931D02*
X131603771Y-144327693D01*
X131603771Y-144327693D02*
X131603771Y-143946741D01*
X132032342Y-144899122D02*
X132079961Y-144946741D01*
X132079961Y-144946741D02*
X132127580Y-145041979D01*
X132127580Y-145041979D02*
X132127580Y-145280074D01*
X132127580Y-145280074D02*
X132079961Y-145375312D01*
X132079961Y-145375312D02*
X132032342Y-145422931D01*
X132032342Y-145422931D02*
X131937104Y-145470550D01*
X131937104Y-145470550D02*
X131841866Y-145470550D01*
X131841866Y-145470550D02*
X131699009Y-145422931D01*
X131699009Y-145422931D02*
X131127580Y-144851503D01*
X131127580Y-144851503D02*
X131127580Y-145470550D01*
X131699009Y-146041979D02*
X131746628Y-145946741D01*
X131746628Y-145946741D02*
X131794247Y-145899122D01*
X131794247Y-145899122D02*
X131889485Y-145851503D01*
X131889485Y-145851503D02*
X131937104Y-145851503D01*
X131937104Y-145851503D02*
X132032342Y-145899122D01*
X132032342Y-145899122D02*
X132079961Y-145946741D01*
X132079961Y-145946741D02*
X132127580Y-146041979D01*
X132127580Y-146041979D02*
X132127580Y-146232455D01*
X132127580Y-146232455D02*
X132079961Y-146327693D01*
X132079961Y-146327693D02*
X132032342Y-146375312D01*
X132032342Y-146375312D02*
X131937104Y-146422931D01*
X131937104Y-146422931D02*
X131889485Y-146422931D01*
X131889485Y-146422931D02*
X131794247Y-146375312D01*
X131794247Y-146375312D02*
X131746628Y-146327693D01*
X131746628Y-146327693D02*
X131699009Y-146232455D01*
X131699009Y-146232455D02*
X131699009Y-146041979D01*
X131699009Y-146041979D02*
X131651390Y-145946741D01*
X131651390Y-145946741D02*
X131603771Y-145899122D01*
X131603771Y-145899122D02*
X131508533Y-145851503D01*
X131508533Y-145851503D02*
X131318057Y-145851503D01*
X131318057Y-145851503D02*
X131222819Y-145899122D01*
X131222819Y-145899122D02*
X131175200Y-145946741D01*
X131175200Y-145946741D02*
X131127580Y-146041979D01*
X131127580Y-146041979D02*
X131127580Y-146232455D01*
X131127580Y-146232455D02*
X131175200Y-146327693D01*
X131175200Y-146327693D02*
X131222819Y-146375312D01*
X131222819Y-146375312D02*
X131318057Y-146422931D01*
X131318057Y-146422931D02*
X131508533Y-146422931D01*
X131508533Y-146422931D02*
X131603771Y-146375312D01*
X131603771Y-146375312D02*
X131651390Y-146327693D01*
X131651390Y-146327693D02*
X131699009Y-146232455D01*
X132127580Y-147041979D02*
X132127580Y-147137217D01*
X132127580Y-147137217D02*
X132079961Y-147232455D01*
X132079961Y-147232455D02*
X132032342Y-147280074D01*
X132032342Y-147280074D02*
X131937104Y-147327693D01*
X131937104Y-147327693D02*
X131746628Y-147375312D01*
X131746628Y-147375312D02*
X131508533Y-147375312D01*
X131508533Y-147375312D02*
X131318057Y-147327693D01*
X131318057Y-147327693D02*
X131222819Y-147280074D01*
X131222819Y-147280074D02*
X131175200Y-147232455D01*
X131175200Y-147232455D02*
X131127580Y-147137217D01*
X131127580Y-147137217D02*
X131127580Y-147041979D01*
X131127580Y-147041979D02*
X131175200Y-146946741D01*
X131175200Y-146946741D02*
X131222819Y-146899122D01*
X131222819Y-146899122D02*
X131318057Y-146851503D01*
X131318057Y-146851503D02*
X131508533Y-146803884D01*
X131508533Y-146803884D02*
X131746628Y-146803884D01*
X131746628Y-146803884D02*
X131937104Y-146851503D01*
X131937104Y-146851503D02*
X132032342Y-146899122D01*
X132032342Y-146899122D02*
X132079961Y-146946741D01*
X132079961Y-146946741D02*
X132127580Y-147041979D01*
X122184404Y-161640080D02*
X122184404Y-160830557D01*
X122184404Y-160830557D02*
X122136785Y-160735319D01*
X122136785Y-160735319D02*
X122089166Y-160687700D01*
X122089166Y-160687700D02*
X121993928Y-160640080D01*
X121993928Y-160640080D02*
X121803452Y-160640080D01*
X121803452Y-160640080D02*
X121708214Y-160687700D01*
X121708214Y-160687700D02*
X121660595Y-160735319D01*
X121660595Y-160735319D02*
X121612976Y-160830557D01*
X121612976Y-160830557D02*
X121612976Y-161640080D01*
X121232023Y-161640080D02*
X120565357Y-161640080D01*
X120565357Y-161640080D02*
X120993928Y-160640080D01*
X117356234Y-157462700D02*
X117213377Y-157415080D01*
X117213377Y-157415080D02*
X116975282Y-157415080D01*
X116975282Y-157415080D02*
X116880044Y-157462700D01*
X116880044Y-157462700D02*
X116832425Y-157510319D01*
X116832425Y-157510319D02*
X116784806Y-157605557D01*
X116784806Y-157605557D02*
X116784806Y-157700795D01*
X116784806Y-157700795D02*
X116832425Y-157796033D01*
X116832425Y-157796033D02*
X116880044Y-157843652D01*
X116880044Y-157843652D02*
X116975282Y-157891271D01*
X116975282Y-157891271D02*
X117165758Y-157938890D01*
X117165758Y-157938890D02*
X117260996Y-157986509D01*
X117260996Y-157986509D02*
X117308615Y-158034128D01*
X117308615Y-158034128D02*
X117356234Y-158129366D01*
X117356234Y-158129366D02*
X117356234Y-158224604D01*
X117356234Y-158224604D02*
X117308615Y-158319842D01*
X117308615Y-158319842D02*
X117260996Y-158367461D01*
X117260996Y-158367461D02*
X117165758Y-158415080D01*
X117165758Y-158415080D02*
X116927663Y-158415080D01*
X116927663Y-158415080D02*
X116784806Y-158367461D01*
X116356234Y-157415080D02*
X116356234Y-158415080D01*
X116356234Y-158415080D02*
X116118139Y-158415080D01*
X116118139Y-158415080D02*
X115975282Y-158367461D01*
X115975282Y-158367461D02*
X115880044Y-158272223D01*
X115880044Y-158272223D02*
X115832425Y-158176985D01*
X115832425Y-158176985D02*
X115784806Y-157986509D01*
X115784806Y-157986509D02*
X115784806Y-157843652D01*
X115784806Y-157843652D02*
X115832425Y-157653176D01*
X115832425Y-157653176D02*
X115880044Y-157557938D01*
X115880044Y-157557938D02*
X115975282Y-157462700D01*
X115975282Y-157462700D02*
X116118139Y-157415080D01*
X116118139Y-157415080D02*
X116356234Y-157415080D01*
X115403853Y-157700795D02*
X114927663Y-157700795D01*
X115499091Y-157415080D02*
X115165758Y-158415080D01*
X115165758Y-158415080D02*
X114832425Y-157415080D01*
X127446115Y-160127580D02*
X127446115Y-161127580D01*
X127446115Y-161127580D02*
X127112782Y-160413295D01*
X127112782Y-160413295D02*
X126779449Y-161127580D01*
X126779449Y-161127580D02*
X126779449Y-160127580D01*
X126112782Y-161127580D02*
X125922306Y-161127580D01*
X125922306Y-161127580D02*
X125827068Y-161079961D01*
X125827068Y-161079961D02*
X125731830Y-160984723D01*
X125731830Y-160984723D02*
X125684211Y-160794247D01*
X125684211Y-160794247D02*
X125684211Y-160460914D01*
X125684211Y-160460914D02*
X125731830Y-160270438D01*
X125731830Y-160270438D02*
X125827068Y-160175200D01*
X125827068Y-160175200D02*
X125922306Y-160127580D01*
X125922306Y-160127580D02*
X126112782Y-160127580D01*
X126112782Y-160127580D02*
X126208020Y-160175200D01*
X126208020Y-160175200D02*
X126303258Y-160270438D01*
X126303258Y-160270438D02*
X126350877Y-160460914D01*
X126350877Y-160460914D02*
X126350877Y-160794247D01*
X126350877Y-160794247D02*
X126303258Y-160984723D01*
X126303258Y-160984723D02*
X126208020Y-161079961D01*
X126208020Y-161079961D02*
X126112782Y-161127580D01*
X125303258Y-160175200D02*
X125160401Y-160127580D01*
X125160401Y-160127580D02*
X124922306Y-160127580D01*
X124922306Y-160127580D02*
X124827068Y-160175200D01*
X124827068Y-160175200D02*
X124779449Y-160222819D01*
X124779449Y-160222819D02*
X124731830Y-160318057D01*
X124731830Y-160318057D02*
X124731830Y-160413295D01*
X124731830Y-160413295D02*
X124779449Y-160508533D01*
X124779449Y-160508533D02*
X124827068Y-160556152D01*
X124827068Y-160556152D02*
X124922306Y-160603771D01*
X124922306Y-160603771D02*
X125112782Y-160651390D01*
X125112782Y-160651390D02*
X125208020Y-160699009D01*
X125208020Y-160699009D02*
X125255639Y-160746628D01*
X125255639Y-160746628D02*
X125303258Y-160841866D01*
X125303258Y-160841866D02*
X125303258Y-160937104D01*
X125303258Y-160937104D02*
X125255639Y-161032342D01*
X125255639Y-161032342D02*
X125208020Y-161079961D01*
X125208020Y-161079961D02*
X125112782Y-161127580D01*
X125112782Y-161127580D02*
X124874687Y-161127580D01*
X124874687Y-161127580D02*
X124731830Y-161079961D01*
X124303258Y-160127580D02*
X124303258Y-161127580D01*
X127516234Y-154922700D02*
X127373377Y-154875080D01*
X127373377Y-154875080D02*
X127135282Y-154875080D01*
X127135282Y-154875080D02*
X127040044Y-154922700D01*
X127040044Y-154922700D02*
X126992425Y-154970319D01*
X126992425Y-154970319D02*
X126944806Y-155065557D01*
X126944806Y-155065557D02*
X126944806Y-155160795D01*
X126944806Y-155160795D02*
X126992425Y-155256033D01*
X126992425Y-155256033D02*
X127040044Y-155303652D01*
X127040044Y-155303652D02*
X127135282Y-155351271D01*
X127135282Y-155351271D02*
X127325758Y-155398890D01*
X127325758Y-155398890D02*
X127420996Y-155446509D01*
X127420996Y-155446509D02*
X127468615Y-155494128D01*
X127468615Y-155494128D02*
X127516234Y-155589366D01*
X127516234Y-155589366D02*
X127516234Y-155684604D01*
X127516234Y-155684604D02*
X127468615Y-155779842D01*
X127468615Y-155779842D02*
X127420996Y-155827461D01*
X127420996Y-155827461D02*
X127325758Y-155875080D01*
X127325758Y-155875080D02*
X127087663Y-155875080D01*
X127087663Y-155875080D02*
X126944806Y-155827461D01*
X125944806Y-154970319D02*
X125992425Y-154922700D01*
X125992425Y-154922700D02*
X126135282Y-154875080D01*
X126135282Y-154875080D02*
X126230520Y-154875080D01*
X126230520Y-154875080D02*
X126373377Y-154922700D01*
X126373377Y-154922700D02*
X126468615Y-155017938D01*
X126468615Y-155017938D02*
X126516234Y-155113176D01*
X126516234Y-155113176D02*
X126563853Y-155303652D01*
X126563853Y-155303652D02*
X126563853Y-155446509D01*
X126563853Y-155446509D02*
X126516234Y-155636985D01*
X126516234Y-155636985D02*
X126468615Y-155732223D01*
X126468615Y-155732223D02*
X126373377Y-155827461D01*
X126373377Y-155827461D02*
X126230520Y-155875080D01*
X126230520Y-155875080D02*
X126135282Y-155875080D01*
X126135282Y-155875080D02*
X125992425Y-155827461D01*
X125992425Y-155827461D02*
X125944806Y-155779842D01*
X125516234Y-154875080D02*
X125516234Y-155875080D01*
X124944806Y-154875080D02*
X125373377Y-155446509D01*
X124944806Y-155875080D02*
X125516234Y-155303652D01*
X117356234Y-154922700D02*
X117213377Y-154875080D01*
X117213377Y-154875080D02*
X116975282Y-154875080D01*
X116975282Y-154875080D02*
X116880044Y-154922700D01*
X116880044Y-154922700D02*
X116832425Y-154970319D01*
X116832425Y-154970319D02*
X116784806Y-155065557D01*
X116784806Y-155065557D02*
X116784806Y-155160795D01*
X116784806Y-155160795D02*
X116832425Y-155256033D01*
X116832425Y-155256033D02*
X116880044Y-155303652D01*
X116880044Y-155303652D02*
X116975282Y-155351271D01*
X116975282Y-155351271D02*
X117165758Y-155398890D01*
X117165758Y-155398890D02*
X117260996Y-155446509D01*
X117260996Y-155446509D02*
X117308615Y-155494128D01*
X117308615Y-155494128D02*
X117356234Y-155589366D01*
X117356234Y-155589366D02*
X117356234Y-155684604D01*
X117356234Y-155684604D02*
X117308615Y-155779842D01*
X117308615Y-155779842D02*
X117260996Y-155827461D01*
X117260996Y-155827461D02*
X117165758Y-155875080D01*
X117165758Y-155875080D02*
X116927663Y-155875080D01*
X116927663Y-155875080D02*
X116784806Y-155827461D01*
X115784806Y-154970319D02*
X115832425Y-154922700D01*
X115832425Y-154922700D02*
X115975282Y-154875080D01*
X115975282Y-154875080D02*
X116070520Y-154875080D01*
X116070520Y-154875080D02*
X116213377Y-154922700D01*
X116213377Y-154922700D02*
X116308615Y-155017938D01*
X116308615Y-155017938D02*
X116356234Y-155113176D01*
X116356234Y-155113176D02*
X116403853Y-155303652D01*
X116403853Y-155303652D02*
X116403853Y-155446509D01*
X116403853Y-155446509D02*
X116356234Y-155636985D01*
X116356234Y-155636985D02*
X116308615Y-155732223D01*
X116308615Y-155732223D02*
X116213377Y-155827461D01*
X116213377Y-155827461D02*
X116070520Y-155875080D01*
X116070520Y-155875080D02*
X115975282Y-155875080D01*
X115975282Y-155875080D02*
X115832425Y-155827461D01*
X115832425Y-155827461D02*
X115784806Y-155779842D01*
X114880044Y-154875080D02*
X115356234Y-154875080D01*
X115356234Y-154875080D02*
X115356234Y-155875080D01*
X126944806Y-165987461D02*
X127040044Y-166035080D01*
X127040044Y-166035080D02*
X127182901Y-166035080D01*
X127182901Y-166035080D02*
X127325758Y-165987461D01*
X127325758Y-165987461D02*
X127420996Y-165892223D01*
X127420996Y-165892223D02*
X127468615Y-165796985D01*
X127468615Y-165796985D02*
X127516234Y-165606509D01*
X127516234Y-165606509D02*
X127516234Y-165463652D01*
X127516234Y-165463652D02*
X127468615Y-165273176D01*
X127468615Y-165273176D02*
X127420996Y-165177938D01*
X127420996Y-165177938D02*
X127325758Y-165082700D01*
X127325758Y-165082700D02*
X127182901Y-165035080D01*
X127182901Y-165035080D02*
X127087663Y-165035080D01*
X127087663Y-165035080D02*
X126944806Y-165082700D01*
X126944806Y-165082700D02*
X126897187Y-165130319D01*
X126897187Y-165130319D02*
X126897187Y-165463652D01*
X126897187Y-165463652D02*
X127087663Y-165463652D01*
X126468615Y-165035080D02*
X126468615Y-166035080D01*
X126468615Y-166035080D02*
X125897187Y-165035080D01*
X125897187Y-165035080D02*
X125897187Y-166035080D01*
X125420996Y-165035080D02*
X125420996Y-166035080D01*
X125420996Y-166035080D02*
X125182901Y-166035080D01*
X125182901Y-166035080D02*
X125040044Y-165987461D01*
X125040044Y-165987461D02*
X124944806Y-165892223D01*
X124944806Y-165892223D02*
X124897187Y-165796985D01*
X124897187Y-165796985D02*
X124849568Y-165606509D01*
X124849568Y-165606509D02*
X124849568Y-165463652D01*
X124849568Y-165463652D02*
X124897187Y-165273176D01*
X124897187Y-165273176D02*
X124944806Y-165177938D01*
X124944806Y-165177938D02*
X125040044Y-165082700D01*
X125040044Y-165082700D02*
X125182901Y-165035080D01*
X125182901Y-165035080D02*
X125420996Y-165035080D01*
X126992425Y-168575080D02*
X127468615Y-168575080D01*
X127468615Y-168575080D02*
X127516234Y-168098890D01*
X127516234Y-168098890D02*
X127468615Y-168146509D01*
X127468615Y-168146509D02*
X127373377Y-168194128D01*
X127373377Y-168194128D02*
X127135282Y-168194128D01*
X127135282Y-168194128D02*
X127040044Y-168146509D01*
X127040044Y-168146509D02*
X126992425Y-168098890D01*
X126992425Y-168098890D02*
X126944806Y-168003652D01*
X126944806Y-168003652D02*
X126944806Y-167765557D01*
X126944806Y-167765557D02*
X126992425Y-167670319D01*
X126992425Y-167670319D02*
X127040044Y-167622700D01*
X127040044Y-167622700D02*
X127135282Y-167575080D01*
X127135282Y-167575080D02*
X127373377Y-167575080D01*
X127373377Y-167575080D02*
X127468615Y-167622700D01*
X127468615Y-167622700D02*
X127516234Y-167670319D01*
X126659091Y-168575080D02*
X126325758Y-167575080D01*
X126325758Y-167575080D02*
X125992425Y-168575080D01*
X116721234Y-167860795D02*
X116245044Y-167860795D01*
X116816472Y-167575080D02*
X116483139Y-168575080D01*
X116483139Y-168575080D02*
X116149806Y-167575080D01*
X115625996Y-168575080D02*
X115530758Y-168575080D01*
X115530758Y-168575080D02*
X115435520Y-168527461D01*
X115435520Y-168527461D02*
X115387901Y-168479842D01*
X115387901Y-168479842D02*
X115340282Y-168384604D01*
X115340282Y-168384604D02*
X115292663Y-168194128D01*
X115292663Y-168194128D02*
X115292663Y-167956033D01*
X115292663Y-167956033D02*
X115340282Y-167765557D01*
X115340282Y-167765557D02*
X115387901Y-167670319D01*
X115387901Y-167670319D02*
X115435520Y-167622700D01*
X115435520Y-167622700D02*
X115530758Y-167575080D01*
X115530758Y-167575080D02*
X115625996Y-167575080D01*
X115625996Y-167575080D02*
X115721234Y-167622700D01*
X115721234Y-167622700D02*
X115768853Y-167670319D01*
X115768853Y-167670319D02*
X115816472Y-167765557D01*
X115816472Y-167765557D02*
X115864091Y-167956033D01*
X115864091Y-167956033D02*
X115864091Y-168194128D01*
X115864091Y-168194128D02*
X115816472Y-168384604D01*
X115816472Y-168384604D02*
X115768853Y-168479842D01*
X115768853Y-168479842D02*
X115721234Y-168527461D01*
X115721234Y-168527461D02*
X115625996Y-168575080D01*
X119356472Y-153335080D02*
X118785044Y-153335080D01*
X119070758Y-152335080D02*
X119070758Y-153335080D01*
X118546948Y-153335080D02*
X117880282Y-152335080D01*
X117880282Y-153335080D02*
X118546948Y-152335080D01*
X116785044Y-153382700D02*
X117642186Y-152096985D01*
X115880282Y-152430319D02*
X115927901Y-152382700D01*
X115927901Y-152382700D02*
X116070758Y-152335080D01*
X116070758Y-152335080D02*
X116165996Y-152335080D01*
X116165996Y-152335080D02*
X116308853Y-152382700D01*
X116308853Y-152382700D02*
X116404091Y-152477938D01*
X116404091Y-152477938D02*
X116451710Y-152573176D01*
X116451710Y-152573176D02*
X116499329Y-152763652D01*
X116499329Y-152763652D02*
X116499329Y-152906509D01*
X116499329Y-152906509D02*
X116451710Y-153096985D01*
X116451710Y-153096985D02*
X116404091Y-153192223D01*
X116404091Y-153192223D02*
X116308853Y-153287461D01*
X116308853Y-153287461D02*
X116165996Y-153335080D01*
X116165996Y-153335080D02*
X116070758Y-153335080D01*
X116070758Y-153335080D02*
X115927901Y-153287461D01*
X115927901Y-153287461D02*
X115880282Y-153239842D01*
X115499329Y-152382700D02*
X115356472Y-152335080D01*
X115356472Y-152335080D02*
X115118377Y-152335080D01*
X115118377Y-152335080D02*
X115023139Y-152382700D01*
X115023139Y-152382700D02*
X114975520Y-152430319D01*
X114975520Y-152430319D02*
X114927901Y-152525557D01*
X114927901Y-152525557D02*
X114927901Y-152620795D01*
X114927901Y-152620795D02*
X114975520Y-152716033D01*
X114975520Y-152716033D02*
X115023139Y-152763652D01*
X115023139Y-152763652D02*
X115118377Y-152811271D01*
X115118377Y-152811271D02*
X115308853Y-152858890D01*
X115308853Y-152858890D02*
X115404091Y-152906509D01*
X115404091Y-152906509D02*
X115451710Y-152954128D01*
X115451710Y-152954128D02*
X115499329Y-153049366D01*
X115499329Y-153049366D02*
X115499329Y-153144604D01*
X115499329Y-153144604D02*
X115451710Y-153239842D01*
X115451710Y-153239842D02*
X115404091Y-153287461D01*
X115404091Y-153287461D02*
X115308853Y-153335080D01*
X115308853Y-153335080D02*
X115070758Y-153335080D01*
X115070758Y-153335080D02*
X114927901Y-153287461D01*
X127563853Y-163495080D02*
X126944806Y-163495080D01*
X126944806Y-163495080D02*
X127278139Y-163114128D01*
X127278139Y-163114128D02*
X127135282Y-163114128D01*
X127135282Y-163114128D02*
X127040044Y-163066509D01*
X127040044Y-163066509D02*
X126992425Y-163018890D01*
X126992425Y-163018890D02*
X126944806Y-162923652D01*
X126944806Y-162923652D02*
X126944806Y-162685557D01*
X126944806Y-162685557D02*
X126992425Y-162590319D01*
X126992425Y-162590319D02*
X127040044Y-162542700D01*
X127040044Y-162542700D02*
X127135282Y-162495080D01*
X127135282Y-162495080D02*
X127420996Y-162495080D01*
X127420996Y-162495080D02*
X127516234Y-162542700D01*
X127516234Y-162542700D02*
X127563853Y-162590319D01*
X126659091Y-163495080D02*
X126325758Y-162495080D01*
X126325758Y-162495080D02*
X125992425Y-163495080D01*
X125754329Y-163495080D02*
X125135282Y-163495080D01*
X125135282Y-163495080D02*
X125468615Y-163114128D01*
X125468615Y-163114128D02*
X125325758Y-163114128D01*
X125325758Y-163114128D02*
X125230520Y-163066509D01*
X125230520Y-163066509D02*
X125182901Y-163018890D01*
X125182901Y-163018890D02*
X125135282Y-162923652D01*
X125135282Y-162923652D02*
X125135282Y-162685557D01*
X125135282Y-162685557D02*
X125182901Y-162590319D01*
X125182901Y-162590319D02*
X125230520Y-162542700D01*
X125230520Y-162542700D02*
X125325758Y-162495080D01*
X125325758Y-162495080D02*
X125611472Y-162495080D01*
X125611472Y-162495080D02*
X125706710Y-162542700D01*
X125706710Y-162542700D02*
X125754329Y-162590319D01*
X127468615Y-157415080D02*
X127468615Y-158415080D01*
X127468615Y-158415080D02*
X127135282Y-157700795D01*
X127135282Y-157700795D02*
X126801949Y-158415080D01*
X126801949Y-158415080D02*
X126801949Y-157415080D01*
X126325758Y-157415080D02*
X126325758Y-158415080D01*
X125897187Y-157462700D02*
X125754330Y-157415080D01*
X125754330Y-157415080D02*
X125516235Y-157415080D01*
X125516235Y-157415080D02*
X125420997Y-157462700D01*
X125420997Y-157462700D02*
X125373378Y-157510319D01*
X125373378Y-157510319D02*
X125325759Y-157605557D01*
X125325759Y-157605557D02*
X125325759Y-157700795D01*
X125325759Y-157700795D02*
X125373378Y-157796033D01*
X125373378Y-157796033D02*
X125420997Y-157843652D01*
X125420997Y-157843652D02*
X125516235Y-157891271D01*
X125516235Y-157891271D02*
X125706711Y-157938890D01*
X125706711Y-157938890D02*
X125801949Y-157986509D01*
X125801949Y-157986509D02*
X125849568Y-158034128D01*
X125849568Y-158034128D02*
X125897187Y-158129366D01*
X125897187Y-158129366D02*
X125897187Y-158224604D01*
X125897187Y-158224604D02*
X125849568Y-158319842D01*
X125849568Y-158319842D02*
X125801949Y-158367461D01*
X125801949Y-158367461D02*
X125706711Y-158415080D01*
X125706711Y-158415080D02*
X125468616Y-158415080D01*
X125468616Y-158415080D02*
X125325759Y-158367461D01*
X124706711Y-158415080D02*
X124516235Y-158415080D01*
X124516235Y-158415080D02*
X124420997Y-158367461D01*
X124420997Y-158367461D02*
X124325759Y-158272223D01*
X124325759Y-158272223D02*
X124278140Y-158081747D01*
X124278140Y-158081747D02*
X124278140Y-157748414D01*
X124278140Y-157748414D02*
X124325759Y-157557938D01*
X124325759Y-157557938D02*
X124420997Y-157462700D01*
X124420997Y-157462700D02*
X124516235Y-157415080D01*
X124516235Y-157415080D02*
X124706711Y-157415080D01*
X124706711Y-157415080D02*
X124801949Y-157462700D01*
X124801949Y-157462700D02*
X124897187Y-157557938D01*
X124897187Y-157557938D02*
X124944806Y-157748414D01*
X124944806Y-157748414D02*
X124944806Y-158081747D01*
X124944806Y-158081747D02*
X124897187Y-158272223D01*
X124897187Y-158272223D02*
X124801949Y-158367461D01*
X124801949Y-158367461D02*
X124706711Y-158415080D01*
X126897187Y-152335080D02*
X127230520Y-152811271D01*
X127468615Y-152335080D02*
X127468615Y-153335080D01*
X127468615Y-153335080D02*
X127087663Y-153335080D01*
X127087663Y-153335080D02*
X126992425Y-153287461D01*
X126992425Y-153287461D02*
X126944806Y-153239842D01*
X126944806Y-153239842D02*
X126897187Y-153144604D01*
X126897187Y-153144604D02*
X126897187Y-153001747D01*
X126897187Y-153001747D02*
X126944806Y-152906509D01*
X126944806Y-152906509D02*
X126992425Y-152858890D01*
X126992425Y-152858890D02*
X127087663Y-152811271D01*
X127087663Y-152811271D02*
X127468615Y-152811271D01*
X126563853Y-153335080D02*
X125897187Y-152335080D01*
X125897187Y-153335080D02*
X126563853Y-152335080D01*
X116721234Y-162780795D02*
X116245044Y-162780795D01*
X116816472Y-162495080D02*
X116483139Y-163495080D01*
X116483139Y-163495080D02*
X116149806Y-162495080D01*
X115864091Y-163399842D02*
X115816472Y-163447461D01*
X115816472Y-163447461D02*
X115721234Y-163495080D01*
X115721234Y-163495080D02*
X115483139Y-163495080D01*
X115483139Y-163495080D02*
X115387901Y-163447461D01*
X115387901Y-163447461D02*
X115340282Y-163399842D01*
X115340282Y-163399842D02*
X115292663Y-163304604D01*
X115292663Y-163304604D02*
X115292663Y-163209366D01*
X115292663Y-163209366D02*
X115340282Y-163066509D01*
X115340282Y-163066509D02*
X115911710Y-162495080D01*
X115911710Y-162495080D02*
X115292663Y-162495080D01*
X116721234Y-165320795D02*
X116245044Y-165320795D01*
X116816472Y-165035080D02*
X116483139Y-166035080D01*
X116483139Y-166035080D02*
X116149806Y-165035080D01*
X115292663Y-165035080D02*
X115864091Y-165035080D01*
X115578377Y-165035080D02*
X115578377Y-166035080D01*
X115578377Y-166035080D02*
X115673615Y-165892223D01*
X115673615Y-165892223D02*
X115768853Y-165796985D01*
X115768853Y-165796985D02*
X115864091Y-165749366D01*
X116721234Y-160240795D02*
X116245044Y-160240795D01*
X116816472Y-159955080D02*
X116483139Y-160955080D01*
X116483139Y-160955080D02*
X116149806Y-159955080D01*
X115911710Y-160955080D02*
X115292663Y-160955080D01*
X115292663Y-160955080D02*
X115625996Y-160574128D01*
X115625996Y-160574128D02*
X115483139Y-160574128D01*
X115483139Y-160574128D02*
X115387901Y-160526509D01*
X115387901Y-160526509D02*
X115340282Y-160478890D01*
X115340282Y-160478890D02*
X115292663Y-160383652D01*
X115292663Y-160383652D02*
X115292663Y-160145557D01*
X115292663Y-160145557D02*
X115340282Y-160050319D01*
X115340282Y-160050319D02*
X115387901Y-160002700D01*
X115387901Y-160002700D02*
X115483139Y-159955080D01*
X115483139Y-159955080D02*
X115768853Y-159955080D01*
X115768853Y-159955080D02*
X115864091Y-160002700D01*
X115864091Y-160002700D02*
X115911710Y-160050319D01*
X115818095Y-139457419D02*
X115818095Y-140266942D01*
X115818095Y-140266942D02*
X115865714Y-140362180D01*
X115865714Y-140362180D02*
X115913333Y-140409800D01*
X115913333Y-140409800D02*
X116008571Y-140457419D01*
X116008571Y-140457419D02*
X116199047Y-140457419D01*
X116199047Y-140457419D02*
X116294285Y-140409800D01*
X116294285Y-140409800D02*
X116341904Y-140362180D01*
X116341904Y-140362180D02*
X116389523Y-140266942D01*
X116389523Y-140266942D02*
X116389523Y-139457419D01*
X117341904Y-139457419D02*
X116865714Y-139457419D01*
X116865714Y-139457419D02*
X116818095Y-139933609D01*
X116818095Y-139933609D02*
X116865714Y-139885990D01*
X116865714Y-139885990D02*
X116960952Y-139838371D01*
X116960952Y-139838371D02*
X117199047Y-139838371D01*
X117199047Y-139838371D02*
X117294285Y-139885990D01*
X117294285Y-139885990D02*
X117341904Y-139933609D01*
X117341904Y-139933609D02*
X117389523Y-140028847D01*
X117389523Y-140028847D02*
X117389523Y-140266942D01*
X117389523Y-140266942D02*
X117341904Y-140362180D01*
X117341904Y-140362180D02*
X117294285Y-140409800D01*
X117294285Y-140409800D02*
X117199047Y-140457419D01*
X117199047Y-140457419D02*
X116960952Y-140457419D01*
X116960952Y-140457419D02*
X116865714Y-140409800D01*
X116865714Y-140409800D02*
X116818095Y-140362180D01*
X122907693Y-141420038D02*
X122812455Y-141372419D01*
X122812455Y-141372419D02*
X122669598Y-141372419D01*
X122669598Y-141372419D02*
X122526741Y-141420038D01*
X122526741Y-141420038D02*
X122431503Y-141515276D01*
X122431503Y-141515276D02*
X122383884Y-141610514D01*
X122383884Y-141610514D02*
X122336265Y-141800990D01*
X122336265Y-141800990D02*
X122336265Y-141943847D01*
X122336265Y-141943847D02*
X122383884Y-142134323D01*
X122383884Y-142134323D02*
X122431503Y-142229561D01*
X122431503Y-142229561D02*
X122526741Y-142324800D01*
X122526741Y-142324800D02*
X122669598Y-142372419D01*
X122669598Y-142372419D02*
X122764836Y-142372419D01*
X122764836Y-142372419D02*
X122907693Y-142324800D01*
X122907693Y-142324800D02*
X122955312Y-142277180D01*
X122955312Y-142277180D02*
X122955312Y-141943847D01*
X122955312Y-141943847D02*
X122764836Y-141943847D01*
X123383884Y-142372419D02*
X123383884Y-141372419D01*
X123383884Y-141372419D02*
X123955312Y-142372419D01*
X123955312Y-142372419D02*
X123955312Y-141372419D01*
X124431503Y-142372419D02*
X124431503Y-141372419D01*
X124431503Y-141372419D02*
X124669598Y-141372419D01*
X124669598Y-141372419D02*
X124812455Y-141420038D01*
X124812455Y-141420038D02*
X124907693Y-141515276D01*
X124907693Y-141515276D02*
X124955312Y-141610514D01*
X124955312Y-141610514D02*
X125002931Y-141800990D01*
X125002931Y-141800990D02*
X125002931Y-141943847D01*
X125002931Y-141943847D02*
X124955312Y-142134323D01*
X124955312Y-142134323D02*
X124907693Y-142229561D01*
X124907693Y-142229561D02*
X124812455Y-142324800D01*
X124812455Y-142324800D02*
X124669598Y-142372419D01*
X124669598Y-142372419D02*
X124431503Y-142372419D01*
X122336265Y-139824800D02*
X122479122Y-139872419D01*
X122479122Y-139872419D02*
X122717217Y-139872419D01*
X122717217Y-139872419D02*
X122812455Y-139824800D01*
X122812455Y-139824800D02*
X122860074Y-139777180D01*
X122860074Y-139777180D02*
X122907693Y-139681942D01*
X122907693Y-139681942D02*
X122907693Y-139586704D01*
X122907693Y-139586704D02*
X122860074Y-139491466D01*
X122860074Y-139491466D02*
X122812455Y-139443847D01*
X122812455Y-139443847D02*
X122717217Y-139396228D01*
X122717217Y-139396228D02*
X122526741Y-139348609D01*
X122526741Y-139348609D02*
X122431503Y-139300990D01*
X122431503Y-139300990D02*
X122383884Y-139253371D01*
X122383884Y-139253371D02*
X122336265Y-139158133D01*
X122336265Y-139158133D02*
X122336265Y-139062895D01*
X122336265Y-139062895D02*
X122383884Y-138967657D01*
X122383884Y-138967657D02*
X122431503Y-138920038D01*
X122431503Y-138920038D02*
X122526741Y-138872419D01*
X122526741Y-138872419D02*
X122764836Y-138872419D01*
X122764836Y-138872419D02*
X122907693Y-138920038D01*
X123907693Y-139777180D02*
X123860074Y-139824800D01*
X123860074Y-139824800D02*
X123717217Y-139872419D01*
X123717217Y-139872419D02*
X123621979Y-139872419D01*
X123621979Y-139872419D02*
X123479122Y-139824800D01*
X123479122Y-139824800D02*
X123383884Y-139729561D01*
X123383884Y-139729561D02*
X123336265Y-139634323D01*
X123336265Y-139634323D02*
X123288646Y-139443847D01*
X123288646Y-139443847D02*
X123288646Y-139300990D01*
X123288646Y-139300990D02*
X123336265Y-139110514D01*
X123336265Y-139110514D02*
X123383884Y-139015276D01*
X123383884Y-139015276D02*
X123479122Y-138920038D01*
X123479122Y-138920038D02*
X123621979Y-138872419D01*
X123621979Y-138872419D02*
X123717217Y-138872419D01*
X123717217Y-138872419D02*
X123860074Y-138920038D01*
X123860074Y-138920038D02*
X123907693Y-138967657D01*
X124812455Y-139872419D02*
X124336265Y-139872419D01*
X124336265Y-139872419D02*
X124336265Y-138872419D01*
X122288646Y-146372419D02*
X122907693Y-146372419D01*
X122907693Y-146372419D02*
X122574360Y-146753371D01*
X122574360Y-146753371D02*
X122717217Y-146753371D01*
X122717217Y-146753371D02*
X122812455Y-146800990D01*
X122812455Y-146800990D02*
X122860074Y-146848609D01*
X122860074Y-146848609D02*
X122907693Y-146943847D01*
X122907693Y-146943847D02*
X122907693Y-147181942D01*
X122907693Y-147181942D02*
X122860074Y-147277180D01*
X122860074Y-147277180D02*
X122812455Y-147324800D01*
X122812455Y-147324800D02*
X122717217Y-147372419D01*
X122717217Y-147372419D02*
X122431503Y-147372419D01*
X122431503Y-147372419D02*
X122336265Y-147324800D01*
X122336265Y-147324800D02*
X122288646Y-147277180D01*
X123193408Y-146372419D02*
X123526741Y-147372419D01*
X123526741Y-147372419D02*
X123860074Y-146372419D01*
X124098170Y-146372419D02*
X124717217Y-146372419D01*
X124717217Y-146372419D02*
X124383884Y-146753371D01*
X124383884Y-146753371D02*
X124526741Y-146753371D01*
X124526741Y-146753371D02*
X124621979Y-146800990D01*
X124621979Y-146800990D02*
X124669598Y-146848609D01*
X124669598Y-146848609D02*
X124717217Y-146943847D01*
X124717217Y-146943847D02*
X124717217Y-147181942D01*
X124717217Y-147181942D02*
X124669598Y-147277180D01*
X124669598Y-147277180D02*
X124621979Y-147324800D01*
X124621979Y-147324800D02*
X124526741Y-147372419D01*
X124526741Y-147372419D02*
X124241027Y-147372419D01*
X124241027Y-147372419D02*
X124145789Y-147324800D01*
X124145789Y-147324800D02*
X124098170Y-147277180D01*
X122336265Y-144824800D02*
X122479122Y-144872419D01*
X122479122Y-144872419D02*
X122717217Y-144872419D01*
X122717217Y-144872419D02*
X122812455Y-144824800D01*
X122812455Y-144824800D02*
X122860074Y-144777180D01*
X122860074Y-144777180D02*
X122907693Y-144681942D01*
X122907693Y-144681942D02*
X122907693Y-144586704D01*
X122907693Y-144586704D02*
X122860074Y-144491466D01*
X122860074Y-144491466D02*
X122812455Y-144443847D01*
X122812455Y-144443847D02*
X122717217Y-144396228D01*
X122717217Y-144396228D02*
X122526741Y-144348609D01*
X122526741Y-144348609D02*
X122431503Y-144300990D01*
X122431503Y-144300990D02*
X122383884Y-144253371D01*
X122383884Y-144253371D02*
X122336265Y-144158133D01*
X122336265Y-144158133D02*
X122336265Y-144062895D01*
X122336265Y-144062895D02*
X122383884Y-143967657D01*
X122383884Y-143967657D02*
X122431503Y-143920038D01*
X122431503Y-143920038D02*
X122526741Y-143872419D01*
X122526741Y-143872419D02*
X122764836Y-143872419D01*
X122764836Y-143872419D02*
X122907693Y-143920038D01*
X123336265Y-144872419D02*
X123336265Y-143872419D01*
X123336265Y-143872419D02*
X123574360Y-143872419D01*
X123574360Y-143872419D02*
X123717217Y-143920038D01*
X123717217Y-143920038D02*
X123812455Y-144015276D01*
X123812455Y-144015276D02*
X123860074Y-144110514D01*
X123860074Y-144110514D02*
X123907693Y-144300990D01*
X123907693Y-144300990D02*
X123907693Y-144443847D01*
X123907693Y-144443847D02*
X123860074Y-144634323D01*
X123860074Y-144634323D02*
X123812455Y-144729561D01*
X123812455Y-144729561D02*
X123717217Y-144824800D01*
X123717217Y-144824800D02*
X123574360Y-144872419D01*
X123574360Y-144872419D02*
X123336265Y-144872419D01*
X124288646Y-144586704D02*
X124764836Y-144586704D01*
X124193408Y-144872419D02*
X124526741Y-143872419D01*
X124526741Y-143872419D02*
X124860074Y-144872419D01*
D11*
X131238095Y-169254819D02*
X131238095Y-168254819D01*
X131238095Y-168731009D02*
X131809523Y-168731009D01*
X131809523Y-169254819D02*
X131809523Y-168254819D01*
X132714285Y-168588152D02*
X132714285Y-169254819D01*
X132476190Y-168207200D02*
X132238095Y-168921485D01*
X132238095Y-168921485D02*
X132857142Y-168921485D01*
X96738095Y-86954819D02*
X96738095Y-87764342D01*
X96738095Y-87764342D02*
X96785714Y-87859580D01*
X96785714Y-87859580D02*
X96833333Y-87907200D01*
X96833333Y-87907200D02*
X96928571Y-87954819D01*
X96928571Y-87954819D02*
X97119047Y-87954819D01*
X97119047Y-87954819D02*
X97214285Y-87907200D01*
X97214285Y-87907200D02*
X97261904Y-87859580D01*
X97261904Y-87859580D02*
X97309523Y-87764342D01*
X97309523Y-87764342D02*
X97309523Y-86954819D01*
X97738095Y-87050057D02*
X97785714Y-87002438D01*
X97785714Y-87002438D02*
X97880952Y-86954819D01*
X97880952Y-86954819D02*
X98119047Y-86954819D01*
X98119047Y-86954819D02*
X98214285Y-87002438D01*
X98214285Y-87002438D02*
X98261904Y-87050057D01*
X98261904Y-87050057D02*
X98309523Y-87145295D01*
X98309523Y-87145295D02*
X98309523Y-87240533D01*
X98309523Y-87240533D02*
X98261904Y-87383390D01*
X98261904Y-87383390D02*
X97690476Y-87954819D01*
X97690476Y-87954819D02*
X98309523Y-87954819D01*
X81886953Y-104830475D02*
X81886953Y-104257141D01*
X82787905Y-104011427D02*
X82787905Y-104830475D01*
X82787905Y-104830475D02*
X81067905Y-104830475D01*
X81067905Y-104830475D02*
X81067905Y-104011427D01*
X82706001Y-103356189D02*
X82787905Y-103110475D01*
X82787905Y-103110475D02*
X82787905Y-102700951D01*
X82787905Y-102700951D02*
X82706001Y-102537142D01*
X82706001Y-102537142D02*
X82624096Y-102455237D01*
X82624096Y-102455237D02*
X82460286Y-102373332D01*
X82460286Y-102373332D02*
X82296477Y-102373332D01*
X82296477Y-102373332D02*
X82132667Y-102455237D01*
X82132667Y-102455237D02*
X82050762Y-102537142D01*
X82050762Y-102537142D02*
X81968858Y-102700951D01*
X81968858Y-102700951D02*
X81886953Y-103028570D01*
X81886953Y-103028570D02*
X81805048Y-103192380D01*
X81805048Y-103192380D02*
X81723143Y-103274285D01*
X81723143Y-103274285D02*
X81559334Y-103356189D01*
X81559334Y-103356189D02*
X81395524Y-103356189D01*
X81395524Y-103356189D02*
X81231715Y-103274285D01*
X81231715Y-103274285D02*
X81149810Y-103192380D01*
X81149810Y-103192380D02*
X81067905Y-103028570D01*
X81067905Y-103028570D02*
X81067905Y-102619047D01*
X81067905Y-102619047D02*
X81149810Y-102373332D01*
X82787905Y-101636190D02*
X81067905Y-101636190D01*
X81067905Y-101636190D02*
X81067905Y-100980952D01*
X81067905Y-100980952D02*
X81149810Y-100817142D01*
X81149810Y-100817142D02*
X81231715Y-100735237D01*
X81231715Y-100735237D02*
X81395524Y-100653333D01*
X81395524Y-100653333D02*
X81641239Y-100653333D01*
X81641239Y-100653333D02*
X81805048Y-100735237D01*
X81805048Y-100735237D02*
X81886953Y-100817142D01*
X81886953Y-100817142D02*
X81968858Y-100980952D01*
X81968858Y-100980952D02*
X81968858Y-101636190D01*
X81067905Y-100079999D02*
X81067905Y-99015237D01*
X81067905Y-99015237D02*
X81723143Y-99588571D01*
X81723143Y-99588571D02*
X81723143Y-99342856D01*
X81723143Y-99342856D02*
X81805048Y-99179047D01*
X81805048Y-99179047D02*
X81886953Y-99097142D01*
X81886953Y-99097142D02*
X82050762Y-99015237D01*
X82050762Y-99015237D02*
X82460286Y-99015237D01*
X82460286Y-99015237D02*
X82624096Y-99097142D01*
X82624096Y-99097142D02*
X82706001Y-99179047D01*
X82706001Y-99179047D02*
X82787905Y-99342856D01*
X82787905Y-99342856D02*
X82787905Y-99834285D01*
X82787905Y-99834285D02*
X82706001Y-99998094D01*
X82706001Y-99998094D02*
X82624096Y-100079999D01*
X81231715Y-98359999D02*
X81149810Y-98278095D01*
X81149810Y-98278095D02*
X81067905Y-98114285D01*
X81067905Y-98114285D02*
X81067905Y-97704761D01*
X81067905Y-97704761D02*
X81149810Y-97540952D01*
X81149810Y-97540952D02*
X81231715Y-97459047D01*
X81231715Y-97459047D02*
X81395524Y-97377142D01*
X81395524Y-97377142D02*
X81559334Y-97377142D01*
X81559334Y-97377142D02*
X81805048Y-97459047D01*
X81805048Y-97459047D02*
X82787905Y-98441904D01*
X82787905Y-98441904D02*
X82787905Y-97377142D01*
X82132667Y-96640000D02*
X82132667Y-95329524D01*
X82624096Y-93527619D02*
X82706001Y-93609523D01*
X82706001Y-93609523D02*
X82787905Y-93855238D01*
X82787905Y-93855238D02*
X82787905Y-94019047D01*
X82787905Y-94019047D02*
X82706001Y-94264761D01*
X82706001Y-94264761D02*
X82542191Y-94428571D01*
X82542191Y-94428571D02*
X82378381Y-94510476D01*
X82378381Y-94510476D02*
X82050762Y-94592380D01*
X82050762Y-94592380D02*
X81805048Y-94592380D01*
X81805048Y-94592380D02*
X81477429Y-94510476D01*
X81477429Y-94510476D02*
X81313620Y-94428571D01*
X81313620Y-94428571D02*
X81149810Y-94264761D01*
X81149810Y-94264761D02*
X81067905Y-94019047D01*
X81067905Y-94019047D02*
X81067905Y-93855238D01*
X81067905Y-93855238D02*
X81149810Y-93609523D01*
X81149810Y-93609523D02*
X81231715Y-93527619D01*
X82296477Y-92872380D02*
X82296477Y-92053333D01*
X82787905Y-93036190D02*
X81067905Y-92462857D01*
X81067905Y-92462857D02*
X82787905Y-91889523D01*
X82787905Y-91316190D02*
X81067905Y-91316190D01*
X81067905Y-91316190D02*
X82296477Y-90742856D01*
X82296477Y-90742856D02*
X81067905Y-90169523D01*
X81067905Y-90169523D02*
X82787905Y-90169523D01*
D10*
X127833332Y-109090200D02*
X127690475Y-109042580D01*
X127690475Y-109042580D02*
X127452380Y-109042580D01*
X127452380Y-109042580D02*
X127357142Y-109090200D01*
X127357142Y-109090200D02*
X127309523Y-109137819D01*
X127309523Y-109137819D02*
X127261904Y-109233057D01*
X127261904Y-109233057D02*
X127261904Y-109328295D01*
X127261904Y-109328295D02*
X127309523Y-109423533D01*
X127309523Y-109423533D02*
X127357142Y-109471152D01*
X127357142Y-109471152D02*
X127452380Y-109518771D01*
X127452380Y-109518771D02*
X127642856Y-109566390D01*
X127642856Y-109566390D02*
X127738094Y-109614009D01*
X127738094Y-109614009D02*
X127785713Y-109661628D01*
X127785713Y-109661628D02*
X127833332Y-109756866D01*
X127833332Y-109756866D02*
X127833332Y-109852104D01*
X127833332Y-109852104D02*
X127785713Y-109947342D01*
X127785713Y-109947342D02*
X127738094Y-109994961D01*
X127738094Y-109994961D02*
X127642856Y-110042580D01*
X127642856Y-110042580D02*
X127404761Y-110042580D01*
X127404761Y-110042580D02*
X127261904Y-109994961D01*
X126928570Y-110042580D02*
X126690475Y-109042580D01*
X126690475Y-109042580D02*
X126499999Y-109756866D01*
X126499999Y-109756866D02*
X126309523Y-109042580D01*
X126309523Y-109042580D02*
X126071428Y-110042580D01*
X125166666Y-109042580D02*
X125738094Y-109042580D01*
X125452380Y-109042580D02*
X125452380Y-110042580D01*
X125452380Y-110042580D02*
X125547618Y-109899723D01*
X125547618Y-109899723D02*
X125642856Y-109804485D01*
X125642856Y-109804485D02*
X125738094Y-109756866D01*
D11*
X81738095Y-78954819D02*
X81738095Y-77954819D01*
X81738095Y-78431009D02*
X82309523Y-78431009D01*
X82309523Y-78954819D02*
X82309523Y-77954819D01*
X83309523Y-78954819D02*
X82738095Y-78954819D01*
X83023809Y-78954819D02*
X83023809Y-77954819D01*
X83023809Y-77954819D02*
X82928571Y-78097676D01*
X82928571Y-78097676D02*
X82833333Y-78192914D01*
X82833333Y-78192914D02*
X82738095Y-78240533D01*
D10*
X125171265Y-127594800D02*
X125314122Y-127642419D01*
X125314122Y-127642419D02*
X125552217Y-127642419D01*
X125552217Y-127642419D02*
X125647455Y-127594800D01*
X125647455Y-127594800D02*
X125695074Y-127547180D01*
X125695074Y-127547180D02*
X125742693Y-127451942D01*
X125742693Y-127451942D02*
X125742693Y-127356704D01*
X125742693Y-127356704D02*
X125695074Y-127261466D01*
X125695074Y-127261466D02*
X125647455Y-127213847D01*
X125647455Y-127213847D02*
X125552217Y-127166228D01*
X125552217Y-127166228D02*
X125361741Y-127118609D01*
X125361741Y-127118609D02*
X125266503Y-127070990D01*
X125266503Y-127070990D02*
X125218884Y-127023371D01*
X125218884Y-127023371D02*
X125171265Y-126928133D01*
X125171265Y-126928133D02*
X125171265Y-126832895D01*
X125171265Y-126832895D02*
X125218884Y-126737657D01*
X125218884Y-126737657D02*
X125266503Y-126690038D01*
X125266503Y-126690038D02*
X125361741Y-126642419D01*
X125361741Y-126642419D02*
X125599836Y-126642419D01*
X125599836Y-126642419D02*
X125742693Y-126690038D01*
X126171265Y-127642419D02*
X126171265Y-126642419D01*
X126171265Y-126642419D02*
X126409360Y-126642419D01*
X126409360Y-126642419D02*
X126552217Y-126690038D01*
X126552217Y-126690038D02*
X126647455Y-126785276D01*
X126647455Y-126785276D02*
X126695074Y-126880514D01*
X126695074Y-126880514D02*
X126742693Y-127070990D01*
X126742693Y-127070990D02*
X126742693Y-127213847D01*
X126742693Y-127213847D02*
X126695074Y-127404323D01*
X126695074Y-127404323D02*
X126647455Y-127499561D01*
X126647455Y-127499561D02*
X126552217Y-127594800D01*
X126552217Y-127594800D02*
X126409360Y-127642419D01*
X126409360Y-127642419D02*
X126171265Y-127642419D01*
X127361741Y-126642419D02*
X127552217Y-126642419D01*
X127552217Y-126642419D02*
X127647455Y-126690038D01*
X127647455Y-126690038D02*
X127742693Y-126785276D01*
X127742693Y-126785276D02*
X127790312Y-126975752D01*
X127790312Y-126975752D02*
X127790312Y-127309085D01*
X127790312Y-127309085D02*
X127742693Y-127499561D01*
X127742693Y-127499561D02*
X127647455Y-127594800D01*
X127647455Y-127594800D02*
X127552217Y-127642419D01*
X127552217Y-127642419D02*
X127361741Y-127642419D01*
X127361741Y-127642419D02*
X127266503Y-127594800D01*
X127266503Y-127594800D02*
X127171265Y-127499561D01*
X127171265Y-127499561D02*
X127123646Y-127309085D01*
X127123646Y-127309085D02*
X127123646Y-126975752D01*
X127123646Y-126975752D02*
X127171265Y-126785276D01*
X127171265Y-126785276D02*
X127266503Y-126690038D01*
X127266503Y-126690038D02*
X127361741Y-126642419D01*
X118092693Y-119892419D02*
X117521265Y-119892419D01*
X117806979Y-119892419D02*
X117806979Y-118892419D01*
X117806979Y-118892419D02*
X117711741Y-119035276D01*
X117711741Y-119035276D02*
X117616503Y-119130514D01*
X117616503Y-119130514D02*
X117521265Y-119178133D01*
X118378408Y-118892419D02*
X118711741Y-119892419D01*
X118711741Y-119892419D02*
X119045074Y-118892419D01*
X119521265Y-119320990D02*
X119426027Y-119273371D01*
X119426027Y-119273371D02*
X119378408Y-119225752D01*
X119378408Y-119225752D02*
X119330789Y-119130514D01*
X119330789Y-119130514D02*
X119330789Y-119082895D01*
X119330789Y-119082895D02*
X119378408Y-118987657D01*
X119378408Y-118987657D02*
X119426027Y-118940038D01*
X119426027Y-118940038D02*
X119521265Y-118892419D01*
X119521265Y-118892419D02*
X119711741Y-118892419D01*
X119711741Y-118892419D02*
X119806979Y-118940038D01*
X119806979Y-118940038D02*
X119854598Y-118987657D01*
X119854598Y-118987657D02*
X119902217Y-119082895D01*
X119902217Y-119082895D02*
X119902217Y-119130514D01*
X119902217Y-119130514D02*
X119854598Y-119225752D01*
X119854598Y-119225752D02*
X119806979Y-119273371D01*
X119806979Y-119273371D02*
X119711741Y-119320990D01*
X119711741Y-119320990D02*
X119521265Y-119320990D01*
X119521265Y-119320990D02*
X119426027Y-119368609D01*
X119426027Y-119368609D02*
X119378408Y-119416228D01*
X119378408Y-119416228D02*
X119330789Y-119511466D01*
X119330789Y-119511466D02*
X119330789Y-119701942D01*
X119330789Y-119701942D02*
X119378408Y-119797180D01*
X119378408Y-119797180D02*
X119426027Y-119844800D01*
X119426027Y-119844800D02*
X119521265Y-119892419D01*
X119521265Y-119892419D02*
X119711741Y-119892419D01*
X119711741Y-119892419D02*
X119806979Y-119844800D01*
X119806979Y-119844800D02*
X119854598Y-119797180D01*
X119854598Y-119797180D02*
X119902217Y-119701942D01*
X119902217Y-119701942D02*
X119902217Y-119511466D01*
X119902217Y-119511466D02*
X119854598Y-119416228D01*
X119854598Y-119416228D02*
X119806979Y-119368609D01*
X119806979Y-119368609D02*
X119711741Y-119320990D01*
X125692693Y-124240038D02*
X125597455Y-124192419D01*
X125597455Y-124192419D02*
X125454598Y-124192419D01*
X125454598Y-124192419D02*
X125311741Y-124240038D01*
X125311741Y-124240038D02*
X125216503Y-124335276D01*
X125216503Y-124335276D02*
X125168884Y-124430514D01*
X125168884Y-124430514D02*
X125121265Y-124620990D01*
X125121265Y-124620990D02*
X125121265Y-124763847D01*
X125121265Y-124763847D02*
X125168884Y-124954323D01*
X125168884Y-124954323D02*
X125216503Y-125049561D01*
X125216503Y-125049561D02*
X125311741Y-125144800D01*
X125311741Y-125144800D02*
X125454598Y-125192419D01*
X125454598Y-125192419D02*
X125549836Y-125192419D01*
X125549836Y-125192419D02*
X125692693Y-125144800D01*
X125692693Y-125144800D02*
X125740312Y-125097180D01*
X125740312Y-125097180D02*
X125740312Y-124763847D01*
X125740312Y-124763847D02*
X125549836Y-124763847D01*
X126168884Y-125192419D02*
X126168884Y-124192419D01*
X126168884Y-124192419D02*
X126740312Y-125192419D01*
X126740312Y-125192419D02*
X126740312Y-124192419D01*
X127216503Y-125192419D02*
X127216503Y-124192419D01*
X127216503Y-124192419D02*
X127454598Y-124192419D01*
X127454598Y-124192419D02*
X127597455Y-124240038D01*
X127597455Y-124240038D02*
X127692693Y-124335276D01*
X127692693Y-124335276D02*
X127740312Y-124430514D01*
X127740312Y-124430514D02*
X127787931Y-124620990D01*
X127787931Y-124620990D02*
X127787931Y-124763847D01*
X127787931Y-124763847D02*
X127740312Y-124954323D01*
X127740312Y-124954323D02*
X127692693Y-125049561D01*
X127692693Y-125049561D02*
X127597455Y-125144800D01*
X127597455Y-125144800D02*
X127454598Y-125192419D01*
X127454598Y-125192419D02*
X127216503Y-125192419D01*
X126221265Y-122306704D02*
X126697455Y-122306704D01*
X126126027Y-122592419D02*
X126459360Y-121592419D01*
X126459360Y-121592419D02*
X126792693Y-122592419D01*
X127697455Y-122497180D02*
X127649836Y-122544800D01*
X127649836Y-122544800D02*
X127506979Y-122592419D01*
X127506979Y-122592419D02*
X127411741Y-122592419D01*
X127411741Y-122592419D02*
X127268884Y-122544800D01*
X127268884Y-122544800D02*
X127173646Y-122449561D01*
X127173646Y-122449561D02*
X127126027Y-122354323D01*
X127126027Y-122354323D02*
X127078408Y-122163847D01*
X127078408Y-122163847D02*
X127078408Y-122020990D01*
X127078408Y-122020990D02*
X127126027Y-121830514D01*
X127126027Y-121830514D02*
X127173646Y-121735276D01*
X127173646Y-121735276D02*
X127268884Y-121640038D01*
X127268884Y-121640038D02*
X127411741Y-121592419D01*
X127411741Y-121592419D02*
X127506979Y-121592419D01*
X127506979Y-121592419D02*
X127649836Y-121640038D01*
X127649836Y-121640038D02*
X127697455Y-121687657D01*
X118192693Y-121490038D02*
X118097455Y-121442419D01*
X118097455Y-121442419D02*
X117954598Y-121442419D01*
X117954598Y-121442419D02*
X117811741Y-121490038D01*
X117811741Y-121490038D02*
X117716503Y-121585276D01*
X117716503Y-121585276D02*
X117668884Y-121680514D01*
X117668884Y-121680514D02*
X117621265Y-121870990D01*
X117621265Y-121870990D02*
X117621265Y-122013847D01*
X117621265Y-122013847D02*
X117668884Y-122204323D01*
X117668884Y-122204323D02*
X117716503Y-122299561D01*
X117716503Y-122299561D02*
X117811741Y-122394800D01*
X117811741Y-122394800D02*
X117954598Y-122442419D01*
X117954598Y-122442419D02*
X118049836Y-122442419D01*
X118049836Y-122442419D02*
X118192693Y-122394800D01*
X118192693Y-122394800D02*
X118240312Y-122347180D01*
X118240312Y-122347180D02*
X118240312Y-122013847D01*
X118240312Y-122013847D02*
X118049836Y-122013847D01*
X118668884Y-122442419D02*
X118668884Y-121442419D01*
X118668884Y-121442419D02*
X119240312Y-122442419D01*
X119240312Y-122442419D02*
X119240312Y-121442419D01*
X119716503Y-122442419D02*
X119716503Y-121442419D01*
X119716503Y-121442419D02*
X119954598Y-121442419D01*
X119954598Y-121442419D02*
X120097455Y-121490038D01*
X120097455Y-121490038D02*
X120192693Y-121585276D01*
X120192693Y-121585276D02*
X120240312Y-121680514D01*
X120240312Y-121680514D02*
X120287931Y-121870990D01*
X120287931Y-121870990D02*
X120287931Y-122013847D01*
X120287931Y-122013847D02*
X120240312Y-122204323D01*
X120240312Y-122204323D02*
X120192693Y-122299561D01*
X120192693Y-122299561D02*
X120097455Y-122394800D01*
X120097455Y-122394800D02*
X119954598Y-122442419D01*
X119954598Y-122442419D02*
X119716503Y-122442419D01*
X126940312Y-130147180D02*
X126892693Y-130194800D01*
X126892693Y-130194800D02*
X126749836Y-130242419D01*
X126749836Y-130242419D02*
X126654598Y-130242419D01*
X126654598Y-130242419D02*
X126511741Y-130194800D01*
X126511741Y-130194800D02*
X126416503Y-130099561D01*
X126416503Y-130099561D02*
X126368884Y-130004323D01*
X126368884Y-130004323D02*
X126321265Y-129813847D01*
X126321265Y-129813847D02*
X126321265Y-129670990D01*
X126321265Y-129670990D02*
X126368884Y-129480514D01*
X126368884Y-129480514D02*
X126416503Y-129385276D01*
X126416503Y-129385276D02*
X126511741Y-129290038D01*
X126511741Y-129290038D02*
X126654598Y-129242419D01*
X126654598Y-129242419D02*
X126749836Y-129242419D01*
X126749836Y-129242419D02*
X126892693Y-129290038D01*
X126892693Y-129290038D02*
X126940312Y-129337657D01*
X127321265Y-130194800D02*
X127464122Y-130242419D01*
X127464122Y-130242419D02*
X127702217Y-130242419D01*
X127702217Y-130242419D02*
X127797455Y-130194800D01*
X127797455Y-130194800D02*
X127845074Y-130147180D01*
X127845074Y-130147180D02*
X127892693Y-130051942D01*
X127892693Y-130051942D02*
X127892693Y-129956704D01*
X127892693Y-129956704D02*
X127845074Y-129861466D01*
X127845074Y-129861466D02*
X127797455Y-129813847D01*
X127797455Y-129813847D02*
X127702217Y-129766228D01*
X127702217Y-129766228D02*
X127511741Y-129718609D01*
X127511741Y-129718609D02*
X127416503Y-129670990D01*
X127416503Y-129670990D02*
X127368884Y-129623371D01*
X127368884Y-129623371D02*
X127321265Y-129528133D01*
X127321265Y-129528133D02*
X127321265Y-129432895D01*
X127321265Y-129432895D02*
X127368884Y-129337657D01*
X127368884Y-129337657D02*
X127416503Y-129290038D01*
X127416503Y-129290038D02*
X127511741Y-129242419D01*
X127511741Y-129242419D02*
X127749836Y-129242419D01*
X127749836Y-129242419D02*
X127892693Y-129290038D01*
X117526027Y-116492419D02*
X117859360Y-117492419D01*
X117859360Y-117492419D02*
X118192693Y-116492419D01*
X118526027Y-117492419D02*
X118526027Y-116492419D01*
X119002217Y-117492419D02*
X119002217Y-116492419D01*
X119002217Y-116492419D02*
X119573645Y-117492419D01*
X119573645Y-117492419D02*
X119573645Y-116492419D01*
X126502217Y-117118609D02*
X126168884Y-117118609D01*
X126168884Y-117642419D02*
X126168884Y-116642419D01*
X126168884Y-116642419D02*
X126645074Y-116642419D01*
X126978408Y-117594800D02*
X127121265Y-117642419D01*
X127121265Y-117642419D02*
X127359360Y-117642419D01*
X127359360Y-117642419D02*
X127454598Y-117594800D01*
X127454598Y-117594800D02*
X127502217Y-117547180D01*
X127502217Y-117547180D02*
X127549836Y-117451942D01*
X127549836Y-117451942D02*
X127549836Y-117356704D01*
X127549836Y-117356704D02*
X127502217Y-117261466D01*
X127502217Y-117261466D02*
X127454598Y-117213847D01*
X127454598Y-117213847D02*
X127359360Y-117166228D01*
X127359360Y-117166228D02*
X127168884Y-117118609D01*
X127168884Y-117118609D02*
X127073646Y-117070990D01*
X127073646Y-117070990D02*
X127026027Y-117023371D01*
X127026027Y-117023371D02*
X126978408Y-116928133D01*
X126978408Y-116928133D02*
X126978408Y-116832895D01*
X126978408Y-116832895D02*
X127026027Y-116737657D01*
X127026027Y-116737657D02*
X127073646Y-116690038D01*
X127073646Y-116690038D02*
X127168884Y-116642419D01*
X127168884Y-116642419D02*
X127406979Y-116642419D01*
X127406979Y-116642419D02*
X127549836Y-116690038D01*
X117671265Y-125044800D02*
X117814122Y-125092419D01*
X117814122Y-125092419D02*
X118052217Y-125092419D01*
X118052217Y-125092419D02*
X118147455Y-125044800D01*
X118147455Y-125044800D02*
X118195074Y-124997180D01*
X118195074Y-124997180D02*
X118242693Y-124901942D01*
X118242693Y-124901942D02*
X118242693Y-124806704D01*
X118242693Y-124806704D02*
X118195074Y-124711466D01*
X118195074Y-124711466D02*
X118147455Y-124663847D01*
X118147455Y-124663847D02*
X118052217Y-124616228D01*
X118052217Y-124616228D02*
X117861741Y-124568609D01*
X117861741Y-124568609D02*
X117766503Y-124520990D01*
X117766503Y-124520990D02*
X117718884Y-124473371D01*
X117718884Y-124473371D02*
X117671265Y-124378133D01*
X117671265Y-124378133D02*
X117671265Y-124282895D01*
X117671265Y-124282895D02*
X117718884Y-124187657D01*
X117718884Y-124187657D02*
X117766503Y-124140038D01*
X117766503Y-124140038D02*
X117861741Y-124092419D01*
X117861741Y-124092419D02*
X118099836Y-124092419D01*
X118099836Y-124092419D02*
X118242693Y-124140038D01*
X119242693Y-124997180D02*
X119195074Y-125044800D01*
X119195074Y-125044800D02*
X119052217Y-125092419D01*
X119052217Y-125092419D02*
X118956979Y-125092419D01*
X118956979Y-125092419D02*
X118814122Y-125044800D01*
X118814122Y-125044800D02*
X118718884Y-124949561D01*
X118718884Y-124949561D02*
X118671265Y-124854323D01*
X118671265Y-124854323D02*
X118623646Y-124663847D01*
X118623646Y-124663847D02*
X118623646Y-124520990D01*
X118623646Y-124520990D02*
X118671265Y-124330514D01*
X118671265Y-124330514D02*
X118718884Y-124235276D01*
X118718884Y-124235276D02*
X118814122Y-124140038D01*
X118814122Y-124140038D02*
X118956979Y-124092419D01*
X118956979Y-124092419D02*
X119052217Y-124092419D01*
X119052217Y-124092419D02*
X119195074Y-124140038D01*
X119195074Y-124140038D02*
X119242693Y-124187657D01*
X120147455Y-125092419D02*
X119671265Y-125092419D01*
X119671265Y-125092419D02*
X119671265Y-124092419D01*
X126271265Y-119706704D02*
X126747455Y-119706704D01*
X126176027Y-119992419D02*
X126509360Y-118992419D01*
X126509360Y-118992419D02*
X126842693Y-119992419D01*
X127176027Y-119992419D02*
X127176027Y-118992419D01*
X127176027Y-118992419D02*
X127414122Y-118992419D01*
X127414122Y-118992419D02*
X127556979Y-119040038D01*
X127556979Y-119040038D02*
X127652217Y-119135276D01*
X127652217Y-119135276D02*
X127699836Y-119230514D01*
X127699836Y-119230514D02*
X127747455Y-119420990D01*
X127747455Y-119420990D02*
X127747455Y-119563847D01*
X127747455Y-119563847D02*
X127699836Y-119754323D01*
X127699836Y-119754323D02*
X127652217Y-119849561D01*
X127652217Y-119849561D02*
X127556979Y-119944800D01*
X127556979Y-119944800D02*
X127414122Y-119992419D01*
X127414122Y-119992419D02*
X127176027Y-119992419D01*
X117868884Y-130192419D02*
X117868884Y-129192419D01*
X118345074Y-130192419D02*
X118345074Y-129192419D01*
X118345074Y-129192419D02*
X118916502Y-130192419D01*
X118916502Y-130192419D02*
X118916502Y-129192419D01*
X119249836Y-129192419D02*
X119821264Y-129192419D01*
X119535550Y-130192419D02*
X119535550Y-129192419D01*
X117671265Y-127494800D02*
X117814122Y-127542419D01*
X117814122Y-127542419D02*
X118052217Y-127542419D01*
X118052217Y-127542419D02*
X118147455Y-127494800D01*
X118147455Y-127494800D02*
X118195074Y-127447180D01*
X118195074Y-127447180D02*
X118242693Y-127351942D01*
X118242693Y-127351942D02*
X118242693Y-127256704D01*
X118242693Y-127256704D02*
X118195074Y-127161466D01*
X118195074Y-127161466D02*
X118147455Y-127113847D01*
X118147455Y-127113847D02*
X118052217Y-127066228D01*
X118052217Y-127066228D02*
X117861741Y-127018609D01*
X117861741Y-127018609D02*
X117766503Y-126970990D01*
X117766503Y-126970990D02*
X117718884Y-126923371D01*
X117718884Y-126923371D02*
X117671265Y-126828133D01*
X117671265Y-126828133D02*
X117671265Y-126732895D01*
X117671265Y-126732895D02*
X117718884Y-126637657D01*
X117718884Y-126637657D02*
X117766503Y-126590038D01*
X117766503Y-126590038D02*
X117861741Y-126542419D01*
X117861741Y-126542419D02*
X118099836Y-126542419D01*
X118099836Y-126542419D02*
X118242693Y-126590038D01*
X118671265Y-127542419D02*
X118671265Y-126542419D01*
X118671265Y-126542419D02*
X118909360Y-126542419D01*
X118909360Y-126542419D02*
X119052217Y-126590038D01*
X119052217Y-126590038D02*
X119147455Y-126685276D01*
X119147455Y-126685276D02*
X119195074Y-126780514D01*
X119195074Y-126780514D02*
X119242693Y-126970990D01*
X119242693Y-126970990D02*
X119242693Y-127113847D01*
X119242693Y-127113847D02*
X119195074Y-127304323D01*
X119195074Y-127304323D02*
X119147455Y-127399561D01*
X119147455Y-127399561D02*
X119052217Y-127494800D01*
X119052217Y-127494800D02*
X118909360Y-127542419D01*
X118909360Y-127542419D02*
X118671265Y-127542419D01*
X119623646Y-127256704D02*
X120099836Y-127256704D01*
X119528408Y-127542419D02*
X119861741Y-126542419D01*
X119861741Y-126542419D02*
X120195074Y-127542419D01*
D11*
X77738095Y-169254819D02*
X77738095Y-168254819D01*
X77738095Y-168731009D02*
X78309523Y-168731009D01*
X78309523Y-169254819D02*
X78309523Y-168254819D01*
X78690476Y-168254819D02*
X79309523Y-168254819D01*
X79309523Y-168254819D02*
X78976190Y-168635771D01*
X78976190Y-168635771D02*
X79119047Y-168635771D01*
X79119047Y-168635771D02*
X79214285Y-168683390D01*
X79214285Y-168683390D02*
X79261904Y-168731009D01*
X79261904Y-168731009D02*
X79309523Y-168826247D01*
X79309523Y-168826247D02*
X79309523Y-169064342D01*
X79309523Y-169064342D02*
X79261904Y-169159580D01*
X79261904Y-169159580D02*
X79214285Y-169207200D01*
X79214285Y-169207200D02*
X79119047Y-169254819D01*
X79119047Y-169254819D02*
X78833333Y-169254819D01*
X78833333Y-169254819D02*
X78738095Y-169207200D01*
X78738095Y-169207200D02*
X78690476Y-169159580D01*
X96848095Y-147304819D02*
X96848095Y-148114342D01*
X96848095Y-148114342D02*
X96895714Y-148209580D01*
X96895714Y-148209580D02*
X96943333Y-148257200D01*
X96943333Y-148257200D02*
X97038571Y-148304819D01*
X97038571Y-148304819D02*
X97229047Y-148304819D01*
X97229047Y-148304819D02*
X97324285Y-148257200D01*
X97324285Y-148257200D02*
X97371904Y-148209580D01*
X97371904Y-148209580D02*
X97419523Y-148114342D01*
X97419523Y-148114342D02*
X97419523Y-147304819D01*
X98419523Y-148304819D02*
X97848095Y-148304819D01*
X98133809Y-148304819D02*
X98133809Y-147304819D01*
X98133809Y-147304819D02*
X98038571Y-147447676D01*
X98038571Y-147447676D02*
X97943333Y-147542914D01*
X97943333Y-147542914D02*
X97848095Y-147590533D01*
X109723372Y-144161494D02*
X109642560Y-144188431D01*
X109642560Y-144188431D02*
X109561748Y-144269243D01*
X109561748Y-144269243D02*
X109507873Y-144376993D01*
X109507873Y-144376993D02*
X109507873Y-144484742D01*
X109507873Y-144484742D02*
X109534810Y-144565555D01*
X109534810Y-144565555D02*
X109615623Y-144700242D01*
X109615623Y-144700242D02*
X109696435Y-144781054D01*
X109696435Y-144781054D02*
X109831122Y-144861866D01*
X109831122Y-144861866D02*
X109911934Y-144888803D01*
X109911934Y-144888803D02*
X110019684Y-144888803D01*
X110019684Y-144888803D02*
X110127433Y-144834929D01*
X110127433Y-144834929D02*
X110181308Y-144781054D01*
X110181308Y-144781054D02*
X110235183Y-144673304D01*
X110235183Y-144673304D02*
X110235183Y-144619429D01*
X110235183Y-144619429D02*
X110046621Y-144430868D01*
X110046621Y-144430868D02*
X109938871Y-144538617D01*
X110531494Y-144430868D02*
X109965809Y-143865182D01*
X109965809Y-143865182D02*
X110181308Y-143649683D01*
X110181308Y-143649683D02*
X110262120Y-143622746D01*
X110262120Y-143622746D02*
X110315995Y-143622746D01*
X110315995Y-143622746D02*
X110396807Y-143649683D01*
X110396807Y-143649683D02*
X110477619Y-143730495D01*
X110477619Y-143730495D02*
X110504557Y-143811307D01*
X110504557Y-143811307D02*
X110504557Y-143865182D01*
X110504557Y-143865182D02*
X110477619Y-143945994D01*
X110477619Y-143945994D02*
X110262120Y-144161494D01*
X111124117Y-143838245D02*
X111231867Y-143730495D01*
X111231867Y-143730495D02*
X111258804Y-143649683D01*
X111258804Y-143649683D02*
X111258804Y-143595808D01*
X111258804Y-143595808D02*
X111231867Y-143461121D01*
X111231867Y-143461121D02*
X111151054Y-143326434D01*
X111151054Y-143326434D02*
X110935555Y-143110935D01*
X110935555Y-143110935D02*
X110854743Y-143083998D01*
X110854743Y-143083998D02*
X110800868Y-143083998D01*
X110800868Y-143083998D02*
X110720056Y-143110935D01*
X110720056Y-143110935D02*
X110612306Y-143218685D01*
X110612306Y-143218685D02*
X110585369Y-143299497D01*
X110585369Y-143299497D02*
X110585369Y-143353372D01*
X110585369Y-143353372D02*
X110612306Y-143434184D01*
X110612306Y-143434184D02*
X110746993Y-143568871D01*
X110746993Y-143568871D02*
X110827806Y-143595808D01*
X110827806Y-143595808D02*
X110881680Y-143595808D01*
X110881680Y-143595808D02*
X110962493Y-143568871D01*
X110962493Y-143568871D02*
X111070242Y-143461121D01*
X111070242Y-143461121D02*
X111097180Y-143380309D01*
X111097180Y-143380309D02*
X111097180Y-143326434D01*
X111097180Y-143326434D02*
X111070242Y-143245622D01*
X82963406Y-172777585D02*
X83717653Y-173154709D01*
X83717653Y-173154709D02*
X83340529Y-172400462D01*
X83987027Y-172292712D02*
X84094776Y-172238838D01*
X84094776Y-172238838D02*
X84148651Y-172238838D01*
X84148651Y-172238838D02*
X84229463Y-172265775D01*
X84229463Y-172265775D02*
X84310276Y-172346587D01*
X84310276Y-172346587D02*
X84337213Y-172427399D01*
X84337213Y-172427399D02*
X84337213Y-172481274D01*
X84337213Y-172481274D02*
X84310276Y-172562086D01*
X84310276Y-172562086D02*
X84094776Y-172777586D01*
X84094776Y-172777586D02*
X83529091Y-172211900D01*
X83529091Y-172211900D02*
X83717653Y-172023338D01*
X83717653Y-172023338D02*
X83798465Y-171996401D01*
X83798465Y-171996401D02*
X83852340Y-171996401D01*
X83852340Y-171996401D02*
X83933152Y-172023338D01*
X83933152Y-172023338D02*
X83987027Y-172077213D01*
X83987027Y-172077213D02*
X84013964Y-172158025D01*
X84013964Y-172158025D02*
X84013964Y-172211900D01*
X84013964Y-172211900D02*
X83987027Y-172292712D01*
X83987027Y-172292712D02*
X83798465Y-172481274D01*
X84094776Y-171646215D02*
X84552712Y-172104151D01*
X84552712Y-172104151D02*
X84633524Y-172131088D01*
X84633524Y-172131088D02*
X84687399Y-172131088D01*
X84687399Y-172131088D02*
X84768211Y-172104151D01*
X84768211Y-172104151D02*
X84875961Y-171996401D01*
X84875961Y-171996401D02*
X84902898Y-171915589D01*
X84902898Y-171915589D02*
X84902898Y-171861714D01*
X84902898Y-171861714D02*
X84875961Y-171780902D01*
X84875961Y-171780902D02*
X84418025Y-171322966D01*
X85199210Y-171619277D02*
X85306959Y-171565403D01*
X85306959Y-171565403D02*
X85441646Y-171430716D01*
X85441646Y-171430716D02*
X85468584Y-171349903D01*
X85468584Y-171349903D02*
X85468584Y-171296029D01*
X85468584Y-171296029D02*
X85441646Y-171215216D01*
X85441646Y-171215216D02*
X85387771Y-171161342D01*
X85387771Y-171161342D02*
X85306959Y-171134404D01*
X85306959Y-171134404D02*
X85253084Y-171134404D01*
X85253084Y-171134404D02*
X85172272Y-171161342D01*
X85172272Y-171161342D02*
X85037585Y-171242154D01*
X85037585Y-171242154D02*
X84956773Y-171269091D01*
X84956773Y-171269091D02*
X84902898Y-171269091D01*
X84902898Y-171269091D02*
X84822086Y-171242154D01*
X84822086Y-171242154D02*
X84768211Y-171188279D01*
X84768211Y-171188279D02*
X84741274Y-171107467D01*
X84741274Y-171107467D02*
X84741274Y-171053592D01*
X84741274Y-171053592D02*
X84768211Y-170972780D01*
X84768211Y-170972780D02*
X84902898Y-170838093D01*
X84902898Y-170838093D02*
X85010648Y-170784218D01*
X109623372Y-149271494D02*
X109542560Y-149298431D01*
X109542560Y-149298431D02*
X109461748Y-149379243D01*
X109461748Y-149379243D02*
X109407873Y-149486993D01*
X109407873Y-149486993D02*
X109407873Y-149594742D01*
X109407873Y-149594742D02*
X109434810Y-149675555D01*
X109434810Y-149675555D02*
X109515623Y-149810242D01*
X109515623Y-149810242D02*
X109596435Y-149891054D01*
X109596435Y-149891054D02*
X109731122Y-149971866D01*
X109731122Y-149971866D02*
X109811934Y-149998803D01*
X109811934Y-149998803D02*
X109919684Y-149998803D01*
X109919684Y-149998803D02*
X110027433Y-149944929D01*
X110027433Y-149944929D02*
X110081308Y-149891054D01*
X110081308Y-149891054D02*
X110135183Y-149783304D01*
X110135183Y-149783304D02*
X110135183Y-149729429D01*
X110135183Y-149729429D02*
X109946621Y-149540868D01*
X109946621Y-149540868D02*
X109838871Y-149648617D01*
X110431494Y-149540868D02*
X109865809Y-148975182D01*
X109865809Y-148975182D02*
X110081308Y-148759683D01*
X110081308Y-148759683D02*
X110162120Y-148732746D01*
X110162120Y-148732746D02*
X110215995Y-148732746D01*
X110215995Y-148732746D02*
X110296807Y-148759683D01*
X110296807Y-148759683D02*
X110377619Y-148840495D01*
X110377619Y-148840495D02*
X110404557Y-148921307D01*
X110404557Y-148921307D02*
X110404557Y-148975182D01*
X110404557Y-148975182D02*
X110377619Y-149055994D01*
X110377619Y-149055994D02*
X110162120Y-149271494D01*
X110377619Y-148463372D02*
X110754743Y-148086248D01*
X110754743Y-148086248D02*
X111077992Y-148894370D01*
X109823372Y-169571494D02*
X109742560Y-169598431D01*
X109742560Y-169598431D02*
X109661748Y-169679243D01*
X109661748Y-169679243D02*
X109607873Y-169786993D01*
X109607873Y-169786993D02*
X109607873Y-169894742D01*
X109607873Y-169894742D02*
X109634810Y-169975555D01*
X109634810Y-169975555D02*
X109715623Y-170110242D01*
X109715623Y-170110242D02*
X109796435Y-170191054D01*
X109796435Y-170191054D02*
X109931122Y-170271866D01*
X109931122Y-170271866D02*
X110011934Y-170298803D01*
X110011934Y-170298803D02*
X110119684Y-170298803D01*
X110119684Y-170298803D02*
X110227433Y-170244929D01*
X110227433Y-170244929D02*
X110281308Y-170191054D01*
X110281308Y-170191054D02*
X110335183Y-170083304D01*
X110335183Y-170083304D02*
X110335183Y-170029429D01*
X110335183Y-170029429D02*
X110146621Y-169840868D01*
X110146621Y-169840868D02*
X110038871Y-169948617D01*
X110631494Y-169840868D02*
X110065809Y-169275182D01*
X110065809Y-169275182D02*
X110281308Y-169059683D01*
X110281308Y-169059683D02*
X110362120Y-169032746D01*
X110362120Y-169032746D02*
X110415995Y-169032746D01*
X110415995Y-169032746D02*
X110496807Y-169059683D01*
X110496807Y-169059683D02*
X110577619Y-169140495D01*
X110577619Y-169140495D02*
X110604557Y-169221307D01*
X110604557Y-169221307D02*
X110604557Y-169275182D01*
X110604557Y-169275182D02*
X110577619Y-169355994D01*
X110577619Y-169355994D02*
X110362120Y-169571494D01*
X111493491Y-168978871D02*
X111170242Y-169302120D01*
X111331867Y-169140495D02*
X110766181Y-168574810D01*
X110766181Y-168574810D02*
X110793119Y-168709497D01*
X110793119Y-168709497D02*
X110793119Y-168817246D01*
X110793119Y-168817246D02*
X110766181Y-168898059D01*
X83599998Y-152040868D02*
X83519185Y-152067805D01*
X83519185Y-152067805D02*
X83438373Y-152148618D01*
X83438373Y-152148618D02*
X83384498Y-152256367D01*
X83384498Y-152256367D02*
X83384498Y-152364117D01*
X83384498Y-152364117D02*
X83411436Y-152444929D01*
X83411436Y-152444929D02*
X83492248Y-152579616D01*
X83492248Y-152579616D02*
X83573060Y-152660428D01*
X83573060Y-152660428D02*
X83707747Y-152741241D01*
X83707747Y-152741241D02*
X83788560Y-152768178D01*
X83788560Y-152768178D02*
X83896309Y-152768178D01*
X83896309Y-152768178D02*
X84004059Y-152714303D01*
X84004059Y-152714303D02*
X84057934Y-152660428D01*
X84057934Y-152660428D02*
X84111808Y-152552679D01*
X84111808Y-152552679D02*
X84111808Y-152498804D01*
X84111808Y-152498804D02*
X83923247Y-152310242D01*
X83923247Y-152310242D02*
X83815497Y-152417992D01*
X84408120Y-152310242D02*
X83842434Y-151744557D01*
X83842434Y-151744557D02*
X84057934Y-151529057D01*
X84057934Y-151529057D02*
X84138746Y-151502120D01*
X84138746Y-151502120D02*
X84192621Y-151502120D01*
X84192621Y-151502120D02*
X84273433Y-151529057D01*
X84273433Y-151529057D02*
X84354245Y-151609870D01*
X84354245Y-151609870D02*
X84381182Y-151690682D01*
X84381182Y-151690682D02*
X84381182Y-151744557D01*
X84381182Y-151744557D02*
X84354245Y-151825369D01*
X84354245Y-151825369D02*
X84138746Y-152040868D01*
X84435057Y-151259683D02*
X84435057Y-151205809D01*
X84435057Y-151205809D02*
X84461995Y-151124996D01*
X84461995Y-151124996D02*
X84596682Y-150990309D01*
X84596682Y-150990309D02*
X84677494Y-150963372D01*
X84677494Y-150963372D02*
X84731369Y-150963372D01*
X84731369Y-150963372D02*
X84812181Y-150990309D01*
X84812181Y-150990309D02*
X84866056Y-151044184D01*
X84866056Y-151044184D02*
X84919930Y-151151934D01*
X84919930Y-151151934D02*
X84919930Y-151798431D01*
X84919930Y-151798431D02*
X85270117Y-151448245D01*
X84892993Y-150693998D02*
X85270117Y-150316874D01*
X85270117Y-150316874D02*
X85593366Y-151124996D01*
X109696435Y-167048431D02*
X109615623Y-167075368D01*
X109615623Y-167075368D02*
X109534811Y-167156180D01*
X109534811Y-167156180D02*
X109480936Y-167263930D01*
X109480936Y-167263930D02*
X109480936Y-167371680D01*
X109480936Y-167371680D02*
X109507873Y-167452492D01*
X109507873Y-167452492D02*
X109588685Y-167587179D01*
X109588685Y-167587179D02*
X109669498Y-167667991D01*
X109669498Y-167667991D02*
X109804185Y-167748803D01*
X109804185Y-167748803D02*
X109884997Y-167775741D01*
X109884997Y-167775741D02*
X109992746Y-167775741D01*
X109992746Y-167775741D02*
X110100496Y-167721866D01*
X110100496Y-167721866D02*
X110154371Y-167667991D01*
X110154371Y-167667991D02*
X110208246Y-167560241D01*
X110208246Y-167560241D02*
X110208246Y-167506367D01*
X110208246Y-167506367D02*
X110019684Y-167317805D01*
X110019684Y-167317805D02*
X109911934Y-167425554D01*
X110504557Y-167317805D02*
X109938872Y-166752119D01*
X109938872Y-166752119D02*
X110827806Y-166994556D01*
X110827806Y-166994556D02*
X110262120Y-166428871D01*
X111097180Y-166725182D02*
X110531494Y-166159497D01*
X110531494Y-166159497D02*
X110666181Y-166024810D01*
X110666181Y-166024810D02*
X110773931Y-165970935D01*
X110773931Y-165970935D02*
X110881680Y-165970935D01*
X110881680Y-165970935D02*
X110962493Y-165997872D01*
X110962493Y-165997872D02*
X111097180Y-166078685D01*
X111097180Y-166078685D02*
X111177992Y-166159497D01*
X111177992Y-166159497D02*
X111258804Y-166294184D01*
X111258804Y-166294184D02*
X111285741Y-166374996D01*
X111285741Y-166374996D02*
X111285741Y-166482746D01*
X111285741Y-166482746D02*
X111231867Y-166590495D01*
X111231867Y-166590495D02*
X111097180Y-166725182D01*
X109723372Y-156861494D02*
X109642560Y-156888431D01*
X109642560Y-156888431D02*
X109561748Y-156969243D01*
X109561748Y-156969243D02*
X109507873Y-157076993D01*
X109507873Y-157076993D02*
X109507873Y-157184742D01*
X109507873Y-157184742D02*
X109534810Y-157265555D01*
X109534810Y-157265555D02*
X109615623Y-157400242D01*
X109615623Y-157400242D02*
X109696435Y-157481054D01*
X109696435Y-157481054D02*
X109831122Y-157561866D01*
X109831122Y-157561866D02*
X109911934Y-157588803D01*
X109911934Y-157588803D02*
X110019684Y-157588803D01*
X110019684Y-157588803D02*
X110127433Y-157534929D01*
X110127433Y-157534929D02*
X110181308Y-157481054D01*
X110181308Y-157481054D02*
X110235183Y-157373304D01*
X110235183Y-157373304D02*
X110235183Y-157319429D01*
X110235183Y-157319429D02*
X110046621Y-157130868D01*
X110046621Y-157130868D02*
X109938871Y-157238617D01*
X110531494Y-157130868D02*
X109965809Y-156565182D01*
X109965809Y-156565182D02*
X110181308Y-156349683D01*
X110181308Y-156349683D02*
X110262120Y-156322746D01*
X110262120Y-156322746D02*
X110315995Y-156322746D01*
X110315995Y-156322746D02*
X110396807Y-156349683D01*
X110396807Y-156349683D02*
X110477619Y-156430495D01*
X110477619Y-156430495D02*
X110504557Y-156511307D01*
X110504557Y-156511307D02*
X110504557Y-156565182D01*
X110504557Y-156565182D02*
X110477619Y-156645994D01*
X110477619Y-156645994D02*
X110262120Y-156861494D01*
X110800868Y-155730123D02*
X110531494Y-155999497D01*
X110531494Y-155999497D02*
X110773931Y-156295808D01*
X110773931Y-156295808D02*
X110773931Y-156241933D01*
X110773931Y-156241933D02*
X110800868Y-156161121D01*
X110800868Y-156161121D02*
X110935555Y-156026434D01*
X110935555Y-156026434D02*
X111016367Y-155999497D01*
X111016367Y-155999497D02*
X111070242Y-155999497D01*
X111070242Y-155999497D02*
X111151054Y-156026434D01*
X111151054Y-156026434D02*
X111285741Y-156161121D01*
X111285741Y-156161121D02*
X111312679Y-156241933D01*
X111312679Y-156241933D02*
X111312679Y-156295808D01*
X111312679Y-156295808D02*
X111285741Y-156376620D01*
X111285741Y-156376620D02*
X111151054Y-156511307D01*
X111151054Y-156511307D02*
X111070242Y-156538245D01*
X111070242Y-156538245D02*
X111016367Y-156538245D01*
X109707998Y-131730868D02*
X109627185Y-131757805D01*
X109627185Y-131757805D02*
X109546373Y-131838618D01*
X109546373Y-131838618D02*
X109492498Y-131946367D01*
X109492498Y-131946367D02*
X109492498Y-132054117D01*
X109492498Y-132054117D02*
X109519436Y-132134929D01*
X109519436Y-132134929D02*
X109600248Y-132269616D01*
X109600248Y-132269616D02*
X109681060Y-132350428D01*
X109681060Y-132350428D02*
X109815747Y-132431241D01*
X109815747Y-132431241D02*
X109896560Y-132458178D01*
X109896560Y-132458178D02*
X110004309Y-132458178D01*
X110004309Y-132458178D02*
X110112059Y-132404303D01*
X110112059Y-132404303D02*
X110165934Y-132350428D01*
X110165934Y-132350428D02*
X110219808Y-132242679D01*
X110219808Y-132242679D02*
X110219808Y-132188804D01*
X110219808Y-132188804D02*
X110031247Y-132000242D01*
X110031247Y-132000242D02*
X109923497Y-132107992D01*
X110516120Y-132000242D02*
X109950434Y-131434557D01*
X109950434Y-131434557D02*
X110165934Y-131219057D01*
X110165934Y-131219057D02*
X110246746Y-131192120D01*
X110246746Y-131192120D02*
X110300621Y-131192120D01*
X110300621Y-131192120D02*
X110381433Y-131219057D01*
X110381433Y-131219057D02*
X110462245Y-131299870D01*
X110462245Y-131299870D02*
X110489182Y-131380682D01*
X110489182Y-131380682D02*
X110489182Y-131434557D01*
X110489182Y-131434557D02*
X110462245Y-131515369D01*
X110462245Y-131515369D02*
X110246746Y-131730868D01*
X111378117Y-131138245D02*
X111054868Y-131461494D01*
X111216492Y-131299870D02*
X110650807Y-130734184D01*
X110650807Y-130734184D02*
X110677744Y-130868871D01*
X110677744Y-130868871D02*
X110677744Y-130976621D01*
X110677744Y-130976621D02*
X110650807Y-131057433D01*
X111000993Y-130383998D02*
X111351179Y-130033812D01*
X111351179Y-130033812D02*
X111378117Y-130437873D01*
X111378117Y-130437873D02*
X111458929Y-130357060D01*
X111458929Y-130357060D02*
X111539741Y-130330123D01*
X111539741Y-130330123D02*
X111593616Y-130330123D01*
X111593616Y-130330123D02*
X111674428Y-130357060D01*
X111674428Y-130357060D02*
X111809115Y-130491747D01*
X111809115Y-130491747D02*
X111836053Y-130572560D01*
X111836053Y-130572560D02*
X111836053Y-130626434D01*
X111836053Y-130626434D02*
X111809115Y-130707247D01*
X111809115Y-130707247D02*
X111647491Y-130868871D01*
X111647491Y-130868871D02*
X111566679Y-130895808D01*
X111566679Y-130895808D02*
X111512804Y-130895808D01*
X109696435Y-128948431D02*
X109615623Y-128975368D01*
X109615623Y-128975368D02*
X109534811Y-129056180D01*
X109534811Y-129056180D02*
X109480936Y-129163930D01*
X109480936Y-129163930D02*
X109480936Y-129271680D01*
X109480936Y-129271680D02*
X109507873Y-129352492D01*
X109507873Y-129352492D02*
X109588685Y-129487179D01*
X109588685Y-129487179D02*
X109669498Y-129567991D01*
X109669498Y-129567991D02*
X109804185Y-129648803D01*
X109804185Y-129648803D02*
X109884997Y-129675741D01*
X109884997Y-129675741D02*
X109992746Y-129675741D01*
X109992746Y-129675741D02*
X110100496Y-129621866D01*
X110100496Y-129621866D02*
X110154371Y-129567991D01*
X110154371Y-129567991D02*
X110208246Y-129460241D01*
X110208246Y-129460241D02*
X110208246Y-129406367D01*
X110208246Y-129406367D02*
X110019684Y-129217805D01*
X110019684Y-129217805D02*
X109911934Y-129325554D01*
X110504557Y-129217805D02*
X109938872Y-128652119D01*
X109938872Y-128652119D02*
X110827806Y-128894556D01*
X110827806Y-128894556D02*
X110262120Y-128328871D01*
X111097180Y-128625182D02*
X110531494Y-128059497D01*
X110531494Y-128059497D02*
X110666181Y-127924810D01*
X110666181Y-127924810D02*
X110773931Y-127870935D01*
X110773931Y-127870935D02*
X110881680Y-127870935D01*
X110881680Y-127870935D02*
X110962493Y-127897872D01*
X110962493Y-127897872D02*
X111097180Y-127978685D01*
X111097180Y-127978685D02*
X111177992Y-128059497D01*
X111177992Y-128059497D02*
X111258804Y-128194184D01*
X111258804Y-128194184D02*
X111285741Y-128274996D01*
X111285741Y-128274996D02*
X111285741Y-128382746D01*
X111285741Y-128382746D02*
X111231867Y-128490495D01*
X111231867Y-128490495D02*
X111097180Y-128625182D01*
X84096435Y-167048431D02*
X84015623Y-167075368D01*
X84015623Y-167075368D02*
X83934811Y-167156180D01*
X83934811Y-167156180D02*
X83880936Y-167263930D01*
X83880936Y-167263930D02*
X83880936Y-167371680D01*
X83880936Y-167371680D02*
X83907873Y-167452492D01*
X83907873Y-167452492D02*
X83988685Y-167587179D01*
X83988685Y-167587179D02*
X84069498Y-167667991D01*
X84069498Y-167667991D02*
X84204185Y-167748803D01*
X84204185Y-167748803D02*
X84284997Y-167775741D01*
X84284997Y-167775741D02*
X84392746Y-167775741D01*
X84392746Y-167775741D02*
X84500496Y-167721866D01*
X84500496Y-167721866D02*
X84554371Y-167667991D01*
X84554371Y-167667991D02*
X84608246Y-167560241D01*
X84608246Y-167560241D02*
X84608246Y-167506367D01*
X84608246Y-167506367D02*
X84419684Y-167317805D01*
X84419684Y-167317805D02*
X84311934Y-167425554D01*
X84904557Y-167317805D02*
X84338872Y-166752119D01*
X84338872Y-166752119D02*
X85227806Y-166994556D01*
X85227806Y-166994556D02*
X84662120Y-166428871D01*
X85497180Y-166725182D02*
X84931494Y-166159497D01*
X84931494Y-166159497D02*
X85066181Y-166024810D01*
X85066181Y-166024810D02*
X85173931Y-165970935D01*
X85173931Y-165970935D02*
X85281680Y-165970935D01*
X85281680Y-165970935D02*
X85362493Y-165997872D01*
X85362493Y-165997872D02*
X85497180Y-166078685D01*
X85497180Y-166078685D02*
X85577992Y-166159497D01*
X85577992Y-166159497D02*
X85658804Y-166294184D01*
X85658804Y-166294184D02*
X85685741Y-166374996D01*
X85685741Y-166374996D02*
X85685741Y-166482746D01*
X85685741Y-166482746D02*
X85631867Y-166590495D01*
X85631867Y-166590495D02*
X85497180Y-166725182D01*
X83599998Y-144430868D02*
X83519185Y-144457805D01*
X83519185Y-144457805D02*
X83438373Y-144538618D01*
X83438373Y-144538618D02*
X83384498Y-144646367D01*
X83384498Y-144646367D02*
X83384498Y-144754117D01*
X83384498Y-144754117D02*
X83411436Y-144834929D01*
X83411436Y-144834929D02*
X83492248Y-144969616D01*
X83492248Y-144969616D02*
X83573060Y-145050428D01*
X83573060Y-145050428D02*
X83707747Y-145131241D01*
X83707747Y-145131241D02*
X83788560Y-145158178D01*
X83788560Y-145158178D02*
X83896309Y-145158178D01*
X83896309Y-145158178D02*
X84004059Y-145104303D01*
X84004059Y-145104303D02*
X84057934Y-145050428D01*
X84057934Y-145050428D02*
X84111808Y-144942679D01*
X84111808Y-144942679D02*
X84111808Y-144888804D01*
X84111808Y-144888804D02*
X83923247Y-144700242D01*
X83923247Y-144700242D02*
X83815497Y-144807992D01*
X84408120Y-144700242D02*
X83842434Y-144134557D01*
X83842434Y-144134557D02*
X84057934Y-143919057D01*
X84057934Y-143919057D02*
X84138746Y-143892120D01*
X84138746Y-143892120D02*
X84192621Y-143892120D01*
X84192621Y-143892120D02*
X84273433Y-143919057D01*
X84273433Y-143919057D02*
X84354245Y-143999870D01*
X84354245Y-143999870D02*
X84381182Y-144080682D01*
X84381182Y-144080682D02*
X84381182Y-144134557D01*
X84381182Y-144134557D02*
X84354245Y-144215369D01*
X84354245Y-144215369D02*
X84138746Y-144430868D01*
X84435057Y-143649683D02*
X84435057Y-143595809D01*
X84435057Y-143595809D02*
X84461995Y-143514996D01*
X84461995Y-143514996D02*
X84596682Y-143380309D01*
X84596682Y-143380309D02*
X84677494Y-143353372D01*
X84677494Y-143353372D02*
X84731369Y-143353372D01*
X84731369Y-143353372D02*
X84812181Y-143380309D01*
X84812181Y-143380309D02*
X84866056Y-143434184D01*
X84866056Y-143434184D02*
X84919930Y-143541934D01*
X84919930Y-143541934D02*
X84919930Y-144188431D01*
X84919930Y-144188431D02*
X85270117Y-143838245D01*
X84973805Y-143110935D02*
X84973805Y-143057060D01*
X84973805Y-143057060D02*
X85000743Y-142976248D01*
X85000743Y-142976248D02*
X85135430Y-142841561D01*
X85135430Y-142841561D02*
X85216242Y-142814624D01*
X85216242Y-142814624D02*
X85270117Y-142814624D01*
X85270117Y-142814624D02*
X85350929Y-142841561D01*
X85350929Y-142841561D02*
X85404804Y-142895436D01*
X85404804Y-142895436D02*
X85458679Y-143003186D01*
X85458679Y-143003186D02*
X85458679Y-143649683D01*
X85458679Y-143649683D02*
X85808865Y-143299497D01*
X81765064Y-162384049D02*
X82034438Y-162114675D01*
X81872813Y-162599549D02*
X81495690Y-161845301D01*
X81495690Y-161845301D02*
X82249937Y-162222425D01*
X82438499Y-162033863D02*
X81872813Y-161468178D01*
X81872813Y-161468178D02*
X82007500Y-161333491D01*
X82007500Y-161333491D02*
X82115250Y-161279616D01*
X82115250Y-161279616D02*
X82222999Y-161279616D01*
X82222999Y-161279616D02*
X82303812Y-161306553D01*
X82303812Y-161306553D02*
X82438499Y-161387366D01*
X82438499Y-161387366D02*
X82519311Y-161468178D01*
X82519311Y-161468178D02*
X82600123Y-161602865D01*
X82600123Y-161602865D02*
X82627060Y-161683677D01*
X82627060Y-161683677D02*
X82627060Y-161791427D01*
X82627060Y-161791427D02*
X82573186Y-161899176D01*
X82573186Y-161899176D02*
X82438499Y-162033863D01*
X83273558Y-161091054D02*
X83273558Y-161144929D01*
X83273558Y-161144929D02*
X83219683Y-161252679D01*
X83219683Y-161252679D02*
X83165808Y-161306553D01*
X83165808Y-161306553D02*
X83058059Y-161360428D01*
X83058059Y-161360428D02*
X82950309Y-161360428D01*
X82950309Y-161360428D02*
X82869497Y-161333491D01*
X82869497Y-161333491D02*
X82734810Y-161252679D01*
X82734810Y-161252679D02*
X82653998Y-161171866D01*
X82653998Y-161171866D02*
X82573186Y-161037179D01*
X82573186Y-161037179D02*
X82546248Y-160956367D01*
X82546248Y-160956367D02*
X82546248Y-160848618D01*
X82546248Y-160848618D02*
X82600123Y-160740868D01*
X82600123Y-160740868D02*
X82653998Y-160686993D01*
X82653998Y-160686993D02*
X82761747Y-160633118D01*
X82761747Y-160633118D02*
X82815622Y-160633118D01*
X83489057Y-161091054D02*
X83920056Y-160660056D01*
X83354370Y-159986621D02*
X84108618Y-160363744D01*
X84108618Y-160363744D02*
X83731494Y-159609497D01*
X84808990Y-159663372D02*
X84351054Y-159582560D01*
X84485741Y-159986621D02*
X83920056Y-159420935D01*
X83920056Y-159420935D02*
X84135555Y-159205436D01*
X84135555Y-159205436D02*
X84216367Y-159178499D01*
X84216367Y-159178499D02*
X84270242Y-159178499D01*
X84270242Y-159178499D02*
X84351054Y-159205436D01*
X84351054Y-159205436D02*
X84431866Y-159286248D01*
X84431866Y-159286248D02*
X84458804Y-159367061D01*
X84458804Y-159367061D02*
X84458804Y-159420935D01*
X84458804Y-159420935D02*
X84431866Y-159501748D01*
X84431866Y-159501748D02*
X84216367Y-159717247D01*
X84755115Y-159124624D02*
X84943677Y-158936062D01*
X85320800Y-159151561D02*
X85051426Y-159420935D01*
X85051426Y-159420935D02*
X84485741Y-158855250D01*
X84485741Y-158855250D02*
X84755115Y-158585876D01*
X85455488Y-158424251D02*
X85266926Y-158612813D01*
X85563237Y-158909125D02*
X84997552Y-158343439D01*
X84997552Y-158343439D02*
X85266926Y-158074065D01*
X109723372Y-159401494D02*
X109642560Y-159428431D01*
X109642560Y-159428431D02*
X109561748Y-159509243D01*
X109561748Y-159509243D02*
X109507873Y-159616993D01*
X109507873Y-159616993D02*
X109507873Y-159724742D01*
X109507873Y-159724742D02*
X109534810Y-159805555D01*
X109534810Y-159805555D02*
X109615623Y-159940242D01*
X109615623Y-159940242D02*
X109696435Y-160021054D01*
X109696435Y-160021054D02*
X109831122Y-160101866D01*
X109831122Y-160101866D02*
X109911934Y-160128803D01*
X109911934Y-160128803D02*
X110019684Y-160128803D01*
X110019684Y-160128803D02*
X110127433Y-160074929D01*
X110127433Y-160074929D02*
X110181308Y-160021054D01*
X110181308Y-160021054D02*
X110235183Y-159913304D01*
X110235183Y-159913304D02*
X110235183Y-159859429D01*
X110235183Y-159859429D02*
X110046621Y-159670868D01*
X110046621Y-159670868D02*
X109938871Y-159778617D01*
X110531494Y-159670868D02*
X109965809Y-159105182D01*
X109965809Y-159105182D02*
X110181308Y-158889683D01*
X110181308Y-158889683D02*
X110262120Y-158862746D01*
X110262120Y-158862746D02*
X110315995Y-158862746D01*
X110315995Y-158862746D02*
X110396807Y-158889683D01*
X110396807Y-158889683D02*
X110477619Y-158970495D01*
X110477619Y-158970495D02*
X110504557Y-159051307D01*
X110504557Y-159051307D02*
X110504557Y-159105182D01*
X110504557Y-159105182D02*
X110477619Y-159185994D01*
X110477619Y-159185994D02*
X110262120Y-159401494D01*
X110962493Y-158485622D02*
X111339616Y-158862746D01*
X110612306Y-158404810D02*
X110881680Y-158943558D01*
X110881680Y-158943558D02*
X111231867Y-158593372D01*
X101500475Y-121974200D02*
X101614761Y-122012295D01*
X101614761Y-122012295D02*
X101805237Y-122012295D01*
X101805237Y-122012295D02*
X101881428Y-121974200D01*
X101881428Y-121974200D02*
X101919523Y-121936104D01*
X101919523Y-121936104D02*
X101957618Y-121859914D01*
X101957618Y-121859914D02*
X101957618Y-121783723D01*
X101957618Y-121783723D02*
X101919523Y-121707533D01*
X101919523Y-121707533D02*
X101881428Y-121669438D01*
X101881428Y-121669438D02*
X101805237Y-121631342D01*
X101805237Y-121631342D02*
X101652856Y-121593247D01*
X101652856Y-121593247D02*
X101576666Y-121555152D01*
X101576666Y-121555152D02*
X101538571Y-121517057D01*
X101538571Y-121517057D02*
X101500475Y-121440866D01*
X101500475Y-121440866D02*
X101500475Y-121364676D01*
X101500475Y-121364676D02*
X101538571Y-121288485D01*
X101538571Y-121288485D02*
X101576666Y-121250390D01*
X101576666Y-121250390D02*
X101652856Y-121212295D01*
X101652856Y-121212295D02*
X101843333Y-121212295D01*
X101843333Y-121212295D02*
X101957618Y-121250390D01*
X102224285Y-121212295D02*
X102414761Y-122012295D01*
X102414761Y-122012295D02*
X102567142Y-121440866D01*
X102567142Y-121440866D02*
X102719523Y-122012295D01*
X102719523Y-122012295D02*
X102910000Y-121212295D01*
X103671905Y-121936104D02*
X103633809Y-121974200D01*
X103633809Y-121974200D02*
X103519524Y-122012295D01*
X103519524Y-122012295D02*
X103443333Y-122012295D01*
X103443333Y-122012295D02*
X103329047Y-121974200D01*
X103329047Y-121974200D02*
X103252857Y-121898009D01*
X103252857Y-121898009D02*
X103214762Y-121821819D01*
X103214762Y-121821819D02*
X103176666Y-121669438D01*
X103176666Y-121669438D02*
X103176666Y-121555152D01*
X103176666Y-121555152D02*
X103214762Y-121402771D01*
X103214762Y-121402771D02*
X103252857Y-121326580D01*
X103252857Y-121326580D02*
X103329047Y-121250390D01*
X103329047Y-121250390D02*
X103443333Y-121212295D01*
X103443333Y-121212295D02*
X103519524Y-121212295D01*
X103519524Y-121212295D02*
X103633809Y-121250390D01*
X103633809Y-121250390D02*
X103671905Y-121288485D01*
X104395714Y-122012295D02*
X104014762Y-122012295D01*
X104014762Y-122012295D02*
X104014762Y-121212295D01*
X104662381Y-122012295D02*
X104662381Y-121212295D01*
X105119524Y-122012295D02*
X104776666Y-121555152D01*
X105119524Y-121212295D02*
X104662381Y-121669438D01*
X109853998Y-136810868D02*
X109773185Y-136837805D01*
X109773185Y-136837805D02*
X109692373Y-136918618D01*
X109692373Y-136918618D02*
X109638498Y-137026367D01*
X109638498Y-137026367D02*
X109638498Y-137134117D01*
X109638498Y-137134117D02*
X109665436Y-137214929D01*
X109665436Y-137214929D02*
X109746248Y-137349616D01*
X109746248Y-137349616D02*
X109827060Y-137430428D01*
X109827060Y-137430428D02*
X109961747Y-137511241D01*
X109961747Y-137511241D02*
X110042560Y-137538178D01*
X110042560Y-137538178D02*
X110150309Y-137538178D01*
X110150309Y-137538178D02*
X110258059Y-137484303D01*
X110258059Y-137484303D02*
X110311934Y-137430428D01*
X110311934Y-137430428D02*
X110365808Y-137322679D01*
X110365808Y-137322679D02*
X110365808Y-137268804D01*
X110365808Y-137268804D02*
X110177247Y-137080242D01*
X110177247Y-137080242D02*
X110069497Y-137187992D01*
X110662120Y-137080242D02*
X110096434Y-136514557D01*
X110096434Y-136514557D02*
X110311934Y-136299057D01*
X110311934Y-136299057D02*
X110392746Y-136272120D01*
X110392746Y-136272120D02*
X110446621Y-136272120D01*
X110446621Y-136272120D02*
X110527433Y-136299057D01*
X110527433Y-136299057D02*
X110608245Y-136379870D01*
X110608245Y-136379870D02*
X110635182Y-136460682D01*
X110635182Y-136460682D02*
X110635182Y-136514557D01*
X110635182Y-136514557D02*
X110608245Y-136595369D01*
X110608245Y-136595369D02*
X110392746Y-136810868D01*
X111524117Y-136218245D02*
X111200868Y-136541494D01*
X111362492Y-136379870D02*
X110796807Y-135814184D01*
X110796807Y-135814184D02*
X110823744Y-135948871D01*
X110823744Y-135948871D02*
X110823744Y-136056621D01*
X110823744Y-136056621D02*
X110796807Y-136137433D01*
X112062865Y-135679497D02*
X111739616Y-136002746D01*
X111901240Y-135841121D02*
X111335555Y-135275436D01*
X111335555Y-135275436D02*
X111362492Y-135410123D01*
X111362492Y-135410123D02*
X111362492Y-135517873D01*
X111362492Y-135517873D02*
X111335555Y-135598685D01*
X83599998Y-149510868D02*
X83519185Y-149537805D01*
X83519185Y-149537805D02*
X83438373Y-149618618D01*
X83438373Y-149618618D02*
X83384498Y-149726367D01*
X83384498Y-149726367D02*
X83384498Y-149834117D01*
X83384498Y-149834117D02*
X83411436Y-149914929D01*
X83411436Y-149914929D02*
X83492248Y-150049616D01*
X83492248Y-150049616D02*
X83573060Y-150130428D01*
X83573060Y-150130428D02*
X83707747Y-150211241D01*
X83707747Y-150211241D02*
X83788560Y-150238178D01*
X83788560Y-150238178D02*
X83896309Y-150238178D01*
X83896309Y-150238178D02*
X84004059Y-150184303D01*
X84004059Y-150184303D02*
X84057934Y-150130428D01*
X84057934Y-150130428D02*
X84111808Y-150022679D01*
X84111808Y-150022679D02*
X84111808Y-149968804D01*
X84111808Y-149968804D02*
X83923247Y-149780242D01*
X83923247Y-149780242D02*
X83815497Y-149887992D01*
X84408120Y-149780242D02*
X83842434Y-149214557D01*
X83842434Y-149214557D02*
X84057934Y-148999057D01*
X84057934Y-148999057D02*
X84138746Y-148972120D01*
X84138746Y-148972120D02*
X84192621Y-148972120D01*
X84192621Y-148972120D02*
X84273433Y-148999057D01*
X84273433Y-148999057D02*
X84354245Y-149079870D01*
X84354245Y-149079870D02*
X84381182Y-149160682D01*
X84381182Y-149160682D02*
X84381182Y-149214557D01*
X84381182Y-149214557D02*
X84354245Y-149295369D01*
X84354245Y-149295369D02*
X84138746Y-149510868D01*
X84435057Y-148729683D02*
X84435057Y-148675809D01*
X84435057Y-148675809D02*
X84461995Y-148594996D01*
X84461995Y-148594996D02*
X84596682Y-148460309D01*
X84596682Y-148460309D02*
X84677494Y-148433372D01*
X84677494Y-148433372D02*
X84731369Y-148433372D01*
X84731369Y-148433372D02*
X84812181Y-148460309D01*
X84812181Y-148460309D02*
X84866056Y-148514184D01*
X84866056Y-148514184D02*
X84919930Y-148621934D01*
X84919930Y-148621934D02*
X84919930Y-149268431D01*
X84919930Y-149268431D02*
X85270117Y-148918245D01*
X85189305Y-147867686D02*
X85081555Y-147975436D01*
X85081555Y-147975436D02*
X85054618Y-148056248D01*
X85054618Y-148056248D02*
X85054618Y-148110123D01*
X85054618Y-148110123D02*
X85081555Y-148244810D01*
X85081555Y-148244810D02*
X85162367Y-148379497D01*
X85162367Y-148379497D02*
X85377866Y-148594996D01*
X85377866Y-148594996D02*
X85458679Y-148621934D01*
X85458679Y-148621934D02*
X85512553Y-148621934D01*
X85512553Y-148621934D02*
X85593366Y-148594996D01*
X85593366Y-148594996D02*
X85701115Y-148487247D01*
X85701115Y-148487247D02*
X85728053Y-148406434D01*
X85728053Y-148406434D02*
X85728053Y-148352560D01*
X85728053Y-148352560D02*
X85701115Y-148271747D01*
X85701115Y-148271747D02*
X85566428Y-148137060D01*
X85566428Y-148137060D02*
X85485616Y-148110123D01*
X85485616Y-148110123D02*
X85431741Y-148110123D01*
X85431741Y-148110123D02*
X85350929Y-148137060D01*
X85350929Y-148137060D02*
X85243179Y-148244810D01*
X85243179Y-148244810D02*
X85216242Y-148325622D01*
X85216242Y-148325622D02*
X85216242Y-148379497D01*
X85216242Y-148379497D02*
X85243179Y-148460309D01*
X83599998Y-124110868D02*
X83519185Y-124137805D01*
X83519185Y-124137805D02*
X83438373Y-124218618D01*
X83438373Y-124218618D02*
X83384498Y-124326367D01*
X83384498Y-124326367D02*
X83384498Y-124434117D01*
X83384498Y-124434117D02*
X83411436Y-124514929D01*
X83411436Y-124514929D02*
X83492248Y-124649616D01*
X83492248Y-124649616D02*
X83573060Y-124730428D01*
X83573060Y-124730428D02*
X83707747Y-124811241D01*
X83707747Y-124811241D02*
X83788560Y-124838178D01*
X83788560Y-124838178D02*
X83896309Y-124838178D01*
X83896309Y-124838178D02*
X84004059Y-124784303D01*
X84004059Y-124784303D02*
X84057934Y-124730428D01*
X84057934Y-124730428D02*
X84111808Y-124622679D01*
X84111808Y-124622679D02*
X84111808Y-124568804D01*
X84111808Y-124568804D02*
X83923247Y-124380242D01*
X83923247Y-124380242D02*
X83815497Y-124487992D01*
X84408120Y-124380242D02*
X83842434Y-123814557D01*
X83842434Y-123814557D02*
X84057934Y-123599057D01*
X84057934Y-123599057D02*
X84138746Y-123572120D01*
X84138746Y-123572120D02*
X84192621Y-123572120D01*
X84192621Y-123572120D02*
X84273433Y-123599057D01*
X84273433Y-123599057D02*
X84354245Y-123679870D01*
X84354245Y-123679870D02*
X84381182Y-123760682D01*
X84381182Y-123760682D02*
X84381182Y-123814557D01*
X84381182Y-123814557D02*
X84354245Y-123895369D01*
X84354245Y-123895369D02*
X84138746Y-124110868D01*
X85270117Y-123518245D02*
X84946868Y-123841494D01*
X85108492Y-123679870D02*
X84542807Y-123114184D01*
X84542807Y-123114184D02*
X84569744Y-123248871D01*
X84569744Y-123248871D02*
X84569744Y-123356621D01*
X84569744Y-123356621D02*
X84542807Y-123437433D01*
X85189305Y-122467686D02*
X85081555Y-122575436D01*
X85081555Y-122575436D02*
X85054618Y-122656248D01*
X85054618Y-122656248D02*
X85054618Y-122710123D01*
X85054618Y-122710123D02*
X85081555Y-122844810D01*
X85081555Y-122844810D02*
X85162367Y-122979497D01*
X85162367Y-122979497D02*
X85377866Y-123194996D01*
X85377866Y-123194996D02*
X85458679Y-123221934D01*
X85458679Y-123221934D02*
X85512553Y-123221934D01*
X85512553Y-123221934D02*
X85593366Y-123194996D01*
X85593366Y-123194996D02*
X85701115Y-123087247D01*
X85701115Y-123087247D02*
X85728053Y-123006434D01*
X85728053Y-123006434D02*
X85728053Y-122952560D01*
X85728053Y-122952560D02*
X85701115Y-122871747D01*
X85701115Y-122871747D02*
X85566428Y-122737060D01*
X85566428Y-122737060D02*
X85485616Y-122710123D01*
X85485616Y-122710123D02*
X85431741Y-122710123D01*
X85431741Y-122710123D02*
X85350929Y-122737060D01*
X85350929Y-122737060D02*
X85243179Y-122844810D01*
X85243179Y-122844810D02*
X85216242Y-122925622D01*
X85216242Y-122925622D02*
X85216242Y-122979497D01*
X85216242Y-122979497D02*
X85243179Y-123060309D01*
X109723372Y-151781494D02*
X109642560Y-151808431D01*
X109642560Y-151808431D02*
X109561748Y-151889243D01*
X109561748Y-151889243D02*
X109507873Y-151996993D01*
X109507873Y-151996993D02*
X109507873Y-152104742D01*
X109507873Y-152104742D02*
X109534810Y-152185555D01*
X109534810Y-152185555D02*
X109615623Y-152320242D01*
X109615623Y-152320242D02*
X109696435Y-152401054D01*
X109696435Y-152401054D02*
X109831122Y-152481866D01*
X109831122Y-152481866D02*
X109911934Y-152508803D01*
X109911934Y-152508803D02*
X110019684Y-152508803D01*
X110019684Y-152508803D02*
X110127433Y-152454929D01*
X110127433Y-152454929D02*
X110181308Y-152401054D01*
X110181308Y-152401054D02*
X110235183Y-152293304D01*
X110235183Y-152293304D02*
X110235183Y-152239429D01*
X110235183Y-152239429D02*
X110046621Y-152050868D01*
X110046621Y-152050868D02*
X109938871Y-152158617D01*
X110531494Y-152050868D02*
X109965809Y-151485182D01*
X109965809Y-151485182D02*
X110181308Y-151269683D01*
X110181308Y-151269683D02*
X110262120Y-151242746D01*
X110262120Y-151242746D02*
X110315995Y-151242746D01*
X110315995Y-151242746D02*
X110396807Y-151269683D01*
X110396807Y-151269683D02*
X110477619Y-151350495D01*
X110477619Y-151350495D02*
X110504557Y-151431307D01*
X110504557Y-151431307D02*
X110504557Y-151485182D01*
X110504557Y-151485182D02*
X110477619Y-151565994D01*
X110477619Y-151565994D02*
X110262120Y-151781494D01*
X110773931Y-150677060D02*
X110666181Y-150784810D01*
X110666181Y-150784810D02*
X110639244Y-150865622D01*
X110639244Y-150865622D02*
X110639244Y-150919497D01*
X110639244Y-150919497D02*
X110666181Y-151054184D01*
X110666181Y-151054184D02*
X110746993Y-151188871D01*
X110746993Y-151188871D02*
X110962493Y-151404370D01*
X110962493Y-151404370D02*
X111043305Y-151431307D01*
X111043305Y-151431307D02*
X111097180Y-151431307D01*
X111097180Y-151431307D02*
X111177992Y-151404370D01*
X111177992Y-151404370D02*
X111285741Y-151296620D01*
X111285741Y-151296620D02*
X111312679Y-151215808D01*
X111312679Y-151215808D02*
X111312679Y-151161933D01*
X111312679Y-151161933D02*
X111285741Y-151081121D01*
X111285741Y-151081121D02*
X111151054Y-150946434D01*
X111151054Y-150946434D02*
X111070242Y-150919497D01*
X111070242Y-150919497D02*
X111016367Y-150919497D01*
X111016367Y-150919497D02*
X110935555Y-150946434D01*
X110935555Y-150946434D02*
X110827806Y-151054184D01*
X110827806Y-151054184D02*
X110800868Y-151134996D01*
X110800868Y-151134996D02*
X110800868Y-151188871D01*
X110800868Y-151188871D02*
X110827806Y-151269683D01*
X83599998Y-139340868D02*
X83519185Y-139367805D01*
X83519185Y-139367805D02*
X83438373Y-139448618D01*
X83438373Y-139448618D02*
X83384498Y-139556367D01*
X83384498Y-139556367D02*
X83384498Y-139664117D01*
X83384498Y-139664117D02*
X83411436Y-139744929D01*
X83411436Y-139744929D02*
X83492248Y-139879616D01*
X83492248Y-139879616D02*
X83573060Y-139960428D01*
X83573060Y-139960428D02*
X83707747Y-140041241D01*
X83707747Y-140041241D02*
X83788560Y-140068178D01*
X83788560Y-140068178D02*
X83896309Y-140068178D01*
X83896309Y-140068178D02*
X84004059Y-140014303D01*
X84004059Y-140014303D02*
X84057934Y-139960428D01*
X84057934Y-139960428D02*
X84111808Y-139852679D01*
X84111808Y-139852679D02*
X84111808Y-139798804D01*
X84111808Y-139798804D02*
X83923247Y-139610242D01*
X83923247Y-139610242D02*
X83815497Y-139717992D01*
X84408120Y-139610242D02*
X83842434Y-139044557D01*
X83842434Y-139044557D02*
X84057934Y-138829057D01*
X84057934Y-138829057D02*
X84138746Y-138802120D01*
X84138746Y-138802120D02*
X84192621Y-138802120D01*
X84192621Y-138802120D02*
X84273433Y-138829057D01*
X84273433Y-138829057D02*
X84354245Y-138909870D01*
X84354245Y-138909870D02*
X84381182Y-138990682D01*
X84381182Y-138990682D02*
X84381182Y-139044557D01*
X84381182Y-139044557D02*
X84354245Y-139125369D01*
X84354245Y-139125369D02*
X84138746Y-139340868D01*
X84435057Y-138559683D02*
X84435057Y-138505809D01*
X84435057Y-138505809D02*
X84461995Y-138424996D01*
X84461995Y-138424996D02*
X84596682Y-138290309D01*
X84596682Y-138290309D02*
X84677494Y-138263372D01*
X84677494Y-138263372D02*
X84731369Y-138263372D01*
X84731369Y-138263372D02*
X84812181Y-138290309D01*
X84812181Y-138290309D02*
X84866056Y-138344184D01*
X84866056Y-138344184D02*
X84919930Y-138451934D01*
X84919930Y-138451934D02*
X84919930Y-139098431D01*
X84919930Y-139098431D02*
X85270117Y-138748245D01*
X85808865Y-138209497D02*
X85485616Y-138532746D01*
X85647240Y-138371121D02*
X85081555Y-137805436D01*
X85081555Y-137805436D02*
X85108492Y-137940123D01*
X85108492Y-137940123D02*
X85108492Y-138047873D01*
X85108492Y-138047873D02*
X85081555Y-138128685D01*
X109696435Y-141648431D02*
X109615623Y-141675368D01*
X109615623Y-141675368D02*
X109534811Y-141756180D01*
X109534811Y-141756180D02*
X109480936Y-141863930D01*
X109480936Y-141863930D02*
X109480936Y-141971680D01*
X109480936Y-141971680D02*
X109507873Y-142052492D01*
X109507873Y-142052492D02*
X109588685Y-142187179D01*
X109588685Y-142187179D02*
X109669498Y-142267991D01*
X109669498Y-142267991D02*
X109804185Y-142348803D01*
X109804185Y-142348803D02*
X109884997Y-142375741D01*
X109884997Y-142375741D02*
X109992746Y-142375741D01*
X109992746Y-142375741D02*
X110100496Y-142321866D01*
X110100496Y-142321866D02*
X110154371Y-142267991D01*
X110154371Y-142267991D02*
X110208246Y-142160241D01*
X110208246Y-142160241D02*
X110208246Y-142106367D01*
X110208246Y-142106367D02*
X110019684Y-141917805D01*
X110019684Y-141917805D02*
X109911934Y-142025554D01*
X110504557Y-141917805D02*
X109938872Y-141352119D01*
X109938872Y-141352119D02*
X110827806Y-141594556D01*
X110827806Y-141594556D02*
X110262120Y-141028871D01*
X111097180Y-141325182D02*
X110531494Y-140759497D01*
X110531494Y-140759497D02*
X110666181Y-140624810D01*
X110666181Y-140624810D02*
X110773931Y-140570935D01*
X110773931Y-140570935D02*
X110881680Y-140570935D01*
X110881680Y-140570935D02*
X110962493Y-140597872D01*
X110962493Y-140597872D02*
X111097180Y-140678685D01*
X111097180Y-140678685D02*
X111177992Y-140759497D01*
X111177992Y-140759497D02*
X111258804Y-140894184D01*
X111258804Y-140894184D02*
X111285741Y-140974996D01*
X111285741Y-140974996D02*
X111285741Y-141082746D01*
X111285741Y-141082746D02*
X111231867Y-141190495D01*
X111231867Y-141190495D02*
X111097180Y-141325182D01*
X109707998Y-124110868D02*
X109627185Y-124137805D01*
X109627185Y-124137805D02*
X109546373Y-124218618D01*
X109546373Y-124218618D02*
X109492498Y-124326367D01*
X109492498Y-124326367D02*
X109492498Y-124434117D01*
X109492498Y-124434117D02*
X109519436Y-124514929D01*
X109519436Y-124514929D02*
X109600248Y-124649616D01*
X109600248Y-124649616D02*
X109681060Y-124730428D01*
X109681060Y-124730428D02*
X109815747Y-124811241D01*
X109815747Y-124811241D02*
X109896560Y-124838178D01*
X109896560Y-124838178D02*
X110004309Y-124838178D01*
X110004309Y-124838178D02*
X110112059Y-124784303D01*
X110112059Y-124784303D02*
X110165934Y-124730428D01*
X110165934Y-124730428D02*
X110219808Y-124622679D01*
X110219808Y-124622679D02*
X110219808Y-124568804D01*
X110219808Y-124568804D02*
X110031247Y-124380242D01*
X110031247Y-124380242D02*
X109923497Y-124487992D01*
X110516120Y-124380242D02*
X109950434Y-123814557D01*
X109950434Y-123814557D02*
X110165934Y-123599057D01*
X110165934Y-123599057D02*
X110246746Y-123572120D01*
X110246746Y-123572120D02*
X110300621Y-123572120D01*
X110300621Y-123572120D02*
X110381433Y-123599057D01*
X110381433Y-123599057D02*
X110462245Y-123679870D01*
X110462245Y-123679870D02*
X110489182Y-123760682D01*
X110489182Y-123760682D02*
X110489182Y-123814557D01*
X110489182Y-123814557D02*
X110462245Y-123895369D01*
X110462245Y-123895369D02*
X110246746Y-124110868D01*
X111378117Y-123518245D02*
X111054868Y-123841494D01*
X111216492Y-123679870D02*
X110650807Y-123114184D01*
X110650807Y-123114184D02*
X110677744Y-123248871D01*
X110677744Y-123248871D02*
X110677744Y-123356621D01*
X110677744Y-123356621D02*
X110650807Y-123437433D01*
X111324242Y-122440749D02*
X111054868Y-122710123D01*
X111054868Y-122710123D02*
X111297305Y-123006434D01*
X111297305Y-123006434D02*
X111297305Y-122952560D01*
X111297305Y-122952560D02*
X111324242Y-122871747D01*
X111324242Y-122871747D02*
X111458929Y-122737060D01*
X111458929Y-122737060D02*
X111539741Y-122710123D01*
X111539741Y-122710123D02*
X111593616Y-122710123D01*
X111593616Y-122710123D02*
X111674428Y-122737060D01*
X111674428Y-122737060D02*
X111809115Y-122871747D01*
X111809115Y-122871747D02*
X111836053Y-122952560D01*
X111836053Y-122952560D02*
X111836053Y-123006434D01*
X111836053Y-123006434D02*
X111809115Y-123087247D01*
X111809115Y-123087247D02*
X111674428Y-123221934D01*
X111674428Y-123221934D02*
X111593616Y-123248871D01*
X111593616Y-123248871D02*
X111539741Y-123248871D01*
X84448651Y-147253710D02*
X83990716Y-147172898D01*
X84125403Y-147576959D02*
X83559717Y-147011274D01*
X83559717Y-147011274D02*
X83775216Y-146795775D01*
X83775216Y-146795775D02*
X83856029Y-146768837D01*
X83856029Y-146768837D02*
X83909903Y-146768837D01*
X83909903Y-146768837D02*
X83990716Y-146795775D01*
X83990716Y-146795775D02*
X84071528Y-146876587D01*
X84071528Y-146876587D02*
X84098465Y-146957399D01*
X84098465Y-146957399D02*
X84098465Y-147011274D01*
X84098465Y-147011274D02*
X84071528Y-147092086D01*
X84071528Y-147092086D02*
X83856029Y-147307585D01*
X84125403Y-146445588D02*
X84583338Y-146903524D01*
X84583338Y-146903524D02*
X84664151Y-146930462D01*
X84664151Y-146930462D02*
X84718025Y-146930462D01*
X84718025Y-146930462D02*
X84798838Y-146903524D01*
X84798838Y-146903524D02*
X84906587Y-146795775D01*
X84906587Y-146795775D02*
X84933525Y-146714962D01*
X84933525Y-146714962D02*
X84933525Y-146661088D01*
X84933525Y-146661088D02*
X84906587Y-146580275D01*
X84906587Y-146580275D02*
X84448651Y-146122340D01*
X85283711Y-146418651D02*
X84718025Y-145852966D01*
X84718025Y-145852966D02*
X85606959Y-146095402D01*
X85606959Y-146095402D02*
X85041274Y-145529717D01*
X109753998Y-126650868D02*
X109673185Y-126677805D01*
X109673185Y-126677805D02*
X109592373Y-126758618D01*
X109592373Y-126758618D02*
X109538498Y-126866367D01*
X109538498Y-126866367D02*
X109538498Y-126974117D01*
X109538498Y-126974117D02*
X109565436Y-127054929D01*
X109565436Y-127054929D02*
X109646248Y-127189616D01*
X109646248Y-127189616D02*
X109727060Y-127270428D01*
X109727060Y-127270428D02*
X109861747Y-127351241D01*
X109861747Y-127351241D02*
X109942560Y-127378178D01*
X109942560Y-127378178D02*
X110050309Y-127378178D01*
X110050309Y-127378178D02*
X110158059Y-127324303D01*
X110158059Y-127324303D02*
X110211934Y-127270428D01*
X110211934Y-127270428D02*
X110265808Y-127162679D01*
X110265808Y-127162679D02*
X110265808Y-127108804D01*
X110265808Y-127108804D02*
X110077247Y-126920242D01*
X110077247Y-126920242D02*
X109969497Y-127027992D01*
X110562120Y-126920242D02*
X109996434Y-126354557D01*
X109996434Y-126354557D02*
X110211934Y-126139057D01*
X110211934Y-126139057D02*
X110292746Y-126112120D01*
X110292746Y-126112120D02*
X110346621Y-126112120D01*
X110346621Y-126112120D02*
X110427433Y-126139057D01*
X110427433Y-126139057D02*
X110508245Y-126219870D01*
X110508245Y-126219870D02*
X110535182Y-126300682D01*
X110535182Y-126300682D02*
X110535182Y-126354557D01*
X110535182Y-126354557D02*
X110508245Y-126435369D01*
X110508245Y-126435369D02*
X110292746Y-126650868D01*
X111424117Y-126058245D02*
X111100868Y-126381494D01*
X111262492Y-126219870D02*
X110696807Y-125654184D01*
X110696807Y-125654184D02*
X110723744Y-125788871D01*
X110723744Y-125788871D02*
X110723744Y-125896621D01*
X110723744Y-125896621D02*
X110696807Y-125977433D01*
X111531866Y-125196248D02*
X111908990Y-125573372D01*
X111181680Y-125115436D02*
X111451054Y-125654184D01*
X111451054Y-125654184D02*
X111801240Y-125303998D01*
X83599998Y-134270868D02*
X83519185Y-134297805D01*
X83519185Y-134297805D02*
X83438373Y-134378618D01*
X83438373Y-134378618D02*
X83384498Y-134486367D01*
X83384498Y-134486367D02*
X83384498Y-134594117D01*
X83384498Y-134594117D02*
X83411436Y-134674929D01*
X83411436Y-134674929D02*
X83492248Y-134809616D01*
X83492248Y-134809616D02*
X83573060Y-134890428D01*
X83573060Y-134890428D02*
X83707747Y-134971241D01*
X83707747Y-134971241D02*
X83788560Y-134998178D01*
X83788560Y-134998178D02*
X83896309Y-134998178D01*
X83896309Y-134998178D02*
X84004059Y-134944303D01*
X84004059Y-134944303D02*
X84057934Y-134890428D01*
X84057934Y-134890428D02*
X84111808Y-134782679D01*
X84111808Y-134782679D02*
X84111808Y-134728804D01*
X84111808Y-134728804D02*
X83923247Y-134540242D01*
X83923247Y-134540242D02*
X83815497Y-134647992D01*
X84408120Y-134540242D02*
X83842434Y-133974557D01*
X83842434Y-133974557D02*
X84057934Y-133759057D01*
X84057934Y-133759057D02*
X84138746Y-133732120D01*
X84138746Y-133732120D02*
X84192621Y-133732120D01*
X84192621Y-133732120D02*
X84273433Y-133759057D01*
X84273433Y-133759057D02*
X84354245Y-133839870D01*
X84354245Y-133839870D02*
X84381182Y-133920682D01*
X84381182Y-133920682D02*
X84381182Y-133974557D01*
X84381182Y-133974557D02*
X84354245Y-134055369D01*
X84354245Y-134055369D02*
X84138746Y-134270868D01*
X85270117Y-133678245D02*
X84946868Y-134001494D01*
X85108492Y-133839870D02*
X84542807Y-133274184D01*
X84542807Y-133274184D02*
X84569744Y-133408871D01*
X84569744Y-133408871D02*
X84569744Y-133516621D01*
X84569744Y-133516621D02*
X84542807Y-133597433D01*
X85539491Y-133408871D02*
X85647240Y-133301121D01*
X85647240Y-133301121D02*
X85674178Y-133220309D01*
X85674178Y-133220309D02*
X85674178Y-133166434D01*
X85674178Y-133166434D02*
X85647240Y-133031747D01*
X85647240Y-133031747D02*
X85566428Y-132897060D01*
X85566428Y-132897060D02*
X85350929Y-132681561D01*
X85350929Y-132681561D02*
X85270117Y-132654624D01*
X85270117Y-132654624D02*
X85216242Y-132654624D01*
X85216242Y-132654624D02*
X85135430Y-132681561D01*
X85135430Y-132681561D02*
X85027680Y-132789311D01*
X85027680Y-132789311D02*
X85000743Y-132870123D01*
X85000743Y-132870123D02*
X85000743Y-132923998D01*
X85000743Y-132923998D02*
X85027680Y-133004810D01*
X85027680Y-133004810D02*
X85162367Y-133139497D01*
X85162367Y-133139497D02*
X85243179Y-133166434D01*
X85243179Y-133166434D02*
X85297054Y-133166434D01*
X85297054Y-133166434D02*
X85377866Y-133139497D01*
X85377866Y-133139497D02*
X85485616Y-133031747D01*
X85485616Y-133031747D02*
X85512553Y-132950935D01*
X85512553Y-132950935D02*
X85512553Y-132897060D01*
X85512553Y-132897060D02*
X85485616Y-132816248D01*
X83599998Y-126650868D02*
X83519185Y-126677805D01*
X83519185Y-126677805D02*
X83438373Y-126758618D01*
X83438373Y-126758618D02*
X83384498Y-126866367D01*
X83384498Y-126866367D02*
X83384498Y-126974117D01*
X83384498Y-126974117D02*
X83411436Y-127054929D01*
X83411436Y-127054929D02*
X83492248Y-127189616D01*
X83492248Y-127189616D02*
X83573060Y-127270428D01*
X83573060Y-127270428D02*
X83707747Y-127351241D01*
X83707747Y-127351241D02*
X83788560Y-127378178D01*
X83788560Y-127378178D02*
X83896309Y-127378178D01*
X83896309Y-127378178D02*
X84004059Y-127324303D01*
X84004059Y-127324303D02*
X84057934Y-127270428D01*
X84057934Y-127270428D02*
X84111808Y-127162679D01*
X84111808Y-127162679D02*
X84111808Y-127108804D01*
X84111808Y-127108804D02*
X83923247Y-126920242D01*
X83923247Y-126920242D02*
X83815497Y-127027992D01*
X84408120Y-126920242D02*
X83842434Y-126354557D01*
X83842434Y-126354557D02*
X84057934Y-126139057D01*
X84057934Y-126139057D02*
X84138746Y-126112120D01*
X84138746Y-126112120D02*
X84192621Y-126112120D01*
X84192621Y-126112120D02*
X84273433Y-126139057D01*
X84273433Y-126139057D02*
X84354245Y-126219870D01*
X84354245Y-126219870D02*
X84381182Y-126300682D01*
X84381182Y-126300682D02*
X84381182Y-126354557D01*
X84381182Y-126354557D02*
X84354245Y-126435369D01*
X84354245Y-126435369D02*
X84138746Y-126650868D01*
X85270117Y-126058245D02*
X84946868Y-126381494D01*
X85108492Y-126219870D02*
X84542807Y-125654184D01*
X84542807Y-125654184D02*
X84569744Y-125788871D01*
X84569744Y-125788871D02*
X84569744Y-125896621D01*
X84569744Y-125896621D02*
X84542807Y-125977433D01*
X84892993Y-125303998D02*
X85270117Y-124926874D01*
X85270117Y-124926874D02*
X85593366Y-125734996D01*
X83599998Y-131730868D02*
X83519185Y-131757805D01*
X83519185Y-131757805D02*
X83438373Y-131838618D01*
X83438373Y-131838618D02*
X83384498Y-131946367D01*
X83384498Y-131946367D02*
X83384498Y-132054117D01*
X83384498Y-132054117D02*
X83411436Y-132134929D01*
X83411436Y-132134929D02*
X83492248Y-132269616D01*
X83492248Y-132269616D02*
X83573060Y-132350428D01*
X83573060Y-132350428D02*
X83707747Y-132431241D01*
X83707747Y-132431241D02*
X83788560Y-132458178D01*
X83788560Y-132458178D02*
X83896309Y-132458178D01*
X83896309Y-132458178D02*
X84004059Y-132404303D01*
X84004059Y-132404303D02*
X84057934Y-132350428D01*
X84057934Y-132350428D02*
X84111808Y-132242679D01*
X84111808Y-132242679D02*
X84111808Y-132188804D01*
X84111808Y-132188804D02*
X83923247Y-132000242D01*
X83923247Y-132000242D02*
X83815497Y-132107992D01*
X84408120Y-132000242D02*
X83842434Y-131434557D01*
X83842434Y-131434557D02*
X84057934Y-131219057D01*
X84057934Y-131219057D02*
X84138746Y-131192120D01*
X84138746Y-131192120D02*
X84192621Y-131192120D01*
X84192621Y-131192120D02*
X84273433Y-131219057D01*
X84273433Y-131219057D02*
X84354245Y-131299870D01*
X84354245Y-131299870D02*
X84381182Y-131380682D01*
X84381182Y-131380682D02*
X84381182Y-131434557D01*
X84381182Y-131434557D02*
X84354245Y-131515369D01*
X84354245Y-131515369D02*
X84138746Y-131730868D01*
X85270117Y-131138245D02*
X84946868Y-131461494D01*
X85108492Y-131299870D02*
X84542807Y-130734184D01*
X84542807Y-130734184D02*
X84569744Y-130868871D01*
X84569744Y-130868871D02*
X84569744Y-130976621D01*
X84569744Y-130976621D02*
X84542807Y-131057433D01*
X85270117Y-130491747D02*
X85189305Y-130518685D01*
X85189305Y-130518685D02*
X85135430Y-130518685D01*
X85135430Y-130518685D02*
X85054618Y-130491747D01*
X85054618Y-130491747D02*
X85027680Y-130464810D01*
X85027680Y-130464810D02*
X85000743Y-130383998D01*
X85000743Y-130383998D02*
X85000743Y-130330123D01*
X85000743Y-130330123D02*
X85027680Y-130249311D01*
X85027680Y-130249311D02*
X85135430Y-130141561D01*
X85135430Y-130141561D02*
X85216242Y-130114624D01*
X85216242Y-130114624D02*
X85270117Y-130114624D01*
X85270117Y-130114624D02*
X85350929Y-130141561D01*
X85350929Y-130141561D02*
X85377866Y-130168499D01*
X85377866Y-130168499D02*
X85404804Y-130249311D01*
X85404804Y-130249311D02*
X85404804Y-130303186D01*
X85404804Y-130303186D02*
X85377866Y-130383998D01*
X85377866Y-130383998D02*
X85270117Y-130491747D01*
X85270117Y-130491747D02*
X85243179Y-130572560D01*
X85243179Y-130572560D02*
X85243179Y-130626434D01*
X85243179Y-130626434D02*
X85270117Y-130707247D01*
X85270117Y-130707247D02*
X85377866Y-130814996D01*
X85377866Y-130814996D02*
X85458679Y-130841934D01*
X85458679Y-130841934D02*
X85512553Y-130841934D01*
X85512553Y-130841934D02*
X85593366Y-130814996D01*
X85593366Y-130814996D02*
X85701115Y-130707247D01*
X85701115Y-130707247D02*
X85728053Y-130626434D01*
X85728053Y-130626434D02*
X85728053Y-130572560D01*
X85728053Y-130572560D02*
X85701115Y-130491747D01*
X85701115Y-130491747D02*
X85593366Y-130383998D01*
X85593366Y-130383998D02*
X85512553Y-130357060D01*
X85512553Y-130357060D02*
X85458679Y-130357060D01*
X85458679Y-130357060D02*
X85377866Y-130383998D01*
X83130749Y-170100242D02*
X83884996Y-170477366D01*
X83884996Y-170477366D02*
X83507873Y-169723118D01*
X84208245Y-170100242D02*
X84315995Y-170046367D01*
X84315995Y-170046367D02*
X84450682Y-169911680D01*
X84450682Y-169911680D02*
X84477619Y-169830868D01*
X84477619Y-169830868D02*
X84477619Y-169776993D01*
X84477619Y-169776993D02*
X84450682Y-169696181D01*
X84450682Y-169696181D02*
X84396807Y-169642306D01*
X84396807Y-169642306D02*
X84315995Y-169615369D01*
X84315995Y-169615369D02*
X84262120Y-169615369D01*
X84262120Y-169615369D02*
X84181308Y-169642306D01*
X84181308Y-169642306D02*
X84046621Y-169723118D01*
X84046621Y-169723118D02*
X83965808Y-169750056D01*
X83965808Y-169750056D02*
X83911934Y-169750056D01*
X83911934Y-169750056D02*
X83831121Y-169723118D01*
X83831121Y-169723118D02*
X83777247Y-169669244D01*
X83777247Y-169669244D02*
X83750309Y-169588431D01*
X83750309Y-169588431D02*
X83750309Y-169534557D01*
X83750309Y-169534557D02*
X83777247Y-169453744D01*
X83777247Y-169453744D02*
X83911934Y-169319057D01*
X83911934Y-169319057D02*
X84019683Y-169265183D01*
X84639244Y-169184370D02*
X84908618Y-169453744D01*
X84154370Y-169076621D02*
X84639244Y-169184370D01*
X84639244Y-169184370D02*
X84531494Y-168699497D01*
X85231866Y-169076621D02*
X85339616Y-169022746D01*
X85339616Y-169022746D02*
X85474303Y-168888059D01*
X85474303Y-168888059D02*
X85501240Y-168807247D01*
X85501240Y-168807247D02*
X85501240Y-168753372D01*
X85501240Y-168753372D02*
X85474303Y-168672560D01*
X85474303Y-168672560D02*
X85420428Y-168618685D01*
X85420428Y-168618685D02*
X85339616Y-168591748D01*
X85339616Y-168591748D02*
X85285741Y-168591748D01*
X85285741Y-168591748D02*
X85204929Y-168618685D01*
X85204929Y-168618685D02*
X85070242Y-168699497D01*
X85070242Y-168699497D02*
X84989430Y-168726435D01*
X84989430Y-168726435D02*
X84935555Y-168726435D01*
X84935555Y-168726435D02*
X84854743Y-168699497D01*
X84854743Y-168699497D02*
X84800868Y-168645622D01*
X84800868Y-168645622D02*
X84773930Y-168564810D01*
X84773930Y-168564810D02*
X84773930Y-168510935D01*
X84773930Y-168510935D02*
X84800868Y-168430123D01*
X84800868Y-168430123D02*
X84935555Y-168295436D01*
X84935555Y-168295436D02*
X85043304Y-168241561D01*
X83599998Y-157384868D02*
X83519185Y-157411805D01*
X83519185Y-157411805D02*
X83438373Y-157492618D01*
X83438373Y-157492618D02*
X83384498Y-157600367D01*
X83384498Y-157600367D02*
X83384498Y-157708117D01*
X83384498Y-157708117D02*
X83411436Y-157788929D01*
X83411436Y-157788929D02*
X83492248Y-157923616D01*
X83492248Y-157923616D02*
X83573060Y-158004428D01*
X83573060Y-158004428D02*
X83707747Y-158085241D01*
X83707747Y-158085241D02*
X83788560Y-158112178D01*
X83788560Y-158112178D02*
X83896309Y-158112178D01*
X83896309Y-158112178D02*
X84004059Y-158058303D01*
X84004059Y-158058303D02*
X84057934Y-158004428D01*
X84057934Y-158004428D02*
X84111808Y-157896679D01*
X84111808Y-157896679D02*
X84111808Y-157842804D01*
X84111808Y-157842804D02*
X83923247Y-157654242D01*
X83923247Y-157654242D02*
X83815497Y-157761992D01*
X84408120Y-157654242D02*
X83842434Y-157088557D01*
X83842434Y-157088557D02*
X84057934Y-156873057D01*
X84057934Y-156873057D02*
X84138746Y-156846120D01*
X84138746Y-156846120D02*
X84192621Y-156846120D01*
X84192621Y-156846120D02*
X84273433Y-156873057D01*
X84273433Y-156873057D02*
X84354245Y-156953870D01*
X84354245Y-156953870D02*
X84381182Y-157034682D01*
X84381182Y-157034682D02*
X84381182Y-157088557D01*
X84381182Y-157088557D02*
X84354245Y-157169369D01*
X84354245Y-157169369D02*
X84138746Y-157384868D01*
X84435057Y-156603683D02*
X84435057Y-156549809D01*
X84435057Y-156549809D02*
X84461995Y-156468996D01*
X84461995Y-156468996D02*
X84596682Y-156334309D01*
X84596682Y-156334309D02*
X84677494Y-156307372D01*
X84677494Y-156307372D02*
X84731369Y-156307372D01*
X84731369Y-156307372D02*
X84812181Y-156334309D01*
X84812181Y-156334309D02*
X84866056Y-156388184D01*
X84866056Y-156388184D02*
X84919930Y-156495934D01*
X84919930Y-156495934D02*
X84919930Y-157142431D01*
X84919930Y-157142431D02*
X85270117Y-156792245D01*
X85270117Y-156145747D02*
X85189305Y-156172685D01*
X85189305Y-156172685D02*
X85135430Y-156172685D01*
X85135430Y-156172685D02*
X85054618Y-156145747D01*
X85054618Y-156145747D02*
X85027680Y-156118810D01*
X85027680Y-156118810D02*
X85000743Y-156037998D01*
X85000743Y-156037998D02*
X85000743Y-155984123D01*
X85000743Y-155984123D02*
X85027680Y-155903311D01*
X85027680Y-155903311D02*
X85135430Y-155795561D01*
X85135430Y-155795561D02*
X85216242Y-155768624D01*
X85216242Y-155768624D02*
X85270117Y-155768624D01*
X85270117Y-155768624D02*
X85350929Y-155795561D01*
X85350929Y-155795561D02*
X85377866Y-155822499D01*
X85377866Y-155822499D02*
X85404804Y-155903311D01*
X85404804Y-155903311D02*
X85404804Y-155957186D01*
X85404804Y-155957186D02*
X85377866Y-156037998D01*
X85377866Y-156037998D02*
X85270117Y-156145747D01*
X85270117Y-156145747D02*
X85243179Y-156226560D01*
X85243179Y-156226560D02*
X85243179Y-156280434D01*
X85243179Y-156280434D02*
X85270117Y-156361247D01*
X85270117Y-156361247D02*
X85377866Y-156468996D01*
X85377866Y-156468996D02*
X85458679Y-156495934D01*
X85458679Y-156495934D02*
X85512553Y-156495934D01*
X85512553Y-156495934D02*
X85593366Y-156468996D01*
X85593366Y-156468996D02*
X85701115Y-156361247D01*
X85701115Y-156361247D02*
X85728053Y-156280434D01*
X85728053Y-156280434D02*
X85728053Y-156226560D01*
X85728053Y-156226560D02*
X85701115Y-156145747D01*
X85701115Y-156145747D02*
X85593366Y-156037998D01*
X85593366Y-156037998D02*
X85512553Y-156011060D01*
X85512553Y-156011060D02*
X85458679Y-156011060D01*
X85458679Y-156011060D02*
X85377866Y-156037998D01*
X84096435Y-128948431D02*
X84015623Y-128975368D01*
X84015623Y-128975368D02*
X83934811Y-129056180D01*
X83934811Y-129056180D02*
X83880936Y-129163930D01*
X83880936Y-129163930D02*
X83880936Y-129271680D01*
X83880936Y-129271680D02*
X83907873Y-129352492D01*
X83907873Y-129352492D02*
X83988685Y-129487179D01*
X83988685Y-129487179D02*
X84069498Y-129567991D01*
X84069498Y-129567991D02*
X84204185Y-129648803D01*
X84204185Y-129648803D02*
X84284997Y-129675741D01*
X84284997Y-129675741D02*
X84392746Y-129675741D01*
X84392746Y-129675741D02*
X84500496Y-129621866D01*
X84500496Y-129621866D02*
X84554371Y-129567991D01*
X84554371Y-129567991D02*
X84608246Y-129460241D01*
X84608246Y-129460241D02*
X84608246Y-129406367D01*
X84608246Y-129406367D02*
X84419684Y-129217805D01*
X84419684Y-129217805D02*
X84311934Y-129325554D01*
X84904557Y-129217805D02*
X84338872Y-128652119D01*
X84338872Y-128652119D02*
X85227806Y-128894556D01*
X85227806Y-128894556D02*
X84662120Y-128328871D01*
X85497180Y-128625182D02*
X84931494Y-128059497D01*
X84931494Y-128059497D02*
X85066181Y-127924810D01*
X85066181Y-127924810D02*
X85173931Y-127870935D01*
X85173931Y-127870935D02*
X85281680Y-127870935D01*
X85281680Y-127870935D02*
X85362493Y-127897872D01*
X85362493Y-127897872D02*
X85497180Y-127978685D01*
X85497180Y-127978685D02*
X85577992Y-128059497D01*
X85577992Y-128059497D02*
X85658804Y-128194184D01*
X85658804Y-128194184D02*
X85685741Y-128274996D01*
X85685741Y-128274996D02*
X85685741Y-128382746D01*
X85685741Y-128382746D02*
X85631867Y-128490495D01*
X85631867Y-128490495D02*
X85497180Y-128625182D01*
X109723372Y-146701494D02*
X109642560Y-146728431D01*
X109642560Y-146728431D02*
X109561748Y-146809243D01*
X109561748Y-146809243D02*
X109507873Y-146916993D01*
X109507873Y-146916993D02*
X109507873Y-147024742D01*
X109507873Y-147024742D02*
X109534810Y-147105555D01*
X109534810Y-147105555D02*
X109615623Y-147240242D01*
X109615623Y-147240242D02*
X109696435Y-147321054D01*
X109696435Y-147321054D02*
X109831122Y-147401866D01*
X109831122Y-147401866D02*
X109911934Y-147428803D01*
X109911934Y-147428803D02*
X110019684Y-147428803D01*
X110019684Y-147428803D02*
X110127433Y-147374929D01*
X110127433Y-147374929D02*
X110181308Y-147321054D01*
X110181308Y-147321054D02*
X110235183Y-147213304D01*
X110235183Y-147213304D02*
X110235183Y-147159429D01*
X110235183Y-147159429D02*
X110046621Y-146970868D01*
X110046621Y-146970868D02*
X109938871Y-147078617D01*
X110531494Y-146970868D02*
X109965809Y-146405182D01*
X109965809Y-146405182D02*
X110181308Y-146189683D01*
X110181308Y-146189683D02*
X110262120Y-146162746D01*
X110262120Y-146162746D02*
X110315995Y-146162746D01*
X110315995Y-146162746D02*
X110396807Y-146189683D01*
X110396807Y-146189683D02*
X110477619Y-146270495D01*
X110477619Y-146270495D02*
X110504557Y-146351307D01*
X110504557Y-146351307D02*
X110504557Y-146405182D01*
X110504557Y-146405182D02*
X110477619Y-146485994D01*
X110477619Y-146485994D02*
X110262120Y-146701494D01*
X110854743Y-146001121D02*
X110773931Y-146028059D01*
X110773931Y-146028059D02*
X110720056Y-146028059D01*
X110720056Y-146028059D02*
X110639244Y-146001121D01*
X110639244Y-146001121D02*
X110612306Y-145974184D01*
X110612306Y-145974184D02*
X110585369Y-145893372D01*
X110585369Y-145893372D02*
X110585369Y-145839497D01*
X110585369Y-145839497D02*
X110612306Y-145758685D01*
X110612306Y-145758685D02*
X110720056Y-145650935D01*
X110720056Y-145650935D02*
X110800868Y-145623998D01*
X110800868Y-145623998D02*
X110854743Y-145623998D01*
X110854743Y-145623998D02*
X110935555Y-145650935D01*
X110935555Y-145650935D02*
X110962493Y-145677872D01*
X110962493Y-145677872D02*
X110989430Y-145758685D01*
X110989430Y-145758685D02*
X110989430Y-145812559D01*
X110989430Y-145812559D02*
X110962493Y-145893372D01*
X110962493Y-145893372D02*
X110854743Y-146001121D01*
X110854743Y-146001121D02*
X110827806Y-146081933D01*
X110827806Y-146081933D02*
X110827806Y-146135808D01*
X110827806Y-146135808D02*
X110854743Y-146216620D01*
X110854743Y-146216620D02*
X110962493Y-146324370D01*
X110962493Y-146324370D02*
X111043305Y-146351307D01*
X111043305Y-146351307D02*
X111097180Y-146351307D01*
X111097180Y-146351307D02*
X111177992Y-146324370D01*
X111177992Y-146324370D02*
X111285741Y-146216620D01*
X111285741Y-146216620D02*
X111312679Y-146135808D01*
X111312679Y-146135808D02*
X111312679Y-146081933D01*
X111312679Y-146081933D02*
X111285741Y-146001121D01*
X111285741Y-146001121D02*
X111177992Y-145893372D01*
X111177992Y-145893372D02*
X111097180Y-145866434D01*
X111097180Y-145866434D02*
X111043305Y-145866434D01*
X111043305Y-145866434D02*
X110962493Y-145893372D01*
X109707998Y-139350868D02*
X109627185Y-139377805D01*
X109627185Y-139377805D02*
X109546373Y-139458618D01*
X109546373Y-139458618D02*
X109492498Y-139566367D01*
X109492498Y-139566367D02*
X109492498Y-139674117D01*
X109492498Y-139674117D02*
X109519436Y-139754929D01*
X109519436Y-139754929D02*
X109600248Y-139889616D01*
X109600248Y-139889616D02*
X109681060Y-139970428D01*
X109681060Y-139970428D02*
X109815747Y-140051241D01*
X109815747Y-140051241D02*
X109896560Y-140078178D01*
X109896560Y-140078178D02*
X110004309Y-140078178D01*
X110004309Y-140078178D02*
X110112059Y-140024303D01*
X110112059Y-140024303D02*
X110165934Y-139970428D01*
X110165934Y-139970428D02*
X110219808Y-139862679D01*
X110219808Y-139862679D02*
X110219808Y-139808804D01*
X110219808Y-139808804D02*
X110031247Y-139620242D01*
X110031247Y-139620242D02*
X109923497Y-139727992D01*
X110516120Y-139620242D02*
X109950434Y-139054557D01*
X109950434Y-139054557D02*
X110165934Y-138839057D01*
X110165934Y-138839057D02*
X110246746Y-138812120D01*
X110246746Y-138812120D02*
X110300621Y-138812120D01*
X110300621Y-138812120D02*
X110381433Y-138839057D01*
X110381433Y-138839057D02*
X110462245Y-138919870D01*
X110462245Y-138919870D02*
X110489182Y-139000682D01*
X110489182Y-139000682D02*
X110489182Y-139054557D01*
X110489182Y-139054557D02*
X110462245Y-139135369D01*
X110462245Y-139135369D02*
X110246746Y-139350868D01*
X111378117Y-138758245D02*
X111054868Y-139081494D01*
X111216492Y-138919870D02*
X110650807Y-138354184D01*
X110650807Y-138354184D02*
X110677744Y-138488871D01*
X110677744Y-138488871D02*
X110677744Y-138596621D01*
X110677744Y-138596621D02*
X110650807Y-138677433D01*
X111162618Y-137842373D02*
X111216492Y-137788499D01*
X111216492Y-137788499D02*
X111297305Y-137761561D01*
X111297305Y-137761561D02*
X111351179Y-137761561D01*
X111351179Y-137761561D02*
X111431992Y-137788499D01*
X111431992Y-137788499D02*
X111566679Y-137869311D01*
X111566679Y-137869311D02*
X111701366Y-138003998D01*
X111701366Y-138003998D02*
X111782178Y-138138685D01*
X111782178Y-138138685D02*
X111809115Y-138219497D01*
X111809115Y-138219497D02*
X111809115Y-138273372D01*
X111809115Y-138273372D02*
X111782178Y-138354184D01*
X111782178Y-138354184D02*
X111728303Y-138408059D01*
X111728303Y-138408059D02*
X111647491Y-138434996D01*
X111647491Y-138434996D02*
X111593616Y-138434996D01*
X111593616Y-138434996D02*
X111512804Y-138408059D01*
X111512804Y-138408059D02*
X111378117Y-138327247D01*
X111378117Y-138327247D02*
X111243430Y-138192560D01*
X111243430Y-138192560D02*
X111162618Y-138057873D01*
X111162618Y-138057873D02*
X111135680Y-137977060D01*
X111135680Y-137977060D02*
X111135680Y-137923186D01*
X111135680Y-137923186D02*
X111162618Y-137842373D01*
X84096435Y-141648431D02*
X84015623Y-141675368D01*
X84015623Y-141675368D02*
X83934811Y-141756180D01*
X83934811Y-141756180D02*
X83880936Y-141863930D01*
X83880936Y-141863930D02*
X83880936Y-141971680D01*
X83880936Y-141971680D02*
X83907873Y-142052492D01*
X83907873Y-142052492D02*
X83988685Y-142187179D01*
X83988685Y-142187179D02*
X84069498Y-142267991D01*
X84069498Y-142267991D02*
X84204185Y-142348803D01*
X84204185Y-142348803D02*
X84284997Y-142375741D01*
X84284997Y-142375741D02*
X84392746Y-142375741D01*
X84392746Y-142375741D02*
X84500496Y-142321866D01*
X84500496Y-142321866D02*
X84554371Y-142267991D01*
X84554371Y-142267991D02*
X84608246Y-142160241D01*
X84608246Y-142160241D02*
X84608246Y-142106367D01*
X84608246Y-142106367D02*
X84419684Y-141917805D01*
X84419684Y-141917805D02*
X84311934Y-142025554D01*
X84904557Y-141917805D02*
X84338872Y-141352119D01*
X84338872Y-141352119D02*
X85227806Y-141594556D01*
X85227806Y-141594556D02*
X84662120Y-141028871D01*
X85497180Y-141325182D02*
X84931494Y-140759497D01*
X84931494Y-140759497D02*
X85066181Y-140624810D01*
X85066181Y-140624810D02*
X85173931Y-140570935D01*
X85173931Y-140570935D02*
X85281680Y-140570935D01*
X85281680Y-140570935D02*
X85362493Y-140597872D01*
X85362493Y-140597872D02*
X85497180Y-140678685D01*
X85497180Y-140678685D02*
X85577992Y-140759497D01*
X85577992Y-140759497D02*
X85658804Y-140894184D01*
X85658804Y-140894184D02*
X85685741Y-140974996D01*
X85685741Y-140974996D02*
X85685741Y-141082746D01*
X85685741Y-141082746D02*
X85631867Y-141190495D01*
X85631867Y-141190495D02*
X85497180Y-141325182D01*
X109853998Y-134270868D02*
X109773185Y-134297805D01*
X109773185Y-134297805D02*
X109692373Y-134378618D01*
X109692373Y-134378618D02*
X109638498Y-134486367D01*
X109638498Y-134486367D02*
X109638498Y-134594117D01*
X109638498Y-134594117D02*
X109665436Y-134674929D01*
X109665436Y-134674929D02*
X109746248Y-134809616D01*
X109746248Y-134809616D02*
X109827060Y-134890428D01*
X109827060Y-134890428D02*
X109961747Y-134971241D01*
X109961747Y-134971241D02*
X110042560Y-134998178D01*
X110042560Y-134998178D02*
X110150309Y-134998178D01*
X110150309Y-134998178D02*
X110258059Y-134944303D01*
X110258059Y-134944303D02*
X110311934Y-134890428D01*
X110311934Y-134890428D02*
X110365808Y-134782679D01*
X110365808Y-134782679D02*
X110365808Y-134728804D01*
X110365808Y-134728804D02*
X110177247Y-134540242D01*
X110177247Y-134540242D02*
X110069497Y-134647992D01*
X110662120Y-134540242D02*
X110096434Y-133974557D01*
X110096434Y-133974557D02*
X110311934Y-133759057D01*
X110311934Y-133759057D02*
X110392746Y-133732120D01*
X110392746Y-133732120D02*
X110446621Y-133732120D01*
X110446621Y-133732120D02*
X110527433Y-133759057D01*
X110527433Y-133759057D02*
X110608245Y-133839870D01*
X110608245Y-133839870D02*
X110635182Y-133920682D01*
X110635182Y-133920682D02*
X110635182Y-133974557D01*
X110635182Y-133974557D02*
X110608245Y-134055369D01*
X110608245Y-134055369D02*
X110392746Y-134270868D01*
X111524117Y-133678245D02*
X111200868Y-134001494D01*
X111362492Y-133839870D02*
X110796807Y-133274184D01*
X110796807Y-133274184D02*
X110823744Y-133408871D01*
X110823744Y-133408871D02*
X110823744Y-133516621D01*
X110823744Y-133516621D02*
X110796807Y-133597433D01*
X111227805Y-132950935D02*
X111227805Y-132897060D01*
X111227805Y-132897060D02*
X111254743Y-132816248D01*
X111254743Y-132816248D02*
X111389430Y-132681561D01*
X111389430Y-132681561D02*
X111470242Y-132654624D01*
X111470242Y-132654624D02*
X111524117Y-132654624D01*
X111524117Y-132654624D02*
X111604929Y-132681561D01*
X111604929Y-132681561D02*
X111658804Y-132735436D01*
X111658804Y-132735436D02*
X111712679Y-132843186D01*
X111712679Y-132843186D02*
X111712679Y-133489683D01*
X111712679Y-133489683D02*
X112062865Y-133139497D01*
X109723372Y-172101494D02*
X109642560Y-172128431D01*
X109642560Y-172128431D02*
X109561748Y-172209243D01*
X109561748Y-172209243D02*
X109507873Y-172316993D01*
X109507873Y-172316993D02*
X109507873Y-172424742D01*
X109507873Y-172424742D02*
X109534810Y-172505555D01*
X109534810Y-172505555D02*
X109615623Y-172640242D01*
X109615623Y-172640242D02*
X109696435Y-172721054D01*
X109696435Y-172721054D02*
X109831122Y-172801866D01*
X109831122Y-172801866D02*
X109911934Y-172828803D01*
X109911934Y-172828803D02*
X110019684Y-172828803D01*
X110019684Y-172828803D02*
X110127433Y-172774929D01*
X110127433Y-172774929D02*
X110181308Y-172721054D01*
X110181308Y-172721054D02*
X110235183Y-172613304D01*
X110235183Y-172613304D02*
X110235183Y-172559429D01*
X110235183Y-172559429D02*
X110046621Y-172370868D01*
X110046621Y-172370868D02*
X109938871Y-172478617D01*
X110531494Y-172370868D02*
X109965809Y-171805182D01*
X109965809Y-171805182D02*
X110181308Y-171589683D01*
X110181308Y-171589683D02*
X110262120Y-171562746D01*
X110262120Y-171562746D02*
X110315995Y-171562746D01*
X110315995Y-171562746D02*
X110396807Y-171589683D01*
X110396807Y-171589683D02*
X110477619Y-171670495D01*
X110477619Y-171670495D02*
X110504557Y-171751307D01*
X110504557Y-171751307D02*
X110504557Y-171805182D01*
X110504557Y-171805182D02*
X110477619Y-171885994D01*
X110477619Y-171885994D02*
X110262120Y-172101494D01*
X110639244Y-171131747D02*
X110693119Y-171077872D01*
X110693119Y-171077872D02*
X110773931Y-171050935D01*
X110773931Y-171050935D02*
X110827806Y-171050935D01*
X110827806Y-171050935D02*
X110908618Y-171077872D01*
X110908618Y-171077872D02*
X111043305Y-171158685D01*
X111043305Y-171158685D02*
X111177992Y-171293372D01*
X111177992Y-171293372D02*
X111258804Y-171428059D01*
X111258804Y-171428059D02*
X111285741Y-171508871D01*
X111285741Y-171508871D02*
X111285741Y-171562746D01*
X111285741Y-171562746D02*
X111258804Y-171643558D01*
X111258804Y-171643558D02*
X111204929Y-171697433D01*
X111204929Y-171697433D02*
X111124117Y-171724370D01*
X111124117Y-171724370D02*
X111070242Y-171724370D01*
X111070242Y-171724370D02*
X110989430Y-171697433D01*
X110989430Y-171697433D02*
X110854743Y-171616620D01*
X110854743Y-171616620D02*
X110720056Y-171481933D01*
X110720056Y-171481933D02*
X110639244Y-171347246D01*
X110639244Y-171347246D02*
X110612306Y-171266434D01*
X110612306Y-171266434D02*
X110612306Y-171212559D01*
X110612306Y-171212559D02*
X110639244Y-171131747D01*
X83599998Y-136810868D02*
X83519185Y-136837805D01*
X83519185Y-136837805D02*
X83438373Y-136918618D01*
X83438373Y-136918618D02*
X83384498Y-137026367D01*
X83384498Y-137026367D02*
X83384498Y-137134117D01*
X83384498Y-137134117D02*
X83411436Y-137214929D01*
X83411436Y-137214929D02*
X83492248Y-137349616D01*
X83492248Y-137349616D02*
X83573060Y-137430428D01*
X83573060Y-137430428D02*
X83707747Y-137511241D01*
X83707747Y-137511241D02*
X83788560Y-137538178D01*
X83788560Y-137538178D02*
X83896309Y-137538178D01*
X83896309Y-137538178D02*
X84004059Y-137484303D01*
X84004059Y-137484303D02*
X84057934Y-137430428D01*
X84057934Y-137430428D02*
X84111808Y-137322679D01*
X84111808Y-137322679D02*
X84111808Y-137268804D01*
X84111808Y-137268804D02*
X83923247Y-137080242D01*
X83923247Y-137080242D02*
X83815497Y-137187992D01*
X84408120Y-137080242D02*
X83842434Y-136514557D01*
X83842434Y-136514557D02*
X84057934Y-136299057D01*
X84057934Y-136299057D02*
X84138746Y-136272120D01*
X84138746Y-136272120D02*
X84192621Y-136272120D01*
X84192621Y-136272120D02*
X84273433Y-136299057D01*
X84273433Y-136299057D02*
X84354245Y-136379870D01*
X84354245Y-136379870D02*
X84381182Y-136460682D01*
X84381182Y-136460682D02*
X84381182Y-136514557D01*
X84381182Y-136514557D02*
X84354245Y-136595369D01*
X84354245Y-136595369D02*
X84138746Y-136810868D01*
X84435057Y-136029683D02*
X84435057Y-135975809D01*
X84435057Y-135975809D02*
X84461995Y-135894996D01*
X84461995Y-135894996D02*
X84596682Y-135760309D01*
X84596682Y-135760309D02*
X84677494Y-135733372D01*
X84677494Y-135733372D02*
X84731369Y-135733372D01*
X84731369Y-135733372D02*
X84812181Y-135760309D01*
X84812181Y-135760309D02*
X84866056Y-135814184D01*
X84866056Y-135814184D02*
X84919930Y-135921934D01*
X84919930Y-135921934D02*
X84919930Y-136568431D01*
X84919930Y-136568431D02*
X85270117Y-136218245D01*
X85054618Y-135302373D02*
X85108492Y-135248499D01*
X85108492Y-135248499D02*
X85189305Y-135221561D01*
X85189305Y-135221561D02*
X85243179Y-135221561D01*
X85243179Y-135221561D02*
X85323992Y-135248499D01*
X85323992Y-135248499D02*
X85458679Y-135329311D01*
X85458679Y-135329311D02*
X85593366Y-135463998D01*
X85593366Y-135463998D02*
X85674178Y-135598685D01*
X85674178Y-135598685D02*
X85701115Y-135679497D01*
X85701115Y-135679497D02*
X85701115Y-135733372D01*
X85701115Y-135733372D02*
X85674178Y-135814184D01*
X85674178Y-135814184D02*
X85620303Y-135868059D01*
X85620303Y-135868059D02*
X85539491Y-135894996D01*
X85539491Y-135894996D02*
X85485616Y-135894996D01*
X85485616Y-135894996D02*
X85404804Y-135868059D01*
X85404804Y-135868059D02*
X85270117Y-135787247D01*
X85270117Y-135787247D02*
X85135430Y-135652560D01*
X85135430Y-135652560D02*
X85054618Y-135517873D01*
X85054618Y-135517873D02*
X85027680Y-135437060D01*
X85027680Y-135437060D02*
X85027680Y-135383186D01*
X85027680Y-135383186D02*
X85054618Y-135302373D01*
X83700123Y-162140868D02*
X84050309Y-161790682D01*
X84050309Y-161790682D02*
X84077247Y-162194743D01*
X84077247Y-162194743D02*
X84158059Y-162113931D01*
X84158059Y-162113931D02*
X84238871Y-162086993D01*
X84238871Y-162086993D02*
X84292746Y-162086993D01*
X84292746Y-162086993D02*
X84373558Y-162113931D01*
X84373558Y-162113931D02*
X84508245Y-162248618D01*
X84508245Y-162248618D02*
X84535182Y-162329430D01*
X84535182Y-162329430D02*
X84535182Y-162383305D01*
X84535182Y-162383305D02*
X84508245Y-162464117D01*
X84508245Y-162464117D02*
X84346621Y-162625741D01*
X84346621Y-162625741D02*
X84265808Y-162652679D01*
X84265808Y-162652679D02*
X84211934Y-162652679D01*
X84211934Y-161629057D02*
X84966181Y-162006181D01*
X84966181Y-162006181D02*
X84589057Y-161251934D01*
X84723744Y-161117247D02*
X85073930Y-160767061D01*
X85073930Y-160767061D02*
X85100868Y-161171122D01*
X85100868Y-161171122D02*
X85181680Y-161090309D01*
X85181680Y-161090309D02*
X85262492Y-161063372D01*
X85262492Y-161063372D02*
X85316367Y-161063372D01*
X85316367Y-161063372D02*
X85397179Y-161090309D01*
X85397179Y-161090309D02*
X85531866Y-161224996D01*
X85531866Y-161224996D02*
X85558804Y-161305809D01*
X85558804Y-161305809D02*
X85558804Y-161359683D01*
X85558804Y-161359683D02*
X85531866Y-161440496D01*
X85531866Y-161440496D02*
X85370242Y-161602120D01*
X85370242Y-161602120D02*
X85289430Y-161629057D01*
X85289430Y-161629057D02*
X85235555Y-161629057D01*
X83653873Y-155291240D02*
X83923247Y-155021866D01*
X83761623Y-155506739D02*
X83384499Y-154752492D01*
X83384499Y-154752492D02*
X84138746Y-155129615D01*
X84084871Y-154105994D02*
X84004059Y-154132932D01*
X84004059Y-154132932D02*
X83923247Y-154213744D01*
X83923247Y-154213744D02*
X83869372Y-154321494D01*
X83869372Y-154321494D02*
X83869372Y-154429243D01*
X83869372Y-154429243D02*
X83896310Y-154510055D01*
X83896310Y-154510055D02*
X83977122Y-154644742D01*
X83977122Y-154644742D02*
X84057934Y-154725555D01*
X84057934Y-154725555D02*
X84192621Y-154806367D01*
X84192621Y-154806367D02*
X84273433Y-154833304D01*
X84273433Y-154833304D02*
X84381183Y-154833304D01*
X84381183Y-154833304D02*
X84488932Y-154779429D01*
X84488932Y-154779429D02*
X84542807Y-154725555D01*
X84542807Y-154725555D02*
X84596682Y-154617805D01*
X84596682Y-154617805D02*
X84596682Y-154563930D01*
X84596682Y-154563930D02*
X84408120Y-154375368D01*
X84408120Y-154375368D02*
X84300371Y-154483118D01*
X84892993Y-154375368D02*
X84327308Y-153809683D01*
X84327308Y-153809683D02*
X85216242Y-154052120D01*
X85216242Y-154052120D02*
X84650557Y-153486434D01*
X85485616Y-153782746D02*
X84919931Y-153217060D01*
X84919931Y-153217060D02*
X85054618Y-153082373D01*
X85054618Y-153082373D02*
X85162367Y-153028498D01*
X85162367Y-153028498D02*
X85270117Y-153028498D01*
X85270117Y-153028498D02*
X85350929Y-153055436D01*
X85350929Y-153055436D02*
X85485616Y-153136248D01*
X85485616Y-153136248D02*
X85566428Y-153217060D01*
X85566428Y-153217060D02*
X85647241Y-153351747D01*
X85647241Y-153351747D02*
X85674178Y-153432560D01*
X85674178Y-153432560D02*
X85674178Y-153540309D01*
X85674178Y-153540309D02*
X85620303Y-153648059D01*
X85620303Y-153648059D02*
X85485616Y-153782746D01*
X109696435Y-154348431D02*
X109615623Y-154375368D01*
X109615623Y-154375368D02*
X109534811Y-154456180D01*
X109534811Y-154456180D02*
X109480936Y-154563930D01*
X109480936Y-154563930D02*
X109480936Y-154671680D01*
X109480936Y-154671680D02*
X109507873Y-154752492D01*
X109507873Y-154752492D02*
X109588685Y-154887179D01*
X109588685Y-154887179D02*
X109669498Y-154967991D01*
X109669498Y-154967991D02*
X109804185Y-155048803D01*
X109804185Y-155048803D02*
X109884997Y-155075741D01*
X109884997Y-155075741D02*
X109992746Y-155075741D01*
X109992746Y-155075741D02*
X110100496Y-155021866D01*
X110100496Y-155021866D02*
X110154371Y-154967991D01*
X110154371Y-154967991D02*
X110208246Y-154860241D01*
X110208246Y-154860241D02*
X110208246Y-154806367D01*
X110208246Y-154806367D02*
X110019684Y-154617805D01*
X110019684Y-154617805D02*
X109911934Y-154725554D01*
X110504557Y-154617805D02*
X109938872Y-154052119D01*
X109938872Y-154052119D02*
X110827806Y-154294556D01*
X110827806Y-154294556D02*
X110262120Y-153728871D01*
X111097180Y-154025182D02*
X110531494Y-153459497D01*
X110531494Y-153459497D02*
X110666181Y-153324810D01*
X110666181Y-153324810D02*
X110773931Y-153270935D01*
X110773931Y-153270935D02*
X110881680Y-153270935D01*
X110881680Y-153270935D02*
X110962493Y-153297872D01*
X110962493Y-153297872D02*
X111097180Y-153378685D01*
X111097180Y-153378685D02*
X111177992Y-153459497D01*
X111177992Y-153459497D02*
X111258804Y-153594184D01*
X111258804Y-153594184D02*
X111285741Y-153674996D01*
X111285741Y-153674996D02*
X111285741Y-153782746D01*
X111285741Y-153782746D02*
X111231867Y-153890495D01*
X111231867Y-153890495D02*
X111097180Y-154025182D01*
X90314761Y-121974200D02*
X90429047Y-122012295D01*
X90429047Y-122012295D02*
X90619523Y-122012295D01*
X90619523Y-122012295D02*
X90695714Y-121974200D01*
X90695714Y-121974200D02*
X90733809Y-121936104D01*
X90733809Y-121936104D02*
X90771904Y-121859914D01*
X90771904Y-121859914D02*
X90771904Y-121783723D01*
X90771904Y-121783723D02*
X90733809Y-121707533D01*
X90733809Y-121707533D02*
X90695714Y-121669438D01*
X90695714Y-121669438D02*
X90619523Y-121631342D01*
X90619523Y-121631342D02*
X90467142Y-121593247D01*
X90467142Y-121593247D02*
X90390952Y-121555152D01*
X90390952Y-121555152D02*
X90352857Y-121517057D01*
X90352857Y-121517057D02*
X90314761Y-121440866D01*
X90314761Y-121440866D02*
X90314761Y-121364676D01*
X90314761Y-121364676D02*
X90352857Y-121288485D01*
X90352857Y-121288485D02*
X90390952Y-121250390D01*
X90390952Y-121250390D02*
X90467142Y-121212295D01*
X90467142Y-121212295D02*
X90657619Y-121212295D01*
X90657619Y-121212295D02*
X90771904Y-121250390D01*
X91038571Y-121212295D02*
X91229047Y-122012295D01*
X91229047Y-122012295D02*
X91381428Y-121440866D01*
X91381428Y-121440866D02*
X91533809Y-122012295D01*
X91533809Y-122012295D02*
X91724286Y-121212295D01*
X92029048Y-122012295D02*
X92029048Y-121212295D01*
X92029048Y-121212295D02*
X92219524Y-121212295D01*
X92219524Y-121212295D02*
X92333810Y-121250390D01*
X92333810Y-121250390D02*
X92410000Y-121326580D01*
X92410000Y-121326580D02*
X92448095Y-121402771D01*
X92448095Y-121402771D02*
X92486191Y-121555152D01*
X92486191Y-121555152D02*
X92486191Y-121669438D01*
X92486191Y-121669438D02*
X92448095Y-121821819D01*
X92448095Y-121821819D02*
X92410000Y-121898009D01*
X92410000Y-121898009D02*
X92333810Y-121974200D01*
X92333810Y-121974200D02*
X92219524Y-122012295D01*
X92219524Y-122012295D02*
X92029048Y-122012295D01*
X92829048Y-122012295D02*
X92829048Y-121212295D01*
X93362381Y-121212295D02*
X93514762Y-121212295D01*
X93514762Y-121212295D02*
X93590952Y-121250390D01*
X93590952Y-121250390D02*
X93667143Y-121326580D01*
X93667143Y-121326580D02*
X93705238Y-121478961D01*
X93705238Y-121478961D02*
X93705238Y-121745628D01*
X93705238Y-121745628D02*
X93667143Y-121898009D01*
X93667143Y-121898009D02*
X93590952Y-121974200D01*
X93590952Y-121974200D02*
X93514762Y-122012295D01*
X93514762Y-122012295D02*
X93362381Y-122012295D01*
X93362381Y-122012295D02*
X93286190Y-121974200D01*
X93286190Y-121974200D02*
X93210000Y-121898009D01*
X93210000Y-121898009D02*
X93171904Y-121745628D01*
X93171904Y-121745628D02*
X93171904Y-121478961D01*
X93171904Y-121478961D02*
X93210000Y-121326580D01*
X93210000Y-121326580D02*
X93286190Y-121250390D01*
X93286190Y-121250390D02*
X93362381Y-121212295D01*
X109723372Y-161941494D02*
X109642560Y-161968431D01*
X109642560Y-161968431D02*
X109561748Y-162049243D01*
X109561748Y-162049243D02*
X109507873Y-162156993D01*
X109507873Y-162156993D02*
X109507873Y-162264742D01*
X109507873Y-162264742D02*
X109534810Y-162345555D01*
X109534810Y-162345555D02*
X109615623Y-162480242D01*
X109615623Y-162480242D02*
X109696435Y-162561054D01*
X109696435Y-162561054D02*
X109831122Y-162641866D01*
X109831122Y-162641866D02*
X109911934Y-162668803D01*
X109911934Y-162668803D02*
X110019684Y-162668803D01*
X110019684Y-162668803D02*
X110127433Y-162614929D01*
X110127433Y-162614929D02*
X110181308Y-162561054D01*
X110181308Y-162561054D02*
X110235183Y-162453304D01*
X110235183Y-162453304D02*
X110235183Y-162399429D01*
X110235183Y-162399429D02*
X110046621Y-162210868D01*
X110046621Y-162210868D02*
X109938871Y-162318617D01*
X110531494Y-162210868D02*
X109965809Y-161645182D01*
X109965809Y-161645182D02*
X110181308Y-161429683D01*
X110181308Y-161429683D02*
X110262120Y-161402746D01*
X110262120Y-161402746D02*
X110315995Y-161402746D01*
X110315995Y-161402746D02*
X110396807Y-161429683D01*
X110396807Y-161429683D02*
X110477619Y-161510495D01*
X110477619Y-161510495D02*
X110504557Y-161591307D01*
X110504557Y-161591307D02*
X110504557Y-161645182D01*
X110504557Y-161645182D02*
X110477619Y-161725994D01*
X110477619Y-161725994D02*
X110262120Y-161941494D01*
X110477619Y-161133372D02*
X110827806Y-160783185D01*
X110827806Y-160783185D02*
X110854743Y-161187246D01*
X110854743Y-161187246D02*
X110935555Y-161106434D01*
X110935555Y-161106434D02*
X111016367Y-161079497D01*
X111016367Y-161079497D02*
X111070242Y-161079497D01*
X111070242Y-161079497D02*
X111151054Y-161106434D01*
X111151054Y-161106434D02*
X111285741Y-161241121D01*
X111285741Y-161241121D02*
X111312679Y-161321933D01*
X111312679Y-161321933D02*
X111312679Y-161375808D01*
X111312679Y-161375808D02*
X111285741Y-161456620D01*
X111285741Y-161456620D02*
X111124117Y-161618245D01*
X111124117Y-161618245D02*
X111043305Y-161645182D01*
X111043305Y-161645182D02*
X110989430Y-161645182D01*
X109823372Y-164481494D02*
X109742560Y-164508431D01*
X109742560Y-164508431D02*
X109661748Y-164589243D01*
X109661748Y-164589243D02*
X109607873Y-164696993D01*
X109607873Y-164696993D02*
X109607873Y-164804742D01*
X109607873Y-164804742D02*
X109634810Y-164885555D01*
X109634810Y-164885555D02*
X109715623Y-165020242D01*
X109715623Y-165020242D02*
X109796435Y-165101054D01*
X109796435Y-165101054D02*
X109931122Y-165181866D01*
X109931122Y-165181866D02*
X110011934Y-165208803D01*
X110011934Y-165208803D02*
X110119684Y-165208803D01*
X110119684Y-165208803D02*
X110227433Y-165154929D01*
X110227433Y-165154929D02*
X110281308Y-165101054D01*
X110281308Y-165101054D02*
X110335183Y-164993304D01*
X110335183Y-164993304D02*
X110335183Y-164939429D01*
X110335183Y-164939429D02*
X110146621Y-164750868D01*
X110146621Y-164750868D02*
X110038871Y-164858617D01*
X110631494Y-164750868D02*
X110065809Y-164185182D01*
X110065809Y-164185182D02*
X110281308Y-163969683D01*
X110281308Y-163969683D02*
X110362120Y-163942746D01*
X110362120Y-163942746D02*
X110415995Y-163942746D01*
X110415995Y-163942746D02*
X110496807Y-163969683D01*
X110496807Y-163969683D02*
X110577619Y-164050495D01*
X110577619Y-164050495D02*
X110604557Y-164131307D01*
X110604557Y-164131307D02*
X110604557Y-164185182D01*
X110604557Y-164185182D02*
X110577619Y-164265994D01*
X110577619Y-164265994D02*
X110362120Y-164481494D01*
X110658432Y-163700309D02*
X110658432Y-163646434D01*
X110658432Y-163646434D02*
X110685369Y-163565622D01*
X110685369Y-163565622D02*
X110820056Y-163430935D01*
X110820056Y-163430935D02*
X110900868Y-163403998D01*
X110900868Y-163403998D02*
X110954743Y-163403998D01*
X110954743Y-163403998D02*
X111035555Y-163430935D01*
X111035555Y-163430935D02*
X111089430Y-163484810D01*
X111089430Y-163484810D02*
X111143305Y-163592559D01*
X111143305Y-163592559D02*
X111143305Y-164239057D01*
X111143305Y-164239057D02*
X111493491Y-163888871D01*
X82132407Y-166208584D02*
X82482593Y-165858398D01*
X82482593Y-165858398D02*
X82509531Y-166262459D01*
X82509531Y-166262459D02*
X82590343Y-166181646D01*
X82590343Y-166181646D02*
X82671155Y-166154709D01*
X82671155Y-166154709D02*
X82725030Y-166154709D01*
X82725030Y-166154709D02*
X82805842Y-166181646D01*
X82805842Y-166181646D02*
X82940529Y-166316333D01*
X82940529Y-166316333D02*
X82967467Y-166397146D01*
X82967467Y-166397146D02*
X82967467Y-166451020D01*
X82967467Y-166451020D02*
X82940529Y-166531833D01*
X82940529Y-166531833D02*
X82778905Y-166693457D01*
X82778905Y-166693457D02*
X82698093Y-166720394D01*
X82698093Y-166720394D02*
X82644218Y-166720394D01*
X82644218Y-165696773D02*
X83398465Y-166073897D01*
X83398465Y-166073897D02*
X83021342Y-165319649D01*
X83156028Y-165184963D02*
X83506215Y-164834776D01*
X83506215Y-164834776D02*
X83533152Y-165238837D01*
X83533152Y-165238837D02*
X83613964Y-165158025D01*
X83613964Y-165158025D02*
X83694776Y-165131088D01*
X83694776Y-165131088D02*
X83748651Y-165131088D01*
X83748651Y-165131088D02*
X83829464Y-165158025D01*
X83829464Y-165158025D02*
X83964151Y-165292712D01*
X83964151Y-165292712D02*
X83991088Y-165373524D01*
X83991088Y-165373524D02*
X83991088Y-165427399D01*
X83991088Y-165427399D02*
X83964151Y-165508211D01*
X83964151Y-165508211D02*
X83802526Y-165669836D01*
X83802526Y-165669836D02*
X83721714Y-165696773D01*
X83721714Y-165696773D02*
X83667839Y-165696773D01*
X84233525Y-165346587D02*
X84664523Y-164915588D01*
X84449024Y-164430715D02*
X84637586Y-164242153D01*
X85014709Y-164457652D02*
X84745335Y-164727026D01*
X84745335Y-164727026D02*
X84179650Y-164161341D01*
X84179650Y-164161341D02*
X84449024Y-163891967D01*
X85257146Y-164215215D02*
X84691461Y-163649530D01*
X84691461Y-163649530D02*
X85580395Y-163891967D01*
X85580395Y-163891967D02*
X85014710Y-163326281D01*
X126738095Y-77954819D02*
X126738095Y-76954819D01*
X126738095Y-77431009D02*
X127309523Y-77431009D01*
X127309523Y-77954819D02*
X127309523Y-76954819D01*
X127738095Y-77050057D02*
X127785714Y-77002438D01*
X127785714Y-77002438D02*
X127880952Y-76954819D01*
X127880952Y-76954819D02*
X128119047Y-76954819D01*
X128119047Y-76954819D02*
X128214285Y-77002438D01*
X128214285Y-77002438D02*
X128261904Y-77050057D01*
X128261904Y-77050057D02*
X128309523Y-77145295D01*
X128309523Y-77145295D02*
X128309523Y-77240533D01*
X128309523Y-77240533D02*
X128261904Y-77383390D01*
X128261904Y-77383390D02*
X127690476Y-77954819D01*
X127690476Y-77954819D02*
X128309523Y-77954819D01*
%TO.C,U7*%
D10*
X124597500Y-168082500D02*
X117612500Y-168082500D01*
X117612500Y-163002500D01*
X124597500Y-163002500D01*
X124597500Y-168082500D01*
%TO.C,U5*%
X128620000Y-149350000D02*
X113380000Y-149350000D01*
X113380000Y-136650000D01*
X128620000Y-136650000D01*
X128620000Y-149350000D01*
D12*
%TO.C,U2*%
X84840000Y-76500000D02*
X111160000Y-76500000D01*
X84840000Y-116500000D02*
X84840000Y-76500000D01*
X111160000Y-76500000D02*
X111160000Y-116500000D01*
X111160000Y-116500000D02*
X84840000Y-116500000D01*
%TO.C,U6*%
D10*
X113765000Y-110670000D02*
X131545000Y-110670000D01*
X131545000Y-136070000D01*
X113765000Y-136070000D01*
X113765000Y-110670000D01*
D13*
%TO.C,U1*%
X87110000Y-122350000D02*
X93910000Y-122350000D01*
X87110000Y-125150000D02*
X87110000Y-124750000D01*
X87110000Y-127750000D02*
X87110000Y-127350000D01*
X87110000Y-130250000D02*
X87110000Y-129850000D01*
X87110000Y-132750000D02*
X87110000Y-132350000D01*
X87110000Y-135350000D02*
X87110000Y-134950000D01*
X87110000Y-137850000D02*
X87110000Y-137450000D01*
X87110000Y-140450000D02*
X87110000Y-140050000D01*
X87110000Y-142950000D02*
X87110000Y-142550000D01*
X87110000Y-145550000D02*
X87110000Y-145150000D01*
X87110000Y-148050000D02*
X87110000Y-147650000D01*
X87110000Y-150550000D02*
X87110000Y-150150000D01*
X87110000Y-153150000D02*
X87110000Y-152750000D01*
X87110000Y-155650000D02*
X87110000Y-155250000D01*
X87110000Y-158250000D02*
X87110000Y-157850000D01*
X87110000Y-160750000D02*
X87110000Y-160350000D01*
X87110000Y-163250000D02*
X87110000Y-162850000D01*
X87110000Y-165850000D02*
X87110000Y-165450000D01*
X87110000Y-168350000D02*
X87110000Y-167950000D01*
X87110000Y-170950000D02*
X87110000Y-170550000D01*
X87110000Y-173350000D02*
X87110000Y-173050000D01*
X96510000Y-122350000D02*
X96110000Y-122350000D01*
X99110000Y-122350000D02*
X98710000Y-122350000D01*
X101310000Y-122350000D02*
X108110000Y-122350000D01*
X105103000Y-170683000D02*
X105103000Y-173350000D01*
X108110000Y-125150000D02*
X108110000Y-124750000D01*
X108110000Y-127750000D02*
X108110000Y-127350000D01*
X108110000Y-130250000D02*
X108110000Y-129850000D01*
X108110000Y-132750000D02*
X108110000Y-132350000D01*
X108110000Y-135350000D02*
X108110000Y-134950000D01*
X108110000Y-137850000D02*
X108110000Y-137450000D01*
X108110000Y-140450000D02*
X108110000Y-140050000D01*
X108110000Y-142950000D02*
X108110000Y-142550000D01*
X108110000Y-145550000D02*
X108110000Y-145150000D01*
X108110000Y-148050000D02*
X108110000Y-147650000D01*
X108110000Y-150550000D02*
X108110000Y-150150000D01*
X108110000Y-153150000D02*
X108110000Y-152750000D01*
X108110000Y-155650000D02*
X108110000Y-155250000D01*
X108110000Y-158250000D02*
X108110000Y-157850000D01*
X108110000Y-160750000D02*
X108110000Y-160350000D01*
X108110000Y-163250000D02*
X108110000Y-162850000D01*
X108110000Y-165850000D02*
X108110000Y-165450000D01*
X108110000Y-168350000D02*
X108110000Y-167950000D01*
X108110000Y-170683000D02*
X105103000Y-170683000D01*
X108110000Y-170950000D02*
X108110000Y-170550000D01*
X108110000Y-173350000D02*
X87110000Y-173350000D01*
X108110000Y-173350000D02*
X108110000Y-173050000D01*
%TD*%
M02*
