M48
; DRILL file {KiCad 8.0.6} date 2025-06-01T11:12:35+0100
; FORMAT={-:-/ absolute / inch / decimal}
; #@! TF.CreationDate,2025-06-01T11:12:35+01:00
; #@! TF.GenerationSoftware,Kicad,Pcbnew,8.0.6
; #@! TF.FileFunction,Plated,1,4,PTH
FMAT,2
INCH
; #@! TA.AperFunction,Plated,PTH,ViaDrill
T1C0.0118
; #@! TA.AperFunction,Plated,PTH,ComponentDrill
T2C0.0295
; #@! TA.AperFunction,Plated,PTH,ComponentDrill
T3C0.0394
; #@! TA.AperFunction,Plated,PTH,ComponentDrill
T4C0.0402
; #@! TA.AperFunction,Plated,PTH,ComponentDrill
T5C0.0591
; #@! TA.AperFunction,Plated,PTH,ComponentDrill
T6C0.0866
; #@! TA.AperFunction,Plated,PTH,ComponentDrill
T7C0.0984
%
G90
G05
T1
X3.5236Y-4.0354
X3.5236Y-4.5866
X4.1535Y-4.1142
X4.1535Y-4.1929
T2
X4.5276Y-4.1732
X4.6063Y-4.1732
T3
X3.1496Y-5.0165
X3.1496Y-5.1165
X3.1496Y-5.2165
X3.1496Y-5.3165
X3.1496Y-5.4165
X3.1496Y-5.5165
X3.1496Y-5.6165
X3.1496Y-5.7165
X3.4083Y-3.2193
X3.4083Y-3.3193
X3.4083Y-3.4193
X3.4083Y-3.5193
X3.4083Y-3.6193
X3.4083Y-3.7193
X3.4083Y-3.8193
X3.4083Y-3.9193
X4.3083Y-3.2193
X4.3083Y-3.3193
X4.3083Y-3.4193
X4.3083Y-3.5193
X4.3083Y-3.6193
X4.3083Y-3.7193
X4.3083Y-3.8193
X4.3083Y-3.9193
X4.4804Y-6.0174
X4.4804Y-6.1174
X4.4804Y-6.2174
X4.4804Y-6.3174
X4.4804Y-6.4174
X4.4804Y-6.5174
X4.4804Y-6.6174
X4.5789Y-4.6071
X4.5789Y-4.7071
X4.5789Y-4.8071
X4.5789Y-4.9071
X4.5789Y-5.0071
X4.5789Y-5.1071
X4.9016Y-4.1732
X4.9638Y-5.4799
X4.9638Y-5.5799
X4.9638Y-5.6799
X4.9638Y-5.7799
X4.9803Y-4.1732
X5.0591Y-4.1732
X5.0789Y-4.6071
X5.0789Y-4.7071
X5.0789Y-4.8071
X5.0789Y-4.9071
X5.0789Y-5.0071
X5.0789Y-5.1071
X5.0804Y-6.0174
X5.0804Y-6.1174
X5.0804Y-6.2174
X5.0804Y-6.3174
X5.0804Y-6.4174
X5.0804Y-6.5174
X5.0804Y-6.6174
T4
X3.4929Y-4.8709
X3.4929Y-4.9709
X3.4929Y-5.0709
X3.4929Y-5.1709
X3.4929Y-5.2709
X3.4929Y-5.3709
X3.4929Y-5.4709
X3.4929Y-5.5709
X3.4929Y-5.6709
X3.4929Y-5.7709
X3.4929Y-5.8709
X3.4929Y-5.9709
X3.4929Y-6.0709
X3.4929Y-6.1709
X3.4929Y-6.2709
X3.4929Y-6.3709
X3.4929Y-6.4709
X3.4929Y-6.5709
X3.4929Y-6.6709
X3.4929Y-6.7709
X3.7429Y-4.8799
X3.8429Y-4.8799
X3.9429Y-4.8799
X4.1929Y-4.8709
X4.1929Y-4.9709
X4.1929Y-5.0709
X4.1929Y-5.1709
X4.1929Y-5.2709
X4.1929Y-5.3709
X4.1929Y-5.4709
X4.1929Y-5.5709
X4.1929Y-5.6709
X4.1929Y-5.7709
X4.1929Y-5.8709
X4.1929Y-5.9709
X4.1929Y-6.0709
X4.1929Y-6.1709
X4.1929Y-6.2709
X4.1929Y-6.3709
X4.1929Y-6.4709
X4.1929Y-6.5709
X4.1929Y-6.6709
X4.1929Y-6.7709
T5
X4.811Y-4.1732
X5.1496Y-4.1732
T6
X3.0906Y-3.0709
X3.0906Y-6.7717
X5.1969Y-3.0709
X5.1969Y-6.7717
T7
X4.5789Y-4.4571
X4.5789Y-5.2571
X5.0789Y-4.4571
X5.0789Y-5.2571
M30
