%TF.GenerationSoftware,KiCad,Pcbnew,8.0.6*%
%TF.CreationDate,2025-05-31T15:30:40+01:00*%
%TF.ProjectId,Leo_Ground,4c656f5f-4772-46f7-956e-642e6b696361,rev?*%
%TF.SameCoordinates,Original*%
%TF.FileFunction,Copper,L1,Top*%
%TF.FilePolarity,Positive*%
%FSLAX46Y46*%
G04 Gerber Fmt 4.6, Leading zero omitted, Abs format (unit mm)*
G04 Created by KiCad (PCBNEW 8.0.6) date 2025-05-31 15:30:40*
%MOMM*%
%LPD*%
G01*
G04 APERTURE LIST*
%TA.AperFunction,SMDPad,CuDef*%
%ADD10R,1.500000X2.000000*%
%TD*%
%TA.AperFunction,ComponentPad*%
%ADD11O,1.700000X1.700000*%
%TD*%
%TA.AperFunction,SMDPad,CuDef*%
%ADD12R,1.700000X3.500000*%
%TD*%
%TA.AperFunction,ComponentPad*%
%ADD13R,1.700000X1.700000*%
%TD*%
%TA.AperFunction,SMDPad,CuDef*%
%ADD14R,3.500000X1.700000*%
%TD*%
%TA.AperFunction,Conductor*%
%ADD15C,0.200000*%
%TD*%
G04 APERTURE END LIST*
D10*
%TO.P,U2,16,GND*%
%TO.N,Net-(U1-GND-Pad13)*%
X195000000Y-102000000D03*
%TO.P,U2,15,~{NSS}*%
%TO.N,Net-(U1-GPIO17)*%
X193000000Y-102000000D03*
%TO.P,U2,14,MOSI*%
%TO.N,Net-(U1-GPIO19)*%
X191000000Y-102000000D03*
%TO.P,U2,13,MISO*%
%TO.N,Net-(U1-GPIO16)*%
X189000000Y-102000000D03*
%TO.P,U2,12,SCK*%
%TO.N,Net-(U1-GPIO18)*%
X187000000Y-102000000D03*
%TO.P,U2,11,DIO5*%
%TO.N,unconnected-(U2-DIO5-Pad11)*%
X185000000Y-102000000D03*
%TO.P,U2,10,DIO4*%
%TO.N,unconnected-(U2-DIO4-Pad10)*%
X183000000Y-102000000D03*
%TO.P,U2,9,GND*%
%TO.N,Net-(U1-GND-Pad13)*%
X181000000Y-102000000D03*
%TO.P,U2,8,DIO3*%
%TO.N,unconnected-(U2-DIO3-Pad8)*%
X181000000Y-86000000D03*
%TO.P,U2,7,DIO2*%
%TO.N,unconnected-(U2-DIO2-Pad7)*%
X183000000Y-86000000D03*
%TO.P,U2,6,DIO1*%
%TO.N,unconnected-(U2-DIO1-Pad6)*%
X185000000Y-86000000D03*
%TO.P,U2,5,DIO0*%
%TO.N,unconnected-(U2-DIO0-Pad5)*%
X187000000Y-86000000D03*
%TO.P,U2,4,~{RESET}*%
%TO.N,unconnected-(U2-~{RESET}-Pad4)*%
X189000000Y-86000000D03*
%TO.P,U2,3,VDD*%
%TO.N,Net-(U1-3V3)*%
X191000000Y-86000000D03*
%TO.P,U2,2,GND*%
%TO.N,Net-(U1-GND-Pad13)*%
X193000000Y-86000000D03*
%TO.P,U2,1,ANT*%
%TO.N,unconnected-(U2-ANT-Pad1)*%
X195000000Y-86000000D03*
%TD*%
D11*
%TO.P,U1,1,GPIO0*%
%TO.N,unconnected-(U1-GPIO0-Pad1)*%
X119760000Y-103780000D03*
D12*
X119760000Y-104680000D03*
D11*
%TO.P,U1,2,GPIO1*%
%TO.N,unconnected-(U1-GPIO1-Pad2)*%
X122300000Y-103780000D03*
D12*
X122300000Y-104680000D03*
D13*
%TO.P,U1,3,GND*%
%TO.N,Net-(U1-GND-Pad13)*%
X124840000Y-103780000D03*
D12*
X124840000Y-104680000D03*
D11*
%TO.P,U1,4,GPIO2*%
%TO.N,unconnected-(U1-GPIO2-Pad4)*%
X127380000Y-103780000D03*
D12*
X127380000Y-104680000D03*
D11*
%TO.P,U1,5,GPIO3*%
%TO.N,unconnected-(U1-GPIO3-Pad5)*%
X129920000Y-103780000D03*
D12*
X129920000Y-104680000D03*
D11*
%TO.P,U1,6,GPIO4*%
%TO.N,unconnected-(U1-GPIO4-Pad6)*%
X132460000Y-103780000D03*
D12*
X132460000Y-104680000D03*
D11*
%TO.P,U1,7,GPIO5*%
%TO.N,unconnected-(U1-GPIO5-Pad7)*%
X135000000Y-103780000D03*
D12*
X135000000Y-104680000D03*
D13*
%TO.P,U1,8,GND*%
%TO.N,Net-(U1-GND-Pad13)*%
X137540000Y-103780000D03*
D12*
X137540000Y-104680000D03*
D11*
%TO.P,U1,9,GPIO6*%
%TO.N,unconnected-(U1-GPIO6-Pad9)*%
X140080000Y-103780000D03*
D12*
X140080000Y-104680000D03*
D11*
%TO.P,U1,10,GPIO7*%
%TO.N,unconnected-(U1-GPIO7-Pad10)*%
X142620000Y-103780000D03*
D12*
X142620000Y-104680000D03*
D11*
%TO.P,U1,11,GPIO8*%
%TO.N,unconnected-(U1-GPIO8-Pad11)*%
X145160000Y-103780000D03*
D12*
X145160000Y-104680000D03*
D11*
%TO.P,U1,12,GPIO9*%
%TO.N,unconnected-(U1-GPIO9-Pad12)*%
X147700000Y-103780000D03*
D12*
X147700000Y-104680000D03*
D13*
%TO.P,U1,13,GND*%
%TO.N,Net-(U1-GND-Pad13)*%
X150240000Y-103780000D03*
D12*
X150240000Y-104680000D03*
D11*
%TO.P,U1,14,GPIO10*%
%TO.N,unconnected-(U1-GPIO10-Pad14)*%
X152780000Y-103780000D03*
D12*
X152780000Y-104680000D03*
D11*
%TO.P,U1,15,GPIO11*%
%TO.N,unconnected-(U1-GPIO11-Pad15)*%
X155320000Y-103780000D03*
D12*
X155320000Y-104680000D03*
D11*
%TO.P,U1,16,GPIO12*%
%TO.N,unconnected-(U1-GPIO12-Pad16)*%
X157860000Y-103780000D03*
D12*
X157860000Y-104680000D03*
D11*
%TO.P,U1,17,GPIO13*%
%TO.N,unconnected-(U1-GPIO13-Pad17)*%
X160400000Y-103780000D03*
D12*
X160400000Y-104680000D03*
D13*
%TO.P,U1,18,GND*%
%TO.N,Net-(U1-GND-Pad13)*%
X162940000Y-103780000D03*
D12*
X162940000Y-104680000D03*
D11*
%TO.P,U1,19,GPIO14*%
%TO.N,unconnected-(U1-GPIO14-Pad19)*%
X165480000Y-103780000D03*
D12*
X165480000Y-104680000D03*
D11*
%TO.P,U1,20,GPIO15*%
%TO.N,unconnected-(U1-GPIO15-Pad20)*%
X168020000Y-103780000D03*
D12*
X168020000Y-104680000D03*
D11*
%TO.P,U1,21,GPIO16*%
%TO.N,Net-(U1-GPIO16)*%
X168020000Y-86000000D03*
D12*
X168020000Y-85100000D03*
D11*
%TO.P,U1,22,GPIO17*%
%TO.N,Net-(U1-GPIO17)*%
X165480000Y-86000000D03*
D12*
X165480000Y-85100000D03*
D13*
%TO.P,U1,23,GND*%
%TO.N,Net-(U1-GND-Pad13)*%
X162940000Y-86000000D03*
D12*
X162940000Y-85100000D03*
D11*
%TO.P,U1,24,GPIO18*%
%TO.N,Net-(U1-GPIO18)*%
X160400000Y-86000000D03*
D12*
X160400000Y-85100000D03*
D11*
%TO.P,U1,25,GPIO19*%
%TO.N,Net-(U1-GPIO19)*%
X157860000Y-86000000D03*
D12*
X157860000Y-85100000D03*
D11*
%TO.P,U1,26,GPIO20*%
%TO.N,unconnected-(U1-GPIO20-Pad26)*%
X155320000Y-86000000D03*
D12*
X155320000Y-85100000D03*
D11*
%TO.P,U1,27,GPIO21*%
%TO.N,unconnected-(U1-GPIO21-Pad27)*%
X152780000Y-86000000D03*
D12*
X152780000Y-85100000D03*
D13*
%TO.P,U1,28,GND*%
%TO.N,Net-(U1-GND-Pad13)*%
X150240000Y-86000000D03*
D12*
X150240000Y-85100000D03*
D11*
%TO.P,U1,29,GPIO22*%
%TO.N,unconnected-(U1-GPIO22-Pad29)*%
X147700000Y-86000000D03*
D12*
X147700000Y-85100000D03*
D11*
%TO.P,U1,30,RUN*%
%TO.N,unconnected-(U1-RUN-Pad30)*%
X145160000Y-86000000D03*
D12*
X145160000Y-85100000D03*
D11*
%TO.P,U1,31,GPIO26_ADC0*%
%TO.N,unconnected-(U1-GPIO26_ADC0-Pad31)*%
X142620000Y-86000000D03*
D12*
X142620000Y-85100000D03*
D11*
%TO.P,U1,32,GPIO27_ADC1*%
%TO.N,unconnected-(U1-GPIO27_ADC1-Pad32)*%
X140080000Y-86000000D03*
D12*
X140080000Y-85100000D03*
D13*
%TO.P,U1,33,AGND*%
%TO.N,unconnected-(U1-AGND-Pad33)*%
X137540000Y-86000000D03*
D12*
X137540000Y-85100000D03*
D11*
%TO.P,U1,34,GPIO28_ADC2*%
%TO.N,unconnected-(U1-GPIO28_ADC2-Pad34)*%
X135000000Y-86000000D03*
D12*
X135000000Y-85100000D03*
D11*
%TO.P,U1,35,ADC_VREF*%
%TO.N,unconnected-(U1-ADC_VREF-Pad35)*%
X132460000Y-86000000D03*
D12*
X132460000Y-85100000D03*
D11*
%TO.P,U1,36,3V3*%
%TO.N,Net-(U1-3V3)*%
X129920000Y-86000000D03*
D12*
X129920000Y-85100000D03*
D11*
%TO.P,U1,37,3V3_EN*%
%TO.N,unconnected-(U1-3V3_EN-Pad37)*%
X127380000Y-86000000D03*
D12*
X127380000Y-85100000D03*
D13*
%TO.P,U1,38,GND*%
%TO.N,Net-(U1-GND-Pad13)*%
X124840000Y-86000000D03*
D12*
X124840000Y-85100000D03*
D11*
%TO.P,U1,39,VSYS*%
%TO.N,unconnected-(U1-VSYS-Pad39)*%
X122300000Y-86000000D03*
D12*
X122300000Y-85100000D03*
D11*
%TO.P,U1,40,VBUS*%
%TO.N,unconnected-(U1-VBUS-Pad40)*%
X119760000Y-86000000D03*
D12*
X119760000Y-85100000D03*
D11*
%TO.P,U1,41,SWCLK*%
%TO.N,unconnected-(U1-SWCLK-Pad41)*%
X167790000Y-97430000D03*
D14*
X168690000Y-97430000D03*
D13*
%TO.P,U1,42,GND*%
%TO.N,Net-(U1-GND-Pad13)*%
X167790000Y-94890000D03*
D14*
X168690000Y-94890000D03*
D11*
%TO.P,U1,43,SWDIO*%
%TO.N,unconnected-(U1-SWDIO-Pad43)*%
X167790000Y-92350000D03*
D14*
X168690000Y-92350000D03*
%TD*%
D15*
%TO.N,Net-(U1-GND-Pad13)*%
X168500000Y-88500000D02*
X164750000Y-88500000D01*
X181000000Y-101000000D02*
X168500000Y-88500000D01*
X162940000Y-86690000D02*
X162940000Y-86000000D01*
X181000000Y-102000000D02*
X181000000Y-101000000D01*
X164750000Y-88500000D02*
X162940000Y-86690000D01*
%TO.N,Net-(U1-GPIO18)*%
X171750000Y-103750000D02*
X160400000Y-92400000D01*
X185600000Y-103750000D02*
X171750000Y-103750000D01*
X160400000Y-92400000D02*
X160400000Y-86000000D01*
X187000000Y-102350000D02*
X185600000Y-103750000D01*
%TO.N,Net-(U1-GPIO19)*%
X157860000Y-90931372D02*
X157860000Y-86000000D01*
X171678628Y-104750000D02*
X157860000Y-90931372D01*
X188600000Y-104750000D02*
X171678628Y-104750000D01*
X191000000Y-102000000D02*
X191000000Y-102350000D01*
X191000000Y-102350000D02*
X188600000Y-104750000D01*
%TO.N,Net-(U1-GND-Pad13)*%
X162940000Y-84440000D02*
X162940000Y-86000000D01*
X165380000Y-82000000D02*
X162940000Y-84440000D01*
X185825000Y-93175000D02*
X174650000Y-82000000D01*
X174650000Y-82000000D02*
X165380000Y-82000000D01*
X186075000Y-93175000D02*
X185825000Y-93175000D01*
X193000000Y-86000000D02*
X193000000Y-86250000D01*
X193350000Y-100700000D02*
X185825000Y-93175000D01*
X193000000Y-86250000D02*
X186075000Y-93175000D01*
%TO.N,Net-(U1-GPIO16)*%
X173250000Y-86000000D02*
X168020000Y-86000000D01*
X189000000Y-101750000D02*
X173250000Y-86000000D01*
X189000000Y-102000000D02*
X189000000Y-101750000D01*
%TO.N,Net-(U1-GPIO17)*%
X173850000Y-82500000D02*
X167420000Y-82500000D01*
X193000000Y-102000000D02*
X193000000Y-101650000D01*
X167420000Y-82500000D02*
X165480000Y-84440000D01*
X165480000Y-84440000D02*
X165480000Y-86000000D01*
X193000000Y-101650000D02*
X173850000Y-82500000D01*
%TO.N,Net-(U1-3V3)*%
X191000000Y-85750000D02*
X186750000Y-81500000D01*
X129920000Y-84440000D02*
X129920000Y-86000000D01*
X132860000Y-81500000D02*
X129920000Y-84440000D01*
X186750000Y-81500000D02*
X132860000Y-81500000D01*
X191000000Y-86000000D02*
X191000000Y-85750000D01*
%TO.N,Net-(U1-GPIO18)*%
X187000000Y-102000000D02*
X187000000Y-101750000D01*
X187000000Y-102000000D02*
X187000000Y-102350000D01*
X187000000Y-101750000D02*
X187000000Y-102350000D01*
%TO.N,Net-(U1-GND-Pad13)*%
X194050000Y-100700000D02*
X193350000Y-100700000D01*
X195000000Y-101650000D02*
X194050000Y-100700000D01*
X195000000Y-102000000D02*
X195000000Y-101650000D01*
%TD*%
M02*
