M48
; DRILL file {KiCad 8.0.6} date 2025-05-31T15:31:02+0100
; FORMAT={-:-/ absolute / inch / decimal}
; #@! TF.CreationDate,2025-05-31T15:31:02+01:00
; #@! TF.GenerationSoftware,Kicad,Pcbnew,8.0.6
; #@! TF.FileFunction,Plated,1,2,PTH
FMAT,2
INCH
; #@! TA.AperFunction,Plated,PTH,ComponentDrill
T1C0.0402
%
G90
G05
T1
X4.715Y-3.3858
X4.715Y-4.0858
X4.815Y-3.3858
X4.815Y-4.0858
X4.915Y-3.3858
X4.915Y-4.0858
X5.015Y-3.3858
X5.015Y-4.0858
X5.115Y-3.3858
X5.115Y-4.0858
X5.215Y-3.3858
X5.215Y-4.0858
X5.315Y-3.3858
X5.315Y-4.0858
X5.415Y-3.3858
X5.415Y-4.0858
X5.515Y-3.3858
X5.515Y-4.0858
X5.615Y-3.3858
X5.615Y-4.0858
X5.715Y-3.3858
X5.715Y-4.0858
X5.815Y-3.3858
X5.815Y-4.0858
X5.915Y-3.3858
X5.915Y-4.0858
X6.015Y-3.3858
X6.015Y-4.0858
X6.115Y-3.3858
X6.115Y-4.0858
X6.215Y-3.3858
X6.215Y-4.0858
X6.315Y-3.3858
X6.315Y-4.0858
X6.415Y-3.3858
X6.415Y-4.0858
X6.515Y-3.3858
X6.515Y-4.0858
X6.6059Y-3.6358
X6.6059Y-3.7358
X6.6059Y-3.8358
X6.615Y-3.3858
X6.615Y-4.0858
M30
