%TF.GenerationSoftware,KiCad,Pcbnew,8.0.6*%
%TF.CreationDate,2025-05-31T15:30:40+01:00*%
%TF.ProjectId,Leo_Ground,4c656f5f-4772-46f7-956e-642e6b696361,rev?*%
%TF.SameCoordinates,Original*%
%TF.FileFunction,Soldermask,Top*%
%TF.FilePolarity,Negative*%
%FSLAX46Y46*%
G04 Gerber Fmt 4.6, Leading zero omitted, Abs format (unit mm)*
G04 Created by KiCad (PCBNEW 8.0.6) date 2025-05-31 15:30:40*
%MOMM*%
%LPD*%
G01*
G04 APERTURE LIST*
%ADD10R,1.500000X2.000000*%
%ADD11O,1.800000X1.800000*%
%ADD12O,1.500000X1.500000*%
%ADD13O,1.700000X1.700000*%
%ADD14R,1.700000X3.500000*%
%ADD15R,1.700000X1.700000*%
%ADD16R,3.500000X1.700000*%
G04 APERTURE END LIST*
D10*
%TO.C,U2*%
X195000000Y-102000000D03*
X193000000Y-102000000D03*
X191000000Y-102000000D03*
X189000000Y-102000000D03*
X187000000Y-102000000D03*
X185000000Y-102000000D03*
X183000000Y-102000000D03*
X181000000Y-102000000D03*
X181000000Y-86000000D03*
X183000000Y-86000000D03*
X185000000Y-86000000D03*
X187000000Y-86000000D03*
X189000000Y-86000000D03*
X191000000Y-86000000D03*
X193000000Y-86000000D03*
X195000000Y-86000000D03*
%TD*%
D11*
%TO.C,U1*%
X119890000Y-97615000D03*
D12*
X122920000Y-97315000D03*
X122920000Y-92465000D03*
D11*
X119890000Y-92165000D03*
D13*
X119760000Y-103780000D03*
D14*
X119760000Y-104680000D03*
D13*
X122300000Y-103780000D03*
D14*
X122300000Y-104680000D03*
D15*
X124840000Y-103780000D03*
D14*
X124840000Y-104680000D03*
D13*
X127380000Y-103780000D03*
D14*
X127380000Y-104680000D03*
D13*
X129920000Y-103780000D03*
D14*
X129920000Y-104680000D03*
D13*
X132460000Y-103780000D03*
D14*
X132460000Y-104680000D03*
D13*
X135000000Y-103780000D03*
D14*
X135000000Y-104680000D03*
D15*
X137540000Y-103780000D03*
D14*
X137540000Y-104680000D03*
D13*
X140080000Y-103780000D03*
D14*
X140080000Y-104680000D03*
D13*
X142620000Y-103780000D03*
D14*
X142620000Y-104680000D03*
D13*
X145160000Y-103780000D03*
D14*
X145160000Y-104680000D03*
D13*
X147700000Y-103780000D03*
D14*
X147700000Y-104680000D03*
D15*
X150240000Y-103780000D03*
D14*
X150240000Y-104680000D03*
D13*
X152780000Y-103780000D03*
D14*
X152780000Y-104680000D03*
D13*
X155320000Y-103780000D03*
D14*
X155320000Y-104680000D03*
D13*
X157860000Y-103780000D03*
D14*
X157860000Y-104680000D03*
D13*
X160400000Y-103780000D03*
D14*
X160400000Y-104680000D03*
D15*
X162940000Y-103780000D03*
D14*
X162940000Y-104680000D03*
D13*
X165480000Y-103780000D03*
D14*
X165480000Y-104680000D03*
D13*
X168020000Y-103780000D03*
D14*
X168020000Y-104680000D03*
D13*
X168020000Y-86000000D03*
D14*
X168020000Y-85100000D03*
D13*
X165480000Y-86000000D03*
D14*
X165480000Y-85100000D03*
D15*
X162940000Y-86000000D03*
D14*
X162940000Y-85100000D03*
D13*
X160400000Y-86000000D03*
D14*
X160400000Y-85100000D03*
D13*
X157860000Y-86000000D03*
D14*
X157860000Y-85100000D03*
D13*
X155320000Y-86000000D03*
D14*
X155320000Y-85100000D03*
D13*
X152780000Y-86000000D03*
D14*
X152780000Y-85100000D03*
D15*
X150240000Y-86000000D03*
D14*
X150240000Y-85100000D03*
D13*
X147700000Y-86000000D03*
D14*
X147700000Y-85100000D03*
D13*
X145160000Y-86000000D03*
D14*
X145160000Y-85100000D03*
D13*
X142620000Y-86000000D03*
D14*
X142620000Y-85100000D03*
D13*
X140080000Y-86000000D03*
D14*
X140080000Y-85100000D03*
D15*
X137540000Y-86000000D03*
D14*
X137540000Y-85100000D03*
D13*
X135000000Y-86000000D03*
D14*
X135000000Y-85100000D03*
D13*
X132460000Y-86000000D03*
D14*
X132460000Y-85100000D03*
D13*
X129920000Y-86000000D03*
D14*
X129920000Y-85100000D03*
D13*
X127380000Y-86000000D03*
D14*
X127380000Y-85100000D03*
D15*
X124840000Y-86000000D03*
D14*
X124840000Y-85100000D03*
D13*
X122300000Y-86000000D03*
D14*
X122300000Y-85100000D03*
D13*
X119760000Y-86000000D03*
D14*
X119760000Y-85100000D03*
D13*
X167790000Y-97430000D03*
D16*
X168690000Y-97430000D03*
D15*
X167790000Y-94890000D03*
D16*
X168690000Y-94890000D03*
D13*
X167790000Y-92350000D03*
D16*
X168690000Y-92350000D03*
%TD*%
M02*
